<svg width="85" height="27" viewBox="0 0 85 27" fill="none" xmlns="http://www.w3.org/2000/svg">
<rect x="42.5" width="7" height="7" transform="rotate(45 42.5 0)" fill="white"/>
<rect y="5" width="85" height="22" rx="5" fill="white"/>
<path d="M13.272 19.088C11.3254 19.088 10.352 18.0693 10.352 16.032C10.352 15.0133 10.6054 14.2507 11.112 13.744C11.6187 13.232 12.3494 12.976 13.304 12.976C14.1627 12.976 14.8534 13.224 15.376 13.72L14.928 14.168C14.4907 13.7733 13.9467 13.576 13.296 13.576C11.7547 13.576 10.984 14.3973 10.984 16.04C10.984 17.6773 11.7574 18.496 13.304 18.496C13.7094 18.496 14.0374 18.4427 14.288 18.336C14.5387 18.2293 14.768 18.08 14.976 17.888L15.416 18.312C14.888 18.8293 14.1734 19.088 13.272 19.088ZM19.234 19.096C17.25 19.096 16.258 18.0747 16.258 16.032C16.258 13.9947 17.25 12.976 19.234 12.976C21.2286 12.976 22.226 13.9947 22.226 16.032C22.226 18.0747 21.2286 19.096 19.234 19.096ZM19.234 18.512C20.8073 18.512 21.594 17.688 21.594 16.04C21.594 14.3973 20.8073 13.576 19.234 13.576C17.6713 13.576 16.89 14.3973 16.89 16.04C16.89 17.688 17.6713 18.512 19.234 18.512ZM23.5938 19V13.072H24.4098L26.5538 18.128L28.7138 13.072H29.5138V19H28.8978V14.12L26.8098 19H26.2818L24.1938 14.12V19H23.5938ZM31.2903 19V13.072H31.9063V19H31.2903ZM33.6792 19V13.072H34.3672L37.9112 17.96V13.072H38.5192V19H37.9432L34.2872 13.968V19H33.6792ZM42.8015 19.088C41.7722 19.088 41.0282 18.8373 40.5695 18.336C40.1162 17.8347 39.8895 17.0667 39.8895 16.032C39.8895 13.9947 40.8709 12.976 42.8335 12.976C43.7615 12.976 44.4815 13.2213 44.9935 13.712L44.5455 14.168C44.0922 13.7733 43.5215 13.576 42.8335 13.576C42.0549 13.576 41.4735 13.7787 41.0895 14.184C40.7055 14.584 40.5135 15.2027 40.5135 16.04C40.5135 16.8933 40.6922 17.5227 41.0495 17.928C41.4122 18.328 42.0042 18.528 42.8255 18.528C43.2202 18.528 43.5455 18.488 43.8015 18.408C44.0575 18.328 44.2549 18.2 44.3935 18.024C44.5375 17.8427 44.6362 17.6373 44.6895 17.408C44.7429 17.1733 44.7695 16.8827 44.7695 16.536V16.344H42.7695V15.76H45.3935V16.432C45.3935 16.7787 45.3722 17.08 45.3295 17.336C45.2922 17.5867 45.2175 17.8293 45.1055 18.064C44.9935 18.2933 44.8415 18.48 44.6495 18.624C44.4629 18.7627 44.2149 18.8747 43.9055 18.96C43.5962 19.0453 43.2282 19.088 42.8015 19.088ZM51.0631 19.08C50.1138 19.08 49.2951 18.8533 48.6071 18.4L48.9271 17.92C49.5618 18.32 50.2684 18.52 51.0471 18.52C51.6604 18.52 52.1084 18.4293 52.3911 18.248C52.6738 18.0613 52.8151 17.7653 52.8151 17.36C52.8151 17.2587 52.8044 17.1653 52.7831 17.08C52.7671 16.9947 52.7324 16.92 52.6791 16.856C52.6311 16.7867 52.5858 16.728 52.5431 16.68C52.5004 16.632 52.4284 16.5867 52.3271 16.544C52.2258 16.496 52.1431 16.4613 52.0791 16.44C52.0151 16.4133 51.9111 16.384 51.7671 16.352C51.6231 16.32 51.5111 16.296 51.4311 16.28C51.3564 16.264 51.2284 16.24 51.0471 16.208C50.7431 16.1547 50.5004 16.1067 50.3191 16.064C50.1431 16.0213 49.9511 15.96 49.7431 15.88C49.5404 15.8 49.3858 15.7067 49.2791 15.6C49.1724 15.4933 49.0818 15.3547 49.0071 15.184C48.9378 15.008 48.9031 14.8027 48.9031 14.568C48.9031 14.008 49.0791 13.6027 49.4311 13.352C49.7884 13.1013 50.3271 12.976 51.0471 12.976C51.9058 12.976 52.5938 13.152 53.1111 13.504L52.7751 14.016C52.3058 13.7067 51.7298 13.552 51.0471 13.552C50.5138 13.552 50.1271 13.632 49.8871 13.792C49.6471 13.9467 49.5271 14.2 49.5271 14.552C49.5271 14.7013 49.5538 14.8293 49.6071 14.936C49.6604 15.0427 49.7244 15.1307 49.7991 15.2C49.8791 15.2693 49.9991 15.3333 50.1591 15.392C50.3191 15.4507 50.4684 15.496 50.6071 15.528C50.7511 15.5547 50.9484 15.592 51.1991 15.64C51.4018 15.6773 51.5591 15.7067 51.6711 15.728C51.7831 15.7493 51.9218 15.7813 52.0871 15.824C52.2524 15.8613 52.3831 15.9013 52.4791 15.944C52.5751 15.9867 52.6818 16.04 52.7991 16.104C52.9164 16.1627 53.0071 16.2293 53.0711 16.304C53.1351 16.3787 53.1964 16.4667 53.2551 16.568C53.3191 16.664 53.3644 16.7787 53.3911 16.912C53.4178 17.04 53.4311 17.1813 53.4311 17.336C53.4311 17.928 53.2364 18.368 52.8471 18.656C52.4631 18.9387 51.8684 19.08 51.0631 19.08ZM57.4349 19.096C55.4509 19.096 54.4589 18.0747 54.4589 16.032C54.4589 13.9947 55.4509 12.976 57.4349 12.976C59.4296 12.976 60.4269 13.9947 60.4269 16.032C60.4269 18.0747 59.4296 19.096 57.4349 19.096ZM57.4349 18.512C59.0082 18.512 59.7949 17.688 59.7949 16.04C59.7949 14.3973 59.0082 13.576 57.4349 13.576C55.8722 13.576 55.0909 14.3973 55.0909 16.04C55.0909 17.688 55.8722 18.512 57.4349 18.512ZM64.4268 19.096C62.4428 19.096 61.4508 18.0747 61.4508 16.032C61.4508 13.9947 62.4428 12.976 64.4268 12.976C66.4214 12.976 67.4188 13.9947 67.4188 16.032C67.4188 18.0747 66.4214 19.096 64.4268 19.096ZM64.4268 18.512C66.0001 18.512 66.7868 17.688 66.7868 16.04C66.7868 14.3973 66.0001 13.576 64.4268 13.576C62.8641 13.576 62.0828 14.3973 62.0828 16.04C62.0828 17.688 62.8641 18.512 64.4268 18.512ZM68.7867 19V13.072H69.4747L73.0187 17.96V13.072H73.6267V19H73.0507L69.3947 13.968V19H68.7867Z" fill="black"/>
</svg>
