<svg width="209" height="206" viewBox="0 0 209 206" fill="none" xmlns="http://www.w3.org/2000/svg">
<path d="M128.683 75.2839L63.5063 36.002L74.3168 78.2574L34.9917 143.362L77.2936 132.564L142.47 172.002L131.659 129.59L170.985 64.6418L128.683 75.2839Z" fill="url(#paint0_linear_1616_484)"/>
<path d="M116.987 41.002C116.987 29.9563 125.942 21.002 136.987 21.002H155.985C164.269 21.002 170.985 27.7177 170.985 36.002C170.985 44.2862 164.269 51.002 155.985 51.002H116.987V41.002Z" fill="black"/>
<path d="M141.171 35.282V31.506H138.835V35.282H134.979V37.522H138.835V41.298H141.171V37.522H145.027V35.282H141.171ZM152.515 30.802H151.267L146.307 31.282V33.522L149.827 33.186V39.858H145.827V42.002H155.875V39.858H152.515V30.802Z" fill="white"/>
<defs>
<linearGradient id="paint0_linear_1616_484" x1="63.8197" y1="36.002" x2="144.219" y2="171.923" gradientUnits="userSpaceOnUse">
<stop stop-color="#FFD916"/>
<stop offset="0.46875" stop-color="#FF1914"/>
<stop offset="1" stop-color="#6705FF"/>
</linearGradient>
</defs>
</svg>
