<svg width="488" height="185" viewBox="0 0 488 185" fill="none" xmlns="http://www.w3.org/2000/svg">
<path d="M244 34H249V44H244C230.745 44 220 54.7452 220 68V73H210V68C210 49.2223 225.222 34 244 34Z" fill="white"/>
<path fill-rule="evenodd" clip-rule="evenodd" d="M199.882 125.314C184.375 112.364 174.5 92.9321 174.5 71.164C174.5 32.0629 206.362 0.5 245.5 0.5C284.637 0.5 316.5 32.0629 316.5 71.164C316.5 110.265 284.637 141.828 245.5 141.828C237.854 141.828 230.485 140.623 223.578 138.393L196.238 180.667L173.566 166.005L199.882 125.314ZM245.5 27.5C269.875 27.5 289.5 47.1235 289.5 71.164C289.5 95.2047 269.875 114.828 245.5 114.828C238.013 114.828 230.975 112.977 224.816 109.715C224.771 109.691 224.726 109.667 224.681 109.643L224.606 109.604C210.826 102.211 201.5 87.7372 201.5 71.164C201.5 47.1235 221.124 27.5 245.5 27.5Z" fill="white"/>
<path fill-rule="evenodd" clip-rule="evenodd" d="M123.291 87.3151V1.84041H79.264L0.420898 88.7888V113.473H88.843V140H123.291V113.473H146.133V87.3151H123.291ZM88.843 87.3151V29.3627L36.3974 87.3151H88.843Z" fill="white"/>
<path fill-rule="evenodd" clip-rule="evenodd" d="M464.732 87.3151V1.84041H420.705L341.862 88.7888V113.473H430.284V140H464.732V113.473H487.574V87.3151H464.732ZM430.284 87.3151V29.3627L377.839 87.3151H430.284Z" fill="white"/>
<path fill-rule="evenodd" clip-rule="evenodd" d="M300.481 162.216V180H302.329V173.16H308.257C310.321 173.16 311.841 172.688 312.817 171.744C313.793 170.8 314.281 169.392 314.281 167.52C314.281 165.696 313.793 164.36 312.817 163.512C311.857 162.648 310.345 162.216 308.281 162.216H300.481ZM308.305 171.408H302.329V163.968H308.233C309.673 163.968 310.729 164.24 311.401 164.784C312.073 165.312 312.409 166.248 312.409 167.592C312.409 168.952 312.065 169.928 311.377 170.52C310.705 171.112 309.681 171.408 308.305 171.408Z" fill="white"/>
<path fill-rule="evenodd" clip-rule="evenodd" d="M317.542 179.208C318.23 179.896 319.438 180.24 321.166 180.24C322.606 180.24 323.726 180.088 324.526 179.784C325.342 179.48 325.958 179.008 326.374 178.368C326.486 178.976 326.686 179.408 326.974 179.664C327.278 179.904 327.798 180.024 328.534 180.024C328.934 180.024 329.174 180.008 329.254 179.976V178.392C328.63 178.392 328.246 178.304 328.102 178.128C327.958 177.952 327.886 177.504 327.886 176.784V171.792C327.886 170.768 327.822 169.952 327.694 169.344C327.582 168.72 327.342 168.176 326.974 167.712C326.606 167.248 326.078 166.92 325.39 166.728C324.718 166.536 323.822 166.44 322.702 166.44C321.694 166.44 320.726 166.592 319.798 166.896C318.886 167.184 318.166 167.512 317.638 167.88L318.598 169.296C319.766 168.528 321.086 168.144 322.558 168.144C323.31 168.144 323.918 168.208 324.382 168.336C324.862 168.448 325.222 168.648 325.462 168.936C325.718 169.224 325.886 169.56 325.966 169.944C326.062 170.312 326.118 170.8 326.134 171.408H325.342C321.966 171.408 319.646 171.76 318.382 172.464C317.134 173.152 316.51 174.432 316.51 176.304C316.51 177.552 316.854 178.52 317.542 179.208ZM325.03 177.576C324.294 178.312 323.094 178.68 321.43 178.68C320.262 178.68 319.438 178.472 318.958 178.056C318.494 177.64 318.262 177.016 318.262 176.184C318.262 175.32 318.462 174.672 318.862 174.24C319.278 173.808 319.982 173.504 320.974 173.328C321.982 173.152 323.47 173.064 325.438 173.064H326.134V174.024C326.134 175.64 325.766 176.824 325.03 177.576Z" fill="white"/>
<path fill-rule="evenodd" clip-rule="evenodd" d="M335.6 174.936C336.272 175.08 337.04 175.152 337.904 175.152C339.792 175.152 341.176 174.808 342.056 174.12C342.936 173.432 343.376 172.352 343.376 170.88C343.376 169.248 342.784 168.112 341.6 167.472H343.808V165.96L339.2 166.512C338.784 166.464 338.352 166.44 337.904 166.44C336.032 166.44 334.656 166.808 333.776 167.544C332.912 168.264 332.48 169.376 332.48 170.88C332.48 172.512 333.024 173.672 334.112 174.36C333.696 174.888 333.488 175.48 333.488 176.136C333.488 176.936 333.768 177.456 334.328 177.696C332.584 178.048 331.712 179.144 331.712 180.984C331.712 182.264 332.176 183.136 333.104 183.6C334.032 184.064 335.608 184.296 337.832 184.296C340.2 184.296 341.88 183.976 342.872 183.336C343.864 182.712 344.36 181.704 344.36 180.312C344.36 178.984 343.904 178.088 342.992 177.624C342.08 177.16 340.408 176.928 337.976 176.928C336.872 176.928 336.128 176.864 335.744 176.736C335.376 176.608 335.192 176.336 335.192 175.92C335.192 175.584 335.328 175.256 335.6 174.936ZM340.712 172.944C340.152 173.36 339.216 173.568 337.904 173.568C336.608 173.568 335.672 173.36 335.096 172.944C334.536 172.512 334.256 171.824 334.256 170.88C334.256 169.92 334.536 169.224 335.096 168.792C335.672 168.36 336.608 168.144 337.904 168.144C340.352 168.144 341.576 169.056 341.576 170.88C341.576 171.824 341.288 172.512 340.712 172.944ZM341.528 182.208C340.888 182.592 339.672 182.784 337.88 182.784C336.328 182.784 335.216 182.632 334.544 182.328C333.872 182.04 333.536 181.504 333.536 180.72C333.536 180.384 333.584 180.096 333.68 179.856C333.792 179.616 333.984 179.392 334.256 179.184C334.544 178.96 334.992 178.792 335.6 178.68C336.208 178.568 336.968 178.512 337.88 178.512C339.672 178.512 340.888 178.64 341.528 178.896C342.184 179.136 342.512 179.648 342.512 180.432C342.512 181.248 342.184 181.84 341.528 182.208Z" fill="white"/>
<path fill-rule="evenodd" clip-rule="evenodd" d="M350.1 179.76C350.98 180.096 352.06 180.264 353.34 180.264C355.404 180.264 357.156 179.712 358.596 178.608L357.612 177.336C356.988 177.784 356.364 178.12 355.74 178.344C355.132 178.568 354.332 178.68 353.34 178.68C351.612 178.68 350.42 178.288 349.764 177.504C349.124 176.704 348.78 175.528 348.732 173.976H358.716C358.732 173.304 358.732 172.752 358.716 172.32C358.7 171.888 358.652 171.384 358.572 170.808C358.508 170.232 358.404 169.76 358.26 169.392C358.132 169.008 357.932 168.616 357.66 168.216C357.388 167.8 357.06 167.48 356.676 167.256C356.308 167.016 355.828 166.824 355.236 166.68C354.66 166.52 354.004 166.44 353.268 166.44C352.02 166.44 350.972 166.616 350.124 166.968C349.276 167.304 348.628 167.808 348.18 168.48C347.748 169.136 347.436 169.856 347.244 170.64C347.068 171.408 346.98 172.312 346.98 173.352C346.98 174.408 347.06 175.32 347.22 176.088C347.396 176.856 347.7 177.576 348.132 178.248C348.58 178.904 349.236 179.408 350.1 179.76ZM349.884 169.152C350.54 168.432 351.652 168.072 353.22 168.072C353.892 168.072 354.46 168.152 354.924 168.312C355.404 168.472 355.764 168.664 356.004 168.888C356.26 169.096 356.46 169.416 356.604 169.848C356.748 170.264 356.836 170.632 356.868 170.952C356.916 171.272 356.956 171.728 356.988 172.32H348.756C348.868 170.928 349.244 169.872 349.884 169.152Z" fill="white"/>
<path d="M369.423 166.848V180H371.247V172.56C371.247 171.152 371.535 170.08 372.111 169.344C372.687 168.608 373.791 168.24 375.423 168.24C376.207 168.24 376.839 168.328 377.319 168.504C377.815 168.68 378.167 168.976 378.375 169.392C378.599 169.792 378.743 170.192 378.807 170.592C378.871 170.992 378.903 171.536 378.903 172.224V180H380.727V171.912C380.727 170.984 380.671 170.232 380.559 169.656C380.463 169.064 380.255 168.504 379.935 167.976C379.631 167.448 379.151 167.064 378.495 166.824C377.839 166.568 376.991 166.44 375.951 166.44C373.391 166.44 371.751 167.008 371.031 168.144L370.863 166.752L369.423 166.848Z" fill="white"/>
<path fill-rule="evenodd" clip-rule="evenodd" d="M391.002 180.264C393.242 180.264 394.866 179.696 395.874 178.56C396.898 177.424 397.41 175.688 397.41 173.352C397.41 171.016 396.898 169.28 395.874 168.144C394.866 167.008 393.242 166.44 391.002 166.44C388.762 166.44 387.138 167.008 386.13 168.144C385.122 169.28 384.618 171.016 384.618 173.352C384.618 175.688 385.122 177.424 386.13 178.56C387.138 179.696 388.762 180.264 391.002 180.264ZM391.002 178.608C389.386 178.608 388.218 178.176 387.498 177.312C386.794 176.448 386.442 175.144 386.442 173.4C386.442 171.64 386.794 170.328 387.498 169.464C388.218 168.6 389.386 168.168 391.002 168.168C392.618 168.168 393.778 168.6 394.482 169.464C395.202 170.328 395.562 171.64 395.562 173.4C395.562 175.144 395.202 176.448 394.482 177.312C393.778 178.176 392.618 178.608 391.002 178.608Z" fill="white"/>
<path d="M400.286 166.752V168.408H402.662V176.592C402.662 177.808 402.894 178.688 403.358 179.232C403.838 179.76 404.782 180.024 406.19 180.024C407.342 180.024 407.982 180.016 408.11 180V178.392H406.478C405.63 178.392 405.078 178.232 404.822 177.912C404.582 177.592 404.462 177.08 404.462 176.376V168.408H408.11V166.752H404.462V162.504L403.022 162.768L402.71 166.752H400.286Z" fill="white"/>
<path d="M417.605 166.752V168.408H420.101V180H421.901V168.408H425.477V166.752H421.901V165.528C421.901 164.712 422.069 164.088 422.405 163.656C422.741 163.208 423.349 162.984 424.229 162.984H425.477V161.376H424.037C422.565 161.376 421.541 161.736 420.965 162.456C420.389 163.16 420.101 164.184 420.101 165.528V166.752H417.605Z" fill="white"/>
<path fill-rule="evenodd" clip-rule="evenodd" d="M433.982 180.264C436.222 180.264 437.846 179.696 438.854 178.56C439.878 177.424 440.39 175.688 440.39 173.352C440.39 171.016 439.878 169.28 438.854 168.144C437.846 167.008 436.222 166.44 433.982 166.44C431.742 166.44 430.118 167.008 429.11 168.144C428.102 169.28 427.598 171.016 427.598 173.352C427.598 175.688 428.102 177.424 429.11 178.56C430.118 179.696 431.742 180.264 433.982 180.264ZM433.982 178.608C432.366 178.608 431.198 178.176 430.478 177.312C429.774 176.448 429.422 175.144 429.422 173.4C429.422 171.64 429.774 170.328 430.478 169.464C431.198 168.6 432.366 168.168 433.982 168.168C435.598 168.168 436.758 168.6 437.462 169.464C438.182 170.328 438.542 171.64 438.542 173.4C438.542 175.144 438.182 176.448 437.462 177.312C436.758 178.176 435.598 178.608 433.982 178.608Z" fill="white"/>
<path d="M446.891 179.88C447.675 180.12 448.691 180.24 449.939 180.24C450.947 180.24 451.795 180.152 452.483 179.976C453.171 179.784 453.707 179.552 454.091 179.28C454.491 178.992 454.795 178.584 455.003 178.056C455.227 177.528 455.363 177.008 455.411 176.496C455.475 175.968 455.507 175.296 455.507 174.48V166.752H453.731V174.504C453.731 174.952 453.723 175.272 453.707 175.464C453.707 175.656 453.683 175.936 453.635 176.304C453.603 176.656 453.539 176.92 453.443 177.096C453.363 177.256 453.227 177.456 453.035 177.696C452.859 177.92 452.635 178.088 452.363 178.2C452.107 178.296 451.771 178.384 451.355 178.464C450.955 178.544 450.483 178.584 449.939 178.584C449.395 178.584 448.915 178.544 448.499 178.464C448.099 178.384 447.763 178.296 447.491 178.2C447.219 178.088 446.987 177.92 446.795 177.696C446.619 177.472 446.483 177.272 446.387 177.096C446.291 176.92 446.219 176.664 446.171 176.328C446.142 176.126 446.119 175.95 446.102 175.8C446.094 175.732 446.087 175.669 446.082 175.612C446.079 175.585 446.077 175.56 446.075 175.536V166.752H444.275V174.552C444.275 175.56 444.331 176.368 444.443 176.976C444.555 177.568 444.795 178.144 445.163 178.704C445.547 179.248 446.123 179.64 446.891 179.88Z" fill="white"/>
<path d="M460.049 166.848V180H461.873V172.56C461.873 171.152 462.161 170.08 462.737 169.344C463.313 168.608 464.417 168.24 466.049 168.24C466.833 168.24 467.465 168.328 467.945 168.504C468.441 168.68 468.793 168.976 469.001 169.392C469.225 169.792 469.369 170.192 469.433 170.592C469.497 170.992 469.529 171.536 469.529 172.224V180H471.353V171.912C471.353 170.984 471.297 170.232 471.185 169.656C471.089 169.064 470.881 168.504 470.561 167.976C470.257 167.448 469.777 167.064 469.121 166.824C468.465 166.568 467.617 166.44 466.577 166.44C464.017 166.44 462.377 167.008 461.657 168.144L461.489 166.752L460.049 166.848Z" fill="white"/>
<path fill-rule="evenodd" clip-rule="evenodd" d="M476.516 178.464C477.364 179.648 478.836 180.24 480.932 180.24C482.372 180.24 483.492 180.096 484.292 179.808C485.092 179.504 485.708 179.016 486.14 178.344L486.356 180.048L487.772 179.928V161.376H485.948V168.24C485.596 167.616 485.036 167.168 484.268 166.896C483.5 166.608 482.404 166.464 480.98 166.464C478.884 166.464 477.404 167.048 476.54 168.216C475.676 169.384 475.244 171.08 475.244 173.304C475.244 175.56 475.668 177.28 476.516 178.464ZM484.868 177.384C484.164 178.168 482.964 178.56 481.268 178.56C479.7 178.56 478.612 178.128 478.004 177.264C477.396 176.384 477.092 175.064 477.092 173.304C477.092 171.576 477.396 170.288 478.004 169.44C478.612 168.592 479.7 168.168 481.268 168.168C482.996 168.168 484.204 168.544 484.892 169.296C485.596 170.048 485.948 171.384 485.948 173.304C485.948 175.24 485.588 176.6 484.868 177.384Z" fill="white"/>
</svg>
