<svg width="122" height="125" viewBox="0 0 122 125" fill="none" xmlns="http://www.w3.org/2000/svg">
<g id="Group 243">
<path id="Ellipse 60" d="M80.6534 54C78.7602 43.2042 69.3382 35 58 35C45.2975 35 35 45.2975 35 58C35 70.7025 45.2975 81 58 81C61.7828 81 65.3522 80.0868 68.5 78.4688" stroke="white" stroke-width="2"/>
<circle id="Ellipse 61" cx="58" cy="58" r="8" stroke="white" stroke-width="2"/>
<path id="Ellipse 59" d="M113.939 47C108.814 20.7834 85.7173 1 58 1C26.5198 1 1 26.5198 1 58C1 85.8279 20.9417 108.998 47.3142 114" stroke="white" stroke-width="2"/>
<path id="Vector 67" d="M75.4999 65L120.5 53.5V95.5C120.5 114 106.5 120.476 101 115.5C90.5 106 104 88 117.5 94.5V66.5L79 77V103.5C79 117 73.5 124 62.9999 124C43.5 124 61 95.5 75.4999 102V65Z" stroke="white" stroke-width="2"/>
</g>
</svg>
