<svg width="466" height="702" viewBox="0 0 466 702" fill="none" xmlns="http://www.w3.org/2000/svg">
<rect width="466" height="702" rx="10" fill="black"/>
<path d="M0 483C1.5 483 1.74502 478.843 2.98583 475C22.8126 413.593 55.286 368.225 108.5 373C164 377.98 299.5 543.499 306.5 430.499C313.5 317.499 123.5 227.499 133 171.5C142.5 115.5 236 92.5 300.5 138" stroke="url(#paint0_linear_964_1178)"/>
<path d="M426 172.5C426 225.795 382.795 269 329.5 269C276.205 269 233 225.795 233 172.5C233 119.205 276.205 76 329.5 76C382.795 76 426 119.205 426 172.5ZM285.749 172.5C285.749 196.663 305.337 216.251 329.5 216.251C353.663 216.251 373.251 196.663 373.251 172.5C373.251 148.337 353.663 128.749 329.5 128.749C305.337 128.749 285.749 148.337 285.749 172.5Z" fill="white"/>
<path d="M153.5 457C153.5 459.761 151.26 462.013 148.502 461.87C137.537 461.302 126.737 458.865 116.571 454.654C104.863 449.805 94.225 442.697 85.2642 433.736C76.3033 424.775 69.1952 414.137 64.3456 402.429C59.496 390.721 57 378.173 57 365.5C57 352.827 59.496 340.279 64.3456 328.571C69.1952 316.863 76.3033 306.225 85.2642 297.264C94.2251 288.303 104.863 281.195 116.571 276.346C126.737 272.135 137.537 269.698 148.502 269.129C151.26 268.986 153.5 271.239 153.5 274L153.5 365.5L153.5 457Z" fill="white"/>
<path d="M133.67 135.5C135.594 132.167 140.406 132.167 142.33 135.5L171.775 186.5C173.699 189.833 171.294 194 167.445 194H108.555C104.706 194 102.301 189.833 104.225 186.5L133.67 135.5Z" fill="white"/>
<rect x="251" y="329" width="105" height="105" rx="10" fill="white"/>
<path d="M57.6704 564.986V563.698H57.9924C58.3564 563.698 58.5897 563.633 58.6924 563.502C58.795 563.371 58.8464 563.119 58.8464 562.746V554.626H67.4844V565H66.0564V555.956H60.2604V562.984C60.2604 563.721 60.1204 564.244 59.8404 564.552C59.5697 564.86 59.1077 565.014 58.4544 565.014C58.0624 565.014 57.801 565.005 57.6704 564.986ZM73.1271 565.154C71.7831 565.154 70.8078 564.818 70.2011 564.146C69.5945 563.474 69.2911 562.457 69.2911 561.094C69.2911 559.731 69.5945 558.714 70.2011 558.042C70.8078 557.37 71.7831 557.034 73.1271 557.034C74.4805 557.034 75.4605 557.37 76.0671 558.042C76.6738 558.714 76.9771 559.731 76.9771 561.094C76.9771 562.457 76.6738 563.474 76.0671 564.146C75.4605 564.818 74.4805 565.154 73.1271 565.154ZM71.2231 563.222C71.6058 563.689 72.2405 563.922 73.1271 563.922C74.0138 563.922 74.6438 563.689 75.0171 563.222C75.3998 562.755 75.5911 562.055 75.5911 561.122C75.5911 560.189 75.3998 559.493 75.0171 559.036C74.6438 558.569 74.0138 558.336 73.1271 558.336C72.2405 558.336 71.6058 558.569 71.2231 559.036C70.8498 559.493 70.6631 560.189 70.6631 561.122C70.6631 562.055 70.8498 562.755 71.2231 563.222ZM78.6105 565V557.216H84.4765V558.448H79.9825V565H78.6105ZM88.8771 565.154C87.5331 565.154 86.5578 564.818 85.9511 564.146C85.3445 563.474 85.0411 562.457 85.0411 561.094C85.0411 559.731 85.3445 558.714 85.9511 558.042C86.5578 557.37 87.5331 557.034 88.8771 557.034C90.2305 557.034 91.2105 557.37 91.8171 558.042C92.4238 558.714 92.7271 559.731 92.7271 561.094C92.7271 562.457 92.4238 563.474 91.8171 564.146C91.2105 564.818 90.2305 565.154 88.8771 565.154ZM86.9731 563.222C87.3558 563.689 87.9905 563.922 88.8771 563.922C89.7638 563.922 90.3938 563.689 90.7671 563.222C91.1498 562.755 91.3411 562.055 91.3411 561.122C91.3411 560.189 91.1498 559.493 90.7671 559.036C90.3938 558.569 89.7638 558.336 88.8771 558.336C87.9905 558.336 87.3558 558.569 86.9731 559.036C86.5998 559.493 86.4131 560.189 86.4131 561.122C86.4131 562.055 86.5998 562.755 86.9731 563.222ZM96.5585 565V558.448H93.6885V557.216H100.801V558.448H97.9305V565H96.5585ZM102.14 565V557.216H103.47V562.746L107.572 557.216H109.056V565H107.726V559.148L103.386 565H102.14ZM111.081 565V557.216H117.955V565H116.597V558.42H112.425V565H111.081Z" fill="white"/>
<rect x="30.5" y="541.5" width="115" height="36" rx="18" stroke="white"/>
<path d="M191.839 565V564.272C190.224 564.188 188.978 563.768 188.101 563.012C187.233 562.256 186.799 561.187 186.799 559.806C186.799 558.434 187.233 557.375 188.101 556.628C188.978 555.872 190.224 555.447 191.839 555.354V554.626H193.253V555.354C194.877 555.447 196.123 555.872 196.991 556.628C197.868 557.375 198.307 558.434 198.307 559.806C198.307 561.187 197.868 562.256 196.991 563.012C196.113 563.768 194.867 564.188 193.253 564.272V565H191.839ZM196.879 559.834C196.879 558.919 196.585 558.182 195.997 557.622C195.409 557.062 194.494 556.74 193.253 556.656V562.998C194.494 562.914 195.409 562.592 195.997 562.032C196.585 561.472 196.879 560.739 196.879 559.834ZM189.109 557.622C188.521 558.182 188.227 558.919 188.227 559.834C188.227 560.749 188.521 561.486 189.109 562.046C189.697 562.597 190.607 562.914 191.839 562.998V556.656C190.607 556.74 189.697 557.062 189.109 557.622ZM199.893 565V557.216H201.223V562.746L205.325 557.216H206.809V565H205.479V559.148L201.139 565H199.893ZM208.834 567.31V557.286L209.912 557.216L210.024 558.042C210.454 557.37 211.462 557.034 213.048 557.034C214.28 557.034 215.144 557.384 215.638 558.084C216.133 558.784 216.38 559.787 216.38 561.094C216.38 562.382 216.124 563.376 215.61 564.076C215.106 564.776 214.234 565.126 212.992 565.126C212.199 565.126 211.588 565.051 211.158 564.902C210.729 564.753 210.412 564.515 210.206 564.188V567.31H208.834ZM212.754 563.894C213.594 563.894 214.178 563.665 214.504 563.208C214.831 562.741 214.994 562.051 214.994 561.136C214.994 560.212 214.831 559.517 214.504 559.05C214.187 558.574 213.604 558.336 212.754 558.336C211.83 558.336 211.172 558.546 210.78 558.966C210.398 559.386 210.206 560.109 210.206 561.136C210.206 562.163 210.393 562.881 210.766 563.292C211.149 563.693 211.812 563.894 212.754 563.894ZM218.022 565V557.216H219.744L222.404 563.208L225.05 557.216H226.744V565H225.386V559.344L222.908 565H221.788L219.296 559.344V565H218.022ZM232.048 565.154C231.422 565.154 230.881 565.084 230.424 564.944C229.966 564.804 229.598 564.617 229.318 564.384C229.047 564.151 228.828 563.857 228.66 563.502C228.492 563.138 228.375 562.769 228.31 562.396C228.254 562.013 228.226 561.579 228.226 561.094C228.226 560.487 228.277 559.96 228.38 559.512C228.492 559.055 228.678 558.63 228.94 558.238C229.21 557.846 229.602 557.547 230.116 557.342C230.638 557.137 231.273 557.034 232.02 557.034C232.468 557.034 232.864 557.081 233.21 557.174C233.555 557.267 233.844 557.384 234.078 557.524C234.311 557.664 234.507 557.86 234.666 558.112C234.824 558.355 234.946 558.593 235.03 558.826C235.114 559.05 235.174 559.339 235.212 559.694C235.258 560.039 235.286 560.347 235.296 560.618C235.305 560.889 235.305 561.225 235.296 561.626H229.542C229.588 562.401 229.789 562.989 230.144 563.39C230.508 563.782 231.142 563.978 232.048 563.978C232.626 563.978 233.098 563.917 233.462 563.796C233.826 563.665 234.18 563.469 234.526 563.208L235.254 564.16C234.404 564.823 233.336 565.154 232.048 565.154ZM231.978 558.238C231.138 558.238 230.54 558.425 230.186 558.798C229.831 559.162 229.621 559.703 229.556 560.422H234.008C233.989 560.123 233.966 559.89 233.938 559.722C233.919 559.545 233.868 559.349 233.784 559.134C233.709 558.919 233.602 558.756 233.462 558.644C233.331 558.532 233.14 558.439 232.888 558.364C232.636 558.28 232.332 558.238 231.978 558.238ZM236.998 565V557.216H238.37V560.31H242.528V557.216H243.886V565H242.528V561.598H238.37V565H236.998ZM245.912 565V557.216H247.284V560.31H251.442V557.216H252.8V565H251.442V561.598H247.284V565H245.912ZM254.826 565V557.216H256.17V559.47H258.97C260.856 559.47 261.798 560.371 261.798 562.172C261.798 563.068 261.565 563.763 261.098 564.258C260.641 564.753 259.922 565 258.942 565H254.826ZM256.17 563.866H258.746C259.306 563.866 259.722 563.735 259.992 563.474C260.272 563.213 260.412 562.797 260.412 562.228C260.412 561.659 260.277 561.253 260.006 561.01C259.736 560.758 259.306 560.632 258.718 560.632H256.17V563.866ZM262.61 565V557.216H263.982V565H262.61ZM265.996 565V557.216H267.326V562.746L271.428 557.216H272.912V565H271.582V559.148L267.242 565H265.996ZM269.44 556.572C268.563 556.572 267.924 556.376 267.522 555.984C267.13 555.592 266.864 555.032 266.724 554.304L267.732 554.094C267.835 554.551 268.008 554.892 268.25 555.116C268.493 555.34 268.89 555.452 269.44 555.452C269.991 555.452 270.388 555.34 270.63 555.116C270.873 554.892 271.046 554.551 271.148 554.094L272.17 554.29C272.012 555.027 271.732 555.592 271.33 555.984C270.938 556.376 270.308 556.572 269.44 556.572ZM280.992 565.168C279.518 565.168 278.337 564.907 277.45 564.384L278.052 563.306C278.846 563.735 279.779 563.95 280.852 563.95C281.72 563.95 282.308 563.871 282.616 563.712C282.924 563.553 283.078 563.208 283.078 562.676C283.078 562.34 283.022 562.093 282.91 561.934C282.808 561.766 282.584 561.64 282.238 561.556C281.893 561.472 281.37 561.43 280.67 561.43H278.948V560.212H280.642C281.548 560.212 282.14 560.151 282.42 560.03C282.71 559.899 282.854 559.615 282.854 559.176C282.854 558.793 282.714 558.546 282.434 558.434C282.154 558.322 281.618 558.266 280.824 558.266C279.779 558.266 278.939 558.443 278.304 558.798L277.632 557.734C278.015 557.51 278.524 557.337 279.158 557.216C279.793 557.095 280.414 557.034 281.02 557.034C282.159 557.034 282.98 557.169 283.484 557.44C283.988 557.711 284.24 558.196 284.24 558.896C284.24 559.437 284.166 559.843 284.016 560.114C283.867 560.385 283.596 560.581 283.204 560.702C283.708 560.833 284.04 561.052 284.198 561.36C284.366 561.659 284.45 562.135 284.45 562.788C284.45 563.693 284.175 564.319 283.624 564.664C283.074 565 282.196 565.168 280.992 565.168ZM286.19 565V557.216H287.562V560.31H291.72V557.216H293.078V565H291.72V561.598H287.562V565H286.19ZM297.428 565.14C296.382 565.14 295.654 564.935 295.244 564.524C294.842 564.104 294.642 563.525 294.642 562.788C294.642 561.687 295.006 560.935 295.734 560.534C296.471 560.133 297.82 559.932 299.78 559.932H300.2C300.181 559.325 300.046 558.905 299.794 558.672C299.551 558.429 299.038 558.308 298.254 558.308C297.423 558.308 296.658 558.527 295.958 558.966L295.244 557.902C295.561 557.687 296.004 557.491 296.574 557.314C297.152 557.127 297.754 557.034 298.38 557.034C299.042 557.034 299.579 557.09 299.99 557.202C300.4 557.314 300.718 557.505 300.942 557.776C301.166 558.047 301.315 558.364 301.39 558.728C301.474 559.092 301.516 559.568 301.516 560.156V562.928C301.516 563.311 301.553 563.553 301.628 563.656C301.712 563.749 301.931 563.796 302.286 563.796V564.986C302.22 565.005 302.034 565.014 301.726 565.014C301.306 565.014 301.002 564.949 300.816 564.818C300.638 564.687 300.498 564.459 300.396 564.132C299.92 564.804 298.93 565.14 297.428 565.14ZM297.652 563.964C298.548 563.964 299.196 563.777 299.598 563.404C299.999 563.021 300.2 562.41 300.2 561.57V561.094H299.85C298.767 561.094 297.95 561.145 297.4 561.248C296.849 561.341 296.466 561.5 296.252 561.724C296.046 561.939 295.944 562.261 295.944 562.69C295.944 563.129 296.07 563.451 296.322 563.656C296.574 563.861 297.017 563.964 297.652 563.964ZM305.225 557.216V560.212H306.331L308.697 557.216H310.265L307.395 560.786L310.545 565H308.949L306.345 561.472H305.225V565H303.881V557.216H305.225Z" fill="white"/>
<rect x="159.5" y="541.5" width="178" height="36" rx="18" stroke="white"/>
<path d="M58.5002 612V601.542H59.9142V610.726H64.8982V601.542H66.3122V610.726H71.2962V601.542H72.6962V612H58.5002ZM74.8752 614.31V604.286L75.9532 604.216L76.0652 605.042C76.4945 604.37 77.5025 604.034 79.0892 604.034C80.3212 604.034 81.1845 604.384 81.6792 605.084C82.1739 605.784 82.4212 606.787 82.4212 608.094C82.4212 609.382 82.1645 610.376 81.6512 611.076C81.1472 611.776 80.2745 612.126 79.0332 612.126C78.2399 612.126 77.6285 612.051 77.1992 611.902C76.7699 611.753 76.4525 611.515 76.2472 611.188V614.31H74.8752ZM78.7952 610.894C79.6352 610.894 80.2185 610.665 80.5452 610.208C80.8719 609.741 81.0352 609.051 81.0352 608.136C81.0352 607.212 80.8719 606.517 80.5452 606.05C80.2279 605.574 79.6445 605.336 78.7952 605.336C77.8712 605.336 77.2132 605.546 76.8212 605.966C76.4385 606.386 76.2472 607.109 76.2472 608.136C76.2472 609.163 76.4339 609.881 76.8072 610.292C77.1899 610.693 77.8525 610.894 78.7952 610.894ZM84.0627 612V604.216H85.3927V609.746L89.4947 604.216H90.9787V612H89.6487V606.148L85.3087 612H84.0627ZM98.8001 614.31V611.174C98.5574 611.51 98.2121 611.757 97.7641 611.916C97.3254 612.065 96.7281 612.14 95.9721 612.14C94.7494 612.14 93.8861 611.79 93.3821 611.09C92.8781 610.381 92.6261 609.373 92.6261 608.066C92.6261 606.778 92.8781 605.784 93.3821 605.084C93.8954 604.384 94.7728 604.034 96.0141 604.034C97.4981 604.034 98.4268 604.347 98.8001 604.972V601.136H100.102V604.986C100.503 604.351 101.455 604.034 102.958 604.034C104.181 604.034 105.039 604.384 105.534 605.084C106.029 605.784 106.276 606.787 106.276 608.094C106.276 609.391 106.024 610.39 105.52 611.09C105.016 611.781 104.139 612.126 102.888 612.126C102.104 612.126 101.493 612.051 101.054 611.902C100.625 611.753 100.307 611.515 100.102 611.188V614.31H98.8001ZM96.2661 610.894C97.1808 610.894 97.8294 610.679 98.2121 610.25C98.6041 609.821 98.8001 609.093 98.8001 608.066C98.8001 607.049 98.6134 606.339 98.2401 605.938C97.8668 605.527 97.2088 605.322 96.2661 605.322C95.4168 605.322 94.8288 605.551 94.5021 606.008C94.1754 606.465 94.0121 607.151 94.0121 608.066C94.0121 608.999 94.1754 609.704 94.5021 610.18C94.8288 610.656 95.4168 610.894 96.2661 610.894ZM102.65 610.894C103.49 610.894 104.073 610.665 104.4 610.208C104.736 609.741 104.904 609.051 104.904 608.136C104.904 607.212 104.741 606.517 104.414 606.05C104.087 605.574 103.499 605.336 102.65 605.336C101.726 605.336 101.068 605.546 100.676 605.966C100.293 606.386 100.102 607.109 100.102 608.136C100.102 609.163 100.289 609.881 100.662 610.292C101.045 610.693 101.707 610.894 102.65 610.894ZM109.968 612V605.448H107.098V604.216H114.21V605.448H111.34V612H109.968ZM118.693 612.154C117.349 612.154 116.373 611.818 115.767 611.146C115.16 610.474 114.857 609.457 114.857 608.094C114.857 606.731 115.16 605.714 115.767 605.042C116.373 604.37 117.349 604.034 118.693 604.034C120.046 604.034 121.026 604.37 121.633 605.042C122.239 605.714 122.543 606.731 122.543 608.094C122.543 609.457 122.239 610.474 121.633 611.146C121.026 611.818 120.046 612.154 118.693 612.154ZM116.789 610.222C117.171 610.689 117.806 610.922 118.693 610.922C119.579 610.922 120.209 610.689 120.583 610.222C120.965 609.755 121.157 609.055 121.157 608.122C121.157 607.189 120.965 606.493 120.583 606.036C120.209 605.569 119.579 605.336 118.693 605.336C117.806 605.336 117.171 605.569 116.789 606.036C116.415 606.493 116.229 607.189 116.229 608.122C116.229 609.055 116.415 609.755 116.789 610.222ZM124.176 612V604.216H128.082C129.081 604.216 129.804 604.356 130.252 604.636C130.7 604.916 130.924 605.401 130.924 606.092C130.924 606.605 130.854 607.007 130.714 607.296C130.574 607.585 130.308 607.791 129.916 607.912C130.364 608.024 130.677 608.229 130.854 608.528C131.041 608.827 131.134 609.265 131.134 609.844C131.134 610.684 130.891 611.253 130.406 611.552C129.921 611.851 129.127 612 128.026 612H124.176ZM125.464 610.81H128.138C128.735 610.81 129.16 610.731 129.412 610.572C129.673 610.413 129.804 610.115 129.804 609.676C129.804 609.275 129.673 608.995 129.412 608.836C129.151 608.668 128.717 608.584 128.11 608.584H125.464V610.81ZM125.464 607.408H128.11C128.67 607.408 129.057 607.324 129.272 607.156C129.496 606.979 129.608 606.713 129.608 606.358C129.608 606.013 129.496 605.775 129.272 605.644C129.048 605.504 128.661 605.434 128.11 605.434H125.464V607.408ZM132.858 612V604.216H134.202V606.47H137.002C138.887 606.47 139.83 607.371 139.83 609.172C139.83 610.068 139.596 610.763 139.13 611.258C138.672 611.753 137.954 612 136.974 612H132.858ZM134.202 610.866H136.778C137.338 610.866 137.753 610.735 138.024 610.474C138.304 610.213 138.444 609.797 138.444 609.228C138.444 608.659 138.308 608.253 138.038 608.01C137.767 607.758 137.338 607.632 136.75 607.632H134.202V610.866ZM140.642 612V604.216H142.014V612H140.642ZM147.472 612.154C146.846 612.154 146.305 612.084 145.848 611.944C145.39 611.804 145.022 611.617 144.742 611.384C144.471 611.151 144.252 610.857 144.084 610.502C143.916 610.138 143.799 609.769 143.734 609.396C143.678 609.013 143.65 608.579 143.65 608.094C143.65 607.487 143.701 606.96 143.804 606.512C143.916 606.055 144.102 605.63 144.364 605.238C144.634 604.846 145.026 604.547 145.54 604.342C146.062 604.137 146.697 604.034 147.444 604.034C147.892 604.034 148.288 604.081 148.634 604.174C148.979 604.267 149.268 604.384 149.502 604.524C149.735 604.664 149.931 604.86 150.09 605.112C150.248 605.355 150.37 605.593 150.454 605.826C150.538 606.05 150.598 606.339 150.636 606.694C150.682 607.039 150.71 607.347 150.72 607.618C150.729 607.889 150.729 608.225 150.72 608.626H144.966C145.012 609.401 145.213 609.989 145.568 610.39C145.932 610.782 146.566 610.978 147.472 610.978C148.05 610.978 148.522 610.917 148.886 610.796C149.25 610.665 149.604 610.469 149.95 610.208L150.678 611.16C149.828 611.823 148.76 612.154 147.472 612.154ZM147.402 605.238C146.562 605.238 145.964 605.425 145.61 605.798C145.255 606.162 145.045 606.703 144.98 607.422H149.432C149.413 607.123 149.39 606.89 149.362 606.722C149.343 606.545 149.292 606.349 149.208 606.134C149.133 605.919 149.026 605.756 148.886 605.644C148.755 605.532 148.564 605.439 148.312 605.364C148.06 605.28 147.756 605.238 147.402 605.238ZM155.649 612V604.216H162.523V612H161.165V605.42H156.993V612H155.649ZM166.873 612.14C165.828 612.14 165.1 611.935 164.689 611.524C164.288 611.104 164.087 610.525 164.087 609.788C164.087 608.687 164.451 607.935 165.179 607.534C165.916 607.133 167.265 606.932 169.225 606.932H169.645C169.626 606.325 169.491 605.905 169.239 605.672C168.996 605.429 168.483 605.308 167.699 605.308C166.868 605.308 166.103 605.527 165.403 605.966L164.689 604.902C165.006 604.687 165.45 604.491 166.019 604.314C166.598 604.127 167.2 604.034 167.825 604.034C168.488 604.034 169.024 604.09 169.435 604.202C169.846 604.314 170.163 604.505 170.387 604.776C170.611 605.047 170.76 605.364 170.835 605.728C170.919 606.092 170.961 606.568 170.961 607.156V609.928C170.961 610.311 170.998 610.553 171.073 610.656C171.157 610.749 171.376 610.796 171.731 610.796V611.986C171.666 612.005 171.479 612.014 171.171 612.014C170.751 612.014 170.448 611.949 170.261 611.818C170.084 611.687 169.944 611.459 169.841 611.132C169.365 611.804 168.376 612.14 166.873 612.14ZM167.097 610.964C167.993 610.964 168.642 610.777 169.043 610.404C169.444 610.021 169.645 609.41 169.645 608.57V608.094H169.295C168.212 608.094 167.396 608.145 166.845 608.248C166.294 608.341 165.912 608.5 165.697 608.724C165.492 608.939 165.389 609.261 165.389 609.69C165.389 610.129 165.515 610.451 165.767 610.656C166.019 610.861 166.462 610.964 167.097 610.964ZM173.326 614.31V604.286L174.404 604.216L174.516 605.042C174.946 604.37 175.954 604.034 177.54 604.034C178.772 604.034 179.636 604.384 180.13 605.084C180.625 605.784 180.872 606.787 180.872 608.094C180.872 609.382 180.616 610.376 180.102 611.076C179.598 611.776 178.726 612.126 177.484 612.126C176.691 612.126 176.08 612.051 175.65 611.902C175.221 611.753 174.904 611.515 174.698 611.188V614.31H173.326ZM177.246 610.894C178.086 610.894 178.67 610.665 178.996 610.208C179.323 609.741 179.486 609.051 179.486 608.136C179.486 607.212 179.323 606.517 178.996 606.05C178.679 605.574 178.096 605.336 177.246 605.336C176.322 605.336 175.664 605.546 175.272 605.966C174.89 606.386 174.698 607.109 174.698 608.136C174.698 609.163 174.885 609.881 175.258 610.292C175.641 610.693 176.304 610.894 177.246 610.894ZM182.514 612V604.216H183.858V606.47H186.658C188.543 606.47 189.486 607.371 189.486 609.172C189.486 610.068 189.253 610.763 188.786 611.258C188.329 611.753 187.61 612 186.63 612H182.514ZM183.858 610.866H186.434C186.994 610.866 187.409 610.735 187.68 610.474C187.96 610.213 188.1 609.797 188.1 609.228C188.1 608.659 187.965 608.253 187.694 608.01C187.423 607.758 186.994 607.632 186.406 607.632H183.858V610.866ZM190.298 612V604.216H191.67V612H190.298Z" fill="white"/>
<rect x="30.5" y="588.5" width="189" height="36" rx="18" stroke="white"/>
<path d="M273.791 614.324V612H265.419V601.626H266.833V610.726H272.629V601.626H274.029V610.698H275.219V614.324H273.791ZM276.872 612V604.216H280.778C281.777 604.216 282.5 604.356 282.948 604.636C283.396 604.916 283.62 605.401 283.62 606.092C283.62 606.605 283.55 607.007 283.41 607.296C283.27 607.585 283.004 607.791 282.612 607.912C283.06 608.024 283.373 608.229 283.55 608.528C283.737 608.827 283.83 609.265 283.83 609.844C283.83 610.684 283.588 611.253 283.102 611.552C282.617 611.851 281.824 612 280.722 612H276.872ZM278.16 610.81H280.834C281.432 610.81 281.856 610.731 282.108 610.572C282.37 610.413 282.5 610.115 282.5 609.676C282.5 609.275 282.37 608.995 282.108 608.836C281.847 608.668 281.413 608.584 280.806 608.584H278.16V610.81ZM278.16 607.408H280.806C281.366 607.408 281.754 607.324 281.968 607.156C282.192 606.979 282.304 606.713 282.304 606.358C282.304 606.013 282.192 605.775 281.968 605.644C281.744 605.504 281.357 605.434 280.806 605.434H278.16V607.408ZM288.998 612.154C288.373 612.154 287.831 612.084 287.374 611.944C286.917 611.804 286.548 611.617 286.268 611.384C285.997 611.151 285.778 610.857 285.61 610.502C285.442 610.138 285.325 609.769 285.26 609.396C285.204 609.013 285.176 608.579 285.176 608.094C285.176 607.487 285.227 606.96 285.33 606.512C285.442 606.055 285.629 605.63 285.89 605.238C286.161 604.846 286.553 604.547 287.066 604.342C287.589 604.137 288.223 604.034 288.97 604.034C289.418 604.034 289.815 604.081 290.16 604.174C290.505 604.267 290.795 604.384 291.028 604.524C291.261 604.664 291.457 604.86 291.616 605.112C291.775 605.355 291.896 605.593 291.98 605.826C292.064 606.05 292.125 606.339 292.162 606.694C292.209 607.039 292.237 607.347 292.246 607.618C292.255 607.889 292.255 608.225 292.246 608.626H286.492C286.539 609.401 286.739 609.989 287.094 610.39C287.458 610.782 288.093 610.978 288.998 610.978C289.577 610.978 290.048 610.917 290.412 610.796C290.776 610.665 291.131 610.469 291.476 610.208L292.204 611.16C291.355 611.823 290.286 612.154 288.998 612.154ZM288.928 605.238C288.088 605.238 287.491 605.425 287.136 605.798C286.781 606.162 286.571 606.703 286.506 607.422H290.958C290.939 607.123 290.916 606.89 290.888 606.722C290.869 606.545 290.818 606.349 290.734 606.134C290.659 605.919 290.552 605.756 290.412 605.644C290.281 605.532 290.09 605.439 289.838 605.364C289.586 605.28 289.283 605.238 288.928 605.238ZM296.146 612V605.448H293.276V604.216H300.388V605.448H297.518V612H296.146ZM304.871 612.154C303.527 612.154 302.552 611.818 301.945 611.146C301.339 610.474 301.035 609.457 301.035 608.094C301.035 606.731 301.339 605.714 301.945 605.042C302.552 604.37 303.527 604.034 304.871 604.034C306.225 604.034 307.205 604.37 307.811 605.042C308.418 605.714 308.721 606.731 308.721 608.094C308.721 609.457 308.418 610.474 307.811 611.146C307.205 611.818 306.225 612.154 304.871 612.154ZM302.967 610.222C303.35 610.689 303.985 610.922 304.871 610.922C305.758 610.922 306.388 610.689 306.761 610.222C307.144 609.755 307.335 609.055 307.335 608.122C307.335 607.189 307.144 606.493 306.761 606.036C306.388 605.569 305.758 605.336 304.871 605.336C303.985 605.336 303.35 605.569 302.967 606.036C302.594 606.493 302.407 607.189 302.407 608.122C302.407 609.055 302.594 609.755 302.967 610.222ZM310.355 612V604.216H314.261C315.259 604.216 315.983 604.356 316.431 604.636C316.879 604.916 317.103 605.401 317.103 606.092C317.103 606.605 317.033 607.007 316.893 607.296C316.753 607.585 316.487 607.791 316.095 607.912C316.543 608.024 316.855 608.229 317.033 608.528C317.219 608.827 317.313 609.265 317.313 609.844C317.313 610.684 317.07 611.253 316.585 611.552C316.099 611.851 315.306 612 314.205 612H310.355ZM311.643 610.81H314.317C314.914 610.81 315.339 610.731 315.591 610.572C315.852 610.413 315.983 610.115 315.983 609.676C315.983 609.275 315.852 608.995 315.591 608.836C315.329 608.668 314.895 608.584 314.289 608.584H311.643V610.81ZM311.643 607.408H314.289C314.849 607.408 315.236 607.324 315.451 607.156C315.675 606.979 315.787 606.713 315.787 606.358C315.787 606.013 315.675 605.775 315.451 605.644C315.227 605.504 314.839 605.434 314.289 605.434H311.643V607.408ZM321.429 612.14C320.383 612.14 319.655 611.935 319.245 611.524C318.843 611.104 318.643 610.525 318.643 609.788C318.643 608.687 319.007 607.935 319.735 607.534C320.472 607.133 321.821 606.932 323.781 606.932H324.201C324.182 606.325 324.047 605.905 323.795 605.672C323.552 605.429 323.039 605.308 322.255 605.308C321.424 605.308 320.659 605.527 319.959 605.966L319.245 604.902C319.562 604.687 320.005 604.491 320.575 604.314C321.153 604.127 321.755 604.034 322.381 604.034C323.043 604.034 323.58 604.09 323.991 604.202C324.401 604.314 324.719 604.505 324.943 604.776C325.167 605.047 325.316 605.364 325.391 605.728C325.475 606.092 325.517 606.568 325.517 607.156V609.928C325.517 610.311 325.554 610.553 325.629 610.656C325.713 610.749 325.932 610.796 326.287 610.796V611.986C326.221 612.005 326.035 612.014 325.727 612.014C325.307 612.014 325.003 611.949 324.817 611.818C324.639 611.687 324.499 611.459 324.397 611.132C323.921 611.804 322.931 612.14 321.429 612.14ZM321.653 610.964C322.549 610.964 323.197 610.777 323.599 610.404C324 610.021 324.201 609.41 324.201 608.57V608.094H323.851C322.768 608.094 321.951 608.145 321.401 608.248C320.85 608.341 320.467 608.5 320.253 608.724C320.047 608.939 319.945 609.261 319.945 609.69C319.945 610.129 320.071 610.451 320.323 610.656C320.575 610.861 321.018 610.964 321.653 610.964ZM327.66 612L329.298 609.144C328.131 608.864 327.548 608.061 327.548 606.736C327.548 605.056 328.504 604.216 330.418 604.216H334.66V612H333.302V609.27H330.684L329.116 612H327.66ZM330.446 608.108H333.302V605.42H330.474C329.942 605.42 329.55 605.518 329.298 605.714C329.055 605.91 328.934 606.265 328.934 606.778C328.934 607.282 329.055 607.632 329.298 607.828C329.54 608.015 329.923 608.108 330.446 608.108ZM339.9 612V604.216H346.774V612H345.416V605.42H341.244V612H339.9ZM351.124 612.14C350.079 612.14 349.351 611.935 348.94 611.524C348.539 611.104 348.338 610.525 348.338 609.788C348.338 608.687 348.702 607.935 349.43 607.534C350.167 607.133 351.516 606.932 353.476 606.932H353.896C353.877 606.325 353.742 605.905 353.49 605.672C353.247 605.429 352.734 605.308 351.95 605.308C351.119 605.308 350.354 605.527 349.654 605.966L348.94 604.902C349.257 604.687 349.701 604.491 350.27 604.314C350.849 604.127 351.451 604.034 352.076 604.034C352.739 604.034 353.275 604.09 353.686 604.202C354.097 604.314 354.414 604.505 354.638 604.776C354.862 605.047 355.011 605.364 355.086 605.728C355.17 606.092 355.212 606.568 355.212 607.156V609.928C355.212 610.311 355.249 610.553 355.324 610.656C355.408 610.749 355.627 610.796 355.982 610.796V611.986C355.917 612.005 355.73 612.014 355.422 612.014C355.002 612.014 354.699 611.949 354.512 611.818C354.335 611.687 354.195 611.459 354.092 611.132C353.616 611.804 352.627 612.14 351.124 612.14ZM351.348 610.964C352.244 610.964 352.893 610.777 353.294 610.404C353.695 610.021 353.896 609.41 353.896 608.57V608.094H353.546C352.463 608.094 351.647 608.145 351.096 608.248C350.545 608.341 350.163 608.5 349.948 608.724C349.743 608.939 349.64 609.261 349.64 609.69C349.64 610.129 349.766 610.451 350.018 610.656C350.27 610.861 350.713 610.964 351.348 610.964ZM357.021 611.986V610.796H357.329C357.693 610.796 357.931 610.731 358.043 610.6C358.155 610.469 358.211 610.213 358.211 609.83V604.216H365.071V612H363.713V605.42H359.555V609.984C359.555 610.731 359.425 611.258 359.163 611.566C358.902 611.865 358.445 612.014 357.791 612.014C357.39 612.014 357.133 612.005 357.021 611.986ZM367.107 612V604.216H368.437V609.746L372.539 604.216H374.023V612H372.693V606.148L368.353 612H367.107ZM378.246 612V605.448H375.376V604.216H382.488V605.448H379.618V612H378.246ZM383.827 614.31V604.286L384.905 604.216L385.017 605.042C385.447 604.37 386.455 604.034 388.041 604.034C389.273 604.034 390.137 604.384 390.631 605.084C391.126 605.784 391.373 606.787 391.373 608.094C391.373 609.382 391.117 610.376 390.603 611.076C390.099 611.776 389.227 612.126 387.985 612.126C387.192 612.126 386.581 612.051 386.151 611.902C385.722 611.753 385.405 611.515 385.199 611.188V614.31H383.827ZM387.747 610.894C388.587 610.894 389.171 610.665 389.497 610.208C389.824 609.741 389.987 609.051 389.987 608.136C389.987 607.212 389.824 606.517 389.497 606.05C389.18 605.574 388.597 605.336 387.747 605.336C386.823 605.336 386.165 605.546 385.773 605.966C385.391 606.386 385.199 607.109 385.199 608.136C385.199 609.163 385.386 609.881 385.759 610.292C386.142 610.693 386.805 610.894 387.747 610.894ZM395.311 612.14C394.266 612.14 393.538 611.935 393.127 611.524C392.726 611.104 392.525 610.525 392.525 609.788C392.525 608.687 392.889 607.935 393.617 607.534C394.355 607.133 395.703 606.932 397.663 606.932H398.083C398.065 606.325 397.929 605.905 397.677 605.672C397.435 605.429 396.921 605.308 396.137 605.308C395.307 605.308 394.541 605.527 393.841 605.966L393.127 604.902C393.445 604.687 393.888 604.491 394.457 604.314C395.036 604.127 395.638 604.034 396.263 604.034C396.926 604.034 397.463 604.09 397.873 604.202C398.284 604.314 398.601 604.505 398.825 604.776C399.049 605.047 399.199 605.364 399.273 605.728C399.357 606.092 399.399 606.568 399.399 607.156V609.928C399.399 610.311 399.437 610.553 399.511 610.656C399.595 610.749 399.815 610.796 400.169 610.796V611.986C400.104 612.005 399.917 612.014 399.609 612.014C399.189 612.014 398.886 611.949 398.699 611.818C398.522 611.687 398.382 611.459 398.279 611.132C397.803 611.804 396.814 612.14 395.311 612.14ZM395.535 610.964C396.431 610.964 397.08 610.777 397.481 610.404C397.883 610.021 398.083 609.41 398.083 608.57V608.094H397.733C396.651 608.094 395.834 608.145 395.283 608.248C394.733 608.341 394.35 608.5 394.135 608.724C393.93 608.939 393.827 609.261 393.827 609.69C393.827 610.129 393.953 610.451 394.205 610.656C394.457 610.861 394.901 610.964 395.535 610.964Z" fill="white"/>
<rect x="237.5" y="588.5" width="190" height="36" rx="18" stroke="white"/>
<path d="M58.2893 659V648.626H62.8673C64.0713 648.626 64.9486 648.836 65.4993 649.256C66.0593 649.667 66.3393 650.311 66.3393 651.188C66.3393 652.495 65.9053 653.283 65.0373 653.554C65.6066 653.694 66.0079 653.969 66.2413 654.38C66.4839 654.791 66.6053 655.374 66.6053 656.13C66.6053 657.175 66.2926 657.917 65.6673 658.356C65.0513 658.785 64.0899 659 62.7833 659H58.2893ZM59.6753 657.726H62.9373C63.7119 657.726 64.2766 657.591 64.6313 657.32C64.9953 657.049 65.1773 656.611 65.1773 656.004C65.1773 655.407 64.9953 654.977 64.6313 654.716C64.2766 654.455 63.7026 654.324 62.9093 654.324H59.6753V657.726ZM59.6753 653.008H62.9093C63.6559 653.008 64.1739 652.868 64.4633 652.588C64.7619 652.308 64.9113 651.907 64.9113 651.384C64.9113 650.889 64.7526 650.521 64.4353 650.278C64.1273 650.035 63.6186 649.914 62.9093 649.914H59.6753V653.008ZM68.1564 659V651.216H69.4864V656.746L73.5884 651.216H75.0724V659H73.7424V653.148L69.4024 659H68.1564ZM79.9258 659.168C78.4512 659.168 77.2705 658.907 76.3838 658.384L76.9858 657.306C77.7792 657.735 78.7125 657.95 79.7858 657.95C80.6538 657.95 81.2418 657.871 81.5498 657.712C81.8578 657.553 82.0118 657.208 82.0118 656.676C82.0118 656.34 81.9558 656.093 81.8438 655.934C81.7412 655.766 81.5172 655.64 81.1718 655.556C80.8265 655.472 80.3038 655.43 79.6038 655.43H77.8818V654.212H79.5758C80.4812 654.212 81.0738 654.151 81.3538 654.03C81.6432 653.899 81.7878 653.615 81.7878 653.176C81.7878 652.793 81.6478 652.546 81.3678 652.434C81.0878 652.322 80.5512 652.266 79.7578 652.266C78.7125 652.266 77.8725 652.443 77.2378 652.798L76.5658 651.734C76.9485 651.51 77.4572 651.337 78.0918 651.216C78.7265 651.095 79.3472 651.034 79.9538 651.034C81.0925 651.034 81.9138 651.169 82.4178 651.44C82.9218 651.711 83.1738 652.196 83.1738 652.896C83.1738 653.437 83.0992 653.843 82.9498 654.114C82.8005 654.385 82.5298 654.581 82.1378 654.702C82.6418 654.833 82.9732 655.052 83.1318 655.36C83.2998 655.659 83.3838 656.135 83.3838 656.788C83.3838 657.693 83.1085 658.319 82.5578 658.664C82.0072 659 81.1298 659.168 79.9258 659.168ZM85.8252 661.352C85.4612 661.352 85.2232 661.347 85.1112 661.338V660.232H85.7132C86.0959 660.232 86.3665 660.181 86.5252 660.078C86.6932 659.985 86.8239 659.798 86.9172 659.518L87.1552 658.916L84.1312 651.216H85.5872L87.8692 657.292L90.1372 651.216H91.5652L88.2612 659.658C88.0279 660.274 87.7339 660.708 87.3792 660.96C87.0245 661.221 86.5065 661.352 85.8252 661.352ZM94.789 659.14C93.7437 659.14 93.0157 658.935 92.605 658.524C92.2037 658.104 92.003 657.525 92.003 656.788C92.003 655.687 92.367 654.935 93.095 654.534C93.8324 654.133 95.181 653.932 97.141 653.932H97.561C97.5424 653.325 97.407 652.905 97.155 652.672C96.9124 652.429 96.399 652.308 95.615 652.308C94.7844 652.308 94.019 652.527 93.319 652.966L92.605 651.902C92.9224 651.687 93.3657 651.491 93.935 651.314C94.5137 651.127 95.1157 651.034 95.741 651.034C96.4037 651.034 96.9404 651.09 97.351 651.202C97.7617 651.314 98.079 651.505 98.303 651.776C98.527 652.047 98.6764 652.364 98.751 652.728C98.835 653.092 98.877 653.568 98.877 654.156V656.928C98.877 657.311 98.9144 657.553 98.989 657.656C99.073 657.749 99.2924 657.796 99.647 657.796V658.986C99.5817 659.005 99.395 659.014 99.087 659.014C98.667 659.014 98.3637 658.949 98.177 658.818C97.9997 658.687 97.8597 658.459 97.757 658.132C97.281 658.804 96.2917 659.14 94.789 659.14ZM95.013 657.964C95.909 657.964 96.5577 657.777 96.959 657.404C97.3604 657.021 97.561 656.41 97.561 655.57V655.094H97.211C96.1284 655.094 95.3117 655.145 94.761 655.248C94.2104 655.341 93.8277 655.5 93.613 655.724C93.4077 655.939 93.305 656.261 93.305 656.69C93.305 657.129 93.431 657.451 93.683 657.656C93.935 657.861 94.3784 657.964 95.013 657.964ZM100.686 658.986V657.796H100.994C101.358 657.796 101.596 657.731 101.708 657.6C101.82 657.469 101.876 657.213 101.876 656.83V651.216H108.736V659H107.378V652.42H103.22V656.984C103.22 657.731 103.09 658.258 102.828 658.566C102.567 658.865 102.11 659.014 101.456 659.014C101.055 659.014 100.798 659.005 100.686 658.986ZM110.772 659V651.216H112.102V656.746L116.204 651.216H117.688V659H116.358V653.148L112.018 659H110.772ZM122.541 659.168C121.066 659.168 119.886 658.907 118.999 658.384L119.601 657.306C120.394 657.735 121.328 657.95 122.401 657.95C123.269 657.95 123.857 657.871 124.165 657.712C124.473 657.553 124.627 657.208 124.627 656.676C124.627 656.34 124.571 656.093 124.459 655.934C124.356 655.766 124.132 655.64 123.787 655.556C123.442 655.472 122.919 655.43 122.219 655.43H120.497V654.212H122.191C123.096 654.212 123.689 654.151 123.969 654.03C124.258 653.899 124.403 653.615 124.403 653.176C124.403 652.793 124.263 652.546 123.983 652.434C123.703 652.322 123.166 652.266 122.373 652.266C121.328 652.266 120.488 652.443 119.853 652.798L119.181 651.734C119.564 651.51 120.072 651.337 120.707 651.216C121.342 651.095 121.962 651.034 122.569 651.034C123.708 651.034 124.529 651.169 125.033 651.44C125.537 651.711 125.789 652.196 125.789 652.896C125.789 653.437 125.714 653.843 125.565 654.114C125.416 654.385 125.145 654.581 124.753 654.702C125.257 654.833 125.588 655.052 125.747 655.36C125.915 655.659 125.999 656.135 125.999 656.788C125.999 657.693 125.724 658.319 125.173 658.664C124.622 659 123.745 659.168 122.541 659.168ZM130.062 659.14C129.017 659.14 128.289 658.935 127.878 658.524C127.477 658.104 127.276 657.525 127.276 656.788C127.276 655.687 127.64 654.935 128.368 654.534C129.106 654.133 130.454 653.932 132.414 653.932H132.834C132.816 653.325 132.68 652.905 132.428 652.672C132.186 652.429 131.672 652.308 130.888 652.308C130.058 652.308 129.292 652.527 128.592 652.966L127.878 651.902C128.196 651.687 128.639 651.491 129.208 651.314C129.787 651.127 130.389 651.034 131.014 651.034C131.677 651.034 132.214 651.09 132.624 651.202C133.035 651.314 133.352 651.505 133.576 651.776C133.8 652.047 133.95 652.364 134.024 652.728C134.108 653.092 134.15 653.568 134.15 654.156V656.928C134.15 657.311 134.188 657.553 134.262 657.656C134.346 657.749 134.566 657.796 134.92 657.796V658.986C134.855 659.005 134.668 659.014 134.36 659.014C133.94 659.014 133.637 658.949 133.45 658.818C133.273 658.687 133.133 658.459 133.03 658.132C132.554 658.804 131.565 659.14 130.062 659.14ZM130.286 657.964C131.182 657.964 131.831 657.777 132.232 657.404C132.634 657.021 132.834 656.41 132.834 655.57V655.094H132.484C131.402 655.094 130.585 655.145 130.034 655.248C129.484 655.341 129.101 655.5 128.886 655.724C128.681 655.939 128.578 656.261 128.578 656.69C128.578 657.129 128.704 657.451 128.956 657.656C129.208 657.861 129.652 657.964 130.286 657.964ZM143.278 661.324V659H136.516V651.216H137.888V657.824H142.046V651.216H143.39V657.796H144.566V661.324H143.278ZM146.196 659V651.216H147.526V656.746L151.628 651.216H153.112V659H151.782V653.148L147.442 659H146.196ZM154.983 659L156.621 656.144C155.454 655.864 154.871 655.061 154.871 653.736C154.871 652.056 155.828 651.216 157.741 651.216H161.983V659H160.625V656.27H158.007L156.439 659H154.983ZM157.769 655.108H160.625V652.42H157.797C157.265 652.42 156.873 652.518 156.621 652.714C156.378 652.91 156.257 653.265 156.257 653.778C156.257 654.282 156.378 654.632 156.621 654.828C156.864 655.015 157.246 655.108 157.769 655.108ZM167.223 659V651.216H168.595V654.31H172.753V651.216H174.111V659H172.753V655.598H168.595V659H167.223ZM178.461 659.14C177.416 659.14 176.688 658.935 176.277 658.524C175.876 658.104 175.675 657.525 175.675 656.788C175.675 655.687 176.039 654.935 176.767 654.534C177.504 654.133 178.853 653.932 180.813 653.932H181.233C181.214 653.325 181.079 652.905 180.827 652.672C180.584 652.429 180.071 652.308 179.287 652.308C178.456 652.308 177.691 652.527 176.991 652.966L176.277 651.902C176.594 651.687 177.038 651.491 177.607 651.314C178.186 651.127 178.788 651.034 179.413 651.034C180.076 651.034 180.612 651.09 181.023 651.202C181.434 651.314 181.751 651.505 181.975 651.776C182.199 652.047 182.348 652.364 182.423 652.728C182.507 653.092 182.549 653.568 182.549 654.156V656.928C182.549 657.311 182.586 657.553 182.661 657.656C182.745 657.749 182.964 657.796 183.319 657.796V658.986C183.254 659.005 183.067 659.014 182.759 659.014C182.339 659.014 182.036 658.949 181.849 658.818C181.672 658.687 181.532 658.459 181.429 658.132C180.953 658.804 179.964 659.14 178.461 659.14ZM178.685 657.964C179.581 657.964 180.23 657.777 180.631 657.404C181.032 657.021 181.233 656.41 181.233 655.57V655.094H180.883C179.8 655.094 178.984 655.145 178.433 655.248C177.882 655.341 177.5 655.5 177.285 655.724C177.08 655.939 176.977 656.261 176.977 656.69C176.977 657.129 177.103 657.451 177.355 657.656C177.607 657.861 178.05 657.964 178.685 657.964ZM188.141 659V651.216H189.513V654.31H193.671V651.216H195.029V659H193.671V655.598H189.513V659H188.141ZM200.513 659.154C199.169 659.154 198.194 658.818 197.587 658.146C196.98 657.474 196.677 656.457 196.677 655.094C196.677 653.731 196.98 652.714 197.587 652.042C198.194 651.37 199.169 651.034 200.513 651.034C201.866 651.034 202.846 651.37 203.453 652.042C204.06 652.714 204.363 653.731 204.363 655.094C204.363 656.457 204.06 657.474 203.453 658.146C202.846 658.818 201.866 659.154 200.513 659.154ZM198.609 657.222C198.992 657.689 199.626 657.922 200.513 657.922C201.4 657.922 202.03 657.689 202.403 657.222C202.786 656.755 202.977 656.055 202.977 655.122C202.977 654.189 202.786 653.493 202.403 653.036C202.03 652.569 201.4 652.336 200.513 652.336C199.626 652.336 198.992 652.569 198.609 653.036C198.236 653.493 198.049 654.189 198.049 655.122C198.049 656.055 198.236 656.755 198.609 657.222ZM209.412 659.14C208.003 659.14 207.018 658.795 206.458 658.104C205.898 657.404 205.618 656.401 205.618 655.094C205.618 653.778 205.898 652.775 206.458 652.084C207.028 651.384 208.031 651.034 209.468 651.034C210.71 651.034 211.676 651.421 212.366 652.196L211.372 653.134C210.868 652.611 210.234 652.35 209.468 652.35C208.554 652.35 207.91 652.583 207.536 653.05C207.172 653.507 206.99 654.198 206.99 655.122C206.99 656.055 207.172 656.755 207.536 657.222C207.9 657.689 208.544 657.922 209.468 657.922C210.196 657.922 210.854 657.656 211.442 657.124L212.352 657.992C211.923 658.384 211.489 658.673 211.05 658.86C210.612 659.047 210.066 659.14 209.412 659.14ZM213.967 659V651.216H215.297V656.746L219.399 651.216H220.883V659H219.553V653.148L215.213 659H213.967ZM225.106 659V652.448H222.236V651.216H229.348V652.448H226.478V659H225.106ZM233.817 659.154C233.192 659.154 232.651 659.084 232.193 658.944C231.736 658.804 231.367 658.617 231.087 658.384C230.817 658.151 230.597 657.857 230.429 657.502C230.261 657.138 230.145 656.769 230.079 656.396C230.023 656.013 229.995 655.579 229.995 655.094C229.995 654.487 230.047 653.96 230.149 653.512C230.261 653.055 230.448 652.63 230.709 652.238C230.98 651.846 231.372 651.547 231.885 651.342C232.408 651.137 233.043 651.034 233.789 651.034C234.237 651.034 234.634 651.081 234.979 651.174C235.325 651.267 235.614 651.384 235.847 651.524C236.081 651.664 236.277 651.86 236.435 652.112C236.594 652.355 236.715 652.593 236.799 652.826C236.883 653.05 236.944 653.339 236.981 653.694C237.028 654.039 237.056 654.347 237.065 654.618C237.075 654.889 237.075 655.225 237.065 655.626H231.311C231.358 656.401 231.559 656.989 231.913 657.39C232.277 657.782 232.912 657.978 233.817 657.978C234.396 657.978 234.867 657.917 235.231 657.796C235.595 657.665 235.95 657.469 236.295 657.208L237.023 658.16C236.174 658.823 235.105 659.154 233.817 659.154ZM233.747 652.238C232.907 652.238 232.31 652.425 231.955 652.798C231.601 653.162 231.391 653.703 231.325 654.422H235.777C235.759 654.123 235.735 653.89 235.707 653.722C235.689 653.545 235.637 653.349 235.553 653.134C235.479 652.919 235.371 652.756 235.231 652.644C235.101 652.532 234.909 652.439 234.657 652.364C234.405 652.28 234.102 652.238 233.747 652.238ZM238.171 658.986V657.796H238.479C238.843 657.796 239.081 657.731 239.193 657.6C239.305 657.469 239.361 657.213 239.361 656.83V651.216H246.221V659H244.863V652.42H240.705V656.984C240.705 657.731 240.574 658.258 240.313 658.566C240.051 658.865 239.594 659.014 238.941 659.014C238.539 659.014 238.283 659.005 238.171 658.986ZM248.102 659L249.74 656.144C248.573 655.864 247.99 655.061 247.99 653.736C247.99 652.056 248.947 651.216 250.86 651.216H255.102V659H253.744V656.27H251.126L249.558 659H248.102ZM250.888 655.108H253.744V652.42H250.916C250.384 652.42 249.992 652.518 249.74 652.714C249.497 652.91 249.376 653.265 249.376 653.778C249.376 654.282 249.497 654.632 249.74 654.828C249.983 655.015 250.365 655.108 250.888 655.108ZM262.141 659L259.943 655.92L257.815 659H256.331L259.229 654.94L256.583 651.216H258.095L260.041 653.946L261.959 651.216H263.429L260.755 654.954L263.667 659H262.141Z" fill="white"/>
<rect x="30.5" y="635.5" width="260" height="36" rx="18" stroke="white"/>
<defs>
<linearGradient id="paint0_linear_964_1178" x1="65.0124" y1="113.828" x2="300.33" y2="444.336" gradientUnits="userSpaceOnUse">
<stop stop-color="#FFD916"/>
<stop offset="0.46875" stop-color="#FF1914"/>
<stop offset="1" stop-color="#6705FF"/>
</linearGradient>
</defs>
</svg>
