<svg width="18" height="18" viewBox="0 0 19 20" fill="none" xmlns="http://www.w3.org/2000/svg">
<path d="M11.9917 4.9985L5.49171 11.4985C5.09388 11.8963 4.87039 12.4359 4.87039 12.9985C4.87039 13.5611 5.09388 14.1007 5.49171 14.4985C5.88953 14.8963 6.4291 15.1198 6.99171 15.1198C7.55432 15.1198 8.09388 14.8963 8.49171 14.4985L14.9917 7.9985C15.7874 7.20285 16.2343 6.12372 16.2343 4.9985C16.2343 3.87328 15.7874 2.79415 14.9917 1.9985C14.1961 1.20285 13.1169 0.755859 11.9917 0.755859C10.8665 0.755859 9.78736 1.20285 8.99171 1.9985L2.49171 8.4985C1.29823 9.69197 0.627747 11.3107 0.627747 12.9985C0.627747 14.6863 1.29823 16.305 2.49171 17.4985C3.68518 18.692 5.30388 19.3625 6.99171 19.3625C8.67954 19.3625 10.2982 18.692 11.4917 17.4985L17.9917 10.9985" stroke="black" stroke-linecap="round" stroke-linejoin="round"/>
</svg>
