<svg width="89" height="22" viewBox="0 0 89 22" fill="none" xmlns="http://www.w3.org/2000/svg">
<rect x="83.9498" y="6" width="7" height="7" transform="rotate(45 83.9498 6)" fill="white"/>
<rect x="0.449707" width="85" height="22" rx="5" fill="white"/>
<path d="M13.7217 14.088C11.775 14.088 10.8017 13.0693 10.8017 11.032C10.8017 10.0133 11.055 9.25067 11.5617 8.744C12.0684 8.232 12.799 7.976 13.7537 7.976C14.6124 7.976 15.303 8.224 15.8257 8.72L15.3777 9.168C14.9404 8.77333 14.3964 8.576 13.7457 8.576C12.2044 8.576 11.4337 9.39733 11.4337 11.04C11.4337 12.6773 12.207 13.496 13.7537 13.496C14.159 13.496 14.487 13.4427 14.7377 13.336C14.9884 13.2293 15.2177 13.08 15.4257 12.888L15.8657 13.312C15.3377 13.8293 14.623 14.088 13.7217 14.088ZM19.6836 14.096C17.6996 14.096 16.7076 13.0747 16.7076 11.032C16.7076 8.99467 17.6996 7.976 19.6836 7.976C21.6783 7.976 22.6756 8.99467 22.6756 11.032C22.6756 13.0747 21.6783 14.096 19.6836 14.096ZM19.6836 13.512C21.257 13.512 22.0436 12.688 22.0436 11.04C22.0436 9.39733 21.257 8.576 19.6836 8.576C18.121 8.576 17.3396 9.39733 17.3396 11.04C17.3396 12.688 18.121 13.512 19.6836 13.512ZM24.0435 14V8.072H24.8595L27.0035 13.128L29.1635 8.072H29.9635V14H29.3475V9.12L27.2595 14H26.7315L24.6435 9.12V14H24.0435ZM31.74 14V8.072H32.356V14H31.74ZM34.1288 14V8.072H34.8168L38.3608 12.96V8.072H38.9688V14H38.3928L34.7368 8.968V14H34.1288ZM43.2512 14.088C42.2219 14.088 41.4779 13.8373 41.0192 13.336C40.5659 12.8347 40.3392 12.0667 40.3392 11.032C40.3392 8.99467 41.3205 7.976 43.2832 7.976C44.2112 7.976 44.9312 8.22133 45.4432 8.712L44.9952 9.168C44.5419 8.77333 43.9712 8.576 43.2832 8.576C42.5045 8.576 41.9232 8.77867 41.5392 9.184C41.1552 9.584 40.9632 10.2027 40.9632 11.04C40.9632 11.8933 41.1419 12.5227 41.4992 12.928C41.8619 13.328 42.4539 13.528 43.2752 13.528C43.6699 13.528 43.9952 13.488 44.2512 13.408C44.5072 13.328 44.7045 13.2 44.8432 13.024C44.9872 12.8427 45.0859 12.6373 45.1392 12.408C45.1925 12.1733 45.2192 11.8827 45.2192 11.536V11.344H43.2192V10.76H45.8432V11.432C45.8432 11.7787 45.8219 12.08 45.7792 12.336C45.7419 12.5867 45.6672 12.8293 45.5552 13.064C45.4432 13.2933 45.2912 13.48 45.0992 13.624C44.9125 13.7627 44.6645 13.8747 44.3552 13.96C44.0459 14.0453 43.6779 14.088 43.2512 14.088ZM51.5128 14.08C50.5634 14.08 49.7448 13.8533 49.0568 13.4L49.3768 12.92C50.0114 13.32 50.7181 13.52 51.4968 13.52C52.1101 13.52 52.5581 13.4293 52.8408 13.248C53.1234 13.0613 53.2648 12.7653 53.2648 12.36C53.2648 12.2587 53.2541 12.1653 53.2328 12.08C53.2168 11.9947 53.1821 11.92 53.1288 11.856C53.0808 11.7867 53.0354 11.728 52.9928 11.68C52.9501 11.632 52.8781 11.5867 52.7768 11.544C52.6754 11.496 52.5928 11.4613 52.5288 11.44C52.4648 11.4133 52.3608 11.384 52.2168 11.352C52.0728 11.32 51.9608 11.296 51.8808 11.28C51.8061 11.264 51.6781 11.24 51.4968 11.208C51.1928 11.1547 50.9501 11.1067 50.7688 11.064C50.5928 11.0213 50.4008 10.96 50.1928 10.88C49.9901 10.8 49.8354 10.7067 49.7288 10.6C49.6221 10.4933 49.5314 10.3547 49.4568 10.184C49.3874 10.008 49.3528 9.80267 49.3528 9.568C49.3528 9.008 49.5288 8.60267 49.8808 8.352C50.2381 8.10133 50.7768 7.976 51.4968 7.976C52.3554 7.976 53.0434 8.152 53.5608 8.504L53.2248 9.016C52.7554 8.70667 52.1794 8.552 51.4968 8.552C50.9634 8.552 50.5768 8.632 50.3368 8.792C50.0968 8.94667 49.9768 9.2 49.9768 9.552C49.9768 9.70133 50.0034 9.82933 50.0568 9.936C50.1101 10.0427 50.1741 10.1307 50.2488 10.2C50.3288 10.2693 50.4488 10.3333 50.6088 10.392C50.7688 10.4507 50.9181 10.496 51.0568 10.528C51.2008 10.5547 51.3981 10.592 51.6488 10.64C51.8514 10.6773 52.0088 10.7067 52.1208 10.728C52.2328 10.7493 52.3714 10.7813 52.5368 10.824C52.7021 10.8613 52.8328 10.9013 52.9288 10.944C53.0248 10.9867 53.1314 11.04 53.2488 11.104C53.3661 11.1627 53.4568 11.2293 53.5208 11.304C53.5848 11.3787 53.6461 11.4667 53.7048 11.568C53.7688 11.664 53.8141 11.7787 53.8408 11.912C53.8674 12.04 53.8808 12.1813 53.8808 12.336C53.8808 12.928 53.6861 13.368 53.2968 13.656C52.9128 13.9387 52.3181 14.08 51.5128 14.08ZM57.8846 14.096C55.9006 14.096 54.9086 13.0747 54.9086 11.032C54.9086 8.99467 55.9006 7.976 57.8846 7.976C59.8793 7.976 60.8766 8.99467 60.8766 11.032C60.8766 13.0747 59.8793 14.096 57.8846 14.096ZM57.8846 13.512C59.4579 13.512 60.2446 12.688 60.2446 11.04C60.2446 9.39733 59.4579 8.576 57.8846 8.576C56.3219 8.576 55.5406 9.39733 55.5406 11.04C55.5406 12.688 56.3219 13.512 57.8846 13.512ZM64.8765 14.096C62.8925 14.096 61.9005 13.0747 61.9005 11.032C61.9005 8.99467 62.8925 7.976 64.8765 7.976C66.8711 7.976 67.8685 8.99467 67.8685 11.032C67.8685 13.0747 66.8711 14.096 64.8765 14.096ZM64.8765 13.512C66.4498 13.512 67.2365 12.688 67.2365 11.04C67.2365 9.39733 66.4498 8.576 64.8765 8.576C63.3138 8.576 62.5325 9.39733 62.5325 11.04C62.5325 12.688 63.3138 13.512 64.8765 13.512ZM69.2363 14V8.072H69.9243L73.4683 12.96V8.072H74.0763V14H73.5003L69.8443 8.968V14H69.2363Z" fill="black"/>
</svg>
