<svg width="466" height="702" viewBox="0 0 466 702" fill="none" xmlns="http://www.w3.org/2000/svg">
<rect width="466" height="702" rx="10" fill="black"/>
<path d="M0 483C1.5 483 1.74502 478.843 2.98583 475C22.8126 413.593 55.286 368.225 108.5 373C164 377.98 299.5 543.499 306.5 430.499C313.5 317.499 123.5 227.499 133 171.5C142.5 115.5 236 92.5 300.5 138" stroke="url(#paint0_linear_3418_23915)"/>
<path d="M426 172.5C426 225.795 382.795 269 329.5 269C276.205 269 233 225.795 233 172.5C233 119.205 276.205 76 329.5 76C382.795 76 426 119.205 426 172.5ZM285.749 172.5C285.749 196.663 305.337 216.251 329.5 216.251C353.663 216.251 373.251 196.663 373.251 172.5C373.251 148.337 353.663 128.749 329.5 128.749C305.337 128.749 285.749 148.337 285.749 172.5Z" fill="white"/>
<path d="M153.5 457C153.5 459.761 151.26 462.013 148.502 461.87C137.537 461.302 126.737 458.865 116.571 454.654C104.863 449.805 94.225 442.697 85.2642 433.736C76.3033 424.775 69.1952 414.137 64.3456 402.429C59.496 390.721 57 378.173 57 365.5C57 352.827 59.496 340.279 64.3456 328.571C69.1952 316.863 76.3033 306.225 85.2642 297.264C94.2251 288.303 104.863 281.195 116.571 276.346C126.737 272.135 137.537 269.698 148.502 269.129C151.26 268.986 153.5 271.239 153.5 274L153.5 365.5L153.5 457Z" fill="white"/>
<path d="M133.67 135.5C135.594 132.167 140.406 132.167 142.33 135.5L171.775 186.5C173.699 189.833 171.294 194 167.445 194H108.555C104.706 194 102.301 189.833 104.225 186.5L133.67 135.5Z" fill="white"/>
<rect x="251" y="329" width="105" height="105" rx="10" fill="white"/>
<path d="M58.5862 565V554.626H60.0002V563.698H65.4042V565H58.5862ZM69.8879 565.154C68.5439 565.154 67.5685 564.818 66.9619 564.146C66.3552 563.474 66.0519 562.457 66.0519 561.094C66.0519 559.731 66.3552 558.714 66.9619 558.042C67.5685 557.37 68.5439 557.034 69.8879 557.034C71.2412 557.034 72.2212 557.37 72.8279 558.042C73.4345 558.714 73.7379 559.731 73.7379 561.094C73.7379 562.457 73.4345 563.474 72.8279 564.146C72.2212 564.818 71.2412 565.154 69.8879 565.154ZM67.9839 563.222C68.3665 563.689 69.0012 563.922 69.8879 563.922C70.7745 563.922 71.4045 563.689 71.7779 563.222C72.1605 562.755 72.3519 562.055 72.3519 561.122C72.3519 560.189 72.1605 559.493 71.7779 559.036C71.4045 558.569 70.7745 558.336 69.8879 558.336C69.0012 558.336 68.3665 558.569 67.9839 559.036C67.6105 559.493 67.4239 560.189 67.4239 561.122C67.4239 562.055 67.6105 562.755 67.9839 563.222ZM78.4933 562.158C77.9893 562.158 77.5599 562.125 77.2053 562.06C77.0839 562.209 77.0233 562.368 77.0233 562.536C77.0233 562.76 77.1213 562.905 77.3173 562.97C77.5226 563.035 77.9426 563.068 78.5773 563.068C80.0333 563.068 81.0319 563.217 81.5733 563.516C82.1146 563.805 82.3853 564.342 82.3853 565.126C82.3853 565.966 82.0819 566.573 81.4753 566.946C80.8779 567.319 79.8699 567.506 78.4513 567.506C77.0886 567.506 76.1273 567.371 75.5673 567.1C75.0166 566.839 74.7413 566.33 74.7413 565.574C74.7413 564.51 75.2359 563.875 76.2253 563.67C75.9359 563.474 75.7913 563.161 75.7913 562.732C75.7913 562.331 75.9079 561.971 76.1413 561.654C75.5066 561.253 75.1893 560.585 75.1893 559.652C75.1893 558.775 75.4506 558.121 75.9733 557.692C76.5053 557.253 77.3453 557.034 78.4933 557.034C78.7173 557.034 78.8853 557.039 78.9973 557.048L82.0633 556.614V557.734H80.8033C81.4753 558.098 81.8113 558.737 81.8113 559.652C81.8113 560.511 81.5453 561.145 81.0133 561.556C80.4813 561.957 79.6413 562.158 78.4933 562.158ZM78.4933 566.428C79.4639 566.428 80.1266 566.33 80.4813 566.134C80.8359 565.938 81.0133 565.625 81.0133 565.196C81.0133 564.804 80.8359 564.543 80.4813 564.412C80.1266 564.281 79.4639 564.216 78.4933 564.216C77.8213 564.216 77.3033 564.272 76.9393 564.384C76.5753 564.487 76.3466 564.613 76.2533 564.762C76.1599 564.911 76.1133 565.107 76.1133 565.35C76.1133 565.761 76.2906 566.041 76.6453 566.19C77.0093 566.349 77.6253 566.428 78.4933 566.428ZM76.9673 560.716C77.2753 560.931 77.7839 561.038 78.4933 561.038C79.2026 561.038 79.7066 560.931 80.0053 560.716C80.3133 560.492 80.4673 560.137 80.4673 559.652C80.4673 559.167 80.3039 558.817 79.9773 558.602C79.6599 558.378 79.1653 558.266 78.4933 558.266C77.7746 558.266 77.2613 558.373 76.9533 558.588C76.6546 558.803 76.5053 559.157 76.5053 559.652C76.5053 560.137 76.6593 560.492 76.9673 560.716ZM87.1144 565.154C85.7704 565.154 84.7951 564.818 84.1884 564.146C83.5818 563.474 83.2784 562.457 83.2784 561.094C83.2784 559.731 83.5818 558.714 84.1884 558.042C84.7951 557.37 85.7704 557.034 87.1144 557.034C88.4678 557.034 89.4478 557.37 90.0544 558.042C90.6611 558.714 90.9644 559.731 90.9644 561.094C90.9644 562.457 90.6611 563.474 90.0544 564.146C89.4478 564.818 88.4678 565.154 87.1144 565.154ZM85.2104 563.222C85.5931 563.689 86.2278 563.922 87.1144 563.922C88.0011 563.922 88.6311 563.689 89.0044 563.222C89.3871 562.755 89.5784 562.055 89.5784 561.122C89.5784 560.189 89.3871 559.493 89.0044 559.036C88.6311 558.569 88.0011 558.336 87.1144 558.336C86.2278 558.336 85.5931 558.569 85.2104 559.036C84.8371 559.493 84.6504 560.189 84.6504 561.122C84.6504 562.055 84.8371 562.755 85.2104 563.222Z" fill="white"/>
<rect x="30.5" y="541.5" width="88" height="36" rx="18" stroke="white"/>
<path d="M169.017 565.154C167.243 565.154 165.937 564.706 165.097 563.81C164.257 562.914 163.837 561.579 163.837 559.806C163.837 558.014 164.285 556.675 165.181 555.788C166.086 554.901 167.388 554.458 169.087 554.458C170.636 554.458 171.887 554.911 172.839 555.816L171.817 556.838C171.079 556.157 170.165 555.816 169.073 555.816C166.534 555.816 165.265 557.151 165.265 559.82C165.265 561.155 165.573 562.158 166.189 562.83C166.814 563.493 167.78 563.824 169.087 563.824C169.768 563.824 170.314 563.735 170.725 563.558C171.145 563.371 171.537 563.105 171.901 562.76L172.909 563.726C171.957 564.678 170.659 565.154 169.017 565.154ZM177.695 565.154C176.351 565.154 175.376 564.818 174.769 564.146C174.163 563.474 173.859 562.457 173.859 561.094C173.859 559.731 174.163 558.714 174.769 558.042C175.376 557.37 176.351 557.034 177.695 557.034C179.049 557.034 180.029 557.37 180.635 558.042C181.242 558.714 181.545 559.731 181.545 561.094C181.545 562.457 181.242 563.474 180.635 564.146C180.029 564.818 179.049 565.154 177.695 565.154ZM175.791 563.222C176.174 563.689 176.809 563.922 177.695 563.922C178.582 563.922 179.212 563.689 179.585 563.222C179.968 562.755 180.159 562.055 180.159 561.122C180.159 560.189 179.968 559.493 179.585 559.036C179.212 558.569 178.582 558.336 177.695 558.336C176.809 558.336 176.174 558.569 175.791 559.036C175.418 559.493 175.231 560.189 175.231 561.122C175.231 562.055 175.418 562.755 175.791 563.222ZM183.179 565V557.286L184.257 557.216L184.369 557.958C184.742 557.342 185.671 557.034 187.155 557.034C187.93 557.034 188.49 557.118 188.835 557.286C189.18 557.454 189.414 557.697 189.535 558.014C189.964 557.361 190.958 557.034 192.517 557.034C193.002 557.034 193.413 557.09 193.749 557.202C194.085 557.305 194.351 557.44 194.547 557.608C194.743 557.776 194.892 558.009 194.995 558.308C195.098 558.597 195.163 558.887 195.191 559.176C195.228 559.465 195.247 559.825 195.247 560.254V565H193.875V560.52C193.875 560.212 193.866 559.974 193.847 559.806C193.838 559.638 193.8 559.447 193.735 559.232C193.679 559.017 193.59 558.859 193.469 558.756C193.348 558.653 193.17 558.565 192.937 558.49C192.713 558.415 192.428 558.378 192.083 558.378C191.616 558.378 191.234 558.434 190.935 558.546C190.636 558.649 190.412 558.812 190.263 559.036C190.114 559.26 190.011 559.498 189.955 559.75C189.908 560.002 189.885 560.315 189.885 560.688V565H188.541V560.52C188.541 560.137 188.527 559.843 188.499 559.638C188.471 559.433 188.401 559.218 188.289 558.994C188.186 558.77 188.004 558.611 187.743 558.518C187.491 558.425 187.155 558.378 186.735 558.378C186.268 558.378 185.886 558.434 185.587 558.546C185.288 558.649 185.064 558.812 184.915 559.036C184.775 559.26 184.677 559.498 184.621 559.75C184.574 560.002 184.551 560.315 184.551 560.688V565H183.179ZM197.206 567.31V557.286L198.284 557.216L198.396 558.042C198.826 557.37 199.834 557.034 201.42 557.034C202.652 557.034 203.516 557.384 204.01 558.084C204.505 558.784 204.752 559.787 204.752 561.094C204.752 562.382 204.496 563.376 203.982 564.076C203.478 564.776 202.606 565.126 201.364 565.126C200.571 565.126 199.96 565.051 199.53 564.902C199.101 564.753 198.784 564.515 198.578 564.188V567.31H197.206ZM201.126 563.894C201.966 563.894 202.55 563.665 202.876 563.208C203.203 562.741 203.366 562.051 203.366 561.136C203.366 560.212 203.203 559.517 202.876 559.05C202.559 558.574 201.976 558.336 201.126 558.336C200.202 558.336 199.544 558.546 199.152 558.966C198.77 559.386 198.578 560.109 198.578 561.136C198.578 562.163 198.765 562.881 199.138 563.292C199.521 563.693 200.184 563.894 201.126 563.894ZM208.69 565.14C207.645 565.14 206.917 564.935 206.506 564.524C206.105 564.104 205.904 563.525 205.904 562.788C205.904 561.687 206.268 560.935 206.996 560.534C207.734 560.133 209.082 559.932 211.042 559.932H211.462C211.444 559.325 211.308 558.905 211.056 558.672C210.814 558.429 210.3 558.308 209.516 558.308C208.686 558.308 207.92 558.527 207.22 558.966L206.506 557.902C206.824 557.687 207.267 557.491 207.836 557.314C208.415 557.127 209.017 557.034 209.642 557.034C210.305 557.034 210.842 557.09 211.252 557.202C211.663 557.314 211.98 557.505 212.204 557.776C212.428 558.047 212.578 558.364 212.652 558.728C212.736 559.092 212.778 559.568 212.778 560.156V562.928C212.778 563.311 212.816 563.553 212.89 563.656C212.974 563.749 213.194 563.796 213.548 563.796V564.986C213.483 565.005 213.296 565.014 212.988 565.014C212.568 565.014 212.265 564.949 212.078 564.818C211.901 564.687 211.761 564.459 211.658 564.132C211.182 564.804 210.193 565.14 208.69 565.14ZM208.914 563.964C209.81 563.964 210.459 563.777 210.86 563.404C211.262 563.021 211.462 562.41 211.462 561.57V561.094H211.112C210.03 561.094 209.213 561.145 208.662 561.248C208.112 561.341 207.729 561.5 207.514 561.724C207.309 561.939 207.206 562.261 207.206 562.69C207.206 563.129 207.332 563.451 207.584 563.656C207.836 563.861 208.28 563.964 208.914 563.964ZM215.144 565V557.286L216.222 557.216L216.334 557.958C216.791 557.342 217.748 557.034 219.204 557.034C219.801 557.034 220.291 557.109 220.674 557.258C221.056 557.398 221.341 557.627 221.528 557.944C221.714 558.252 221.84 558.583 221.906 558.938C221.971 559.283 222.004 559.722 222.004 560.254V565H220.646V560.52C220.646 560.221 220.636 559.983 220.618 559.806C220.599 559.629 220.557 559.437 220.492 559.232C220.426 559.027 220.328 558.873 220.198 558.77C220.067 558.658 219.88 558.565 219.638 558.49C219.404 558.415 219.115 558.378 218.77 558.378C217.883 558.378 217.286 558.574 216.978 558.966C216.67 559.349 216.516 559.923 216.516 560.688V565H215.144ZM224.637 567.352C224.273 567.352 224.035 567.347 223.923 567.338V566.232H224.525C224.907 566.232 225.178 566.181 225.337 566.078C225.505 565.985 225.635 565.798 225.729 565.518L225.967 564.916L222.943 557.216H224.399L226.681 563.292L228.949 557.216H230.377L227.073 565.658C226.839 566.274 226.545 566.708 226.191 566.96C225.836 567.221 225.318 567.352 224.637 567.352ZM236.529 565.014C235.885 565.014 235.432 564.865 235.171 564.566C234.909 564.258 234.779 563.731 234.779 562.984V554.136H236.123V562.83C236.123 563.213 236.174 563.469 236.277 563.6C236.389 563.731 236.627 563.796 236.991 563.796H237.299V564.986C237.131 565.005 236.874 565.014 236.529 565.014ZM242.035 565.154C240.691 565.154 239.716 564.818 239.109 564.146C238.503 563.474 238.199 562.457 238.199 561.094C238.199 559.731 238.503 558.714 239.109 558.042C239.716 557.37 240.691 557.034 242.035 557.034C243.389 557.034 244.369 557.37 244.975 558.042C245.582 558.714 245.885 559.731 245.885 561.094C245.885 562.457 245.582 563.474 244.975 564.146C244.369 564.818 243.389 565.154 242.035 565.154ZM240.131 563.222C240.514 563.689 241.149 563.922 242.035 563.922C242.922 563.922 243.552 563.689 243.925 563.222C244.308 562.755 244.499 562.055 244.499 561.122C244.499 560.189 244.308 559.493 243.925 559.036C243.552 558.569 242.922 558.336 242.035 558.336C241.149 558.336 240.514 558.569 240.131 559.036C239.758 559.493 239.571 560.189 239.571 561.122C239.571 562.055 239.758 562.755 240.131 563.222ZM250.641 562.158C250.137 562.158 249.707 562.125 249.353 562.06C249.231 562.209 249.171 562.368 249.171 562.536C249.171 562.76 249.269 562.905 249.465 562.97C249.67 563.035 250.09 563.068 250.725 563.068C252.181 563.068 253.179 563.217 253.721 563.516C254.262 563.805 254.533 564.342 254.533 565.126C254.533 565.966 254.229 566.573 253.623 566.946C253.025 567.319 252.017 567.506 250.599 567.506C249.236 567.506 248.275 567.371 247.715 567.1C247.164 566.839 246.889 566.33 246.889 565.574C246.889 564.51 247.383 563.875 248.373 563.67C248.083 563.474 247.939 563.161 247.939 562.732C247.939 562.331 248.055 561.971 248.289 561.654C247.654 561.253 247.337 560.585 247.337 559.652C247.337 558.775 247.598 558.121 248.121 557.692C248.653 557.253 249.493 557.034 250.641 557.034C250.865 557.034 251.033 557.039 251.145 557.048L254.211 556.614V557.734H252.951C253.623 558.098 253.959 558.737 253.959 559.652C253.959 560.511 253.693 561.145 253.161 561.556C252.629 561.957 251.789 562.158 250.641 562.158ZM250.641 566.428C251.611 566.428 252.274 566.33 252.629 566.134C252.983 565.938 253.161 565.625 253.161 565.196C253.161 564.804 252.983 564.543 252.629 564.412C252.274 564.281 251.611 564.216 250.641 564.216C249.969 564.216 249.451 564.272 249.087 564.384C248.723 564.487 248.494 564.613 248.401 564.762C248.307 564.911 248.261 565.107 248.261 565.35C248.261 565.761 248.438 566.041 248.793 566.19C249.157 566.349 249.773 566.428 250.641 566.428ZM249.115 560.716C249.423 560.931 249.931 561.038 250.641 561.038C251.35 561.038 251.854 560.931 252.153 560.716C252.461 560.492 252.615 560.137 252.615 559.652C252.615 559.167 252.451 558.817 252.125 558.602C251.807 558.378 251.313 558.266 250.641 558.266C249.922 558.266 249.409 558.373 249.101 558.588C248.802 558.803 248.653 559.157 248.653 559.652C248.653 560.137 248.807 560.492 249.115 560.716ZM259.262 565.154C257.918 565.154 256.943 564.818 256.336 564.146C255.729 563.474 255.426 562.457 255.426 561.094C255.426 559.731 255.729 558.714 256.336 558.042C256.943 557.37 257.918 557.034 259.262 557.034C260.615 557.034 261.595 557.37 262.202 558.042C262.809 558.714 263.112 559.731 263.112 561.094C263.112 562.457 262.809 563.474 262.202 564.146C261.595 564.818 260.615 565.154 259.262 565.154ZM257.358 563.222C257.741 563.689 258.375 563.922 259.262 563.922C260.149 563.922 260.779 563.689 261.152 563.222C261.535 562.755 261.726 562.055 261.726 561.122C261.726 560.189 261.535 559.493 261.152 559.036C260.779 558.569 260.149 558.336 259.262 558.336C258.375 558.336 257.741 558.569 257.358 559.036C256.985 559.493 256.798 560.189 256.798 561.122C256.798 562.055 256.985 562.755 257.358 563.222Z" fill="white"/>
<rect x="136.5" y="541.5" width="154" height="36" rx="18" stroke="white"/>
<path d="M58.4426 612V601.626H65.3446V602.984H59.8566V606.106H65.2186V607.45H59.8566V612H58.4426ZM70.3322 612.154C68.9882 612.154 68.0129 611.818 67.4062 611.146C66.7995 610.474 66.4962 609.457 66.4962 608.094C66.4962 606.731 66.7995 605.714 67.4062 605.042C68.0129 604.37 68.9882 604.034 70.3322 604.034C71.6855 604.034 72.6655 604.37 73.2722 605.042C73.8789 605.714 74.1822 606.731 74.1822 608.094C74.1822 609.457 73.8789 610.474 73.2722 611.146C72.6655 611.818 71.6855 612.154 70.3322 612.154ZM68.4282 610.222C68.8109 610.689 69.4455 610.922 70.3322 610.922C71.2189 610.922 71.8489 610.689 72.2222 610.222C72.6049 609.755 72.7962 609.055 72.7962 608.122C72.7962 607.189 72.6049 606.493 72.2222 606.036C71.8489 605.569 71.2189 605.336 70.3322 605.336C69.4455 605.336 68.8109 605.569 68.4282 606.036C68.0549 606.493 67.8682 607.189 67.8682 608.122C67.8682 609.055 68.0549 609.755 68.4282 610.222ZM75.8156 612V604.286L76.8936 604.216L77.0056 604.958C77.463 604.342 78.4196 604.034 79.8756 604.034C80.473 604.034 80.963 604.109 81.3456 604.258C81.7283 604.398 82.013 604.627 82.1996 604.944C82.3863 605.252 82.5123 605.583 82.5776 605.938C82.643 606.283 82.6756 606.722 82.6756 607.254V612H81.3176V607.52C81.3176 607.221 81.3083 606.983 81.2896 606.806C81.271 606.629 81.229 606.437 81.1636 606.232C81.0983 606.027 81.0003 605.873 80.8696 605.77C80.739 605.658 80.5523 605.565 80.3096 605.49C80.0763 605.415 79.787 605.378 79.4416 605.378C78.555 605.378 77.9576 605.574 77.6496 605.966C77.3416 606.349 77.1876 606.923 77.1876 607.688V612H75.8156ZM84.0593 605.448V604.216H85.4733L85.7113 602.004L86.7893 601.794V604.216H88.8473V605.448H86.7893V609.69C86.7893 610.082 86.8547 610.367 86.9853 610.544C87.1253 610.712 87.4333 610.796 87.9093 610.796H88.8473V612C88.7353 612.009 88.3433 612.014 87.6713 612.014C86.794 612.014 86.2013 611.851 85.8933 611.524C85.5853 611.188 85.4313 610.637 85.4313 609.872V605.448H84.0593ZM93.7394 614.31V604.286L94.8174 604.216L94.9294 605.042C95.3588 604.37 96.3668 604.034 97.9534 604.034C99.1854 604.034 100.049 604.384 100.543 605.084C101.038 605.784 101.285 606.787 101.285 608.094C101.285 609.382 101.029 610.376 100.515 611.076C100.011 611.776 99.1388 612.126 97.8974 612.126C97.1041 612.126 96.4928 612.051 96.0634 611.902C95.6341 611.753 95.3168 611.515 95.1114 611.188V614.31H93.7394ZM97.6594 610.894C98.4994 610.894 99.0828 610.665 99.4094 610.208C99.7361 609.741 99.8994 609.051 99.8994 608.136C99.8994 607.212 99.7361 606.517 99.4094 606.05C99.0921 605.574 98.5088 605.336 97.6594 605.336C96.7354 605.336 96.0774 605.546 95.6854 605.966C95.3028 606.386 95.1114 607.109 95.1114 608.136C95.1114 609.163 95.2981 609.881 95.6714 610.292C96.0541 610.693 96.7168 610.894 97.6594 610.894ZM105.224 612.14C104.178 612.14 103.45 611.935 103.04 611.524C102.638 611.104 102.438 610.525 102.438 609.788C102.438 608.687 102.802 607.935 103.53 607.534C104.267 607.133 105.616 606.932 107.576 606.932H107.996C107.977 606.325 107.842 605.905 107.59 605.672C107.347 605.429 106.834 605.308 106.05 605.308C105.219 605.308 104.454 605.527 103.754 605.966L103.04 604.902C103.357 604.687 103.8 604.491 104.37 604.314C104.948 604.127 105.55 604.034 106.176 604.034C106.838 604.034 107.375 604.09 107.786 604.202C108.196 604.314 108.514 604.505 108.738 604.776C108.962 605.047 109.111 605.364 109.186 605.728C109.27 606.092 109.312 606.568 109.312 607.156V609.928C109.312 610.311 109.349 610.553 109.424 610.656C109.508 610.749 109.727 610.796 110.082 610.796V611.986C110.016 612.005 109.83 612.014 109.522 612.014C109.102 612.014 108.798 611.949 108.612 611.818C108.434 611.687 108.294 611.459 108.192 611.132C107.716 611.804 106.726 612.14 105.224 612.14ZM105.448 610.964C106.344 610.964 106.992 610.777 107.394 610.404C107.795 610.021 107.996 609.41 107.996 608.57V608.094H107.646C106.563 608.094 105.746 608.145 105.196 608.248C104.645 608.341 104.262 608.5 104.048 608.724C103.842 608.939 103.74 609.261 103.74 609.69C103.74 610.129 103.866 610.451 104.118 610.656C104.37 610.861 104.813 610.964 105.448 610.964ZM111.761 612V604.216H113.105V612H111.761ZM111.747 603.278V601.626H113.119V603.278H111.747ZM115.204 612V604.286L116.282 604.216L116.422 605.168C116.581 604.879 116.894 604.636 117.36 604.44C117.827 604.235 118.392 604.127 119.054 604.118V605.49C118.168 605.499 117.533 605.714 117.15 606.134C116.768 606.545 116.576 607.133 116.576 607.898V612H115.204ZM122.938 612.14C121.603 612.14 120.483 611.837 119.578 611.23L120.278 610.166C121.09 610.689 122.004 610.95 123.022 610.95C123.712 610.95 124.198 610.875 124.478 610.726C124.758 610.567 124.898 610.259 124.898 609.802C124.898 609.447 124.772 609.205 124.52 609.074C124.268 608.934 123.768 608.799 123.022 608.668C122.592 608.593 122.247 608.528 121.986 608.472C121.734 608.407 121.458 608.313 121.16 608.192C120.87 608.071 120.651 607.935 120.502 607.786C120.352 607.627 120.226 607.422 120.124 607.17C120.021 606.909 119.97 606.605 119.97 606.26C119.97 605.523 120.208 604.967 120.684 604.594C121.169 604.221 121.948 604.034 123.022 604.034C124.216 604.034 125.206 604.263 125.99 604.72L125.346 605.84C124.683 605.476 123.918 605.294 123.05 605.294C122.406 605.294 121.958 605.373 121.706 605.532C121.454 605.691 121.328 605.933 121.328 606.26C121.328 606.605 121.449 606.853 121.692 607.002C121.934 607.142 122.396 607.273 123.078 607.394C123.554 607.478 123.913 607.548 124.156 607.604C124.398 607.66 124.674 607.749 124.982 607.87C125.299 607.982 125.528 608.113 125.668 608.262C125.817 608.411 125.943 608.612 126.046 608.864C126.158 609.107 126.214 609.401 126.214 609.746C126.214 610.623 125.957 611.244 125.444 611.608C124.94 611.963 124.104 612.14 122.938 612.14Z" fill="white"/>
<rect x="30.5" y="588.5" width="123" height="36" rx="18" stroke="white"/>
<path d="M203.794 612.154C202.021 612.154 200.714 611.706 199.874 610.81C199.034 609.914 198.614 608.579 198.614 606.806C198.614 605.014 199.062 603.675 199.958 602.788C200.863 601.901 202.165 601.458 203.864 601.458C205.413 601.458 206.664 601.911 207.616 602.816L206.594 603.838C205.857 603.157 204.942 602.816 203.85 602.816C201.311 602.816 200.042 604.151 200.042 606.82C200.042 608.155 200.35 609.158 200.966 609.83C201.591 610.493 202.557 610.824 203.864 610.824C204.545 610.824 205.091 610.735 205.502 610.558C205.922 610.371 206.314 610.105 206.678 609.76L207.686 610.726C206.734 611.678 205.437 612.154 203.794 612.154ZM212.473 612.154C211.129 612.154 210.154 611.818 209.547 611.146C208.94 610.474 208.637 609.457 208.637 608.094C208.637 606.731 208.94 605.714 209.547 605.042C210.154 604.37 211.129 604.034 212.473 604.034C213.826 604.034 214.806 604.37 215.413 605.042C216.02 605.714 216.323 606.731 216.323 608.094C216.323 609.457 216.02 610.474 215.413 611.146C214.806 611.818 213.826 612.154 212.473 612.154ZM210.569 610.222C210.952 610.689 211.586 610.922 212.473 610.922C213.36 610.922 213.99 610.689 214.363 610.222C214.746 609.755 214.937 609.055 214.937 608.122C214.937 607.189 214.746 606.493 214.363 606.036C213.99 605.569 213.36 605.336 212.473 605.336C211.586 605.336 210.952 605.569 210.569 606.036C210.196 606.493 210.009 607.189 210.009 608.122C210.009 609.055 210.196 609.755 210.569 610.222ZM219.79 612.014C219.146 612.014 218.694 611.865 218.432 611.566C218.171 611.258 218.04 610.731 218.04 609.984V601.136H219.384V609.83C219.384 610.213 219.436 610.469 219.538 610.6C219.65 610.731 219.888 610.796 220.252 610.796H220.56V611.986C220.392 612.005 220.136 612.014 219.79 612.014ZM225.297 612.154C223.953 612.154 222.978 611.818 222.371 611.146C221.764 610.474 221.461 609.457 221.461 608.094C221.461 606.731 221.764 605.714 222.371 605.042C222.978 604.37 223.953 604.034 225.297 604.034C226.65 604.034 227.63 604.37 228.237 605.042C228.844 605.714 229.147 606.731 229.147 608.094C229.147 609.457 228.844 610.474 228.237 611.146C227.63 611.818 226.65 612.154 225.297 612.154ZM223.393 610.222C223.776 610.689 224.41 610.922 225.297 610.922C226.184 610.922 226.814 610.689 227.187 610.222C227.57 609.755 227.761 609.055 227.761 608.122C227.761 607.189 227.57 606.493 227.187 606.036C226.814 605.569 226.184 605.336 225.297 605.336C224.41 605.336 223.776 605.569 223.393 606.036C223.02 606.493 222.833 607.189 222.833 608.122C222.833 609.055 223.02 609.755 223.393 610.222ZM230.78 612V604.286L231.858 604.216L231.998 605.168C232.157 604.879 232.47 604.636 232.936 604.44C233.403 604.235 233.968 604.127 234.63 604.118V605.49C233.744 605.499 233.109 605.714 232.726 606.134C232.344 606.545 232.152 607.133 232.152 607.898V612H230.78ZM239.202 614.31V604.286L240.28 604.216L240.392 605.042C240.822 604.37 241.83 604.034 243.416 604.034C244.648 604.034 245.512 604.384 246.006 605.084C246.501 605.784 246.748 606.787 246.748 608.094C246.748 609.382 246.492 610.376 245.978 611.076C245.474 611.776 244.602 612.126 243.36 612.126C242.567 612.126 241.956 612.051 241.526 611.902C241.097 611.753 240.78 611.515 240.574 611.188V614.31H239.202ZM243.122 610.894C243.962 610.894 244.546 610.665 244.872 610.208C245.199 609.741 245.362 609.051 245.362 608.136C245.362 607.212 245.199 606.517 244.872 606.05C244.555 605.574 243.972 605.336 243.122 605.336C242.198 605.336 241.54 605.546 241.148 605.966C240.766 606.386 240.574 607.109 240.574 608.136C240.574 609.163 240.761 609.881 241.134 610.292C241.517 610.693 242.18 610.894 243.122 610.894ZM250.686 612.14C249.641 612.14 248.913 611.935 248.502 611.524C248.101 611.104 247.9 610.525 247.9 609.788C247.9 608.687 248.264 607.935 248.992 607.534C249.73 607.133 251.078 606.932 253.038 606.932H253.458C253.44 606.325 253.304 605.905 253.052 605.672C252.81 605.429 252.296 605.308 251.512 605.308C250.682 605.308 249.916 605.527 249.216 605.966L248.502 604.902C248.82 604.687 249.263 604.491 249.832 604.314C250.411 604.127 251.013 604.034 251.638 604.034C252.301 604.034 252.838 604.09 253.248 604.202C253.659 604.314 253.976 604.505 254.2 604.776C254.424 605.047 254.574 605.364 254.648 605.728C254.732 606.092 254.774 606.568 254.774 607.156V609.928C254.774 610.311 254.812 610.553 254.886 610.656C254.97 610.749 255.19 610.796 255.544 610.796V611.986C255.479 612.005 255.292 612.014 254.984 612.014C254.564 612.014 254.261 611.949 254.074 611.818C253.897 611.687 253.757 611.459 253.654 611.132C253.178 611.804 252.189 612.14 250.686 612.14ZM250.91 610.964C251.806 610.964 252.455 610.777 252.856 610.404C253.258 610.021 253.458 609.41 253.458 608.57V608.094H253.108C252.026 608.094 251.209 608.145 250.658 608.248C250.108 608.341 249.725 608.5 249.51 608.724C249.305 608.939 249.202 609.261 249.202 609.69C249.202 610.129 249.328 610.451 249.58 610.656C249.832 610.861 250.276 610.964 250.91 610.964ZM258.974 612.014C258.33 612.014 257.877 611.865 257.616 611.566C257.355 611.258 257.224 610.731 257.224 609.984V601.136H258.568V609.83C258.568 610.213 258.619 610.469 258.722 610.6C258.834 610.731 259.072 610.796 259.436 610.796H259.744V611.986C259.576 612.005 259.319 612.014 258.974 612.014ZM264.467 612.154C263.841 612.154 263.3 612.084 262.843 611.944C262.385 611.804 262.017 611.617 261.737 611.384C261.466 611.151 261.247 610.857 261.079 610.502C260.911 610.138 260.794 609.769 260.729 609.396C260.673 609.013 260.645 608.579 260.645 608.094C260.645 607.487 260.696 606.96 260.799 606.512C260.911 606.055 261.097 605.63 261.359 605.238C261.629 604.846 262.021 604.547 262.535 604.342C263.057 604.137 263.692 604.034 264.439 604.034C264.887 604.034 265.283 604.081 265.629 604.174C265.974 604.267 266.263 604.384 266.497 604.524C266.73 604.664 266.926 604.86 267.085 605.112C267.243 605.355 267.365 605.593 267.449 605.826C267.533 606.05 267.593 606.339 267.631 606.694C267.677 607.039 267.705 607.347 267.715 607.618C267.724 607.889 267.724 608.225 267.715 608.626H261.961C262.007 609.401 262.208 609.989 262.563 610.39C262.927 610.782 263.561 610.978 264.467 610.978C265.045 610.978 265.517 610.917 265.881 610.796C266.245 610.665 266.599 610.469 266.945 610.208L267.673 611.16C266.823 611.823 265.755 612.154 264.467 612.154ZM264.397 605.238C263.557 605.238 262.959 605.425 262.605 605.798C262.25 606.162 262.04 606.703 261.975 607.422H266.427C266.408 607.123 266.385 606.89 266.357 606.722C266.338 606.545 266.287 606.349 266.203 606.134C266.128 605.919 266.021 605.756 265.881 605.644C265.75 605.532 265.559 605.439 265.307 605.364C265.055 605.28 264.751 605.238 264.397 605.238ZM268.678 605.448V604.216H270.092L270.33 602.004L271.408 601.794V604.216H273.466V605.448H271.408V609.69C271.408 610.082 271.474 610.367 271.604 610.544C271.744 610.712 272.052 610.796 272.528 610.796H273.466V612C273.354 612.009 272.962 612.014 272.29 612.014C271.413 612.014 270.82 611.851 270.512 611.524C270.204 611.188 270.05 610.637 270.05 609.872V605.448H268.678ZM274.393 605.448V604.216H275.807L276.045 602.004L277.123 601.794V604.216H279.181V605.448H277.123V609.69C277.123 610.082 277.189 610.367 277.319 610.544C277.459 610.712 277.767 610.796 278.243 610.796H279.181V612C279.069 612.009 278.677 612.014 278.005 612.014C277.128 612.014 276.535 611.851 276.227 611.524C275.919 611.188 275.765 610.637 275.765 609.872V605.448H274.393ZM284.017 612.154C283.392 612.154 282.851 612.084 282.393 611.944C281.936 611.804 281.567 611.617 281.287 611.384C281.017 611.151 280.797 610.857 280.629 610.502C280.461 610.138 280.345 609.769 280.279 609.396C280.223 609.013 280.195 608.579 280.195 608.094C280.195 607.487 280.247 606.96 280.349 606.512C280.461 606.055 280.648 605.63 280.909 605.238C281.18 604.846 281.572 604.547 282.085 604.342C282.608 604.137 283.243 604.034 283.989 604.034C284.437 604.034 284.834 604.081 285.179 604.174C285.525 604.267 285.814 604.384 286.047 604.524C286.281 604.664 286.477 604.86 286.635 605.112C286.794 605.355 286.915 605.593 286.999 605.826C287.083 606.05 287.144 606.339 287.181 606.694C287.228 607.039 287.256 607.347 287.265 607.618C287.275 607.889 287.275 608.225 287.265 608.626H281.511C281.558 609.401 281.759 609.989 282.113 610.39C282.477 610.782 283.112 610.978 284.017 610.978C284.596 610.978 285.067 610.917 285.431 610.796C285.795 610.665 286.15 610.469 286.495 610.208L287.223 611.16C286.374 611.823 285.305 612.154 284.017 612.154ZM283.947 605.238C283.107 605.238 282.51 605.425 282.155 605.798C281.801 606.162 281.591 606.703 281.525 607.422H285.977C285.959 607.123 285.935 606.89 285.907 606.722C285.889 606.545 285.837 606.349 285.753 606.134C285.679 605.919 285.571 605.756 285.431 605.644C285.301 605.532 285.109 605.439 284.857 605.364C284.605 605.28 284.302 605.238 283.947 605.238Z" fill="white"/>
<rect x="171.5" y="588.5" width="143" height="36" rx="18" stroke="white"/>
<path d="M61.8456 659.07L57.7156 648.626H59.1996L62.5876 657.292L65.9476 648.626H67.4316L63.2876 659.07H61.8456ZM68.5617 659V651.216H69.9057V659H68.5617ZM68.5477 650.278V648.626H69.9197V650.278H68.5477ZM74.7071 659.14C73.3724 659.14 72.2524 658.837 71.3471 658.23L72.0471 657.166C72.8591 657.689 73.7737 657.95 74.7911 657.95C75.4817 657.95 75.9671 657.875 76.2471 657.726C76.5271 657.567 76.6671 657.259 76.6671 656.802C76.6671 656.447 76.5411 656.205 76.2891 656.074C76.0371 655.934 75.5377 655.799 74.7911 655.668C74.3617 655.593 74.0164 655.528 73.7551 655.472C73.5031 655.407 73.2277 655.313 72.9291 655.192C72.6397 655.071 72.4204 654.935 72.2711 654.786C72.1217 654.627 71.9957 654.422 71.8931 654.17C71.7904 653.909 71.7391 653.605 71.7391 653.26C71.7391 652.523 71.9771 651.967 72.4531 651.594C72.9384 651.221 73.7177 651.034 74.7911 651.034C75.9857 651.034 76.9751 651.263 77.7591 651.72L77.1151 652.84C76.4524 652.476 75.6871 652.294 74.8191 652.294C74.1751 652.294 73.7271 652.373 73.4751 652.532C73.2231 652.691 73.0971 652.933 73.0971 653.26C73.0971 653.605 73.2184 653.853 73.4611 654.002C73.7037 654.142 74.1657 654.273 74.8471 654.394C75.3231 654.478 75.6824 654.548 75.9251 654.604C76.1677 654.66 76.4431 654.749 76.7511 654.87C77.0684 654.982 77.2971 655.113 77.4371 655.262C77.5864 655.411 77.7124 655.612 77.8151 655.864C77.9271 656.107 77.9831 656.401 77.9831 656.746C77.9831 657.623 77.7264 658.244 77.2131 658.608C76.7091 658.963 75.8737 659.14 74.7071 659.14ZM84.6909 658.93C84.2336 659.07 83.6363 659.14 82.8989 659.14C82.1616 659.14 81.5596 659.07 81.0929 658.93C80.6356 658.79 80.2903 658.561 80.0569 658.244C79.8236 657.917 79.6649 657.563 79.5809 657.18C79.5063 656.788 79.4689 656.284 79.4689 655.668V651.216H80.8269V655.696C80.8269 655.957 80.8316 656.158 80.8409 656.298C80.8503 656.429 80.8736 656.597 80.9109 656.802C80.9483 657.007 81.0089 657.161 81.0929 657.264C81.1769 657.367 81.2936 657.474 81.4429 657.586C81.5923 657.698 81.7883 657.777 82.0309 657.824C82.2736 657.871 82.5629 657.894 82.8989 657.894C83.2349 657.894 83.5243 657.871 83.7669 657.824C84.0096 657.777 84.2056 657.698 84.3549 657.586C84.5043 657.474 84.6209 657.367 84.7049 657.264C84.7889 657.161 84.8496 657.003 84.8869 656.788C84.9243 656.573 84.9429 656.401 84.9429 656.27C84.9523 656.139 84.9569 655.934 84.9569 655.654V651.216H86.2869V655.626C86.2869 656.261 86.2496 656.774 86.1749 657.166C86.1003 657.549 85.9463 657.903 85.7129 658.23C85.4889 658.557 85.1483 658.79 84.6909 658.93ZM90.5576 659.14C89.5123 659.14 88.7843 658.935 88.3736 658.524C87.9723 658.104 87.7716 657.525 87.7716 656.788C87.7716 655.687 88.1356 654.935 88.8636 654.534C89.6009 654.133 90.9496 653.932 92.9096 653.932H93.3296C93.3109 653.325 93.1756 652.905 92.9236 652.672C92.6809 652.429 92.1676 652.308 91.3836 652.308C90.5529 652.308 89.7876 652.527 89.0876 652.966L88.3736 651.902C88.6909 651.687 89.1343 651.491 89.7036 651.314C90.2823 651.127 90.8843 651.034 91.5096 651.034C92.1723 651.034 92.7089 651.09 93.1196 651.202C93.5303 651.314 93.8476 651.505 94.0716 651.776C94.2956 652.047 94.4449 652.364 94.5196 652.728C94.6036 653.092 94.6456 653.568 94.6456 654.156V656.928C94.6456 657.311 94.6829 657.553 94.7576 657.656C94.8416 657.749 95.0609 657.796 95.4156 657.796V658.986C95.3503 659.005 95.1636 659.014 94.8556 659.014C94.4356 659.014 94.1323 658.949 93.9456 658.818C93.7683 658.687 93.6283 658.459 93.5256 658.132C93.0496 658.804 92.0603 659.14 90.5576 659.14ZM90.7816 657.964C91.6776 657.964 92.3263 657.777 92.7276 657.404C93.1289 657.021 93.3296 656.41 93.3296 655.57V655.094H92.9796C91.8969 655.094 91.0803 655.145 90.5296 655.248C89.9789 655.341 89.5963 655.5 89.3816 655.724C89.1763 655.939 89.0736 656.261 89.0736 656.69C89.0736 657.129 89.1996 657.451 89.4516 657.656C89.7036 657.861 90.1469 657.964 90.7816 657.964ZM98.8449 659.014C98.2009 659.014 97.7483 658.865 97.4869 658.566C97.2256 658.258 97.0949 657.731 97.0949 656.984V648.136H98.4389V656.83C98.4389 657.213 98.4903 657.469 98.5929 657.6C98.7049 657.731 98.9429 657.796 99.3069 657.796H99.6149V658.986C99.4469 659.005 99.1903 659.014 98.8449 659.014ZM101.361 659V651.216H102.705V659H101.361ZM101.347 650.278V648.626H102.719V650.278H101.347ZM104.216 659V658.006L108.654 652.448H104.44V651.216H110.432V652.238L105.98 657.838H110.586V659H104.216ZM114.224 659.14C113.178 659.14 112.45 658.935 112.04 658.524C111.638 658.104 111.438 657.525 111.438 656.788C111.438 655.687 111.802 654.935 112.53 654.534C113.267 654.133 114.616 653.932 116.576 653.932H116.996C116.977 653.325 116.842 652.905 116.59 652.672C116.347 652.429 115.834 652.308 115.05 652.308C114.219 652.308 113.454 652.527 112.754 652.966L112.04 651.902C112.357 651.687 112.8 651.491 113.37 651.314C113.948 651.127 114.55 651.034 115.176 651.034C115.838 651.034 116.375 651.09 116.786 651.202C117.196 651.314 117.514 651.505 117.738 651.776C117.962 652.047 118.111 652.364 118.186 652.728C118.27 653.092 118.312 653.568 118.312 654.156V656.928C118.312 657.311 118.349 657.553 118.424 657.656C118.508 657.749 118.727 657.796 119.082 657.796V658.986C119.016 659.005 118.83 659.014 118.522 659.014C118.102 659.014 117.798 658.949 117.612 658.818C117.434 658.687 117.294 658.459 117.192 658.132C116.716 658.804 115.726 659.14 114.224 659.14ZM114.448 657.964C115.344 657.964 115.992 657.777 116.394 657.404C116.795 657.021 116.996 656.41 116.996 655.57V655.094H116.646C115.563 655.094 114.746 655.145 114.196 655.248C113.645 655.341 113.262 655.5 113.048 655.724C112.842 655.939 112.74 656.261 112.74 656.69C112.74 657.129 112.866 657.451 113.118 657.656C113.37 657.861 113.813 657.964 114.448 657.964ZM119.76 652.448V651.216H121.174L121.412 649.004L122.49 648.794V651.216H124.548V652.448H122.49V656.69C122.49 657.082 122.556 657.367 122.686 657.544C122.826 657.712 123.134 657.796 123.61 657.796H124.548V659C124.436 659.009 124.044 659.014 123.372 659.014C122.495 659.014 121.902 658.851 121.594 658.524C121.286 658.188 121.132 657.637 121.132 656.872V652.448H119.76ZM126.298 659V651.216H127.642V659H126.298ZM126.284 650.278V648.626H127.656V650.278H126.284ZM133.199 659.154C131.855 659.154 130.88 658.818 130.273 658.146C129.667 657.474 129.363 656.457 129.363 655.094C129.363 653.731 129.667 652.714 130.273 652.042C130.88 651.37 131.855 651.034 133.199 651.034C134.553 651.034 135.533 651.37 136.139 652.042C136.746 652.714 137.049 653.731 137.049 655.094C137.049 656.457 136.746 657.474 136.139 658.146C135.533 658.818 134.553 659.154 133.199 659.154ZM131.295 657.222C131.678 657.689 132.313 657.922 133.199 657.922C134.086 657.922 134.716 657.689 135.089 657.222C135.472 656.755 135.663 656.055 135.663 655.122C135.663 654.189 135.472 653.493 135.089 653.036C134.716 652.569 134.086 652.336 133.199 652.336C132.313 652.336 131.678 652.569 131.295 653.036C130.922 653.493 130.735 654.189 130.735 655.122C130.735 656.055 130.922 656.755 131.295 657.222ZM138.683 659V651.286L139.761 651.216L139.873 651.958C140.33 651.342 141.287 651.034 142.743 651.034C143.34 651.034 143.83 651.109 144.213 651.258C144.595 651.398 144.88 651.627 145.067 651.944C145.253 652.252 145.379 652.583 145.445 652.938C145.51 653.283 145.543 653.722 145.543 654.254V659H144.185V654.52C144.185 654.221 144.175 653.983 144.157 653.806C144.138 653.629 144.096 653.437 144.031 653.232C143.965 653.027 143.867 652.873 143.737 652.77C143.606 652.658 143.419 652.565 143.177 652.49C142.943 652.415 142.654 652.378 142.309 652.378C141.422 652.378 140.825 652.574 140.517 652.966C140.209 653.349 140.055 653.923 140.055 654.688V659H138.683ZM154.213 659.154C152.869 659.154 151.894 658.818 151.287 658.146C150.68 657.474 150.377 656.457 150.377 655.094C150.377 653.731 150.68 652.714 151.287 652.042C151.894 651.37 152.869 651.034 154.213 651.034C155.566 651.034 156.546 651.37 157.153 652.042C157.76 652.714 158.063 653.731 158.063 655.094C158.063 656.457 157.76 657.474 157.153 658.146C156.546 658.818 155.566 659.154 154.213 659.154ZM152.309 657.222C152.692 657.689 153.326 657.922 154.213 657.922C155.1 657.922 155.73 657.689 156.103 657.222C156.486 656.755 156.677 656.055 156.677 655.122C156.677 654.189 156.486 653.493 156.103 653.036C155.73 652.569 155.1 652.336 154.213 652.336C153.326 652.336 152.692 652.569 152.309 653.036C151.936 653.493 151.749 654.189 151.749 655.122C151.749 656.055 151.936 656.755 152.309 657.222ZM159.696 659V651.286L160.774 651.216L160.886 651.958C161.344 651.342 162.3 651.034 163.756 651.034C164.354 651.034 164.844 651.109 165.226 651.258C165.609 651.398 165.894 651.627 166.08 651.944C166.267 652.252 166.393 652.583 166.458 652.938C166.524 653.283 166.556 653.722 166.556 654.254V659H165.198V654.52C165.198 654.221 165.189 653.983 165.17 653.806C165.152 653.629 165.11 653.437 165.044 653.232C164.979 653.027 164.881 652.873 164.75 652.77C164.62 652.658 164.433 652.565 164.19 652.49C163.957 652.415 163.668 652.378 163.322 652.378C162.436 652.378 161.838 652.574 161.53 652.966C161.222 653.349 161.068 653.923 161.068 654.688V659H159.696ZM171.769 659V651.286L172.847 651.216L172.959 651.958C173.332 651.342 174.261 651.034 175.745 651.034C176.519 651.034 177.079 651.118 177.425 651.286C177.77 651.454 178.003 651.697 178.125 652.014C178.554 651.361 179.548 651.034 181.107 651.034C181.592 651.034 182.003 651.09 182.339 651.202C182.675 651.305 182.941 651.44 183.137 651.608C183.333 651.776 183.482 652.009 183.585 652.308C183.687 652.597 183.753 652.887 183.781 653.176C183.818 653.465 183.837 653.825 183.837 654.254V659H182.465V654.52C182.465 654.212 182.455 653.974 182.437 653.806C182.427 653.638 182.39 653.447 182.325 653.232C182.269 653.017 182.18 652.859 182.059 652.756C181.937 652.653 181.76 652.565 181.527 652.49C181.303 652.415 181.018 652.378 180.673 652.378C180.206 652.378 179.823 652.434 179.525 652.546C179.226 652.649 179.002 652.812 178.853 653.036C178.703 653.26 178.601 653.498 178.545 653.75C178.498 654.002 178.475 654.315 178.475 654.688V659H177.131V654.52C177.131 654.137 177.117 653.843 177.089 653.638C177.061 653.433 176.991 653.218 176.879 652.994C176.776 652.77 176.594 652.611 176.333 652.518C176.081 652.425 175.745 652.378 175.325 652.378C174.858 652.378 174.475 652.434 174.177 652.546C173.878 652.649 173.654 652.812 173.505 653.036C173.365 653.26 173.267 653.498 173.211 653.75C173.164 654.002 173.141 654.315 173.141 654.688V659H171.769ZM189.24 659.154C188.615 659.154 188.073 659.084 187.616 658.944C187.159 658.804 186.79 658.617 186.51 658.384C186.239 658.151 186.02 657.857 185.852 657.502C185.684 657.138 185.567 656.769 185.502 656.396C185.446 656.013 185.418 655.579 185.418 655.094C185.418 654.487 185.469 653.96 185.572 653.512C185.684 653.055 185.871 652.63 186.132 652.238C186.403 651.846 186.795 651.547 187.308 651.342C187.831 651.137 188.465 651.034 189.212 651.034C189.66 651.034 190.057 651.081 190.402 651.174C190.747 651.267 191.037 651.384 191.27 651.524C191.503 651.664 191.699 651.86 191.858 652.112C192.017 652.355 192.138 652.593 192.222 652.826C192.306 653.05 192.367 653.339 192.404 653.694C192.451 654.039 192.479 654.347 192.488 654.618C192.497 654.889 192.497 655.225 192.488 655.626H186.734C186.781 656.401 186.981 656.989 187.336 657.39C187.7 657.782 188.335 657.978 189.24 657.978C189.819 657.978 190.29 657.917 190.654 657.796C191.018 657.665 191.373 657.469 191.718 657.208L192.446 658.16C191.597 658.823 190.528 659.154 189.24 659.154ZM189.17 652.238C188.33 652.238 187.733 652.425 187.378 652.798C187.023 653.162 186.813 653.703 186.748 654.422H191.2C191.181 654.123 191.158 653.89 191.13 653.722C191.111 653.545 191.06 653.349 190.976 653.134C190.901 652.919 190.794 652.756 190.654 652.644C190.523 652.532 190.332 652.439 190.08 652.364C189.828 652.28 189.525 652.238 189.17 652.238ZM197.09 659.14C195.868 659.14 195.004 658.79 194.5 658.09C193.996 657.381 193.744 656.373 193.744 655.066C193.744 653.778 193.996 652.789 194.5 652.098C195.014 651.398 195.891 651.048 197.132 651.048C198.616 651.048 199.545 651.361 199.918 651.986V648.136H201.29V658.944L200.24 659.042L200.086 658.132C199.834 658.477 199.475 658.734 199.008 658.902C198.551 659.061 197.912 659.14 197.09 659.14ZM197.384 657.894C198.299 657.894 198.948 657.679 199.33 657.25C199.722 656.821 199.918 656.093 199.918 655.066C199.918 654.049 199.732 653.339 199.358 652.938C198.985 652.527 198.327 652.322 197.384 652.322C196.535 652.322 195.947 652.551 195.62 653.008C195.294 653.465 195.13 654.151 195.13 655.066C195.13 655.999 195.294 656.704 195.62 657.18C195.947 657.656 196.535 657.894 197.384 657.894ZM203.394 659V651.216H204.738V659H203.394ZM203.38 650.278V648.626H204.752V650.278H203.38ZM209.161 659.14C208.116 659.14 207.388 658.935 206.977 658.524C206.576 658.104 206.375 657.525 206.375 656.788C206.375 655.687 206.739 654.935 207.467 654.534C208.204 654.133 209.553 653.932 211.513 653.932H211.933C211.914 653.325 211.779 652.905 211.527 652.672C211.284 652.429 210.771 652.308 209.987 652.308C209.156 652.308 208.391 652.527 207.691 652.966L206.977 651.902C207.294 651.687 207.738 651.491 208.307 651.314C208.886 651.127 209.488 651.034 210.113 651.034C210.776 651.034 211.312 651.09 211.723 651.202C212.134 651.314 212.451 651.505 212.675 651.776C212.899 652.047 213.048 652.364 213.123 652.728C213.207 653.092 213.249 653.568 213.249 654.156V656.928C213.249 657.311 213.286 657.553 213.361 657.656C213.445 657.749 213.664 657.796 214.019 657.796V658.986C213.954 659.005 213.767 659.014 213.459 659.014C213.039 659.014 212.736 658.949 212.549 658.818C212.372 658.687 212.232 658.459 212.129 658.132C211.653 658.804 210.664 659.14 209.161 659.14ZM209.385 657.964C210.281 657.964 210.93 657.777 211.331 657.404C211.732 657.021 211.933 656.41 211.933 655.57V655.094H211.583C210.5 655.094 209.684 655.145 209.133 655.248C208.582 655.341 208.2 655.5 207.985 655.724C207.78 655.939 207.677 656.261 207.677 656.69C207.677 657.129 207.803 657.451 208.055 657.656C208.307 657.861 208.75 657.964 209.385 657.964Z" fill="white"/>
<rect x="30.5" y="635.5" width="211" height="36" rx="18" stroke="white"/>
<defs>
<linearGradient id="paint0_linear_3418_23915" x1="65.0124" y1="113.828" x2="300.33" y2="444.336" gradientUnits="userSpaceOnUse">
<stop stop-color="#FFD916"/>
<stop offset="0.46875" stop-color="#FF1914"/>
<stop offset="1" stop-color="#6705FF"/>
</linearGradient>
</defs>
</svg>
