<svg width="177" height="34" viewBox="0 0 177 34" fill="none" xmlns="http://www.w3.org/2000/svg">
<path d="M23.2106 9.82048L7.06411 0L9.74226 10.5639L0 26.84L10.4797 24.1404L26.6263 34L23.9481 23.397L33.6904 7.15995L23.2106 9.82048Z" fill="url(#paint0_linear_1674_8998)"/>
<path d="M41.0119 18.8415H43.3298C43.322 19.1803 43.4158 19.4791 43.6112 19.7377C43.8173 19.9874 44.114 20.1835 44.5012 20.3262C44.8991 20.46 45.3721 20.5268 45.9201 20.5268C46.7197 20.5268 47.3689 20.4154 47.8677 20.1924C48.3771 19.9606 48.6692 19.6396 48.7439 19.2294C48.8024 18.9084 48.7124 18.6632 48.4737 18.4937C48.2457 18.3154 47.7796 18.1861 47.0755 18.1058L45.082 17.8784C43.7964 17.7358 42.8993 17.4326 42.3908 16.9689C41.893 16.4963 41.7204 15.8409 41.8732 15.0027C41.9934 14.3428 42.2889 13.781 42.7597 13.3173C43.2395 12.8536 43.8562 12.5014 44.6099 12.2606C45.3651 12.011 46.2234 11.8861 47.1847 11.8861C48.119 11.8861 48.9249 12.0243 49.6022 12.3008C50.2812 12.5683 50.7916 12.9473 51.1334 13.4377C51.4769 13.9192 51.6073 14.4855 51.5247 15.1364H49.2068C49.2155 14.8422 49.127 14.588 48.9414 14.374C48.7664 14.1511 48.4963 13.9817 48.1311 13.8657C47.7676 13.7409 47.3252 13.6785 46.8042 13.6785C46.0764 13.6785 45.4775 13.7855 45.0072 13.9995C44.537 14.2135 44.2661 14.5167 44.1946 14.909C44.1394 15.2122 44.2221 15.4485 44.4428 15.6179C44.6741 15.7785 45.1059 15.8988 45.7381 15.9791L47.8075 16.2332C48.724 16.3313 49.4359 16.4918 49.9434 16.7148C50.4614 16.9288 50.8039 17.2186 50.9708 17.5842C51.1468 17.9498 51.1836 18.4135 51.0812 18.9753C50.9593 19.644 50.6455 20.2326 50.1396 20.7409C49.6443 21.2402 49.0031 21.6281 48.216 21.9045C47.429 22.181 46.5413 22.3192 45.5531 22.3192C44.5469 22.3192 43.6879 22.1765 42.9763 21.8912C42.2662 21.5969 41.7382 21.1912 41.3923 20.674C41.0479 20.1479 40.9211 19.537 41.0119 18.8415Z" fill="white"/>
<path d="M99.8047 22.3192C98.6278 22.3192 97.6344 22.1007 96.8246 21.6638C96.0238 21.2268 95.447 20.6205 95.0942 19.8447C94.7431 19.06 94.6626 18.146 94.8527 17.1027C95.0428 16.0593 95.4556 15.1498 96.0911 14.374C96.7282 13.5893 97.5268 12.9785 98.4868 12.5415C99.4559 12.1046 100.529 11.8861 101.706 11.8861C102.883 11.8861 103.872 12.1046 104.672 12.5415C105.482 12.9785 106.063 13.5893 106.414 14.374C106.767 15.1498 106.848 16.0593 106.658 17.1027C106.468 18.146 106.054 19.06 105.417 19.8447C104.781 20.6205 103.979 21.2268 103.01 21.6638C102.05 22.1007 100.982 22.3192 99.8047 22.3192ZM100.173 20.2994C100.909 20.2994 101.566 20.1702 102.144 19.9116C102.73 19.653 103.21 19.2829 103.586 18.8014C103.97 18.3198 104.221 17.7536 104.34 17.1027C104.458 16.4517 104.413 15.8855 104.205 15.4039C104.005 14.9224 103.659 14.5524 103.167 14.2938C102.684 14.0352 102.074 13.9059 101.338 13.9059C100.61 13.9059 99.9531 14.0352 99.3669 14.2938C98.7808 14.5524 98.2956 14.9224 97.9113 15.4039C97.5361 15.8855 97.2892 16.4517 97.1706 17.1027C97.0519 17.7536 97.0925 18.3198 97.2923 18.8014C97.501 19.2829 97.8513 19.653 98.3433 19.9116C98.8352 20.1702 99.445 20.2994 100.173 20.2994Z" fill="white"/>
<path d="M138.013 12.0868L136.185 22.1185H134.002L135.525 14.0255L130.269 22.1185H127.911L125.664 13.892L124.165 22.1185H121.995L123.823 12.0868H127.34L129.468 19.9146L134.496 12.0868H138.013Z" fill="white"/>
<path d="M155.389 12.0868C156.565 12.0868 157.556 12.2963 158.36 12.7154C159.173 13.1345 159.758 13.7186 160.116 14.4676C160.474 15.2167 160.561 16.095 160.377 17.1027C160.195 18.1014 159.788 18.9797 159.156 19.7377C158.525 20.4867 157.727 21.0708 156.761 21.4899C155.804 21.909 154.737 22.1185 153.561 22.1185H148.763L150.591 12.0868H155.389ZM151.416 20.1122H154.101C154.784 20.1122 155.404 19.9874 155.962 19.7377C156.528 19.488 156.992 19.1358 157.354 18.681C157.715 18.2262 157.95 17.7001 158.059 17.1027C158.17 16.4963 158.126 15.9702 157.929 15.5243C157.733 15.0695 157.398 14.7173 156.922 14.4676C156.456 14.218 155.881 14.0931 155.198 14.0931L152.57 14.0861L151.416 20.1122Z" fill="white"/>
<path d="M162.87 12.0868H165.161L163.332 22.1185H161.042L162.87 12.0868Z" fill="white"/>
<path d="M147.358 17.9716L147.675 16.2328L141.816 16.2509V13.9723H148.438L148.781 12.0863H139.752L139.62 17.1022L137.924 22.1181H147.021L147.364 20.2321H140.75L141.52 17.9716H147.358Z" fill="white"/>
<path d="M109.149 12.0863L107.321 22.1181H109.383L113.553 17.9713L115.177 22.1181H117.792L115.177 16.3561L119.472 12.0863H117.032L110.076 19.1062L111.426 12.0863H109.149Z" fill="white"/>
<path fill-rule="evenodd" clip-rule="evenodd" d="M69.1952 20.0047H63.5606L62.2156 22.1181H59.7764L66.3345 12.0863H69.2724L72.1745 22.1181H69.7353L69.1952 20.0047ZM64.735 18.1587H68.7232L67.5805 13.6876L64.735 18.1587Z" fill="white"/>
<path fill-rule="evenodd" clip-rule="evenodd" d="M174.021 20.0047H168.386L167.041 22.1181H164.602L171.16 12.0863H174.098L177 22.1181H174.561L174.021 20.0047ZM169.561 18.1587H173.549L172.406 13.6876L169.561 18.1587Z" fill="white"/>
<path d="M57.1646 22.1181L58.7174 14.0852L62.6429 14.0927L63.0085 12.0863H52.6858L52.3202 14.0927H56.311L54.8871 22.1181H57.1646Z" fill="white"/>
<path d="M89.5521 22.1181L91.1049 14.0852L95.0304 14.0927L95.396 12.0863H85.0733L84.7077 14.0927H88.6985L87.2746 22.1181H89.5521Z" fill="white"/>
<path fill-rule="evenodd" clip-rule="evenodd" d="M75.5529 22.1181H73.262L75.09 12.0863H80.8443C81.581 12.0863 82.2035 12.22 82.7117 12.4876C83.2216 12.7462 83.5915 13.1073 83.8215 13.571C84.0514 14.0347 84.1095 14.5786 83.9958 15.2028C83.8837 15.8181 83.6282 16.3576 83.2292 16.8213C82.8303 17.285 81.8913 17.8395 81.7222 17.9181C81.553 17.9967 81.0093 18.1611 80.5771 18.2418L83.0322 22.1181H80.3504L77.9692 18.306H76.2476L75.5529 22.1181ZM79.7628 16.5401C80.2749 16.5401 80.7003 16.4242 81.039 16.1923C81.3884 15.9516 81.6012 15.6216 81.6776 15.2025C81.754 14.7834 81.6605 14.4579 81.3973 14.2261C81.1431 13.9942 80.7599 13.8783 80.2478 13.8783H77.054L76.569 16.5401H79.7628Z" fill="white"/>
<defs>
<linearGradient id="paint0_linear_1674_8998" x1="37.5207" y1="-5.20749e-07" x2="42.666" y2="45.285" gradientUnits="userSpaceOnUse">
<stop stop-color="#FFD916"/>
<stop offset="0.354167" stop-color="#FF1510"/>
<stop offset="0.671875" stop-color="#6705FF"/>
</linearGradient>
</defs>
</svg>
