<svg width="43" height="43" viewBox="0 0 43 43" fill="none" xmlns="http://www.w3.org/2000/svg">
<path fill-rule="evenodd" clip-rule="evenodd" d="M17.423 3.45486C21.3143 2.57567 25.3855 2.97791 29.0296 4.60159C29.7863 4.93876 30.673 4.59866 31.0102 3.84195C31.3474 3.08524 31.0073 2.19848 30.2506 1.86131C26.0156 -0.0256695 21.2842 -0.493139 16.7618 0.528621C12.2395 1.55038 8.16862 4.00662 5.15631 7.53102C2.144 11.0554 0.35166 15.4591 0.0466051 20.0854C-0.258449 24.7117 0.940124 29.3126 3.46357 33.202C5.98702 37.0915 9.70013 40.061 14.0491 41.6677C18.3981 43.2745 23.15 43.4323 27.5961 42.1178C32.0421 40.8032 35.9441 38.0867 38.7201 34.3733C41.4961 30.6599 42.9974 26.1487 43.0001 21.5123V21.5115V19.6715C43.0001 18.843 42.3285 18.1715 41.5001 18.1715C40.6716 18.1715 40.0001 18.843 40.0001 19.6715V21.5106C39.9978 25.5 38.706 29.3818 36.3173 32.577C33.9287 35.7722 30.5711 38.1097 26.7455 39.2409C22.9198 40.372 18.831 40.2362 15.0888 38.8536C11.3466 37.4711 8.15162 34.9159 5.98028 31.5692C3.80895 28.2225 2.77762 24.2635 3.0401 20.2828C3.30259 16.3021 4.84484 12.5128 7.43683 9.48019C10.0288 6.44756 13.5317 4.33405 17.423 3.45486ZM42.5613 6.57186C43.1467 5.98578 43.1463 5.03603 42.5602 4.45054C41.9741 3.86504 41.0244 3.86552 40.4389 4.4516L21.4995 23.4099L16.5607 18.4711C15.9749 17.8853 15.0251 17.8853 14.4394 18.4711C13.8536 19.0569 13.8536 20.0066 14.4394 20.5924L20.4394 26.5924C20.7208 26.8738 21.1025 27.0319 21.5004 27.0318C21.8984 27.0317 22.28 26.8734 22.5612 26.5919L42.5613 6.57186Z" fill="url(#paint0_linear_1905_1986)"/>
<defs>
<linearGradient id="paint0_linear_1905_1986" x1="-4.7118" y1="-6.45001" x2="54.0072" y2="48.453" gradientUnits="userSpaceOnUse">
<stop stop-color="#FFD916"/>
<stop offset="0.489289" stop-color="#FF1914"/>
<stop offset="1" stop-color="#6705FF"/>
</linearGradient>
</defs>
</svg>
