<svg width="526" height="382" viewBox="0 0 526 382" fill="none" xmlns="http://www.w3.org/2000/svg">
<rect y="146.332" width="382" height="200" rx="10" transform="rotate(-2 0 146.332)" fill="url(#paint0_radial_1674_24947)"/>
<g filter="url(#filter0_f_1674_24947)">
<circle cx="334.874" cy="191.105" r="44.5" fill="#FFD916"/>
</g>
<path d="M343.187 174.373L362.477 153.687" stroke="white" stroke-width="2" stroke-linecap="round" stroke-linejoin="round"/>
<path d="M342.489 154.385L362.477 153.687L363.175 173.675" stroke="white" stroke-width="2" stroke-linecap="round" stroke-linejoin="round"/>
<path d="M122.636 230.271L122.989 229.37C124.397 229.353 125.556 229.529 126.466 229.897C127.391 230.265 128.082 230.793 128.538 231.482C129.01 232.154 129.262 232.937 129.293 233.833C129.327 234.808 129.133 235.687 128.713 236.471C128.291 237.238 127.64 237.853 126.76 238.316C125.895 238.778 124.8 239.033 123.472 239.079L110.52 239.531L111.589 230.248L109.892 221.542L122.388 221.106C124.051 221.048 125.352 221.395 126.291 222.146C127.245 222.882 127.746 223.929 127.794 225.288C127.82 226.039 127.669 226.765 127.341 227.465C127.014 228.165 126.474 228.768 125.724 229.275C124.972 229.765 123.943 230.097 122.636 230.271ZM114.943 238.272L113.142 236.198L122.28 235.879C123.063 235.851 123.665 235.646 124.084 235.263C124.518 234.864 124.723 234.321 124.699 233.633C124.675 232.945 124.408 232.41 123.899 232.028C123.404 231.629 122.677 231.446 121.718 231.48L114.235 231.741L114.124 228.575L121.032 228.334C121.687 228.311 122.225 228.108 122.644 227.725C123.062 227.326 123.26 226.799 123.237 226.143C123.218 225.616 123.011 225.191 122.616 224.868C122.236 224.529 121.702 224.372 121.014 224.396L112.763 224.684L114.392 222.49L115.93 230.097L114.943 238.272ZM134.826 228.596L141.566 228.361C142.413 228.332 143.078 228.116 143.561 227.715C144.042 227.298 144.271 226.738 144.246 226.034C144.222 225.331 143.955 224.796 143.446 224.429C142.936 224.047 142.258 223.87 141.41 223.9L134.023 224.158L135.983 221.856L136.569 238.622L132.036 238.78L131.408 220.791L141.889 220.425C143.232 220.378 144.416 220.577 145.44 221.021C146.464 221.466 147.271 222.102 147.86 222.93C148.449 223.758 148.764 224.74 148.804 225.875C148.843 226.994 148.597 227.987 148.067 228.855C147.537 229.722 146.777 230.413 145.786 230.927C144.795 231.442 143.628 231.723 142.285 231.77L134.946 232.026L134.826 228.596ZM137.786 230.15L142.895 229.972L149.809 238.159L144.556 238.343L137.786 230.15ZM154.94 234.354L154.812 230.684L167.236 230.25L167.364 233.92L154.94 234.354ZM163.697 219.663L172.624 237.363L167.803 237.531L160.117 221.686L161.508 221.637L154.97 237.979L150.125 238.148L157.82 219.869L163.697 219.663ZM191.017 233.622L189.563 233.937L189.034 218.779L193.423 218.625L194.051 236.614L188.343 236.814L176.852 222.038L178.306 221.723L178.844 237.145L174.455 237.299L173.827 219.31L179.703 219.104L191.017 233.622ZM205.701 218.197C207.812 218.123 209.672 218.434 211.281 219.13C212.89 219.827 214.158 220.831 215.084 222.144C216.027 223.455 216.529 225.015 216.593 226.822C216.655 228.613 216.262 230.203 215.414 231.594C214.582 232.968 213.387 234.058 211.83 234.865C210.274 235.672 208.44 236.112 206.329 236.186L197.55 236.492L196.922 218.503L205.701 218.197ZM201.995 234.488L199.713 232.406L206.525 232.168C207.676 232.128 208.668 231.885 209.501 231.44C210.334 230.995 210.97 230.396 211.408 229.644C211.845 228.877 212.047 227.989 212.011 226.982C211.976 225.958 211.713 225.087 211.224 224.368C210.734 223.648 210.059 223.096 209.197 222.709C208.335 222.323 207.328 222.15 206.177 222.19L199.365 222.428L201.496 220.193L201.995 234.488ZM218.964 217.733L223.497 217.575L224.125 235.564L219.592 235.723L218.964 217.733ZM244.188 231.766L242.734 232.081L242.204 216.922L246.594 216.769L247.222 234.758L241.513 234.957L230.023 220.181L231.477 219.866L232.015 235.289L227.626 235.442L226.998 217.453L232.874 217.248L244.188 231.766ZM268.774 226.2C268.78 227.289 268.6 228.336 268.235 229.341C267.869 230.33 267.324 231.222 266.599 232.016C265.874 232.794 264.968 233.426 263.88 233.912C262.792 234.382 261.512 234.643 260.041 234.694C258.634 234.743 257.307 234.582 256.062 234.209C254.832 233.836 253.739 233.265 252.784 232.498C251.828 231.731 251.075 230.773 250.522 229.623C249.97 228.474 249.667 227.156 249.616 225.669C249.564 224.181 249.773 222.845 250.244 221.66C250.731 220.474 251.424 219.466 252.324 218.634C253.239 217.801 254.313 217.155 255.546 216.696C256.795 216.236 258.163 215.98 259.65 215.928C261.585 215.861 263.274 216.106 264.718 216.664C266.179 217.221 267.359 218.013 268.26 219.038C269.176 220.063 269.778 221.258 270.066 222.625L265.485 222.785C265.301 222.119 264.945 221.555 264.417 221.093C263.888 220.631 263.228 220.286 262.436 220.058C261.659 219.813 260.774 219.708 259.783 219.742C258.584 219.784 257.56 220.036 256.711 220.498C255.862 220.944 255.213 221.591 254.762 222.439C254.311 223.271 254.106 224.295 254.149 225.51C254.191 226.726 254.483 227.748 255.024 228.578C255.566 229.407 256.308 230.022 257.25 230.421C258.193 230.82 259.295 230.998 260.559 230.954C261.79 230.911 262.863 230.689 263.777 230.289C264.708 229.888 265.433 229.335 265.953 228.628C266.488 227.921 266.779 227.086 266.826 226.124L268.774 226.2ZM260.994 228.297L260.882 225.083L270.308 224.754L270.629 233.94L267.391 234.053L266.516 226.88L267.47 228.071L260.994 228.297Z" fill="white"/>
<path d="M121.298 263.899L120.987 255.012L124.021 254.906C124.909 254.875 125.643 254.918 126.223 255.033C126.812 255.149 127.308 255.372 127.711 255.702C128.123 256.024 128.422 256.466 128.61 257.027C128.798 257.589 128.907 258.306 128.937 259.177C128.996 260.848 128.665 262.021 127.944 262.694C127.231 263.367 125.995 263.735 124.236 263.796L121.298 263.899ZM122.702 262.505L124.261 262.45C125.548 262.406 126.416 262.147 126.863 261.675C127.311 261.203 127.515 260.388 127.474 259.228C127.453 258.629 127.393 258.147 127.292 257.782C127.191 257.417 127.012 257.115 126.756 256.876C126.507 256.629 126.169 256.464 125.742 256.383C125.323 256.294 124.773 256.261 124.094 256.285L122.487 256.341L122.702 262.505ZM133.889 263.591C133.21 263.615 132.639 263.547 132.177 263.387C131.715 263.227 131.362 262.983 131.119 262.655C130.875 262.32 130.698 261.962 130.589 261.581C130.487 261.192 130.427 260.734 130.409 260.207C130.391 259.687 130.423 259.233 130.506 258.846C130.588 258.451 130.739 258.082 130.959 257.738C131.179 257.386 131.514 257.114 131.963 256.922C132.413 256.722 132.965 256.611 133.621 256.588C134.012 256.575 134.362 256.602 134.668 256.672C134.982 256.733 135.242 256.832 135.447 256.969C135.66 257.097 135.841 257.259 135.992 257.454C136.143 257.641 136.254 257.853 136.327 258.091C136.407 258.32 136.471 258.57 136.521 258.84C136.578 259.111 136.608 259.394 136.611 259.69C136.621 259.978 136.631 260.273 136.642 260.577L131.785 260.747C131.853 261.321 132.036 261.747 132.334 262.024C132.639 262.294 133.144 262.416 133.847 262.392C134.335 262.375 134.733 262.309 135.041 262.194C135.349 262.071 135.647 261.897 135.935 261.671L136.713 262.616C135.974 263.226 135.032 263.551 133.889 263.591ZM133.628 257.825C132.972 257.848 132.501 258.004 132.215 258.294C131.937 258.584 131.78 258.998 131.742 259.536L135.28 259.412C135.254 259.117 135.222 258.894 135.185 258.743C135.147 258.584 135.074 258.423 134.964 258.258C134.854 258.086 134.689 257.968 134.471 257.903C134.253 257.839 133.972 257.813 133.628 257.825ZM140.971 263.332C139.78 263.373 138.771 263.136 137.944 262.621L138.626 261.517C139.346 261.948 140.141 262.148 141.013 262.118C141.572 262.098 141.958 262.029 142.17 261.909C142.382 261.79 142.482 261.566 142.471 261.238C142.462 260.974 142.355 260.798 142.152 260.709C141.957 260.612 141.561 260.526 140.966 260.45C140.58 260.4 140.275 260.354 140.049 260.314C139.823 260.274 139.577 260.211 139.31 260.124C139.042 260.029 138.838 259.916 138.698 259.785C138.557 259.646 138.434 259.462 138.33 259.233C138.234 259.005 138.181 258.734 138.17 258.423C138.147 257.759 138.341 257.256 138.754 256.913C139.166 256.563 139.855 256.371 140.823 256.337C141.894 256.299 142.78 256.469 143.482 256.844L142.863 258.019C142.284 257.735 141.631 257.605 140.904 257.631C140.376 257.649 140.014 257.718 139.818 257.837C139.63 257.955 139.541 258.135 139.549 258.374C139.558 258.63 139.66 258.811 139.856 258.916C140.052 259.013 140.419 259.097 140.957 259.166C141.384 259.223 141.702 259.272 141.911 259.313C142.12 259.345 142.367 259.409 142.65 259.503C142.941 259.589 143.153 259.693 143.286 259.817C143.426 259.94 143.548 260.112 143.652 260.332C143.756 260.553 143.813 260.815 143.823 261.119C143.85 261.886 143.641 262.438 143.197 262.774C142.76 263.109 142.018 263.295 140.971 263.332ZM145.678 263.047L145.444 256.331L146.823 256.283L147.057 262.999L145.678 263.047ZM145.406 255.6L145.352 254.065L146.756 254.016L146.809 255.551L145.406 255.6ZM151.957 260.379C151.565 260.392 151.216 260.38 150.911 260.343C150.834 260.45 150.798 260.563 150.802 260.683C150.809 260.867 150.893 260.984 151.055 261.035C151.225 261.085 151.565 261.101 152.077 261.083C153.372 261.038 154.256 261.131 154.729 261.362C155.209 261.594 155.461 262.061 155.486 262.765C155.512 263.508 155.259 264.05 154.726 264.388C154.202 264.735 153.32 264.93 152.081 264.973C150.858 265.016 149.998 264.93 149.502 264.715C149.015 264.508 148.76 264.08 148.737 263.433C148.708 262.585 149.137 262.054 150.026 261.839C149.74 261.673 149.59 261.378 149.575 260.954C149.563 260.602 149.644 260.287 149.818 260.009C149.262 259.676 148.971 259.114 148.943 258.323C148.917 257.571 149.133 256.999 149.591 256.607C150.05 256.215 150.787 256.001 151.802 255.965L151.97 255.959L154.952 255.375L154.992 256.526L153.949 256.563C154.511 256.847 154.805 257.365 154.831 258.117C154.857 258.86 154.641 259.416 154.181 259.785C153.721 260.145 152.98 260.343 151.957 260.379ZM151.919 259.299C152.486 259.279 152.887 259.181 153.121 259.005C153.355 258.821 153.465 258.541 153.452 258.165C153.439 257.789 153.302 257.522 153.04 257.363C152.786 257.196 152.387 257.122 151.843 257.141C151.268 257.161 150.863 257.259 150.629 257.435C150.395 257.611 150.285 257.891 150.298 258.275C150.311 258.651 150.441 258.923 150.687 259.09C150.932 259.25 151.343 259.319 151.919 259.299ZM152.091 263.892C152.867 263.865 153.392 263.771 153.666 263.609C153.949 263.455 154.085 263.214 154.073 262.886C154.063 262.59 153.916 262.399 153.633 262.313C153.35 262.219 152.816 262.186 152.033 262.213C151.489 262.232 151.071 262.287 150.778 262.377C150.485 262.467 150.3 262.57 150.224 262.685C150.156 262.799 150.125 262.952 150.132 263.144C150.143 263.448 150.29 263.655 150.574 263.765C150.866 263.875 151.372 263.917 152.091 263.892ZM157.223 262.644L156.991 256.012L158.08 255.89L158.22 256.474C158.611 255.964 159.422 255.687 160.653 255.644C161.157 255.627 161.575 255.676 161.907 255.793C162.247 255.909 162.502 256.1 162.671 256.366C162.84 256.625 162.958 256.905 163.025 257.206C163.099 257.508 163.145 257.891 163.161 258.354L163.303 262.432L161.912 262.48L161.779 258.679C161.769 258.391 161.745 258.164 161.708 257.997C161.677 257.822 161.612 257.652 161.51 257.487C161.416 257.323 161.264 257.208 161.053 257.143C160.843 257.071 160.57 257.04 160.234 257.052C159.522 257.077 159.048 257.245 158.811 257.558C158.581 257.862 158.477 258.314 158.498 258.913L158.626 262.595L157.223 262.644ZM171.441 262.268C170.314 262.307 169.491 262.14 168.974 261.766C168.465 261.391 168.194 260.744 168.162 259.825C168.14 259.201 168.286 258.684 168.6 258.273C168.914 257.861 169.353 257.494 169.918 257.17C169.607 256.5 169.441 255.878 169.421 255.302C169.396 254.598 169.57 254.064 169.941 253.699C170.32 253.325 170.854 253.127 171.541 253.103C172.229 253.079 172.747 253.233 173.094 253.565C173.45 253.889 173.641 254.418 173.666 255.154C173.686 255.721 173.522 256.191 173.175 256.564C172.836 256.928 172.356 257.281 171.735 257.623C172.148 258.209 172.598 258.709 173.084 259.125C173.34 259.348 173.604 259.563 173.875 259.769C174.232 259.205 174.585 258.192 174.934 256.731L176.12 256.989C175.774 258.538 175.381 259.673 174.942 260.392C175.454 260.623 176.018 260.727 176.634 260.706L176.742 260.702L176.786 261.961L176.63 261.967C175.622 262.002 174.756 261.828 174.03 261.445C173.383 261.956 172.52 262.23 171.441 262.268ZM171.4 261.093C172.008 261.071 172.512 260.946 172.912 260.716C172.64 260.509 172.348 260.259 172.033 259.966C171.455 259.45 170.946 258.863 170.507 258.206C169.827 258.67 169.496 259.186 169.516 259.753C169.533 260.225 169.665 260.573 169.913 260.796C170.169 261.019 170.665 261.118 171.4 261.093ZM170.74 255.256C170.755 255.688 170.896 256.159 171.162 256.67C171.586 256.431 171.906 256.2 172.122 255.976C172.346 255.752 172.453 255.492 172.443 255.197C172.432 254.885 172.36 254.659 172.227 254.52C172.102 254.38 171.888 254.315 171.584 254.326C171 254.346 170.719 254.656 170.74 255.256ZM182.182 261.773L181.872 252.886L184.906 252.78C185.793 252.749 186.527 252.792 187.108 252.907C187.696 253.023 188.192 253.246 188.596 253.576C189.007 253.898 189.307 254.339 189.495 254.901C189.682 255.463 189.791 256.18 189.822 257.051C189.88 258.722 189.549 259.894 188.828 260.568C188.115 261.241 186.879 261.609 185.12 261.67L182.182 261.773ZM183.586 260.379L185.145 260.324C186.432 260.279 187.3 260.021 187.748 259.549C188.196 259.077 188.399 258.262 188.359 257.102C188.338 256.503 188.277 256.02 188.176 255.656C188.075 255.291 187.897 254.989 187.64 254.75C187.391 254.502 187.054 254.338 186.626 254.257C186.207 254.168 185.658 254.135 184.978 254.158L183.371 254.215L183.586 260.379ZM194.774 261.465C194.094 261.489 193.523 261.421 193.061 261.261C192.6 261.101 192.247 260.857 192.003 260.529C191.759 260.193 191.583 259.835 191.473 259.455C191.372 259.066 191.312 258.608 191.293 258.08C191.275 257.561 191.307 257.107 191.39 256.72C191.472 256.325 191.623 255.956 191.844 255.612C192.063 255.26 192.398 254.988 192.848 254.796C193.297 254.596 193.849 254.485 194.505 254.462C194.897 254.448 195.246 254.476 195.553 254.546C195.867 254.607 196.127 254.706 196.331 254.843C196.544 254.971 196.726 255.133 196.877 255.328C197.027 255.515 197.139 255.727 197.211 255.965C197.291 256.194 197.356 256.444 197.405 256.714C197.463 256.984 197.493 257.268 197.495 257.564C197.505 257.851 197.515 258.147 197.526 258.451L192.669 258.621C192.737 259.195 192.92 259.621 193.218 259.898C193.524 260.168 194.028 260.29 194.732 260.266C195.219 260.249 195.617 260.183 195.926 260.068C196.233 259.945 196.532 259.771 196.82 259.544L197.597 260.49C196.858 261.1 195.917 261.425 194.774 261.465ZM194.512 255.699C193.857 255.722 193.386 255.878 193.1 256.168C192.822 256.458 192.664 256.872 192.627 257.409L196.165 257.286C196.138 256.991 196.106 256.768 196.069 256.617C196.032 256.458 195.958 256.297 195.848 256.132C195.738 255.96 195.574 255.842 195.355 255.777C195.137 255.713 194.856 255.687 194.512 255.699ZM201.232 261.167L198.333 254.485L199.82 254.433L201.941 259.474L203.718 254.297L205.169 254.246L202.743 261.115L201.232 261.167ZM209.564 260.949C208.885 260.972 208.314 260.904 207.852 260.744C207.39 260.584 207.038 260.34 206.794 260.013C206.55 259.677 206.374 259.319 206.264 258.938C206.163 258.55 206.103 258.092 206.084 257.564C206.066 257.044 206.098 256.591 206.181 256.204C206.263 255.809 206.414 255.439 206.634 255.095C206.854 254.743 207.189 254.471 207.639 254.28C208.088 254.08 208.64 253.969 209.296 253.946C209.688 253.932 210.037 253.96 210.343 254.029C210.658 254.09 210.917 254.189 211.122 254.326C211.335 254.455 211.517 254.617 211.668 254.811C211.818 254.998 211.93 255.21 212.002 255.448C212.082 255.677 212.147 255.927 212.196 256.198C212.254 256.468 212.284 256.751 212.286 257.047C212.296 257.335 212.306 257.631 212.317 257.935L207.46 258.104C207.528 258.678 207.711 259.104 208.009 259.382C208.314 259.651 208.819 259.774 209.523 259.749C210.01 259.732 210.408 259.666 210.716 259.551C211.024 259.429 211.322 259.254 211.611 259.028L212.388 259.973C211.649 260.584 210.708 260.909 209.564 260.949ZM209.303 255.182C208.647 255.205 208.177 255.362 207.891 255.652C207.613 255.942 207.455 256.355 207.418 256.893L210.955 256.769C210.929 256.474 210.897 256.251 210.86 256.1C210.822 255.942 210.749 255.78 210.639 255.616C210.529 255.443 210.365 255.325 210.146 255.261C209.928 255.196 209.647 255.17 209.303 255.182ZM215.958 260.605C215.382 260.625 214.966 260.504 214.708 260.241C214.451 259.969 214.31 259.49 214.286 258.802L214.025 251.343L215.404 251.295L215.659 258.586C215.67 258.89 215.721 259.097 215.813 259.205C215.904 259.306 216.102 259.351 216.406 259.341L216.658 259.332L216.7 260.555C216.541 260.577 216.293 260.593 215.958 260.605ZM223.823 259.574C223.316 260.176 222.47 260.498 221.287 260.539C220.104 260.58 219.234 260.319 218.678 259.754C218.13 259.188 217.836 258.322 217.795 257.155C217.754 255.988 217.987 255.103 218.495 254.501C219.01 253.899 219.859 253.577 221.043 253.535C222.226 253.494 223.091 253.756 223.64 254.321C224.196 254.886 224.494 255.752 224.535 256.92C224.576 258.087 224.338 258.972 223.823 259.574ZM219.701 258.781C220.017 259.139 220.532 259.305 221.243 259.28C221.955 259.255 222.452 259.054 222.735 258.675C223.026 258.289 223.158 257.732 223.133 257.005C223.107 256.277 222.936 255.735 222.62 255.377C222.311 255.02 221.801 254.854 221.089 254.879C220.378 254.903 219.877 255.105 219.586 255.483C219.303 255.862 219.174 256.414 219.199 257.142C219.225 257.877 219.392 258.424 219.701 258.781ZM226.538 262.205L226.238 253.594L227.326 253.472L227.468 254.115C227.834 253.566 228.676 253.269 229.995 253.223C230.547 253.204 231.017 253.275 231.407 253.438C231.797 253.592 232.101 253.83 232.321 254.15C232.54 254.471 232.701 254.829 232.803 255.226C232.904 255.623 232.965 256.089 232.983 256.625C233.002 257.152 232.97 257.618 232.888 258.021C232.814 258.424 232.675 258.793 232.47 259.128C232.266 259.463 231.971 259.722 231.585 259.903C231.199 260.085 230.726 260.185 230.167 260.205C228.967 260.247 228.195 260.03 227.851 259.553L227.941 262.156L226.538 262.205ZM229.871 258.955C230.534 258.931 230.988 258.735 231.231 258.367C231.482 257.99 231.595 257.442 231.57 256.722C231.545 255.994 231.398 255.451 231.129 255.092C230.86 254.726 230.39 254.554 229.718 254.577C228.974 254.603 228.453 254.79 228.153 255.136C227.86 255.483 227.728 256.056 227.756 256.855C227.784 257.655 227.952 258.213 228.259 258.531C228.574 258.84 229.111 258.981 229.871 258.955ZM234.913 259.931L234.681 253.299L235.77 253.177L235.91 253.761C236.228 253.253 237.015 252.978 238.271 252.934C239.39 252.895 240.071 253.135 240.313 253.655C240.67 253.114 241.509 252.821 242.828 252.775C243.332 252.757 243.745 252.807 244.07 252.923C244.402 253.04 244.649 253.231 244.81 253.498C244.979 253.756 245.093 254.036 245.152 254.338C245.218 254.632 245.259 255.015 245.276 255.487L245.418 259.564L244.015 259.613L243.882 255.812C243.874 255.564 243.863 255.376 243.851 255.248C243.838 255.121 243.805 254.974 243.751 254.808C243.697 254.641 243.621 254.52 243.522 254.443C243.424 254.367 243.281 254.304 243.096 254.254C242.909 254.197 242.681 254.173 242.409 254.182C241.705 254.207 241.243 254.371 241.021 254.675C240.807 254.978 240.711 255.434 240.733 256.042L240.861 259.724L239.47 259.772L239.337 255.97C239.329 255.731 239.318 255.547 239.306 255.419C239.293 255.284 239.256 255.133 239.194 254.967C239.14 254.801 239.064 254.679 238.965 254.603C238.867 254.526 238.724 254.463 238.538 254.413C238.352 254.356 238.123 254.332 237.851 254.341C237.148 254.366 236.689 254.53 236.476 254.834C236.262 255.137 236.166 255.593 236.187 256.2L236.316 259.882L234.913 259.931ZM250.541 259.518C249.861 259.541 249.291 259.473 248.829 259.313C248.367 259.153 248.014 258.909 247.771 258.582C247.527 258.246 247.35 257.888 247.241 257.508C247.139 257.119 247.079 256.661 247.061 256.133C247.043 255.613 247.075 255.16 247.157 254.773C247.24 254.378 247.391 254.008 247.611 253.664C247.831 253.312 248.166 253.041 248.615 252.849C249.064 252.649 249.617 252.538 250.272 252.515C250.664 252.501 251.013 252.529 251.32 252.598C251.634 252.659 251.894 252.758 252.099 252.895C252.311 253.024 252.493 253.186 252.644 253.38C252.795 253.567 252.906 253.78 252.979 254.017C253.059 254.246 253.123 254.496 253.173 254.767C253.23 255.037 253.26 255.32 253.263 255.616C253.273 255.904 253.283 256.2 253.294 256.504L248.436 256.673C248.505 257.247 248.688 257.673 248.985 257.951C249.291 258.22 249.796 258.343 250.499 258.318C250.987 258.301 251.385 258.235 251.693 258.121C252.001 257.998 252.299 257.823 252.587 257.597L253.365 258.542C252.626 259.153 251.684 259.478 250.541 259.518ZM250.28 253.751C249.624 253.774 249.153 253.931 248.867 254.221C248.589 254.511 248.431 254.924 248.394 255.462L251.932 255.338C251.906 255.043 251.874 254.82 251.837 254.669C251.799 254.511 251.725 254.349 251.616 254.185C251.505 254.013 251.341 253.894 251.123 253.83C250.904 253.765 250.623 253.739 250.28 253.751ZM255.255 259.221L255.023 252.589L256.112 252.467L256.252 253.05C256.643 252.54 257.453 252.264 258.685 252.221C259.188 252.203 259.606 252.253 259.939 252.369C260.279 252.485 260.534 252.677 260.703 252.943C260.872 253.201 260.99 253.481 261.057 253.783C261.131 254.085 261.177 254.467 261.193 254.931L261.335 259.009L259.944 259.057L259.811 255.255C259.801 254.968 259.777 254.74 259.739 254.574C259.709 254.398 259.643 254.229 259.542 254.064C259.448 253.899 259.296 253.785 259.085 253.72C258.875 253.647 258.601 253.617 258.266 253.628C257.554 253.653 257.08 253.822 256.842 254.134C256.613 254.439 256.509 254.89 256.529 255.49L256.658 259.172L255.255 259.221ZM262.747 253.508L262.703 252.237L263.902 252.195L264.091 250.387L265.175 250.121L265.245 252.148L266.96 252.088L267.005 253.359L265.29 253.419L265.405 256.729C265.416 257.049 265.481 257.279 265.598 257.419C265.714 257.551 265.972 257.61 266.372 257.596L267.152 257.569L267.195 258.804C267.067 258.816 266.72 258.833 266.152 258.852C265.352 258.88 264.804 258.751 264.505 258.466C264.207 258.18 264.046 257.685 264.021 256.982L263.899 253.468L262.747 253.508Z" fill="white"/>
<defs>
<filter id="filter0_f_1674_24947" x="144.374" y="0.605469" width="381" height="381" filterUnits="userSpaceOnUse" color-interpolation-filters="sRGB">
<feFlood flood-opacity="0" result="BackgroundImageFix"/>
<feBlend mode="normal" in="SourceGraphic" in2="BackgroundImageFix" result="shape"/>
<feGaussianBlur stdDeviation="73" result="effect1_foregroundBlur_1674_24947"/>
</filter>
<radialGradient id="paint0_radial_1674_24947" cx="0" cy="0" r="1" gradientUnits="userSpaceOnUse" gradientTransform="translate(382.606 146.353) rotate(152.405) scale(431.716 824.578)">
<stop stop-color="#FFD916"/>
<stop offset="0.361364" stop-color="#FF1914"/>
<stop offset="0.9999" stop-color="#6705FF"/>
<stop offset="1" stop-color="#151515" stop-opacity="0"/>
</radialGradient>
</defs>
</svg>
