<svg width="526" height="382" viewBox="0 0 526 382" fill="none" xmlns="http://www.w3.org/2000/svg">
<rect y="146.332" width="382" height="200" rx="10" transform="rotate(-2 0 146.332)" fill="url(#paint0_radial_1674_24952)"/>
<g filter="url(#filter0_f_1674_24952)">
<circle cx="334.874" cy="191.105" r="44.5" fill="#FFD916"/>
</g>
<path d="M343.187 174.373L362.477 153.687" stroke="white" stroke-width="2" stroke-linecap="round" stroke-linejoin="round"/>
<path d="M342.489 154.385L362.477 153.687L363.175 173.675" stroke="white" stroke-width="2" stroke-linecap="round" stroke-linejoin="round"/>
<path d="M110.444 221.523L114.977 221.365L115.605 239.354L111.072 239.512L110.444 221.523ZM135.668 235.555L134.214 235.87L133.685 220.712L138.074 220.558L138.702 238.547L132.994 238.747L121.503 223.971L122.957 223.656L123.495 239.078L119.106 239.232L118.478 221.243L124.354 221.037L135.668 235.555ZM144.041 227.842L157.065 227.388L157.2 231.249L144.176 231.704L144.041 227.842ZM157.236 219.889L157.37 223.751L144.011 224.217L146.163 221.909L146.735 238.267L142.201 238.425L141.573 220.436L157.236 219.889ZM164.4 219.639L164.958 235.613L162.85 233.694L176.329 233.223L176.469 237.228L160.495 237.786L159.867 219.797L164.4 219.639ZM181.89 229.066C181.921 229.946 182.116 230.707 182.474 231.351C182.848 231.979 183.369 232.457 184.037 232.786C184.705 233.098 185.518 233.238 186.477 233.205C187.437 233.171 188.239 232.975 188.882 232.616C189.526 232.242 190.004 231.729 190.318 231.077C190.646 230.409 190.796 229.636 190.765 228.756L190.415 218.73L194.948 218.572L195.306 228.814C195.363 230.445 195.036 231.881 194.327 233.123C193.618 234.364 192.604 235.352 191.285 236.087C189.965 236.805 188.41 237.196 186.619 237.258C184.828 237.321 183.249 237.04 181.883 236.415C180.516 235.774 179.435 234.859 178.641 233.67C177.847 232.481 177.422 231.071 177.365 229.44L177.007 219.199L181.54 219.04L181.89 229.066ZM213.601 225.245L213.718 228.603L200.694 229.058L200.577 225.7L213.601 225.245ZM203.705 227.272L202.766 234.749L200.796 232.657L214.611 232.174L214.741 235.892L198.287 236.467L199.364 227.423L197.659 218.477L213.993 217.907L214.123 221.625L200.427 222.103L202.247 219.878L203.705 227.272ZM234.28 232.112L232.826 232.427L232.296 217.268L236.686 217.115L237.314 235.104L231.605 235.303L220.115 220.527L221.569 220.212L222.107 235.635L217.718 235.788L217.09 217.799L222.966 217.594L234.28 232.112ZM260.293 226.857C260.172 228.414 259.684 229.8 258.83 231.014C257.975 232.213 256.824 233.166 255.375 233.873C253.927 234.58 252.268 234.966 250.397 235.031C248.318 235.104 246.481 234.776 244.887 234.047C243.309 233.317 242.063 232.264 241.15 230.887C240.238 229.51 239.749 227.886 239.684 226.015C239.618 224.145 239.993 222.49 240.807 221.053C241.621 219.616 242.79 218.478 244.314 217.641C245.854 216.802 247.663 216.347 249.742 216.274C251.613 216.209 253.295 216.479 254.789 217.083C256.283 217.687 257.498 218.557 258.434 219.693C259.371 220.829 259.954 222.178 260.185 223.739L255.627 223.898C255.439 223.088 255.087 222.404 254.571 221.845C254.071 221.286 253.416 220.869 252.606 220.593C251.811 220.301 250.894 220.173 249.855 220.209C248.656 220.251 247.632 220.511 246.784 220.989C245.936 221.45 245.294 222.097 244.859 222.929C244.424 223.761 244.226 224.736 244.265 225.855C244.304 226.975 244.569 227.934 245.062 228.733C245.554 229.533 246.24 230.141 247.119 230.559C247.997 230.96 249.036 231.14 250.235 231.098C251.275 231.062 252.181 230.878 252.954 230.547C253.743 230.215 254.367 229.753 254.827 229.161C255.302 228.568 255.605 227.853 255.736 227.016L260.293 226.857ZM277.78 223.004L277.898 226.362L264.874 226.817L264.756 223.459L277.78 223.004ZM267.885 225.031L266.945 232.508L264.975 230.415L278.791 229.933L278.921 233.651L262.467 234.225L263.544 225.182L261.839 216.236L278.173 215.666L278.302 219.384L264.607 219.862L266.426 217.637L267.885 225.031Z" fill="white"/>
<path d="M139.089 263.277L138.778 254.39L142.76 254.251C143.839 254.213 144.633 254.366 145.141 254.708C145.649 255.043 145.917 255.598 145.944 256.373C145.981 257.429 145.584 258.111 144.755 258.42C145.279 258.53 145.663 258.761 145.908 259.112C146.16 259.456 146.297 259.939 146.318 260.563C146.35 261.474 146.101 262.123 145.57 262.51C145.039 262.889 144.19 263.099 143.022 263.139L139.089 263.277ZM140.471 261.944L143.133 261.851C143.749 261.829 144.193 261.714 144.466 261.504C144.739 261.286 144.867 260.946 144.851 260.482C144.835 260.026 144.683 259.703 144.397 259.513C144.11 259.323 143.655 259.239 143.031 259.261L140.381 259.353L140.471 261.944ZM140.334 258.022L142.937 257.931C143.528 257.911 143.936 257.792 144.161 257.576C144.385 257.36 144.491 257.048 144.476 256.641C144.463 256.249 144.329 255.965 144.075 255.79C143.828 255.615 143.421 255.537 142.854 255.557L140.251 255.648L140.334 258.022ZM148.161 262.96L147.93 256.328L149.018 256.206L149.189 256.968C149.324 256.724 149.585 256.518 149.972 256.353C150.366 256.179 150.839 256.078 151.39 256.051L151.439 257.454C150.68 257.489 150.15 257.675 149.85 258.014C149.557 258.352 149.422 258.833 149.444 259.457L149.565 262.911L148.161 262.96ZM154.97 262.842C154.051 262.874 153.409 262.717 153.045 262.369C152.68 262.022 152.487 261.524 152.464 260.877C152.431 259.933 152.72 259.279 153.332 258.913C153.951 258.539 155.093 258.323 156.756 258.265L157.091 258.253C157.06 257.822 156.942 257.522 156.736 257.353C156.53 257.184 156.111 257.111 155.479 257.133C154.808 257.156 154.167 257.367 153.556 257.765L152.786 256.699C153.06 256.497 153.449 256.307 153.955 256.13C154.469 255.944 155.01 255.841 155.578 255.821C156.161 255.8 156.635 255.832 156.998 255.915C157.369 255.998 157.658 256.152 157.866 256.377C158.074 256.602 158.216 256.869 158.291 257.179C158.373 257.488 158.424 257.899 158.442 258.41L158.52 260.665C158.531 260.977 158.57 261.172 158.637 261.249C158.712 261.327 158.893 261.36 159.181 261.35L159.223 262.562C159.16 262.58 158.968 262.595 158.648 262.606C158.296 262.618 158.031 262.579 157.852 262.489C157.672 262.4 157.534 262.22 157.437 261.952C157.056 262.501 156.233 262.798 154.97 262.842ZM155.168 261.635C155.888 261.609 156.402 261.447 156.712 261.148C157.022 260.849 157.166 260.384 157.144 259.753L157.132 259.405L156.88 259.414C156 259.444 155.334 259.508 154.881 259.603C154.436 259.699 154.137 259.83 153.982 259.995C153.836 260.16 153.768 260.403 153.78 260.723C153.791 261.05 153.895 261.291 154.093 261.444C154.298 261.589 154.657 261.652 155.168 261.635ZM161.008 262.511L160.777 255.879L161.865 255.757L162.005 256.341C162.396 255.831 163.207 255.554 164.438 255.511C164.942 255.494 165.36 255.543 165.692 255.66C166.032 255.776 166.287 255.967 166.456 256.233C166.625 256.492 166.743 256.772 166.81 257.074C166.884 257.375 166.93 257.758 166.946 258.221L167.088 262.299L165.697 262.348L165.564 258.546C165.554 258.258 165.53 258.031 165.493 257.864C165.463 257.689 165.397 257.519 165.295 257.355C165.201 257.19 165.049 257.075 164.838 257.01C164.628 256.938 164.355 256.907 164.019 256.919C163.307 256.944 162.833 257.112 162.596 257.425C162.366 257.729 162.262 258.181 162.283 258.781L162.411 262.462L161.008 262.511ZM171.753 262.256C171.201 262.275 170.731 262.208 170.341 262.053C169.951 261.891 169.643 261.649 169.415 261.329C169.196 261.009 169.031 260.65 168.921 260.254C168.819 259.849 168.759 259.379 168.74 258.843C168.702 257.748 168.892 256.889 169.31 256.266C169.729 255.643 170.478 255.312 171.557 255.275C172.756 255.233 173.529 255.45 173.873 255.926L173.762 252.748L175.166 252.699L175.488 261.946L174.425 262.091L174.244 261.377C173.854 261.919 173.024 262.212 171.753 262.256ZM172.02 260.974C172.756 260.948 173.27 260.758 173.561 260.404C173.861 260.049 173.997 259.468 173.969 258.661C173.941 257.869 173.774 257.319 173.467 257.009C173.16 256.7 172.627 256.558 171.867 256.585C171.188 256.608 170.726 256.805 170.483 257.173C170.24 257.542 170.13 258.082 170.155 258.794C170.181 259.529 170.328 260.085 170.598 260.459C170.875 260.826 171.349 260.998 172.02 260.974ZM183.67 261.84C182.542 261.879 181.72 261.712 181.203 261.338C180.693 260.963 180.423 260.316 180.391 259.397C180.369 258.773 180.515 258.256 180.829 257.845C181.142 257.434 181.582 257.066 182.147 256.742C181.835 256.073 181.67 255.45 181.649 254.874C181.625 254.171 181.798 253.636 182.17 253.271C182.549 252.898 183.082 252.699 183.77 252.675C184.458 252.651 184.975 252.805 185.323 253.137C185.679 253.461 185.869 253.991 185.895 254.726C185.915 255.294 185.751 255.764 185.404 256.136C185.064 256.5 184.584 256.853 183.964 257.195C184.377 257.781 184.826 258.282 185.313 258.697C185.569 258.92 185.833 259.135 186.104 259.342C186.461 258.777 186.813 257.764 187.163 256.303L188.348 256.562C188.002 258.111 187.61 259.245 187.17 259.965C187.683 260.195 188.247 260.299 188.862 260.278L188.97 260.274L189.014 261.533L188.858 261.539C187.851 261.574 186.984 261.4 186.259 261.017C185.612 261.528 184.749 261.802 183.67 261.84ZM183.629 260.665C184.236 260.644 184.74 260.518 185.14 260.288C184.869 260.081 184.576 259.831 184.262 259.538C183.683 259.022 183.175 258.435 182.735 257.778C182.055 258.242 181.725 258.758 181.745 259.326C181.761 259.797 181.894 260.145 182.141 260.368C182.397 260.592 182.893 260.69 183.629 260.665ZM182.969 254.828C182.984 255.26 183.124 255.731 183.39 256.242C183.814 256.003 184.134 255.772 184.351 255.548C184.575 255.324 184.682 255.065 184.672 254.769C184.661 254.457 184.589 254.231 184.456 254.092C184.331 253.952 184.116 253.888 183.813 253.898C183.229 253.919 182.948 254.229 182.969 254.828ZM194.411 261.345L194.1 252.458L198.082 252.319C199.161 252.282 199.955 252.434 200.463 252.776C200.971 253.111 201.239 253.666 201.266 254.441C201.303 255.497 200.906 256.179 200.077 256.488C200.601 256.598 200.985 256.829 201.229 257.18C201.482 257.524 201.619 258.007 201.64 258.631C201.672 259.542 201.423 260.191 200.892 260.578C200.361 260.957 199.512 261.167 198.344 261.208L194.411 261.345ZM195.793 260.012L198.455 259.919C199.071 259.897 199.515 259.782 199.788 259.572C200.061 259.355 200.189 259.014 200.173 258.55C200.157 258.094 200.005 257.771 199.719 257.581C199.432 257.391 198.977 257.307 198.353 257.329L195.703 257.421L195.793 260.012ZM195.656 256.09L198.258 255.999C198.85 255.979 199.258 255.86 199.483 255.644C199.707 255.428 199.813 255.117 199.798 254.709C199.785 254.317 199.651 254.034 199.396 253.858C199.15 253.683 198.743 253.605 198.176 253.625L195.573 253.716L195.656 256.09ZM208.038 260.809C207.643 260.943 207.125 261.021 206.486 261.043C205.846 261.066 205.324 261.024 204.92 260.918C204.516 260.812 204.202 260.627 203.976 260.362C203.751 260.09 203.592 259.78 203.5 259.431C203.415 259.073 203.363 258.615 203.343 258.055L203.213 254.313L204.604 254.265L204.736 258.043C204.745 258.298 204.756 258.494 204.768 258.63C204.781 258.757 204.818 258.912 204.881 259.094C204.943 259.268 205.031 259.397 205.146 259.481C205.261 259.565 205.424 259.635 205.634 259.692C205.852 259.749 206.121 259.771 206.441 259.76C206.761 259.749 207.023 259.708 207.229 259.637C207.442 259.557 207.6 259.475 207.701 259.392C207.81 259.3 207.889 259.161 207.938 258.975C207.988 258.789 208.014 258.632 208.018 258.504C208.022 258.376 208.019 258.176 208.009 257.904L207.878 254.151L209.245 254.103L209.375 257.821C209.395 258.388 209.375 258.853 209.316 259.215C209.256 259.57 209.127 259.89 208.929 260.178C208.731 260.465 208.434 260.675 208.038 260.809ZM213.99 260.781C212.799 260.823 211.79 260.586 210.964 260.07L211.645 258.966C212.365 259.397 213.16 259.597 214.032 259.567C214.592 259.547 214.977 259.478 215.189 259.359C215.401 259.239 215.502 259.015 215.49 258.688C215.481 258.424 215.375 258.247 215.171 258.158C214.976 258.061 214.581 257.975 213.986 257.9C213.6 257.849 213.294 257.804 213.068 257.764C212.843 257.723 212.597 257.66 212.329 257.573C212.062 257.479 211.858 257.366 211.717 257.234C211.576 257.095 211.454 256.911 211.35 256.683C211.254 256.454 211.2 256.184 211.189 255.872C211.166 255.208 211.361 254.705 211.773 254.363C212.185 254.012 212.875 253.82 213.842 253.786C214.913 253.749 215.8 253.918 216.501 254.294L215.882 255.468C215.304 255.184 214.651 255.055 213.923 255.08C213.396 255.099 213.034 255.167 212.838 255.286C212.65 255.405 212.56 255.584 212.568 255.824C212.577 256.08 212.68 256.26 212.875 256.365C213.071 256.463 213.438 256.546 213.977 256.615C214.403 256.672 214.721 256.721 214.931 256.762C215.14 256.795 215.386 256.858 215.67 256.952C215.961 257.038 216.173 257.143 216.305 257.266C216.445 257.389 216.567 257.561 216.671 257.782C216.775 258.002 216.832 258.265 216.843 258.568C216.87 259.336 216.661 259.887 216.216 260.223C215.78 260.559 215.038 260.745 213.99 260.781ZM218.697 260.497L218.463 253.781L219.842 253.733L220.077 260.449L218.697 260.497ZM218.425 253.05L218.372 251.515L219.775 251.466L219.829 253.001L218.425 253.05ZM222.279 260.372L222.047 253.74L223.136 253.618L223.276 254.201C223.667 253.691 224.478 253.415 225.709 253.372C226.213 253.354 226.631 253.404 226.963 253.52C227.303 253.636 227.558 253.827 227.727 254.094C227.896 254.352 228.014 254.632 228.081 254.934C228.155 255.236 228.201 255.618 228.217 256.082L228.359 260.159L226.968 260.208L226.835 256.406C226.825 256.118 226.801 255.891 226.764 255.724C226.733 255.549 226.667 255.38 226.566 255.215C226.472 255.05 226.32 254.935 226.109 254.871C225.899 254.798 225.625 254.768 225.29 254.779C224.578 254.804 224.104 254.973 223.866 255.285C223.637 255.589 223.533 256.041 223.554 256.641L223.682 260.323L222.279 260.372ZM233.492 260.112C232.812 260.136 232.242 260.068 231.78 259.908C231.318 259.748 230.965 259.504 230.722 259.176C230.478 258.841 230.301 258.483 230.192 258.102C230.09 257.713 230.03 257.255 230.012 256.728C229.994 256.208 230.026 255.755 230.108 255.367C230.191 254.972 230.342 254.603 230.562 254.259C230.782 253.907 231.117 253.635 231.566 253.443C232.015 253.244 232.568 253.132 233.223 253.109C233.615 253.096 233.964 253.123 234.271 253.193C234.585 253.254 234.845 253.353 235.05 253.49C235.262 253.618 235.444 253.78 235.595 253.975C235.746 254.162 235.857 254.374 235.93 254.612C236.01 254.841 236.074 255.091 236.124 255.361C236.181 255.632 236.211 255.915 236.214 256.211C236.224 256.499 236.234 256.795 236.245 257.098L231.387 257.268C231.456 257.842 231.639 258.268 231.936 258.546C232.242 258.815 232.747 258.938 233.45 258.913C233.938 258.896 234.336 258.83 234.644 258.715C234.952 258.592 235.25 258.418 235.538 258.192L236.316 259.137C235.577 259.747 234.635 260.072 233.492 260.112ZM233.231 254.346C232.575 254.369 232.104 254.525 231.818 254.815C231.54 255.105 231.382 255.519 231.345 256.057L234.883 255.933C234.857 255.638 234.825 255.415 234.788 255.264C234.75 255.105 234.676 254.944 234.567 254.779C234.456 254.607 234.292 254.489 234.074 254.424C233.855 254.36 233.574 254.334 233.231 254.346ZM240.574 259.853C239.382 259.895 238.374 259.658 237.547 259.142L238.229 258.038C238.948 258.469 239.744 258.669 240.615 258.639C241.175 258.619 241.561 258.55 241.773 258.43C241.985 258.311 242.085 258.087 242.074 257.759C242.064 257.495 241.958 257.319 241.755 257.23C241.559 257.133 241.164 257.047 240.569 256.971C240.183 256.921 239.877 256.875 239.652 256.835C239.426 256.795 239.18 256.732 238.913 256.645C238.645 256.55 238.441 256.437 238.301 256.306C238.16 256.167 238.037 255.983 237.933 255.755C237.837 255.526 237.784 255.255 237.773 254.944C237.75 254.28 237.944 253.777 238.356 253.434C238.768 253.084 239.458 252.892 240.426 252.858C241.497 252.82 242.383 252.99 243.085 253.365L242.465 254.54C241.887 254.256 241.234 254.126 240.507 254.152C239.979 254.17 239.617 254.239 239.421 254.358C239.233 254.476 239.144 254.656 239.152 254.896C239.161 255.151 239.263 255.332 239.459 255.437C239.654 255.534 240.022 255.618 240.56 255.687C240.987 255.744 241.305 255.793 241.514 255.834C241.723 255.866 241.97 255.93 242.253 256.024C242.544 256.11 242.756 256.215 242.889 256.338C243.029 256.461 243.151 256.633 243.255 256.854C243.358 257.074 243.416 257.336 243.426 257.64C243.453 258.408 243.244 258.959 242.8 259.295C242.363 259.63 241.621 259.816 240.574 259.853ZM247.624 259.607C246.432 259.648 245.424 259.411 244.597 258.896L245.279 257.791C245.998 258.223 246.794 258.423 247.665 258.393C248.225 258.373 248.611 258.303 248.823 258.184C249.035 258.065 249.135 257.841 249.124 257.513C249.114 257.249 249.008 257.073 248.805 256.984C248.609 256.887 248.214 256.8 247.619 256.725C247.233 256.675 246.927 256.629 246.702 256.589C246.476 256.549 246.23 256.485 245.963 256.399C245.695 256.304 245.491 256.191 245.351 256.06C245.21 255.921 245.087 255.737 244.983 255.508C244.887 255.28 244.834 255.009 244.823 254.697C244.799 254.034 244.994 253.531 245.406 253.188C245.818 252.838 246.508 252.645 247.475 252.612C248.547 252.574 249.433 252.743 250.135 253.119L249.515 254.293C248.937 254.009 248.284 253.88 247.557 253.906C247.029 253.924 246.667 253.993 246.471 254.112C246.283 254.23 246.193 254.409 246.202 254.649C246.211 254.905 246.313 255.086 246.509 255.191C246.704 255.288 247.072 255.371 247.61 255.441C248.037 255.498 248.354 255.547 248.564 255.587C248.773 255.62 249.02 255.684 249.303 255.778C249.594 255.864 249.806 255.968 249.938 256.092C250.079 256.215 250.201 256.387 250.305 256.607C250.408 256.828 250.466 257.09 250.476 257.394C250.503 258.161 250.294 258.713 249.85 259.049C249.413 259.384 248.671 259.57 247.624 259.607Z" fill="white"/>
<defs>
<filter id="filter0_f_1674_24952" x="144.374" y="0.605469" width="381" height="381" filterUnits="userSpaceOnUse" color-interpolation-filters="sRGB">
<feFlood flood-opacity="0" result="BackgroundImageFix"/>
<feBlend mode="normal" in="SourceGraphic" in2="BackgroundImageFix" result="shape"/>
<feGaussianBlur stdDeviation="73" result="effect1_foregroundBlur_1674_24952"/>
</filter>
<radialGradient id="paint0_radial_1674_24952" cx="0" cy="0" r="1" gradientUnits="userSpaceOnUse" gradientTransform="translate(382.606 146.353) rotate(152.405) scale(431.716 824.578)">
<stop stop-color="#FFD916"/>
<stop offset="0.361364" stop-color="#FF1914"/>
<stop offset="0.9999" stop-color="#6705FF"/>
<stop offset="1" stop-color="#151515" stop-opacity="0"/>
</radialGradient>
</defs>
</svg>
