<svg width="383" height="201" viewBox="0 0 383 201" fill="none" xmlns="http://www.w3.org/2000/svg">
<g filter="url(#filter0_b_1557_6623)">
<rect x="0.373047" y="0.605469" width="382" height="200" rx="10" fill="white" fill-opacity="0.05"/>
<rect x="0.373047" y="0.605469" width="382" height="200" rx="10" fill="url(#paint0_linear_1557_6623)" fill-opacity="0.2"/>
<rect x="0.873047" y="1.10547" width="381" height="199" rx="9.5" stroke="white" stroke-opacity="0.1"/>
</g>
<path d="M342.373 40.6055L362.373 20.6055" stroke="white" stroke-width="2" stroke-linecap="round" stroke-linejoin="round"/>
<path d="M342.373 20.6055H362.373V40.6055" stroke="white" stroke-width="2" stroke-linecap="round" stroke-linejoin="round"/>
<path d="M108.125 79.6055H112.661V97.6055H108.125V79.6055ZM132.844 94.5095L131.38 94.7735V79.6055H135.772V97.6055H130.06L119.092 82.4375L120.556 82.1735V97.6055H116.164V79.6055H122.044L132.844 94.5095ZM141.481 87.0935H154.513V90.9575H141.481V87.0935ZM154.945 79.6055V83.4695H141.577L143.809 81.2375V97.6055H139.273V79.6055H154.945ZM162.114 79.6055V95.5895L160.074 93.5975H173.562V97.6055H157.578V79.6055H162.114ZM179.265 89.6375C179.265 90.5175 179.433 91.2855 179.769 91.9415C180.121 92.5815 180.625 93.0775 181.281 93.4295C181.937 93.7655 182.745 93.9335 183.705 93.9335C184.665 93.9335 185.473 93.7655 186.129 93.4295C186.785 93.0775 187.281 92.5815 187.617 91.9415C187.969 91.2855 188.145 90.5175 188.145 89.6375V79.6055H192.681V89.8535C192.681 91.4855 192.305 92.9095 191.553 94.1255C190.801 95.3415 189.753 96.2935 188.409 96.9815C187.065 97.6535 185.497 97.9895 183.705 97.9895C181.913 97.9895 180.345 97.6535 179.001 96.9815C177.657 96.2935 176.609 95.3415 175.857 94.1255C175.105 92.9095 174.729 91.4855 174.729 89.8535V79.6055H179.265V89.6375ZM211.089 86.9255V90.2855H198.057V86.9255H211.089ZM201.129 88.6055L199.929 96.0455L198.033 93.8855H211.857V97.6055H195.393L196.785 88.6055L195.393 79.6055H211.737V83.3255H198.033L199.929 81.1655L201.129 88.6055ZM231.516 94.5095L230.052 94.7735V79.6055H234.444V97.6055H228.732L217.764 82.4375L219.228 82.1735V97.6055H214.836V79.6055H220.716L231.516 94.5095ZM257.697 90.1655C257.521 91.7175 256.985 93.0855 256.089 94.2695C255.193 95.4375 254.009 96.3495 252.537 97.0055C251.065 97.6615 249.393 97.9895 247.521 97.9895C245.441 97.9895 243.617 97.5975 242.049 96.8135C240.497 96.0295 239.289 94.9335 238.425 93.5255C237.561 92.1175 237.129 90.4775 237.129 88.6055C237.129 86.7335 237.561 85.0935 238.425 83.6855C239.289 82.2775 240.497 81.1815 242.049 80.3975C243.617 79.6135 245.441 79.2215 247.521 79.2215C249.393 79.2215 251.065 79.5495 252.537 80.2055C254.009 80.8615 255.193 81.7735 256.089 82.9415C256.985 84.1095 257.521 85.4775 257.697 87.0455H253.137C252.977 86.2295 252.649 85.5335 252.153 84.9575C251.673 84.3815 251.033 83.9415 250.233 83.6375C249.449 83.3175 248.537 83.1575 247.497 83.1575C246.297 83.1575 245.265 83.3815 244.401 83.8295C243.537 84.2615 242.873 84.8855 242.409 85.7015C241.945 86.5175 241.713 87.4855 241.713 88.6055C241.713 89.7255 241.945 90.6935 242.409 91.5095C242.873 92.3255 243.537 92.9575 244.401 93.4055C245.265 93.8375 246.297 94.0535 247.497 94.0535C248.537 94.0535 249.449 93.9015 250.233 93.5975C251.033 93.2935 251.673 92.8535 252.153 92.2775C252.649 91.7015 252.977 90.9975 253.137 90.1655H257.697ZM275.308 86.9255V90.2855H262.276V86.9255H275.308ZM265.348 88.6055L264.148 96.0455L262.252 93.8855H276.076V97.6055H259.612L261.004 88.6055L259.612 79.6055H275.956V83.3255H262.252L264.148 81.1655L265.348 88.6055Z" fill="white"/>
<path d="M135.296 122.334V113.442H139.28C140.36 113.442 141.148 113.622 141.644 113.982C142.14 114.334 142.388 114.898 142.388 115.674C142.388 116.73 141.968 117.398 141.128 117.678C141.648 117.806 142.024 118.05 142.256 118.41C142.496 118.762 142.616 119.25 142.616 119.874C142.616 120.786 142.344 121.426 141.8 121.794C141.256 122.154 140.4 122.334 139.232 122.334H135.296ZM136.724 121.05H139.388C140.004 121.05 140.452 120.95 140.732 120.75C141.012 120.542 141.152 120.206 141.152 119.742C141.152 119.286 141.012 118.958 140.732 118.758C140.452 118.558 140 118.458 139.376 118.458H136.724V121.05ZM136.724 117.126H139.328C139.92 117.126 140.332 117.022 140.564 116.814C140.796 116.606 140.912 116.298 140.912 115.89C140.912 115.498 140.788 115.21 140.54 115.026C140.3 114.842 139.896 114.75 139.328 114.75H136.724V117.126ZM144.374 122.334V115.698L145.466 115.614L145.61 116.382C145.754 116.142 146.022 115.946 146.414 115.794C146.814 115.634 147.29 115.55 147.842 115.542V116.946C147.082 116.954 146.546 117.122 146.234 117.45C145.93 117.778 145.778 118.254 145.778 118.878V122.334H144.374ZM151.183 122.454C150.263 122.454 149.627 122.274 149.275 121.914C148.923 121.554 148.747 121.05 148.747 120.402C148.747 119.458 149.059 118.814 149.683 118.47C150.315 118.118 151.463 117.942 153.127 117.942H153.463C153.447 117.51 153.339 117.206 153.139 117.03C152.939 116.854 152.523 116.766 151.891 116.766C151.219 116.766 150.571 116.954 149.947 117.33L149.215 116.238C149.495 116.046 149.891 115.87 150.403 115.71C150.923 115.542 151.467 115.458 152.035 115.458C152.619 115.458 153.091 115.506 153.451 115.602C153.819 115.698 154.103 115.862 154.303 116.094C154.503 116.326 154.635 116.598 154.699 116.91C154.771 117.222 154.807 117.634 154.807 118.146V120.402C154.807 120.714 154.839 120.91 154.903 120.99C154.975 121.07 155.155 121.11 155.443 121.11V122.322C155.379 122.338 155.187 122.346 154.867 122.346C154.515 122.346 154.251 122.298 154.075 122.202C153.899 122.106 153.767 121.922 153.679 121.65C153.279 122.186 152.447 122.454 151.183 122.454ZM151.423 121.254C152.143 121.254 152.663 121.11 152.983 120.822C153.303 120.534 153.463 120.074 153.463 119.442V119.094H153.211C152.331 119.094 151.663 119.134 151.207 119.214C150.759 119.294 150.455 119.414 150.295 119.574C150.143 119.734 150.067 119.974 150.067 120.294C150.067 120.622 150.163 120.866 150.355 121.026C150.555 121.178 150.911 121.254 151.423 121.254ZM157.229 122.334V115.698L158.321 115.614L158.441 116.202C158.849 115.706 159.669 115.458 160.901 115.458C161.405 115.458 161.821 115.522 162.149 115.65C162.485 115.778 162.733 115.978 162.893 116.25C163.053 116.514 163.161 116.798 163.217 117.102C163.281 117.406 163.313 117.79 163.313 118.254V122.334H161.921V118.53C161.921 118.242 161.905 118.014 161.873 117.846C161.849 117.67 161.789 117.498 161.693 117.33C161.605 117.162 161.457 117.042 161.249 116.97C161.041 116.89 160.769 116.85 160.433 116.85C159.721 116.85 159.241 117.002 158.993 117.306C158.753 117.602 158.633 118.05 158.633 118.65V122.334H157.229ZM167.976 122.454C167.424 122.454 166.956 122.37 166.572 122.202C166.188 122.026 165.888 121.774 165.672 121.446C165.464 121.118 165.312 120.754 165.216 120.354C165.128 119.946 165.084 119.474 165.084 118.938C165.084 117.842 165.304 116.99 165.744 116.382C166.184 115.774 166.944 115.47 168.024 115.47C169.224 115.47 169.988 115.714 170.316 116.202V113.022H171.72V122.274L170.652 122.382L170.496 121.662C170.088 122.19 169.248 122.454 167.976 122.454ZM168.288 121.182C169.024 121.182 169.544 121.01 169.848 120.666C170.16 120.322 170.316 119.746 170.316 118.938C170.316 118.146 170.168 117.59 169.872 117.27C169.576 116.95 169.048 116.79 168.288 116.79C167.608 116.79 167.14 116.97 166.884 117.33C166.628 117.69 166.5 118.226 166.5 118.938C166.5 119.674 166.628 120.234 166.884 120.618C167.148 120.994 167.616 121.182 168.288 121.182ZM179.9 122.454C178.772 122.454 177.956 122.258 177.452 121.866C176.956 121.474 176.708 120.818 176.708 119.898C176.708 119.274 176.872 118.762 177.2 118.362C177.528 117.962 177.98 117.61 178.556 117.306C178.268 116.626 178.124 115.998 178.124 115.422C178.124 114.718 178.316 114.19 178.7 113.838C179.092 113.478 179.632 113.298 180.32 113.298C181.008 113.298 181.52 113.47 181.856 113.814C182.2 114.15 182.372 114.686 182.372 115.422C182.372 115.99 182.192 116.454 181.832 116.814C181.48 117.166 180.988 117.502 180.356 117.822C180.748 118.422 181.18 118.938 181.652 119.37C181.9 119.602 182.156 119.826 182.42 120.042C182.796 119.49 183.184 118.49 183.584 117.042L184.76 117.342C184.36 118.878 183.928 119.998 183.464 120.702C183.968 120.95 184.528 121.074 185.144 121.074H185.252V122.334H185.096C184.088 122.334 183.228 122.13 182.516 121.722C181.852 122.21 180.98 122.454 179.9 122.454ZM179.9 121.278C180.508 121.278 181.016 121.17 181.424 120.954C181.16 120.738 180.876 120.478 180.572 120.174C180.012 119.638 179.524 119.034 179.108 118.362C178.412 118.802 178.064 119.306 178.064 119.874C178.064 120.346 178.184 120.698 178.424 120.93C178.672 121.162 179.164 121.278 179.9 121.278ZM179.444 115.422C179.444 115.854 179.568 116.33 179.816 116.85C180.248 116.626 180.576 116.406 180.8 116.19C181.032 115.974 181.148 115.718 181.148 115.422C181.148 115.11 181.084 114.882 180.956 114.738C180.836 114.594 180.624 114.522 180.32 114.522C179.736 114.522 179.444 114.822 179.444 115.422ZM190.651 122.334V113.442H194.635C195.715 113.442 196.503 113.622 196.999 113.982C197.495 114.334 197.743 114.898 197.743 115.674C197.743 116.73 197.323 117.398 196.483 117.678C197.003 117.806 197.379 118.05 197.611 118.41C197.851 118.762 197.971 119.25 197.971 119.874C197.971 120.786 197.699 121.426 197.155 121.794C196.611 122.154 195.755 122.334 194.587 122.334H190.651ZM192.079 121.05H194.743C195.359 121.05 195.807 120.95 196.087 120.75C196.367 120.542 196.507 120.206 196.507 119.742C196.507 119.286 196.367 118.958 196.087 118.758C195.807 118.558 195.355 118.458 194.731 118.458H192.079V121.05ZM192.079 117.126H194.683C195.275 117.126 195.687 117.022 195.919 116.814C196.151 116.606 196.267 116.298 196.267 115.89C196.267 115.498 196.143 115.21 195.895 115.026C195.655 114.842 195.251 114.75 194.683 114.75H192.079V117.126ZM204.29 122.274C203.89 122.394 203.37 122.454 202.73 122.454C202.09 122.454 201.57 122.394 201.17 122.274C200.77 122.154 200.462 121.958 200.246 121.686C200.03 121.406 199.882 121.09 199.802 120.738C199.73 120.378 199.694 119.918 199.694 119.358V115.614H201.086V119.394C201.086 119.65 201.09 119.846 201.098 119.982C201.106 120.11 201.138 120.266 201.194 120.45C201.25 120.626 201.334 120.758 201.446 120.846C201.558 120.934 201.718 121.01 201.926 121.074C202.142 121.138 202.41 121.17 202.73 121.17C203.05 121.17 203.314 121.138 203.522 121.074C203.738 121.002 203.898 120.926 204.002 120.846C204.114 120.758 204.198 120.622 204.254 120.438C204.31 120.254 204.342 120.098 204.35 119.97C204.358 119.842 204.362 119.642 204.362 119.37V115.614H205.73V119.334C205.73 119.902 205.694 120.366 205.622 120.726C205.55 121.078 205.41 121.394 205.202 121.674C204.994 121.954 204.69 122.154 204.29 122.274ZM210.239 122.454C209.047 122.454 208.047 122.182 207.239 121.638L207.959 120.558C208.663 121.014 209.451 121.242 210.323 121.242C210.883 121.242 211.271 121.186 211.487 121.074C211.703 120.962 211.811 120.742 211.811 120.414C211.811 120.15 211.711 119.97 211.511 119.874C211.319 119.77 210.927 119.67 210.335 119.574C209.951 119.51 209.647 119.454 209.423 119.406C209.199 119.358 208.955 119.286 208.691 119.19C208.427 119.086 208.227 118.966 208.091 118.83C207.955 118.686 207.839 118.498 207.743 118.266C207.655 118.034 207.611 117.762 207.611 117.45C207.611 116.786 207.823 116.29 208.247 115.962C208.671 115.626 209.367 115.458 210.335 115.458C211.407 115.458 212.287 115.658 212.975 116.058L212.315 117.21C211.747 116.906 211.099 116.754 210.371 116.754C209.843 116.754 209.479 116.81 209.279 116.922C209.087 117.034 208.991 117.21 208.991 117.45C208.991 117.706 209.087 117.89 209.279 118.002C209.471 118.106 209.835 118.202 210.371 118.29C210.795 118.362 211.111 118.422 211.319 118.47C211.527 118.51 211.771 118.582 212.051 118.686C212.339 118.782 212.547 118.894 212.675 119.022C212.811 119.15 212.927 119.326 213.023 119.55C213.119 119.774 213.167 120.038 213.167 120.342C213.167 121.11 212.939 121.654 212.483 121.974C212.035 122.294 211.287 122.454 210.239 122.454ZM214.953 122.334V115.614H216.333V122.334H214.953ZM214.941 114.882V113.346H216.345V114.882H214.941ZM218.537 122.334V115.698L219.629 115.614L219.749 116.202C220.157 115.706 220.977 115.458 222.209 115.458C222.713 115.458 223.129 115.522 223.457 115.65C223.793 115.778 224.041 115.978 224.201 116.25C224.361 116.514 224.469 116.798 224.525 117.102C224.589 117.406 224.621 117.79 224.621 118.254V122.334H223.229V118.53C223.229 118.242 223.213 118.014 223.181 117.846C223.157 117.67 223.097 117.498 223.001 117.33C222.913 117.162 222.765 117.042 222.557 116.97C222.349 116.89 222.077 116.85 221.741 116.85C221.029 116.85 220.549 117.002 220.301 117.306C220.061 117.602 219.941 118.05 219.941 118.65V122.334H218.537ZM229.752 122.466C229.072 122.466 228.504 122.378 228.048 122.202C227.592 122.026 227.248 121.77 227.016 121.434C226.784 121.09 226.62 120.726 226.524 120.342C226.436 119.95 226.392 119.49 226.392 118.962C226.392 118.442 226.44 117.99 226.536 117.606C226.632 117.214 226.796 116.85 227.028 116.514C227.26 116.17 227.604 115.91 228.06 115.734C228.516 115.55 229.072 115.458 229.728 115.458C230.12 115.458 230.468 115.498 230.772 115.578C231.084 115.65 231.34 115.758 231.54 115.902C231.748 116.038 231.924 116.206 232.068 116.406C232.212 116.598 232.316 116.814 232.38 117.054C232.452 117.286 232.508 117.538 232.548 117.81C232.596 118.082 232.616 118.366 232.608 118.662C232.608 118.95 232.608 119.246 232.608 119.55H227.748C227.796 120.126 227.964 120.558 228.252 120.846C228.548 121.126 229.048 121.266 229.752 121.266C230.24 121.266 230.64 121.214 230.952 121.11C231.264 120.998 231.568 120.834 231.864 120.618L232.608 121.59C231.848 122.174 230.896 122.466 229.752 122.466ZM229.692 116.694C229.036 116.694 228.56 116.834 228.264 117.114C227.976 117.394 227.804 117.802 227.748 118.338H231.288C231.272 118.042 231.248 117.818 231.216 117.666C231.184 117.506 231.116 117.342 231.012 117.174C230.908 116.998 230.748 116.874 230.532 116.802C230.316 116.73 230.036 116.694 229.692 116.694ZM236.839 122.454C235.647 122.454 234.647 122.182 233.839 121.638L234.559 120.558C235.263 121.014 236.051 121.242 236.923 121.242C237.483 121.242 237.871 121.186 238.087 121.074C238.303 120.962 238.411 120.742 238.411 120.414C238.411 120.15 238.311 119.97 238.111 119.874C237.919 119.77 237.527 119.67 236.935 119.574C236.551 119.51 236.247 119.454 236.023 119.406C235.799 119.358 235.555 119.286 235.291 119.19C235.027 119.086 234.827 118.966 234.691 118.83C234.555 118.686 234.439 118.498 234.343 118.266C234.255 118.034 234.211 117.762 234.211 117.45C234.211 116.786 234.423 116.29 234.847 115.962C235.271 115.626 235.967 115.458 236.935 115.458C238.007 115.458 238.887 115.658 239.575 116.058L238.915 117.21C238.347 116.906 237.699 116.754 236.971 116.754C236.443 116.754 236.079 116.81 235.879 116.922C235.687 117.034 235.591 117.21 235.591 117.45C235.591 117.706 235.687 117.89 235.879 118.002C236.071 118.106 236.435 118.202 236.971 118.29C237.395 118.362 237.711 118.422 237.919 118.47C238.127 118.51 238.371 118.582 238.651 118.686C238.939 118.782 239.147 118.894 239.275 119.022C239.411 119.15 239.527 119.326 239.623 119.55C239.719 119.774 239.767 120.038 239.767 120.342C239.767 121.11 239.539 121.654 239.083 121.974C238.635 122.294 237.887 122.454 236.839 122.454ZM243.893 122.454C242.701 122.454 241.701 122.182 240.893 121.638L241.613 120.558C242.317 121.014 243.105 121.242 243.977 121.242C244.537 121.242 244.925 121.186 245.141 121.074C245.357 120.962 245.465 120.742 245.465 120.414C245.465 120.15 245.365 119.97 245.165 119.874C244.973 119.77 244.581 119.67 243.989 119.574C243.605 119.51 243.301 119.454 243.077 119.406C242.853 119.358 242.609 119.286 242.345 119.19C242.081 119.086 241.881 118.966 241.745 118.83C241.609 118.686 241.493 118.498 241.397 118.266C241.309 118.034 241.265 117.762 241.265 117.45C241.265 116.786 241.477 116.29 241.901 115.962C242.325 115.626 243.021 115.458 243.989 115.458C245.061 115.458 245.941 115.658 246.629 116.058L245.969 117.21C245.401 116.906 244.753 116.754 244.025 116.754C243.497 116.754 243.133 116.81 242.933 116.922C242.741 117.034 242.645 117.21 242.645 117.45C242.645 117.706 242.741 117.89 242.933 118.002C243.125 118.106 243.489 118.202 244.025 118.29C244.449 118.362 244.765 118.422 244.973 118.47C245.181 118.51 245.425 118.582 245.705 118.686C245.993 118.782 246.201 118.894 246.329 119.022C246.465 119.15 246.581 119.326 246.677 119.55C246.773 119.774 246.821 120.038 246.821 120.342C246.821 121.11 246.593 121.654 246.137 121.974C245.689 122.294 244.941 122.454 243.893 122.454Z" fill="white"/>
<defs>
<filter id="filter0_b_1557_6623" x="-13.627" y="-13.3945" width="410" height="228" filterUnits="userSpaceOnUse" color-interpolation-filters="sRGB">
<feFlood flood-opacity="0" result="BackgroundImageFix"/>
<feGaussianBlur in="BackgroundImageFix" stdDeviation="7"/>
<feComposite in2="SourceAlpha" operator="in" result="effect1_backgroundBlur_1557_6623"/>
<feBlend mode="normal" in="SourceGraphic" in2="effect1_backgroundBlur_1557_6623" result="shape"/>
</filter>
<linearGradient id="paint0_linear_1557_6623" x1="382.373" y1="0.605446" x2="-16.627" y2="212.605" gradientUnits="userSpaceOnUse">
<stop stop-color="white" stop-opacity="0.42"/>
<stop stop-color="white" stop-opacity="0.51"/>
<stop offset="0.701219" stop-opacity="0"/>
<stop offset="1" stop-opacity="0"/>
</linearGradient>
</defs>
</svg>
