<svg width="383" height="201" viewBox="0 0 383 201" fill="none" xmlns="http://www.w3.org/2000/svg">
<g filter="url(#filter0_b_1557_6637)">
<rect x="0.373047" y="0.605469" width="382" height="200" rx="10" fill="white" fill-opacity="0.05"/>
<rect x="0.373047" y="0.605469" width="382" height="200" rx="10" fill="url(#paint0_linear_1557_6637)" fill-opacity="0.2"/>
<rect x="0.873047" y="1.10547" width="381" height="199" rx="9.5" stroke="white" stroke-opacity="0.1"/>
</g>
<path d="M342.373 40.6055L362.373 20.6055" stroke="white" stroke-width="2" stroke-linecap="round" stroke-linejoin="round"/>
<path d="M342.373 20.6055H362.373V40.6055" stroke="white" stroke-width="2" stroke-linecap="round" stroke-linejoin="round"/>
<path d="M120.005 88.7735L120.389 87.8855C121.797 87.9175 122.949 88.1335 123.845 88.5335C124.757 88.9335 125.429 89.4855 125.861 90.1895C126.309 90.8775 126.533 91.6695 126.533 92.5655C126.533 93.5415 126.309 94.4135 125.861 95.1815C125.413 95.9335 124.741 96.5255 123.845 96.9575C122.965 97.3895 121.861 97.6055 120.533 97.6055H107.573L108.965 88.3655L107.573 79.6055H120.077C121.741 79.6055 123.029 79.9975 123.941 80.7815C124.869 81.5495 125.333 82.6135 125.333 83.9735C125.333 84.7255 125.157 85.4455 124.805 86.1335C124.453 86.8215 123.893 87.4055 123.125 87.8855C122.357 88.3495 121.317 88.6455 120.005 88.7735ZM112.037 96.5015L110.309 94.3655H119.453C120.237 94.3655 120.845 94.1815 121.277 93.8135C121.725 93.4295 121.949 92.8935 121.949 92.2055C121.949 91.5175 121.701 90.9735 121.205 90.5735C120.725 90.1575 120.005 89.9495 119.045 89.9495H111.557V86.7815H118.469C119.125 86.7815 119.669 86.5975 120.101 86.2295C120.533 85.8455 120.749 85.3255 120.749 84.6695C120.749 84.1415 120.557 83.7095 120.173 83.3735C119.805 83.0215 119.277 82.8455 118.589 82.8455H110.333L112.037 80.7095L113.309 88.3655L112.037 96.5015ZM132.246 87.5255H138.99C139.838 87.5255 140.51 87.3335 141.006 86.9495C141.502 86.5495 141.75 85.9975 141.75 85.2935C141.75 84.5895 141.502 84.0455 141.006 83.6615C140.51 83.2615 139.838 83.0615 138.99 83.0615H131.598L133.638 80.8295V97.6055H129.102V79.6055H139.59C140.934 79.6055 142.11 79.8455 143.118 80.3255C144.126 80.8055 144.91 81.4695 145.47 82.3175C146.03 83.1655 146.31 84.1575 146.31 85.2935C146.31 86.4135 146.03 87.3975 145.47 88.2455C144.91 89.0935 144.126 89.7575 143.118 90.2375C142.11 90.7175 140.934 90.9575 139.59 90.9575H132.246V87.5255ZM135.15 89.1815H140.262L146.886 97.6055H141.63L135.15 89.1815ZM152.146 93.9815V90.3095H164.578V93.9815H152.146ZM161.41 79.6055L169.714 97.6055H164.89L157.762 81.5015H159.154L152.05 97.6055H147.202L155.53 79.6055H161.41ZM188.227 94.5095L186.763 94.7735V79.6055H191.155V97.6055H185.443L174.475 82.4375L175.939 82.1735V97.6055H171.547V79.6055H177.427L188.227 94.5095ZM203.44 79.6055C205.552 79.6055 207.4 79.9815 208.984 80.7335C210.568 81.4855 211.8 82.5335 212.68 83.8775C213.576 85.2215 214.024 86.7975 214.024 88.6055C214.024 90.3975 213.576 91.9735 212.68 93.3335C211.8 94.6775 210.568 95.7255 208.984 96.4775C207.4 97.2295 205.552 97.6055 203.44 97.6055H194.656V79.6055H203.44ZM199.168 95.7575L196.96 93.5975H203.776C204.928 93.5975 205.928 93.3895 206.776 92.9735C207.624 92.5575 208.28 91.9815 208.744 91.2455C209.208 90.4935 209.44 89.6135 209.44 88.6055C209.44 87.5815 209.208 86.7015 208.744 85.9655C208.28 85.2295 207.624 84.6535 206.776 84.2375C205.928 83.8215 204.928 83.6135 203.776 83.6135H196.96L199.168 81.4535V95.7575ZM216.711 79.6055H221.247V97.6055H216.711V79.6055ZM241.43 94.5095L239.966 94.7735V79.6055H244.358V97.6055H238.646L227.678 82.4375L229.142 82.1735V97.6055H224.75V79.6055H230.63L241.43 94.5095ZM266.195 89.8055C266.163 90.8935 265.947 91.9335 265.547 92.9255C265.147 93.9015 264.571 94.7735 263.819 95.5415C263.067 96.2935 262.139 96.8935 261.035 97.3415C259.931 97.7735 258.643 97.9895 257.171 97.9895C255.763 97.9895 254.443 97.7815 253.211 97.3655C251.995 96.9495 250.923 96.3415 249.995 95.5415C249.067 94.7415 248.347 93.7575 247.835 92.5895C247.323 91.4215 247.067 90.0935 247.067 88.6055C247.067 87.1175 247.323 85.7895 247.835 84.6215C248.363 83.4535 249.091 82.4695 250.019 81.6695C250.963 80.8695 252.059 80.2615 253.307 79.8455C254.571 79.4295 255.947 79.2215 257.435 79.2215C259.371 79.2215 261.051 79.5255 262.475 80.1335C263.915 80.7415 265.067 81.5735 265.931 82.6295C266.811 83.6855 267.371 84.9015 267.611 86.2775H263.027C262.867 85.6055 262.531 85.0295 262.019 84.5495C261.507 84.0695 260.859 83.7015 260.075 83.4455C259.307 83.1735 258.427 83.0375 257.435 83.0375C256.235 83.0375 255.203 83.2535 254.339 83.6855C253.475 84.1015 252.803 84.7255 252.323 85.5575C251.843 86.3735 251.603 87.3895 251.603 88.6055C251.603 89.8215 251.859 90.8535 252.371 91.7015C252.883 92.5495 253.603 93.1895 254.531 93.6215C255.459 94.0535 256.555 94.2695 257.819 94.2695C259.051 94.2695 260.131 94.0855 261.059 93.7175C262.003 93.3495 262.747 92.8215 263.291 92.1335C263.851 91.4455 264.171 90.6215 264.251 89.6615L266.195 89.8055ZM258.347 91.6295V88.4135H267.779V97.6055H264.539L263.915 90.4055L264.827 91.6295H258.347Z" fill="white"/>
<path d="M117.494 122.334V113.442H120.53C121.418 113.442 122.15 113.51 122.726 113.646C123.31 113.782 123.798 114.022 124.19 114.366C124.59 114.702 124.874 115.154 125.042 115.722C125.21 116.29 125.294 117.01 125.294 117.882C125.294 119.554 124.922 120.714 124.178 121.362C123.442 122.01 122.194 122.334 120.434 122.334H117.494ZM118.946 120.99H120.506C121.794 120.99 122.67 120.762 123.134 120.306C123.598 119.85 123.83 119.042 123.83 117.882C123.83 117.282 123.786 116.798 123.698 116.43C123.61 116.062 123.442 115.754 123.194 115.506C122.954 115.25 122.622 115.074 122.198 114.978C121.782 114.874 121.234 114.822 120.554 114.822H118.946V120.99ZM130.089 122.466C129.409 122.466 128.841 122.378 128.385 122.202C127.929 122.026 127.585 121.77 127.353 121.434C127.121 121.09 126.957 120.726 126.861 120.342C126.773 119.95 126.729 119.49 126.729 118.962C126.729 118.442 126.777 117.99 126.873 117.606C126.969 117.214 127.133 116.85 127.365 116.514C127.597 116.17 127.941 115.91 128.397 115.734C128.853 115.55 129.409 115.458 130.065 115.458C130.457 115.458 130.805 115.498 131.109 115.578C131.421 115.65 131.677 115.758 131.877 115.902C132.085 116.038 132.261 116.206 132.405 116.406C132.549 116.598 132.653 116.814 132.717 117.054C132.789 117.286 132.845 117.538 132.885 117.81C132.933 118.082 132.953 118.366 132.945 118.662C132.945 118.95 132.945 119.246 132.945 119.55H128.085C128.133 120.126 128.301 120.558 128.589 120.846C128.885 121.126 129.385 121.266 130.089 121.266C130.577 121.266 130.977 121.214 131.289 121.11C131.601 120.998 131.905 120.834 132.201 120.618L132.945 121.59C132.185 122.174 131.233 122.466 130.089 122.466ZM130.029 116.694C129.373 116.694 128.897 116.834 128.601 117.114C128.313 117.394 128.141 117.802 128.085 118.338H131.625C131.609 118.042 131.585 117.818 131.553 117.666C131.521 117.506 131.453 117.342 131.349 117.174C131.245 116.998 131.085 116.874 130.869 116.802C130.653 116.73 130.373 116.694 130.029 116.694ZM137.175 122.454C135.983 122.454 134.983 122.182 134.175 121.638L134.895 120.558C135.599 121.014 136.387 121.242 137.259 121.242C137.819 121.242 138.207 121.186 138.423 121.074C138.639 120.962 138.747 120.742 138.747 120.414C138.747 120.15 138.647 119.97 138.447 119.874C138.255 119.77 137.863 119.67 137.271 119.574C136.887 119.51 136.583 119.454 136.359 119.406C136.135 119.358 135.891 119.286 135.627 119.19C135.363 119.086 135.163 118.966 135.027 118.83C134.891 118.686 134.775 118.498 134.679 118.266C134.591 118.034 134.547 117.762 134.547 117.45C134.547 116.786 134.759 116.29 135.183 115.962C135.607 115.626 136.303 115.458 137.271 115.458C138.343 115.458 139.223 115.658 139.911 116.058L139.251 117.21C138.683 116.906 138.035 116.754 137.307 116.754C136.779 116.754 136.415 116.81 136.215 116.922C136.023 117.034 135.927 117.21 135.927 117.45C135.927 117.706 136.023 117.89 136.215 118.002C136.407 118.106 136.771 118.202 137.307 118.29C137.731 118.362 138.047 118.422 138.255 118.47C138.463 118.51 138.707 118.582 138.987 118.686C139.275 118.782 139.483 118.894 139.611 119.022C139.747 119.15 139.863 119.326 139.959 119.55C140.055 119.774 140.103 120.038 140.103 120.342C140.103 121.11 139.875 121.654 139.419 121.974C138.971 122.294 138.223 122.454 137.175 122.454ZM141.889 122.334V115.614H143.269V122.334H141.889ZM141.877 114.882V113.346H143.281V114.882H141.877ZM148.257 119.886C147.865 119.886 147.517 119.862 147.213 119.814C147.133 119.918 147.093 120.03 147.093 120.15C147.093 120.334 147.173 120.454 147.333 120.51C147.501 120.566 147.841 120.594 148.353 120.594C149.649 120.594 150.529 120.718 150.993 120.966C151.465 121.214 151.701 121.69 151.701 122.394C151.701 123.138 151.429 123.67 150.885 123.99C150.349 124.318 149.461 124.482 148.221 124.482C146.997 124.482 146.141 124.366 145.653 124.134C145.173 123.91 144.933 123.474 144.933 122.826C144.933 121.978 145.381 121.462 146.277 121.278C145.997 121.102 145.857 120.802 145.857 120.378C145.857 120.026 145.949 119.714 146.133 119.442C145.589 119.09 145.317 118.518 145.317 117.726C145.317 116.974 145.553 116.41 146.025 116.034C146.497 115.658 147.241 115.47 148.257 115.47H148.425L151.425 114.99V116.142H150.381C150.933 116.446 151.209 116.974 151.209 117.726C151.209 118.47 150.973 119.018 150.501 119.37C150.029 119.714 149.281 119.886 148.257 119.886ZM148.257 118.806C148.825 118.806 149.229 118.722 149.469 118.554C149.709 118.378 149.829 118.102 149.829 117.726C149.829 117.35 149.701 117.078 149.445 116.91C149.197 116.734 148.801 116.646 148.257 116.646C147.681 116.646 147.273 116.73 147.033 116.898C146.793 117.066 146.673 117.342 146.673 117.726C146.673 118.102 146.793 118.378 147.033 118.554C147.273 118.722 147.681 118.806 148.257 118.806ZM148.269 123.402C149.045 123.402 149.573 123.326 149.853 123.174C150.141 123.03 150.285 122.794 150.285 122.466C150.285 122.17 150.145 121.974 149.865 121.878C149.585 121.774 149.053 121.722 148.269 121.722C147.725 121.722 147.305 121.762 147.009 121.842C146.713 121.922 146.525 122.018 146.445 122.13C146.373 122.242 146.337 122.394 146.337 122.586C146.337 122.89 146.477 123.102 146.757 123.222C147.045 123.342 147.549 123.402 148.269 123.402ZM153.441 122.334V115.698L154.533 115.614L154.653 116.202C155.061 115.706 155.881 115.458 157.113 115.458C157.617 115.458 158.033 115.522 158.361 115.65C158.697 115.778 158.945 115.978 159.105 116.25C159.265 116.514 159.373 116.798 159.429 117.102C159.493 117.406 159.525 117.79 159.525 118.254V122.334H158.133V118.53C158.133 118.242 158.117 118.014 158.085 117.846C158.061 117.67 158.001 117.498 157.905 117.33C157.817 117.162 157.669 117.042 157.461 116.97C157.253 116.89 156.981 116.85 156.645 116.85C155.933 116.85 155.453 117.002 155.205 117.306C154.965 117.602 154.845 118.05 154.845 118.65V122.334H153.441ZM167.664 122.454C166.536 122.454 165.72 122.258 165.216 121.866C164.72 121.474 164.472 120.818 164.472 119.898C164.472 119.274 164.636 118.762 164.964 118.362C165.292 117.962 165.744 117.61 166.32 117.306C166.032 116.626 165.888 115.998 165.888 115.422C165.888 114.718 166.08 114.19 166.464 113.838C166.856 113.478 167.396 113.298 168.084 113.298C168.772 113.298 169.284 113.47 169.62 113.814C169.964 114.15 170.136 114.686 170.136 115.422C170.136 115.99 169.956 116.454 169.596 116.814C169.244 117.166 168.752 117.502 168.12 117.822C168.512 118.422 168.944 118.938 169.416 119.37C169.664 119.602 169.92 119.826 170.184 120.042C170.56 119.49 170.948 118.49 171.348 117.042L172.524 117.342C172.124 118.878 171.692 119.998 171.228 120.702C171.732 120.95 172.292 121.074 172.908 121.074H173.016V122.334H172.86C171.852 122.334 170.992 122.13 170.28 121.722C169.616 122.21 168.744 122.454 167.664 122.454ZM167.664 121.278C168.272 121.278 168.78 121.17 169.188 120.954C168.924 120.738 168.64 120.478 168.336 120.174C167.776 119.638 167.288 119.034 166.872 118.362C166.176 118.802 165.828 119.306 165.828 119.874C165.828 120.346 165.948 120.698 166.188 120.93C166.436 121.162 166.928 121.278 167.664 121.278ZM167.208 115.422C167.208 115.854 167.332 116.33 167.58 116.85C168.012 116.626 168.34 116.406 168.564 116.19C168.796 115.974 168.912 115.718 168.912 115.422C168.912 115.11 168.848 114.882 168.72 114.738C168.6 114.594 168.388 114.522 168.084 114.522C167.5 114.522 167.208 114.822 167.208 115.422ZM178.416 122.334V113.442H181.452C182.34 113.442 183.072 113.51 183.648 113.646C184.232 113.782 184.72 114.022 185.112 114.366C185.512 114.702 185.796 115.154 185.964 115.722C186.132 116.29 186.216 117.01 186.216 117.882C186.216 119.554 185.844 120.714 185.1 121.362C184.364 122.01 183.116 122.334 181.356 122.334H178.416ZM179.868 120.99H181.428C182.716 120.99 183.592 120.762 184.056 120.306C184.52 119.85 184.752 119.042 184.752 117.882C184.752 117.282 184.708 116.798 184.62 116.43C184.532 116.062 184.364 115.754 184.116 115.506C183.876 115.25 183.544 115.074 183.12 114.978C182.704 114.874 182.156 114.822 181.476 114.822H179.868V120.99ZM191.01 122.466C190.33 122.466 189.762 122.378 189.306 122.202C188.85 122.026 188.506 121.77 188.274 121.434C188.042 121.09 187.878 120.726 187.782 120.342C187.694 119.95 187.65 119.49 187.65 118.962C187.65 118.442 187.698 117.99 187.794 117.606C187.89 117.214 188.054 116.85 188.286 116.514C188.518 116.17 188.862 115.91 189.318 115.734C189.774 115.55 190.33 115.458 190.986 115.458C191.378 115.458 191.726 115.498 192.03 115.578C192.342 115.65 192.598 115.758 192.798 115.902C193.006 116.038 193.182 116.206 193.326 116.406C193.47 116.598 193.574 116.814 193.638 117.054C193.71 117.286 193.766 117.538 193.806 117.81C193.854 118.082 193.874 118.366 193.866 118.662C193.866 118.95 193.866 119.246 193.866 119.55H189.006C189.054 120.126 189.222 120.558 189.51 120.846C189.806 121.126 190.306 121.266 191.01 121.266C191.498 121.266 191.898 121.214 192.21 121.11C192.522 120.998 192.826 120.834 193.122 120.618L193.866 121.59C193.106 122.174 192.154 122.466 191.01 122.466ZM190.95 116.694C190.294 116.694 189.818 116.834 189.522 117.114C189.234 117.394 189.062 117.802 189.006 118.338H192.546C192.53 118.042 192.506 117.818 192.474 117.666C192.442 117.506 192.374 117.342 192.27 117.174C192.166 116.998 192.006 116.874 191.79 116.802C191.574 116.73 191.294 116.694 190.95 116.694ZM197.475 122.394L194.811 115.614H196.299L198.243 120.726L200.199 115.614H201.651L198.987 122.394H197.475ZM205.81 122.466C205.13 122.466 204.562 122.378 204.106 122.202C203.65 122.026 203.306 121.77 203.074 121.434C202.842 121.09 202.678 120.726 202.582 120.342C202.494 119.95 202.45 119.49 202.45 118.962C202.45 118.442 202.498 117.99 202.594 117.606C202.69 117.214 202.854 116.85 203.086 116.514C203.318 116.17 203.662 115.91 204.118 115.734C204.574 115.55 205.13 115.458 205.786 115.458C206.178 115.458 206.526 115.498 206.83 115.578C207.142 115.65 207.398 115.758 207.598 115.902C207.806 116.038 207.982 116.206 208.126 116.406C208.27 116.598 208.374 116.814 208.438 117.054C208.51 117.286 208.566 117.538 208.606 117.81C208.654 118.082 208.674 118.366 208.666 118.662C208.666 118.95 208.666 119.246 208.666 119.55H203.806C203.854 120.126 204.022 120.558 204.31 120.846C204.606 121.126 205.106 121.266 205.81 121.266C206.298 121.266 206.698 121.214 207.01 121.11C207.322 120.998 207.626 120.834 207.922 120.618L208.666 121.59C207.906 122.174 206.954 122.466 205.81 122.466ZM205.75 116.694C205.094 116.694 204.618 116.834 204.322 117.114C204.034 117.394 203.862 117.802 203.806 118.338H207.346C207.33 118.042 207.306 117.818 207.274 117.666C207.242 117.506 207.174 117.342 207.07 117.174C206.966 116.998 206.806 116.874 206.59 116.802C206.374 116.73 206.094 116.694 205.75 116.694ZM212.211 122.346C211.635 122.346 211.223 122.21 210.975 121.938C210.727 121.658 210.603 121.174 210.603 120.486V113.022H211.983V120.318C211.983 120.622 212.027 120.83 212.115 120.942C212.203 121.046 212.399 121.098 212.703 121.098H212.955V122.322C212.795 122.338 212.547 122.346 212.211 122.346ZM220.108 121.59C219.58 122.174 218.724 122.466 217.54 122.466C216.356 122.466 215.496 122.174 214.96 121.59C214.432 121.006 214.168 120.13 214.168 118.962C214.168 117.794 214.432 116.918 214.96 116.334C215.496 115.75 216.356 115.458 217.54 115.458C218.724 115.458 219.58 115.75 220.108 116.334C220.644 116.918 220.912 117.794 220.912 118.962C220.912 120.13 220.644 121.006 220.108 121.59ZM216.016 120.654C216.32 121.022 216.828 121.206 217.54 121.206C218.252 121.206 218.756 121.022 219.052 120.654C219.356 120.278 219.508 119.726 219.508 118.998C219.508 118.27 219.356 117.722 219.052 117.354C218.756 116.986 218.252 116.802 217.54 116.802C216.828 116.802 216.32 116.986 216.016 117.354C215.72 117.722 215.572 118.27 215.572 118.998C215.572 119.734 215.72 120.286 216.016 120.654ZM222.73 124.314V115.698L223.822 115.614L223.942 116.262C224.326 115.726 225.178 115.458 226.498 115.458C227.05 115.458 227.518 115.546 227.902 115.722C228.286 115.89 228.582 116.138 228.79 116.466C228.998 116.794 229.146 117.158 229.234 117.558C229.322 117.958 229.366 118.426 229.366 118.962C229.366 119.49 229.318 119.954 229.222 120.354C229.134 120.754 228.982 121.118 228.766 121.446C228.55 121.774 228.246 122.022 227.854 122.19C227.462 122.358 226.986 122.442 226.426 122.442C225.226 122.442 224.462 122.198 224.134 121.71V124.314H222.73ZM226.174 121.182C226.838 121.182 227.298 121.002 227.554 120.642C227.818 120.274 227.95 119.73 227.95 119.01C227.95 118.282 227.822 117.734 227.566 117.366C227.31 116.99 226.846 116.802 226.174 116.802C225.43 116.802 224.902 116.97 224.59 117.306C224.286 117.642 224.134 118.21 224.134 119.01C224.134 119.81 224.282 120.374 224.578 120.702C224.882 121.022 225.414 121.182 226.174 121.182ZM231.178 122.334V115.698L232.27 115.614L232.39 116.202C232.726 115.706 233.522 115.458 234.778 115.458C235.898 115.458 236.57 115.722 236.794 116.25C237.17 115.722 238.018 115.458 239.338 115.458C239.842 115.458 240.254 115.522 240.574 115.65C240.902 115.778 241.142 115.978 241.294 116.25C241.454 116.514 241.558 116.798 241.606 117.102C241.662 117.398 241.69 117.782 241.69 118.254V122.334H240.286V118.53C240.286 118.282 240.282 118.094 240.274 117.966C240.266 117.838 240.238 117.69 240.19 117.522C240.142 117.354 240.07 117.23 239.974 117.15C239.878 117.07 239.738 117.002 239.554 116.946C239.37 116.882 239.142 116.85 238.87 116.85C238.166 116.85 237.698 116.998 237.466 117.294C237.242 117.59 237.13 118.042 237.13 118.65V122.334H235.738V118.53C235.738 118.29 235.734 118.106 235.726 117.978C235.718 117.842 235.686 117.69 235.63 117.522C235.582 117.354 235.51 117.23 235.414 117.15C235.318 117.07 235.178 117.002 234.994 116.946C234.81 116.882 234.582 116.85 234.31 116.85C233.606 116.85 233.142 116.998 232.918 117.294C232.694 117.59 232.582 118.042 232.582 118.65V122.334H231.178ZM246.812 122.466C246.132 122.466 245.564 122.378 245.108 122.202C244.652 122.026 244.308 121.77 244.076 121.434C243.844 121.09 243.68 120.726 243.584 120.342C243.496 119.95 243.452 119.49 243.452 118.962C243.452 118.442 243.5 117.99 243.596 117.606C243.692 117.214 243.856 116.85 244.088 116.514C244.32 116.17 244.664 115.91 245.12 115.734C245.576 115.55 246.132 115.458 246.788 115.458C247.18 115.458 247.528 115.498 247.832 115.578C248.144 115.65 248.4 115.758 248.6 115.902C248.808 116.038 248.984 116.206 249.128 116.406C249.272 116.598 249.376 116.814 249.44 117.054C249.512 117.286 249.568 117.538 249.608 117.81C249.656 118.082 249.676 118.366 249.668 118.662C249.668 118.95 249.668 119.246 249.668 119.55H244.808C244.856 120.126 245.024 120.558 245.312 120.846C245.608 121.126 246.108 121.266 246.812 121.266C247.3 121.266 247.7 121.214 248.012 121.11C248.324 120.998 248.628 120.834 248.924 120.618L249.668 121.59C248.908 122.174 247.956 122.466 246.812 122.466ZM246.752 116.694C246.096 116.694 245.62 116.834 245.324 117.114C245.036 117.394 244.864 117.802 244.808 118.338H248.348C248.332 118.042 248.308 117.818 248.276 117.666C248.244 117.506 248.176 117.342 248.072 117.174C247.968 116.998 247.808 116.874 247.592 116.802C247.376 116.73 247.096 116.694 246.752 116.694ZM251.533 122.334V115.698L252.625 115.614L252.745 116.202C253.153 115.706 253.973 115.458 255.205 115.458C255.709 115.458 256.125 115.522 256.453 115.65C256.789 115.778 257.037 115.978 257.197 116.25C257.357 116.514 257.465 116.798 257.521 117.102C257.585 117.406 257.617 117.79 257.617 118.254V122.334H256.225V118.53C256.225 118.242 256.209 118.014 256.177 117.846C256.153 117.67 256.093 117.498 255.997 117.33C255.909 117.162 255.761 117.042 255.553 116.97C255.345 116.89 255.073 116.85 254.737 116.85C254.025 116.85 253.545 117.002 253.297 117.306C253.057 117.602 252.937 118.05 252.937 118.65V122.334H251.533ZM259.22 116.886V115.614H260.42L260.672 113.814L261.764 113.586V115.614H263.48V116.886H261.764V120.198C261.764 120.518 261.82 120.75 261.932 120.894C262.044 121.03 262.3 121.098 262.7 121.098H263.48V122.334C263.352 122.342 263.004 122.346 262.436 122.346C261.636 122.346 261.092 122.198 260.804 121.902C260.516 121.606 260.372 121.106 260.372 120.402V116.886H259.22Z" fill="white"/>
<defs>
<filter id="filter0_b_1557_6637" x="-13.627" y="-13.3945" width="410" height="228" filterUnits="userSpaceOnUse" color-interpolation-filters="sRGB">
<feFlood flood-opacity="0" result="BackgroundImageFix"/>
<feGaussianBlur in="BackgroundImageFix" stdDeviation="7"/>
<feComposite in2="SourceAlpha" operator="in" result="effect1_backgroundBlur_1557_6637"/>
<feBlend mode="normal" in="SourceGraphic" in2="effect1_backgroundBlur_1557_6637" result="shape"/>
</filter>
<linearGradient id="paint0_linear_1557_6637" x1="382.373" y1="0.605446" x2="-16.627" y2="212.605" gradientUnits="userSpaceOnUse">
<stop stop-color="white" stop-opacity="0.42"/>
<stop stop-color="white" stop-opacity="0.51"/>
<stop offset="0.701219" stop-opacity="0"/>
<stop offset="1" stop-opacity="0"/>
</linearGradient>
</defs>
</svg>
