<svg width="526" height="382" viewBox="0 0 526 382" fill="none" xmlns="http://www.w3.org/2000/svg">
<g filter="url(#filter0_f_1674_126)">
<circle cx="334.874" cy="191.105" r="44.5" fill="#FFD916"/>
</g>
<rect y="146.332" width="382" height="200" rx="10" transform="rotate(-2 0 146.332)" fill="#020202"/>
<rect x="0.517145" y="146.814" width="381" height="199" rx="9.5" transform="rotate(-2 0.517145 146.814)" stroke="white" stroke-opacity="0.1"/>
<rect y="146.332" width="382" height="200" rx="10" transform="rotate(-2 0 146.332)" fill="url(#paint0_radial_1674_126)"/>
<path d="M343.187 174.373L362.477 153.687" stroke="white" stroke-width="2" stroke-linecap="round" stroke-linejoin="round"/>
<path d="M342.489 154.385L362.477 153.687L363.175 173.675" stroke="white" stroke-width="2" stroke-linecap="round" stroke-linejoin="round"/>
<path d="M110.444 221.523L114.977 221.365L115.605 239.354L111.072 239.512L110.444 221.523ZM135.668 235.555L134.214 235.87L133.685 220.712L138.074 220.558L138.702 238.547L132.994 238.747L121.503 223.971L122.957 223.656L123.495 239.078L119.106 239.232L118.478 221.243L124.354 221.037L135.668 235.555ZM144.041 227.842L157.065 227.388L157.2 231.249L144.176 231.704L144.041 227.842ZM157.236 219.889L157.37 223.751L144.011 224.217L146.163 221.909L146.735 238.267L142.201 238.425L141.573 220.436L157.236 219.889ZM164.4 219.639L164.958 235.613L162.85 233.694L176.329 233.223L176.469 237.228L160.495 237.786L159.867 219.797L164.4 219.639ZM181.89 229.066C181.921 229.946 182.116 230.707 182.474 231.351C182.848 231.979 183.369 232.457 184.037 232.786C184.705 233.098 185.518 233.238 186.477 233.205C187.437 233.171 188.239 232.975 188.882 232.616C189.526 232.242 190.004 231.729 190.318 231.077C190.646 230.409 190.796 229.636 190.765 228.756L190.415 218.73L194.948 218.572L195.306 228.814C195.363 230.445 195.036 231.881 194.327 233.123C193.618 234.364 192.604 235.352 191.285 236.087C189.965 236.805 188.41 237.196 186.619 237.258C184.828 237.321 183.249 237.04 181.883 236.415C180.516 235.774 179.435 234.859 178.641 233.67C177.847 232.481 177.422 231.071 177.365 229.44L177.007 219.199L181.54 219.04L181.89 229.066ZM213.601 225.245L213.718 228.603L200.694 229.058L200.577 225.7L213.601 225.245ZM203.705 227.272L202.766 234.749L200.796 232.657L214.611 232.174L214.741 235.892L198.287 236.467L199.364 227.423L197.659 218.477L213.993 217.907L214.123 221.625L200.427 222.103L202.247 219.878L203.705 227.272ZM234.28 232.112L232.826 232.427L232.296 217.268L236.686 217.115L237.314 235.104L231.605 235.303L220.115 220.527L221.569 220.212L222.107 235.635L217.718 235.788L217.09 217.799L222.966 217.594L234.28 232.112ZM260.293 226.857C260.172 228.414 259.684 229.8 258.83 231.014C257.975 232.213 256.824 233.166 255.375 233.873C253.927 234.58 252.268 234.966 250.397 235.031C248.318 235.104 246.481 234.776 244.887 234.047C243.309 233.317 242.063 232.264 241.15 230.887C240.238 229.51 239.749 227.886 239.684 226.015C239.618 224.145 239.993 222.49 240.807 221.053C241.621 219.616 242.79 218.478 244.314 217.641C245.854 216.802 247.663 216.347 249.742 216.274C251.613 216.209 253.295 216.479 254.789 217.083C256.283 217.687 257.498 218.557 258.434 219.693C259.371 220.829 259.954 222.178 260.185 223.739L255.627 223.898C255.439 223.088 255.087 222.404 254.571 221.845C254.071 221.286 253.416 220.869 252.606 220.593C251.811 220.301 250.894 220.173 249.855 220.209C248.656 220.251 247.632 220.511 246.784 220.989C245.936 221.45 245.294 222.097 244.859 222.929C244.424 223.761 244.226 224.736 244.265 225.855C244.304 226.975 244.569 227.934 245.062 228.733C245.554 229.533 246.24 230.141 247.119 230.559C247.997 230.96 249.036 231.14 250.235 231.098C251.275 231.062 252.181 230.878 252.954 230.547C253.743 230.215 254.367 229.753 254.827 229.161C255.302 228.568 255.605 227.853 255.736 227.016L260.293 226.857ZM277.78 223.004L277.898 226.362L264.874 226.817L264.756 223.459L277.78 223.004ZM267.885 225.031L266.945 232.508L264.975 230.415L278.791 229.933L278.921 233.651L262.467 234.225L263.544 225.182L261.839 216.236L278.173 215.666L278.302 219.384L264.607 219.862L266.426 217.637L267.885 225.031Z" fill="white"/>
<path d="M146.036 263.034L145.726 254.148L147.621 254.082L150.678 260.807L153.258 253.885L155.128 253.819L155.439 262.706L154.012 262.756L153.786 256.304L151.325 262.85L150.126 262.892L147.215 256.545L147.44 262.985L146.036 263.034ZM162.276 262.407C161.88 262.541 161.363 262.619 160.723 262.642C160.084 262.664 159.562 262.622 159.158 262.516C158.754 262.41 158.439 262.225 158.214 261.961C157.988 261.688 157.829 261.378 157.737 261.029C157.653 260.671 157.6 260.213 157.581 259.653L157.45 255.912L158.841 255.863L158.973 259.641C158.982 259.897 158.993 260.092 159.006 260.228C159.018 260.356 159.056 260.51 159.118 260.692C159.18 260.866 159.269 260.995 159.384 261.079C159.499 261.163 159.661 261.234 159.871 261.29C160.09 261.347 160.359 261.369 160.678 261.358C160.998 261.347 161.261 261.306 161.466 261.235C161.68 261.155 161.837 261.074 161.938 260.99C162.047 260.898 162.126 260.759 162.176 260.574C162.225 260.388 162.252 260.231 162.255 260.103C162.259 259.974 162.256 259.774 162.247 259.502L162.115 255.749L163.483 255.701L163.612 259.419C163.632 259.986 163.612 260.451 163.553 260.814C163.493 261.168 163.365 261.489 163.166 261.776C162.968 262.063 162.671 262.273 162.276 262.407ZM168.228 262.379C167.036 262.421 166.028 262.184 165.201 261.669L165.883 260.564C166.602 260.995 167.398 261.196 168.269 261.165C168.829 261.146 169.215 261.076 169.427 260.957C169.639 260.837 169.739 260.614 169.728 260.286C169.718 260.022 169.612 259.846 169.409 259.757C169.213 259.659 168.818 259.573 168.223 259.498C167.837 259.447 167.531 259.402 167.306 259.362C167.08 259.322 166.834 259.258 166.567 259.171C166.299 259.077 166.095 258.964 165.955 258.833C165.814 258.693 165.691 258.51 165.587 258.281C165.491 258.052 165.438 257.782 165.427 257.47C165.404 256.807 165.598 256.304 166.01 255.961C166.422 255.61 167.112 255.418 168.08 255.384C169.151 255.347 170.037 255.516 170.739 255.892L170.119 257.066C169.541 256.782 168.888 256.653 168.161 256.678C167.633 256.697 167.271 256.765 167.075 256.884C166.887 257.003 166.797 257.182 166.806 257.422C166.815 257.678 166.917 257.858 167.113 257.964C167.308 258.061 167.676 258.144 168.214 258.213C168.641 258.271 168.959 258.319 169.168 258.36C169.377 258.393 169.624 258.456 169.907 258.551C170.198 258.636 170.41 258.741 170.542 258.865C170.683 258.988 170.805 259.16 170.909 259.38C171.012 259.601 171.07 259.863 171.08 260.167C171.107 260.934 170.898 261.486 170.454 261.821C170.017 262.157 169.275 262.343 168.228 262.379ZM172.935 262.095L172.7 255.379L174.08 255.331L174.314 262.047L172.935 262.095ZM172.663 254.648L172.609 253.113L174.012 253.064L174.066 254.599L172.663 254.648ZM179.519 261.985C178.879 262.008 178.333 261.943 177.879 261.79C177.433 261.638 177.081 261.406 176.822 261.095C176.571 260.775 176.386 260.418 176.268 260.021C176.158 259.625 176.094 259.155 176.075 258.611C176.056 258.068 176.088 257.594 176.17 257.191C176.259 256.788 176.419 256.418 176.647 256.082C176.883 255.745 177.227 255.485 177.676 255.301C178.126 255.118 178.679 255.014 179.335 254.991C180.43 254.953 181.298 255.271 181.938 255.945L180.952 256.94C180.521 256.523 179.998 256.325 179.382 256.347C178.646 256.372 178.137 256.574 177.854 256.952C177.579 257.322 177.454 257.871 177.479 258.598C177.505 259.334 177.668 259.88 177.969 260.238C178.27 260.596 178.792 260.762 179.535 260.736C180.135 260.715 180.667 260.472 181.131 260.008L182.097 260.863C181.726 261.236 181.348 261.513 180.962 261.695C180.583 261.868 180.103 261.965 179.519 261.985ZM189.938 261.621C188.811 261.661 187.989 261.493 187.471 261.119C186.962 260.745 186.691 260.098 186.659 259.178C186.637 258.555 186.783 258.037 187.097 257.626C187.411 257.215 187.85 256.847 188.415 256.523C188.104 255.854 187.938 255.231 187.918 254.656C187.893 253.952 188.067 253.418 188.438 253.052C188.817 252.679 189.351 252.48 190.038 252.456C190.726 252.432 191.244 252.586 191.591 252.918C191.947 253.242 192.138 253.772 192.163 254.507C192.183 255.075 192.019 255.545 191.672 255.917C191.333 256.281 190.853 256.634 190.232 256.976C190.645 257.562 191.095 258.063 191.581 258.478C191.837 258.701 192.101 258.916 192.372 259.123C192.729 258.558 193.082 257.545 193.431 256.084L194.617 256.343C194.271 257.892 193.878 259.026 193.439 259.746C193.951 259.976 194.515 260.081 195.131 260.059L195.239 260.055L195.283 261.315L195.127 261.32C194.119 261.355 193.253 261.181 192.527 260.798C191.88 261.309 191.018 261.584 189.938 261.621ZM189.897 260.446C190.505 260.425 191.009 260.299 191.409 260.069C191.138 259.862 190.845 259.612 190.53 259.319C189.952 258.803 189.443 258.217 189.004 257.559C188.324 258.023 187.993 258.539 188.013 259.107C188.03 259.579 188.162 259.926 188.41 260.15C188.666 260.373 189.162 260.472 189.897 260.446ZM189.237 254.61C189.252 255.041 189.393 255.513 189.659 256.024C190.083 255.785 190.403 255.553 190.619 255.33C190.843 255.106 190.95 254.846 190.94 254.55C190.929 254.238 190.857 254.013 190.724 253.873C190.599 253.733 190.385 253.669 190.081 253.679C189.497 253.7 189.216 254.01 189.237 254.61ZM199.936 261.152L203.185 252.081L204.672 252.029L208.558 260.851L207.059 260.903L206.34 259.223L201.987 259.375L201.387 261.101L199.936 261.152ZM202.444 258.015L205.778 257.898L203.965 253.795L202.444 258.015ZM210.091 260.797L209.86 254.166L210.948 254.043L211.119 254.806C211.254 254.561 211.515 254.356 211.902 254.19C212.296 254.016 212.769 253.916 213.32 253.889L213.369 255.292C212.61 255.326 212.08 255.513 211.78 255.852C211.487 256.19 211.352 256.671 211.374 257.295L211.494 260.748L210.091 260.797ZM214.457 255.194L214.412 253.922L215.612 253.881L215.801 252.073L216.884 251.807L216.955 253.834L218.67 253.774L218.714 255.045L216.999 255.105L217.115 258.415C217.126 258.735 217.19 258.965 217.307 259.105C217.424 259.237 217.682 259.296 218.082 259.282L218.861 259.254L218.904 260.49C218.777 260.502 218.429 260.518 217.861 260.538C217.062 260.566 216.513 260.437 216.215 260.151C215.917 259.866 215.755 259.371 215.731 258.667L215.608 255.154L214.457 255.194ZM220.832 260.422L220.597 253.707L221.976 253.658L222.211 260.374L220.832 260.422ZM220.56 252.975L220.506 251.44L221.909 251.391L221.963 252.926L220.56 252.975ZM226.828 260.333C225.637 260.375 224.628 260.138 223.801 259.622L224.483 258.518C225.203 258.949 225.998 259.149 226.87 259.119C227.429 259.099 227.815 259.03 228.027 258.91C228.239 258.791 228.339 258.567 228.328 258.239C228.319 257.976 228.212 257.799 228.009 257.71C227.814 257.613 227.418 257.527 226.823 257.452C226.437 257.401 226.132 257.356 225.906 257.315C225.681 257.275 225.434 257.212 225.167 257.125C224.9 257.03 224.695 256.917 224.555 256.786C224.414 256.647 224.291 256.463 224.187 256.235C224.091 256.006 224.038 255.736 224.027 255.424C224.004 254.76 224.198 254.257 224.611 253.915C225.023 253.564 225.712 253.372 226.68 253.338C227.751 253.301 228.638 253.47 229.339 253.846L228.72 255.02C228.141 254.736 227.489 254.607 226.761 254.632C226.233 254.65 225.871 254.719 225.675 254.838C225.488 254.957 225.398 255.136 225.406 255.376C225.415 255.632 225.517 255.812 225.713 255.917C225.909 256.015 226.276 256.098 226.815 256.167C227.241 256.224 227.559 256.273 227.768 256.314C227.978 256.347 228.224 256.41 228.507 256.504C228.799 256.59 229.01 256.695 229.143 256.818C229.283 256.941 229.405 257.113 229.509 257.334C229.613 257.554 229.67 257.816 229.68 258.12C229.707 258.888 229.498 259.439 229.054 259.775C228.617 260.111 227.875 260.297 226.828 260.333ZM230.711 254.626L230.667 253.355L231.866 253.313L232.055 251.505L233.138 251.239L233.209 253.266L234.924 253.206L234.968 254.477L233.254 254.537L233.369 257.847C233.38 258.167 233.444 258.397 233.561 258.537C233.678 258.669 233.936 258.728 234.336 258.714L235.115 258.687L235.159 259.922C235.031 259.935 234.683 259.951 234.116 259.971C233.316 259.998 232.767 259.87 232.469 259.584C232.171 259.298 232.01 258.803 231.985 258.1L231.862 254.586L230.711 254.626ZM239.382 259.895C238.191 259.936 237.182 259.699 236.355 259.184L237.037 258.079C237.757 258.511 238.552 258.711 239.424 258.681C239.983 258.661 240.369 258.591 240.581 258.472C240.793 258.353 240.893 258.129 240.882 257.801C240.873 257.537 240.766 257.361 240.563 257.272C240.368 257.175 239.972 257.088 239.377 257.013C238.991 256.963 238.686 256.917 238.46 256.877C238.234 256.837 237.988 256.773 237.721 256.687C237.453 256.592 237.249 256.479 237.109 256.348C236.968 256.209 236.845 256.025 236.741 255.796C236.645 255.568 236.592 255.297 236.581 254.985C236.558 254.322 236.752 253.819 237.165 253.476C237.577 253.126 238.266 252.933 239.234 252.9C240.305 252.862 241.191 253.031 241.893 253.407L241.274 254.581C240.695 254.297 240.042 254.168 239.315 254.194C238.787 254.212 238.425 254.281 238.229 254.4C238.041 254.518 237.952 254.697 237.96 254.937C237.969 255.193 238.071 255.374 238.267 255.479C238.463 255.576 238.83 255.659 239.368 255.729C239.795 255.786 240.113 255.835 240.322 255.875C240.531 255.908 240.778 255.972 241.061 256.066C241.352 256.152 241.564 256.256 241.697 256.38C241.837 256.503 241.959 256.675 242.063 256.895C242.167 257.116 242.224 257.378 242.234 257.682C242.261 258.449 242.052 259.001 241.608 259.337C241.171 259.672 240.429 259.858 239.382 259.895Z" fill="white"/>
<defs>
<filter id="filter0_f_1674_126" x="144.374" y="0.605469" width="381" height="381" filterUnits="userSpaceOnUse" color-interpolation-filters="sRGB">
<feFlood flood-opacity="0" result="BackgroundImageFix"/>
<feBlend mode="normal" in="SourceGraphic" in2="BackgroundImageFix" result="shape"/>
<feGaussianBlur stdDeviation="73" result="effect1_foregroundBlur_1674_126"/>
</filter>
<radialGradient id="paint0_radial_1674_126" cx="0" cy="0" r="1" gradientUnits="userSpaceOnUse" gradientTransform="translate(382.606 146.353) rotate(152.405) scale(431.716 824.578)">
<stop stop-color="#FFD916"/>
<stop offset="0.361364" stop-color="#FF1914"/>
<stop offset="0.9999" stop-color="#6705FF"/>
<stop offset="1" stop-color="#151515" stop-opacity="0"/>
</radialGradient>
</defs>
</svg>
