<svg width="383" height="201" viewBox="0 0 383 201" fill="none" xmlns="http://www.w3.org/2000/svg">
<g filter="url(#filter0_b_1557_6629)">
<rect x="0.373047" y="0.605469" width="382" height="200" rx="10" fill="white" fill-opacity="0.05"/>
<rect x="0.373047" y="0.605469" width="382" height="200" rx="10" fill="url(#paint0_linear_1557_6629)" fill-opacity="0.2"/>
<rect x="0.873047" y="1.10547" width="381" height="199" rx="9.5" stroke="white" stroke-opacity="0.1"/>
</g>
<path d="M342.373 40.6055L362.373 20.6055" stroke="white" stroke-width="2" stroke-linecap="round" stroke-linejoin="round"/>
<path d="M342.373 20.6055H362.373V40.6055" stroke="white" stroke-width="2" stroke-linecap="round" stroke-linejoin="round"/>
<path d="M107.752 80H112.288V98H107.752V80ZM132.471 94.904L131.007 95.168V80H135.399V98H129.687L118.719 82.832L120.183 82.568V98H115.791V80H121.671L132.471 94.904ZM141.108 87.488H154.14V91.352H141.108V87.488ZM154.572 80V83.864H141.204L143.436 81.632V98H138.9V80H154.572ZM161.741 80V95.984L159.701 93.992H173.189V98H157.205V80H161.741ZM178.892 90.032C178.892 90.912 179.06 91.68 179.396 92.336C179.748 92.976 180.252 93.472 180.908 93.824C181.564 94.16 182.372 94.328 183.332 94.328C184.292 94.328 185.1 94.16 185.756 93.824C186.412 93.472 186.908 92.976 187.244 92.336C187.596 91.68 187.772 90.912 187.772 90.032V80H192.308V90.248C192.308 91.88 191.932 93.304 191.18 94.52C190.428 95.736 189.38 96.688 188.036 97.376C186.692 98.048 185.124 98.384 183.332 98.384C181.54 98.384 179.972 98.048 178.628 97.376C177.284 96.688 176.236 95.736 175.484 94.52C174.732 93.304 174.356 91.88 174.356 90.248V80H178.892V90.032ZM210.716 87.32V90.68H197.684V87.32H210.716ZM200.756 89L199.556 96.44L197.66 94.28H211.484V98H195.02L196.412 89L195.02 80H211.364V83.72H197.66L199.556 81.56L200.756 89ZM231.143 94.904L229.679 95.168V80H234.071V98H228.359L217.391 82.832L218.855 82.568V98H214.463V80H220.343L231.143 94.904ZM257.324 90.56C257.148 92.112 256.612 93.48 255.716 94.664C254.82 95.832 253.636 96.744 252.164 97.4C250.692 98.056 249.02 98.384 247.148 98.384C245.068 98.384 243.244 97.992 241.676 97.208C240.124 96.424 238.916 95.328 238.052 93.92C237.188 92.512 236.756 90.872 236.756 89C236.756 87.128 237.188 85.488 238.052 84.08C238.916 82.672 240.124 81.576 241.676 80.792C243.244 80.008 245.068 79.616 247.148 79.616C249.02 79.616 250.692 79.944 252.164 80.6C253.636 81.256 254.82 82.168 255.716 83.336C256.612 84.504 257.148 85.872 257.324 87.44H252.764C252.604 86.624 252.276 85.928 251.78 85.352C251.3 84.776 250.66 84.336 249.86 84.032C249.076 83.712 248.164 83.552 247.124 83.552C245.924 83.552 244.892 83.776 244.028 84.224C243.164 84.656 242.5 85.28 242.036 86.096C241.572 86.912 241.34 87.88 241.34 89C241.34 90.12 241.572 91.088 242.036 91.904C242.5 92.72 243.164 93.352 244.028 93.8C244.892 94.232 245.924 94.448 247.124 94.448C248.164 94.448 249.076 94.296 249.86 93.992C250.66 93.688 251.3 93.248 251.78 92.672C252.276 92.096 252.604 91.392 252.764 90.56H257.324ZM274.935 87.32V90.68H261.903V87.32H274.935ZM264.975 89L263.775 96.44L261.879 94.28H275.703V98H259.239L260.631 89L259.239 80H275.583V83.72H261.879L263.775 81.56L264.975 89Z" fill="white"/>
<path d="M142.247 122.334V113.442H144.143L146.963 120.27L149.783 113.442H151.655V122.334H150.227V115.878L147.539 122.334H146.339L143.651 115.89V122.334H142.247ZM158.499 122.274C158.099 122.394 157.579 122.454 156.939 122.454C156.299 122.454 155.779 122.394 155.379 122.274C154.979 122.154 154.671 121.958 154.455 121.686C154.239 121.406 154.091 121.09 154.011 120.738C153.939 120.378 153.903 119.918 153.903 119.358V115.614H155.295V119.394C155.295 119.65 155.299 119.846 155.307 119.982C155.315 120.11 155.347 120.266 155.403 120.45C155.459 120.626 155.543 120.758 155.655 120.846C155.767 120.934 155.927 121.01 156.135 121.074C156.351 121.138 156.619 121.17 156.939 121.17C157.259 121.17 157.523 121.138 157.731 121.074C157.947 121.002 158.107 120.926 158.211 120.846C158.323 120.758 158.407 120.622 158.463 120.438C158.519 120.254 158.551 120.098 158.559 119.97C158.567 119.842 158.571 119.642 158.571 119.37V115.614H159.939V119.334C159.939 119.902 159.903 120.366 159.831 120.726C159.759 121.078 159.619 121.394 159.411 121.674C159.203 121.954 158.899 122.154 158.499 122.274ZM164.448 122.454C163.256 122.454 162.256 122.182 161.448 121.638L162.168 120.558C162.872 121.014 163.66 121.242 164.532 121.242C165.092 121.242 165.48 121.186 165.696 121.074C165.912 120.962 166.02 120.742 166.02 120.414C166.02 120.15 165.92 119.97 165.72 119.874C165.528 119.77 165.136 119.67 164.544 119.574C164.16 119.51 163.856 119.454 163.632 119.406C163.408 119.358 163.164 119.286 162.9 119.19C162.636 119.086 162.436 118.966 162.3 118.83C162.164 118.686 162.048 118.498 161.952 118.266C161.864 118.034 161.82 117.762 161.82 117.45C161.82 116.786 162.032 116.29 162.456 115.962C162.88 115.626 163.576 115.458 164.544 115.458C165.616 115.458 166.496 115.658 167.184 116.058L166.524 117.21C165.956 116.906 165.308 116.754 164.58 116.754C164.052 116.754 163.688 116.81 163.488 116.922C163.296 117.034 163.2 117.21 163.2 117.45C163.2 117.706 163.296 117.89 163.488 118.002C163.68 118.106 164.044 118.202 164.58 118.29C165.004 118.362 165.32 118.422 165.528 118.47C165.736 118.51 165.98 118.582 166.26 118.686C166.548 118.782 166.756 118.894 166.884 119.022C167.02 119.15 167.136 119.326 167.232 119.55C167.328 119.774 167.376 120.038 167.376 120.342C167.376 121.11 167.148 121.654 166.692 121.974C166.244 122.294 165.496 122.454 164.448 122.454ZM169.162 122.334V115.614H170.542V122.334H169.162ZM169.15 114.882V113.346H170.554V114.882H169.15ZM175.746 122.454C175.106 122.454 174.562 122.37 174.114 122.202C173.674 122.034 173.33 121.79 173.082 121.47C172.842 121.142 172.67 120.778 172.566 120.378C172.47 119.978 172.422 119.506 172.422 118.962C172.422 118.418 172.47 117.946 172.566 117.546C172.67 117.146 172.842 116.782 173.082 116.454C173.33 116.126 173.682 115.878 174.138 115.71C174.594 115.542 175.15 115.458 175.806 115.458C176.902 115.458 177.758 115.806 178.374 116.502L177.354 117.462C176.938 117.03 176.422 116.814 175.806 116.814C175.07 116.814 174.554 116.998 174.258 117.366C173.97 117.726 173.826 118.27 173.826 118.998C173.826 119.734 173.97 120.286 174.258 120.654C174.546 121.022 175.062 121.206 175.806 121.206C176.406 121.206 176.946 120.982 177.426 120.534L178.362 121.422C177.978 121.782 177.59 122.046 177.198 122.214C176.814 122.374 176.33 122.454 175.746 122.454ZM186.172 122.454C185.044 122.454 184.228 122.258 183.724 121.866C183.228 121.474 182.98 120.818 182.98 119.898C182.98 119.274 183.144 118.762 183.472 118.362C183.8 117.962 184.252 117.61 184.828 117.306C184.54 116.626 184.396 115.998 184.396 115.422C184.396 114.718 184.588 114.19 184.972 113.838C185.364 113.478 185.904 113.298 186.592 113.298C187.28 113.298 187.792 113.47 188.128 113.814C188.472 114.15 188.644 114.686 188.644 115.422C188.644 115.99 188.464 116.454 188.104 116.814C187.752 117.166 187.26 117.502 186.628 117.822C187.02 118.422 187.452 118.938 187.924 119.37C188.172 119.602 188.428 119.826 188.692 120.042C189.068 119.49 189.456 118.49 189.856 117.042L191.032 117.342C190.632 118.878 190.2 119.998 189.736 120.702C190.24 120.95 190.8 121.074 191.416 121.074H191.524V122.334H191.368C190.36 122.334 189.5 122.13 188.788 121.722C188.124 122.21 187.252 122.454 186.172 122.454ZM186.172 121.278C186.78 121.278 187.288 121.17 187.696 120.954C187.432 120.738 187.148 120.478 186.844 120.174C186.284 119.638 185.796 119.034 185.38 118.362C184.684 118.802 184.336 119.306 184.336 119.874C184.336 120.346 184.456 120.698 184.696 120.93C184.944 121.162 185.436 121.278 186.172 121.278ZM185.716 115.422C185.716 115.854 185.84 116.33 186.088 116.85C186.52 116.626 186.848 116.406 187.072 116.19C187.304 115.974 187.42 115.718 187.42 115.422C187.42 115.11 187.356 114.882 187.228 114.738C187.108 114.594 186.896 114.522 186.592 114.522C186.008 114.522 185.716 114.822 185.716 115.422ZM196.179 122.334L199.743 113.382H201.231L204.807 122.334H203.307L202.647 120.63H198.291L197.631 122.334H196.179ZM198.795 119.286H202.131L200.463 115.122L198.795 119.286ZM206.341 122.334V115.698L207.433 115.614L207.577 116.382C207.721 116.142 207.989 115.946 208.381 115.794C208.781 115.634 209.257 115.55 209.809 115.542V116.946C209.049 116.954 208.513 117.122 208.201 117.45C207.897 117.778 207.745 118.254 207.745 118.878V122.334H206.341ZM210.9 116.886V115.614H212.1L212.352 113.814L213.444 113.586V115.614H215.16V116.886H213.444V120.198C213.444 120.518 213.5 120.75 213.612 120.894C213.724 121.03 213.98 121.098 214.38 121.098H215.16V122.334C215.032 122.342 214.684 122.346 214.116 122.346C213.316 122.346 212.772 122.198 212.484 121.902C212.196 121.606 212.052 121.106 212.052 120.402V116.886H210.9ZM217.088 122.334V115.614H218.468V122.334H217.088ZM217.076 114.882V113.346H218.48V114.882H217.076ZM223.084 122.454C221.892 122.454 220.892 122.182 220.084 121.638L220.804 120.558C221.508 121.014 222.296 121.242 223.168 121.242C223.728 121.242 224.116 121.186 224.332 121.074C224.548 120.962 224.656 120.742 224.656 120.414C224.656 120.15 224.556 119.97 224.356 119.874C224.164 119.77 223.772 119.67 223.18 119.574C222.796 119.51 222.492 119.454 222.268 119.406C222.044 119.358 221.8 119.286 221.536 119.19C221.272 119.086 221.072 118.966 220.936 118.83C220.8 118.686 220.684 118.498 220.588 118.266C220.5 118.034 220.456 117.762 220.456 117.45C220.456 116.786 220.668 116.29 221.092 115.962C221.516 115.626 222.212 115.458 223.18 115.458C224.252 115.458 225.132 115.658 225.82 116.058L225.16 117.21C224.592 116.906 223.944 116.754 223.216 116.754C222.688 116.754 222.324 116.81 222.124 116.922C221.932 117.034 221.836 117.21 221.836 117.45C221.836 117.706 221.932 117.89 222.124 118.002C222.316 118.106 222.68 118.202 223.216 118.29C223.64 118.362 223.956 118.422 224.164 118.47C224.372 118.51 224.616 118.582 224.896 118.686C225.184 118.782 225.392 118.894 225.52 119.022C225.656 119.15 225.772 119.326 225.868 119.55C225.964 119.774 226.012 120.038 226.012 120.342C226.012 121.11 225.784 121.654 225.328 121.974C224.88 122.294 224.132 122.454 223.084 122.454ZM227.164 116.886V115.614H228.364L228.616 113.814L229.708 113.586V115.614H231.424V116.886H229.708V120.198C229.708 120.518 229.764 120.75 229.876 120.894C229.988 121.03 230.244 121.098 230.644 121.098H231.424V122.334C231.296 122.342 230.948 122.346 230.38 122.346C229.58 122.346 229.036 122.198 228.748 121.902C228.46 121.606 228.316 121.106 228.316 120.402V116.886H227.164ZM235.646 122.454C234.454 122.454 233.454 122.182 232.646 121.638L233.366 120.558C234.07 121.014 234.858 121.242 235.73 121.242C236.29 121.242 236.678 121.186 236.894 121.074C237.11 120.962 237.218 120.742 237.218 120.414C237.218 120.15 237.118 119.97 236.918 119.874C236.726 119.77 236.334 119.67 235.742 119.574C235.358 119.51 235.054 119.454 234.83 119.406C234.606 119.358 234.362 119.286 234.098 119.19C233.834 119.086 233.634 118.966 233.498 118.83C233.362 118.686 233.246 118.498 233.15 118.266C233.062 118.034 233.018 117.762 233.018 117.45C233.018 116.786 233.23 116.29 233.654 115.962C234.078 115.626 234.774 115.458 235.742 115.458C236.814 115.458 237.694 115.658 238.382 116.058L237.722 117.21C237.154 116.906 236.506 116.754 235.778 116.754C235.25 116.754 234.886 116.81 234.686 116.922C234.494 117.034 234.398 117.21 234.398 117.45C234.398 117.706 234.494 117.89 234.686 118.002C234.878 118.106 235.242 118.202 235.778 118.29C236.202 118.362 236.518 118.422 236.726 118.47C236.934 118.51 237.178 118.582 237.458 118.686C237.746 118.782 237.954 118.894 238.082 119.022C238.218 119.15 238.334 119.326 238.43 119.55C238.526 119.774 238.574 120.038 238.574 120.342C238.574 121.11 238.346 121.654 237.89 121.974C237.442 122.294 236.694 122.454 235.646 122.454Z" fill="white"/>
<defs>
<filter id="filter0_b_1557_6629" x="-13.627" y="-13.3945" width="410" height="228" filterUnits="userSpaceOnUse" color-interpolation-filters="sRGB">
<feFlood flood-opacity="0" result="BackgroundImageFix"/>
<feGaussianBlur in="BackgroundImageFix" stdDeviation="7"/>
<feComposite in2="SourceAlpha" operator="in" result="effect1_backgroundBlur_1557_6629"/>
<feBlend mode="normal" in="SourceGraphic" in2="effect1_backgroundBlur_1557_6629" result="shape"/>
</filter>
<linearGradient id="paint0_linear_1557_6629" x1="382.373" y1="0.605446" x2="-16.627" y2="212.605" gradientUnits="userSpaceOnUse">
<stop stop-color="white" stop-opacity="0.42"/>
<stop stop-color="white" stop-opacity="0.51"/>
<stop offset="0.701219" stop-opacity="0"/>
<stop offset="1" stop-opacity="0"/>
</linearGradient>
</defs>
</svg>
