<svg width="279" height="244" viewBox="0 0 279 244" fill="none" xmlns="http://www.w3.org/2000/svg">
<path d="M221.143 196.228C218.19 199.495 213.121 200.702 206.311 199.923C199.515 199.146 191.102 196.402 181.624 191.928C162.674 182.983 139.571 167.175 116.823 146.618C94.0746 126.06 76.0161 104.671 65.2044 86.7197C59.7969 77.7414 56.2176 69.6483 54.7587 62.9658C53.2967 56.2686 53.986 51.1039 56.9387 47.8365C59.8915 44.5692 64.9602 43.3622 71.7708 44.1409C78.5664 44.918 86.9794 47.6623 96.4576 52.1362C115.408 61.0812 138.51 76.8891 161.259 97.4468C184.007 118.004 202.065 139.394 212.877 157.345C218.285 166.323 221.864 174.416 223.323 181.099C224.785 187.796 224.096 192.96 221.143 196.228Z" stroke="url(#paint0_linear_1525_106)"/>
<path d="M249.424 105.342C250.083 109.734 247.781 114.457 242.819 119.267C237.868 124.067 230.35 128.869 220.802 133.395C201.714 142.445 174.622 150.342 144.055 154.926C113.487 159.51 85.271 159.907 64.3674 156.855C53.9124 155.329 45.316 152.943 39.1747 149.807C33.02 146.664 29.4343 142.824 28.7756 138.431C28.1169 134.039 30.4183 129.316 35.3804 124.506C40.3315 119.706 47.8501 114.904 57.3974 110.378C76.4861 101.328 103.578 93.4311 134.145 88.8471C164.712 84.263 192.929 83.8656 213.832 86.9177C224.287 88.4443 232.884 90.8296 239.025 93.9658C245.18 97.1088 248.765 100.949 249.424 105.342Z" stroke="url(#paint1_linear_1525_106)"/>
<defs>
<linearGradient id="paint0_linear_1525_106" x1="58.4813" y1="43" x2="225.981" y2="201" gradientUnits="userSpaceOnUse">
<stop stop-color="white"/>
<stop offset="0.475745" stop-color="white" stop-opacity="0"/>
<stop offset="1" stop-color="white"/>
</linearGradient>
<linearGradient id="paint1_linear_1525_106" x1="29.4813" y1="138.001" x2="245.481" y2="109.501" gradientUnits="userSpaceOnUse">
<stop stop-color="white"/>
<stop offset="1" stop-color="white" stop-opacity="0"/>
</linearGradient>
</defs>
</svg>
