<svg width="583" height="345" viewBox="0 0 583 345" fill="none" xmlns="http://www.w3.org/2000/svg">
<rect width="100" height="78" transform="translate(1 267)" fill="white"/>
<path d="M36.7154 310.914V299.799H38.2154V310.914H36.7154ZM43.8581 311.064C42.5481 311.064 41.6231 310.689 41.0831 309.939C40.5431 309.179 40.2731 308.099 40.2731 306.699C40.2731 305.319 40.5431 304.259 41.0831 303.519C41.6331 302.769 42.5731 302.394 43.9031 302.394C45.4931 302.394 46.4881 302.729 46.8881 303.399V299.274H48.3581V310.854L47.2331 310.959L47.0681 309.984C46.7981 310.354 46.4131 310.629 45.9131 310.809C45.4231 310.979 44.7381 311.064 43.8581 311.064ZM44.1731 309.729C45.1531 309.729 45.8481 309.499 46.2581 309.039C46.6781 308.579 46.8881 307.799 46.8881 306.699C46.8881 305.609 46.6881 304.849 46.2881 304.419C45.8881 303.979 45.1831 303.759 44.1731 303.759C43.2631 303.759 42.6331 304.004 42.2831 304.494C41.9331 304.984 41.7581 305.719 41.7581 306.699C41.7581 307.699 41.9331 308.454 42.2831 308.964C42.6331 309.474 43.2631 309.729 44.1731 309.729ZM54.2119 311.079C53.5419 311.079 52.9619 311.004 52.4719 310.854C51.9819 310.704 51.5869 310.504 51.2869 310.254C50.9969 310.004 50.7619 309.689 50.5819 309.309C50.4019 308.919 50.2769 308.524 50.2069 308.124C50.1469 307.714 50.1169 307.249 50.1169 306.729C50.1169 306.079 50.1719 305.514 50.2819 305.034C50.4019 304.544 50.6019 304.089 50.8819 303.669C51.1719 303.249 51.5919 302.929 52.1419 302.709C52.7019 302.489 53.3819 302.379 54.1819 302.379C54.6619 302.379 55.0869 302.429 55.4569 302.529C55.8269 302.629 56.1369 302.754 56.3869 302.904C56.6369 303.054 56.8469 303.264 57.0169 303.534C57.1869 303.794 57.3169 304.049 57.4069 304.299C57.4969 304.539 57.5619 304.849 57.6019 305.229C57.6519 305.599 57.6819 305.929 57.6919 306.219C57.7019 306.509 57.7019 306.869 57.6919 307.299H51.5269C51.5769 308.129 51.7919 308.759 52.1719 309.189C52.5619 309.609 53.2419 309.819 54.2119 309.819C54.8319 309.819 55.3369 309.754 55.7269 309.624C56.1169 309.484 56.4969 309.274 56.8669 308.994L57.6469 310.014C56.7369 310.724 55.5919 311.079 54.2119 311.079ZM54.1369 303.669C53.2369 303.669 52.5969 303.869 52.2169 304.269C51.8369 304.659 51.6119 305.239 51.5419 306.009H56.3119C56.2919 305.689 56.2669 305.439 56.2369 305.259C56.2169 305.069 56.1619 304.859 56.0719 304.629C55.9919 304.399 55.8769 304.224 55.7269 304.104C55.5869 303.984 55.3819 303.884 55.1119 303.804C54.8419 303.714 54.5169 303.669 54.1369 303.669ZM61.8303 311.064C60.7103 311.064 59.9303 310.844 59.4903 310.404C59.0603 309.954 58.8453 309.334 58.8453 308.544C58.8453 307.364 59.2353 306.559 60.0153 306.129C60.8053 305.699 62.2503 305.484 64.3503 305.484H64.8003C64.7803 304.834 64.6353 304.384 64.3653 304.134C64.1053 303.874 63.5553 303.744 62.7153 303.744C61.8253 303.744 61.0053 303.979 60.2553 304.449L59.4903 303.309C59.8303 303.079 60.3053 302.869 60.9153 302.679C61.5353 302.479 62.1803 302.379 62.8503 302.379C63.5603 302.379 64.1353 302.439 64.5753 302.559C65.0153 302.679 65.3553 302.884 65.5953 303.174C65.8353 303.464 65.9953 303.804 66.0753 304.194C66.1653 304.584 66.2103 305.094 66.2103 305.724V308.694C66.2103 309.104 66.2503 309.364 66.3303 309.474C66.4203 309.574 66.6553 309.624 67.0353 309.624V310.899C66.9653 310.919 66.7653 310.929 66.4353 310.929C65.9853 310.929 65.6603 310.859 65.4603 310.719C65.2703 310.579 65.1203 310.334 65.0103 309.984C64.5003 310.704 63.4403 311.064 61.8303 311.064ZM62.0703 309.804C63.0303 309.804 63.7253 309.604 64.1553 309.204C64.5853 308.794 64.8003 308.139 64.8003 307.239V306.729H64.4253C63.2653 306.729 62.3903 306.784 61.8003 306.894C61.2103 306.994 60.8003 307.164 60.5703 307.404C60.3503 307.634 60.2403 307.979 60.2403 308.439C60.2403 308.909 60.3753 309.254 60.6453 309.474C60.9153 309.694 61.3903 309.804 62.0703 309.804Z" fill="black"/>
<rect width="155" height="79" transform="translate(102 188)" fill="white"/>
<path d="M154.064 233.165C152.164 233.165 150.764 232.685 149.864 231.725C148.964 230.765 148.514 229.335 148.514 227.435C148.514 225.515 148.994 224.08 149.954 223.13C150.924 222.18 152.319 221.705 154.139 221.705C155.799 221.705 157.139 222.19 158.159 223.16L157.064 224.255C156.274 223.525 155.294 223.16 154.124 223.16C151.404 223.16 150.044 224.59 150.044 227.45C150.044 228.88 150.374 229.955 151.034 230.675C151.704 231.385 152.739 231.74 154.139 231.74C154.869 231.74 155.454 231.645 155.894 231.455C156.344 231.255 156.764 230.97 157.154 230.6L158.234 231.635C157.214 232.655 155.824 233.165 154.064 233.165ZM163.363 233.165C161.923 233.165 160.878 232.805 160.228 232.085C159.578 231.365 159.253 230.275 159.253 228.815C159.253 227.355 159.578 226.265 160.228 225.545C160.878 224.825 161.923 224.465 163.363 224.465C164.813 224.465 165.863 224.825 166.513 225.545C167.163 226.265 167.488 227.355 167.488 228.815C167.488 230.275 167.163 231.365 166.513 232.085C165.863 232.805 164.813 233.165 163.363 233.165ZM161.323 231.095C161.733 231.595 162.413 231.845 163.363 231.845C164.313 231.845 164.988 231.595 165.388 231.095C165.798 230.595 166.003 229.845 166.003 228.845C166.003 227.845 165.798 227.1 165.388 226.61C164.988 226.11 164.313 225.86 163.363 225.86C162.413 225.86 161.733 226.11 161.323 226.61C160.923 227.1 160.723 227.845 160.723 228.845C160.723 229.845 160.923 230.595 161.323 231.095ZM169.238 233V224.735L170.393 224.66L170.513 225.455C171.003 224.795 172.028 224.465 173.588 224.465C174.228 224.465 174.753 224.545 175.163 224.705C175.573 224.855 175.878 225.1 176.078 225.44C176.278 225.77 176.413 226.125 176.483 226.505C176.553 226.875 176.588 227.345 176.588 227.915V233H175.133V228.2C175.133 227.88 175.123 227.625 175.103 227.435C175.083 227.245 175.038 227.04 174.968 226.82C174.898 226.6 174.793 226.435 174.653 226.325C174.513 226.205 174.313 226.105 174.053 226.025C173.803 225.945 173.493 225.905 173.123 225.905C172.173 225.905 171.533 226.115 171.203 226.535C170.873 226.945 170.708 227.56 170.708 228.38V233H169.238ZM182.375 233.15C180.865 233.15 179.81 232.78 179.21 232.04C178.61 231.29 178.31 230.215 178.31 228.815C178.31 227.405 178.61 226.33 179.21 225.59C179.82 224.84 180.895 224.465 182.435 224.465C183.765 224.465 184.8 224.88 185.54 225.71L184.475 226.715C183.935 226.155 183.255 225.875 182.435 225.875C181.455 225.875 180.765 226.125 180.365 226.625C179.975 227.115 179.78 227.855 179.78 228.845C179.78 229.845 179.975 230.595 180.365 231.095C180.755 231.595 181.445 231.845 182.435 231.845C183.215 231.845 183.92 231.56 184.55 230.99L185.525 231.92C185.065 232.34 184.6 232.65 184.13 232.85C183.66 233.05 183.075 233.15 182.375 233.15ZM190.652 233.165C189.982 233.165 189.402 233.09 188.912 232.94C188.422 232.79 188.027 232.59 187.727 232.34C187.437 232.09 187.202 231.775 187.022 231.395C186.842 231.005 186.717 230.61 186.647 230.21C186.587 229.8 186.557 229.335 186.557 228.815C186.557 228.165 186.612 227.6 186.722 227.12C186.842 226.63 187.042 226.175 187.322 225.755C187.612 225.335 188.032 225.015 188.582 224.795C189.142 224.575 189.822 224.465 190.622 224.465C191.102 224.465 191.527 224.515 191.897 224.615C192.267 224.715 192.577 224.84 192.827 224.99C193.077 225.14 193.287 225.35 193.457 225.62C193.627 225.88 193.757 226.135 193.847 226.385C193.937 226.625 194.002 226.935 194.042 227.315C194.092 227.685 194.122 228.015 194.132 228.305C194.142 228.595 194.142 228.955 194.132 229.385H187.967C188.017 230.215 188.232 230.845 188.612 231.275C189.002 231.695 189.682 231.905 190.652 231.905C191.272 231.905 191.777 231.84 192.167 231.71C192.557 231.57 192.937 231.36 193.307 231.08L194.087 232.1C193.177 232.81 192.032 233.165 190.652 233.165ZM190.577 225.755C189.677 225.755 189.037 225.955 188.657 226.355C188.277 226.745 188.052 227.325 187.982 228.095H192.752C192.732 227.775 192.707 227.525 192.677 227.345C192.657 227.155 192.602 226.945 192.512 226.715C192.432 226.485 192.317 226.31 192.167 226.19C192.027 226.07 191.822 225.97 191.552 225.89C191.282 225.8 190.957 225.755 190.577 225.755ZM195.956 235.475V224.735L197.111 224.66L197.231 225.545C197.691 224.825 198.771 224.465 200.471 224.465C201.791 224.465 202.716 224.84 203.246 225.59C203.776 226.34 204.041 227.415 204.041 228.815C204.041 230.195 203.766 231.26 203.216 232.01C202.676 232.76 201.741 233.135 200.411 233.135C199.561 233.135 198.906 233.055 198.446 232.895C197.986 232.735 197.646 232.48 197.426 232.13V235.475H195.956ZM200.156 231.815C201.056 231.815 201.681 231.57 202.031 231.08C202.381 230.58 202.556 229.84 202.556 228.86C202.556 227.87 202.381 227.125 202.031 226.625C201.691 226.115 201.066 225.86 200.156 225.86C199.166 225.86 198.461 226.085 198.041 226.535C197.631 226.985 197.426 227.76 197.426 228.86C197.426 229.96 197.626 230.73 198.026 231.17C198.436 231.6 199.146 231.815 200.156 231.815ZM205.155 225.98V224.66H206.67L206.925 222.29L208.08 222.065V224.66H210.285V225.98H208.08V230.525C208.08 230.945 208.15 231.25 208.29 231.44C208.44 231.62 208.77 231.71 209.28 231.71H210.285V233C210.165 233.01 209.745 233.015 209.025 233.015C208.085 233.015 207.45 232.84 207.12 232.49C206.79 232.13 206.625 231.54 206.625 230.72V225.98H205.155Z" fill="black"/>
<rect width="163" height="78" transform="translate(257 110)" fill="white"/>
<path d="M280.829 154V142.885H282.329V154H280.829ZM284.791 154V145.735L285.946 145.66L286.066 146.455C286.466 145.795 287.461 145.465 289.051 145.465C289.881 145.465 290.481 145.555 290.851 145.735C291.221 145.915 291.471 146.175 291.601 146.515C292.061 145.815 293.126 145.465 294.796 145.465C295.316 145.465 295.756 145.525 296.116 145.645C296.476 145.755 296.761 145.9 296.971 146.08C297.181 146.26 297.341 146.51 297.451 146.83C297.561 147.14 297.631 147.45 297.661 147.76C297.701 148.07 297.721 148.455 297.721 148.915V154H296.251V149.2C296.251 148.87 296.241 148.615 296.221 148.435C296.211 148.255 296.171 148.05 296.101 147.82C296.041 147.59 295.946 147.42 295.816 147.31C295.686 147.2 295.496 147.105 295.246 147.025C295.006 146.945 294.701 146.905 294.331 146.905C293.831 146.905 293.421 146.965 293.101 147.085C292.781 147.195 292.541 147.37 292.381 147.61C292.221 147.85 292.111 148.105 292.051 148.375C292.001 148.645 291.976 148.98 291.976 149.38V154H290.536V149.2C290.536 148.79 290.521 148.475 290.491 148.255C290.461 148.035 290.386 147.805 290.266 147.565C290.156 147.325 289.961 147.155 289.681 147.055C289.411 146.955 289.051 146.905 288.601 146.905C288.101 146.905 287.691 146.965 287.371 147.085C287.051 147.195 286.811 147.37 286.651 147.61C286.501 147.85 286.396 148.105 286.336 148.375C286.286 148.645 286.261 148.98 286.261 149.38V154H284.791ZM299.821 156.475V145.735L300.976 145.66L301.096 146.545C301.556 145.825 302.636 145.465 304.336 145.465C305.656 145.465 306.581 145.84 307.111 146.59C307.641 147.34 307.906 148.415 307.906 149.815C307.906 151.195 307.631 152.26 307.081 153.01C306.541 153.76 305.606 154.135 304.276 154.135C303.426 154.135 302.771 154.055 302.311 153.895C301.851 153.735 301.511 153.48 301.291 153.13V156.475H299.821ZM304.021 152.815C304.921 152.815 305.546 152.57 305.896 152.08C306.246 151.58 306.421 150.84 306.421 149.86C306.421 148.87 306.246 148.125 305.896 147.625C305.556 147.115 304.931 146.86 304.021 146.86C303.031 146.86 302.326 147.085 301.906 147.535C301.496 147.985 301.291 148.76 301.291 149.86C301.291 150.96 301.491 151.73 301.891 152.17C302.301 152.6 303.011 152.815 304.021 152.815ZM311.629 154.015C310.939 154.015 310.454 153.855 310.174 153.535C309.894 153.205 309.754 152.64 309.754 151.84V142.36H311.194V151.675C311.194 152.085 311.249 152.36 311.359 152.5C311.479 152.64 311.734 152.71 312.124 152.71H312.454V153.985C312.274 154.005 311.999 154.015 311.629 154.015ZM317.515 154.165C316.845 154.165 316.265 154.09 315.775 153.94C315.285 153.79 314.89 153.59 314.59 153.34C314.3 153.09 314.065 152.775 313.885 152.395C313.705 152.005 313.58 151.61 313.51 151.21C313.45 150.8 313.42 150.335 313.42 149.815C313.42 149.165 313.475 148.6 313.585 148.12C313.705 147.63 313.905 147.175 314.185 146.755C314.475 146.335 314.895 146.015 315.445 145.795C316.005 145.575 316.685 145.465 317.485 145.465C317.965 145.465 318.39 145.515 318.76 145.615C319.13 145.715 319.44 145.84 319.69 145.99C319.94 146.14 320.15 146.35 320.32 146.62C320.49 146.88 320.62 147.135 320.71 147.385C320.8 147.625 320.865 147.935 320.905 148.315C320.955 148.685 320.985 149.015 320.995 149.305C321.005 149.595 321.005 149.955 320.995 150.385H314.83C314.88 151.215 315.095 151.845 315.475 152.275C315.865 152.695 316.545 152.905 317.515 152.905C318.135 152.905 318.64 152.84 319.03 152.71C319.42 152.57 319.8 152.36 320.17 152.08L320.95 153.1C320.04 153.81 318.895 154.165 317.515 154.165ZM317.44 146.755C316.54 146.755 315.9 146.955 315.52 147.355C315.14 147.745 314.915 148.325 314.845 149.095H319.615C319.595 148.775 319.57 148.525 319.54 148.345C319.52 148.155 319.465 147.945 319.375 147.715C319.295 147.485 319.18 147.31 319.03 147.19C318.89 147.07 318.685 146.97 318.415 146.89C318.145 146.8 317.82 146.755 317.44 146.755ZM322.819 154V145.735L323.974 145.66L324.094 146.455C324.494 145.795 325.489 145.465 327.079 145.465C327.909 145.465 328.509 145.555 328.879 145.735C329.249 145.915 329.499 146.175 329.629 146.515C330.089 145.815 331.154 145.465 332.824 145.465C333.344 145.465 333.784 145.525 334.144 145.645C334.504 145.755 334.789 145.9 334.999 146.08C335.209 146.26 335.369 146.51 335.479 146.83C335.589 147.14 335.659 147.45 335.689 147.76C335.729 148.07 335.749 148.455 335.749 148.915V154H334.279V149.2C334.279 148.87 334.269 148.615 334.249 148.435C334.239 148.255 334.199 148.05 334.129 147.82C334.069 147.59 333.974 147.42 333.844 147.31C333.714 147.2 333.524 147.105 333.274 147.025C333.034 146.945 332.729 146.905 332.359 146.905C331.859 146.905 331.449 146.965 331.129 147.085C330.809 147.195 330.569 147.37 330.409 147.61C330.249 147.85 330.139 148.105 330.079 148.375C330.029 148.645 330.004 148.98 330.004 149.38V154H328.564V149.2C328.564 148.79 328.549 148.475 328.519 148.255C328.489 148.035 328.414 147.805 328.294 147.565C328.184 147.325 327.989 147.155 327.709 147.055C327.439 146.955 327.079 146.905 326.629 146.905C326.129 146.905 325.719 146.965 325.399 147.085C325.079 147.195 324.839 147.37 324.679 147.61C324.529 147.85 324.424 148.105 324.364 148.375C324.314 148.645 324.289 148.98 324.289 149.38V154H322.819ZM341.538 154.165C340.868 154.165 340.288 154.09 339.798 153.94C339.308 153.79 338.913 153.59 338.613 153.34C338.323 153.09 338.088 152.775 337.908 152.395C337.728 152.005 337.603 151.61 337.533 151.21C337.473 150.8 337.443 150.335 337.443 149.815C337.443 149.165 337.498 148.6 337.608 148.12C337.728 147.63 337.928 147.175 338.208 146.755C338.498 146.335 338.918 146.015 339.468 145.795C340.028 145.575 340.708 145.465 341.508 145.465C341.988 145.465 342.413 145.515 342.783 145.615C343.153 145.715 343.463 145.84 343.713 145.99C343.963 146.14 344.173 146.35 344.343 146.62C344.513 146.88 344.643 147.135 344.733 147.385C344.823 147.625 344.888 147.935 344.928 148.315C344.978 148.685 345.008 149.015 345.018 149.305C345.028 149.595 345.028 149.955 345.018 150.385H338.853C338.903 151.215 339.118 151.845 339.498 152.275C339.888 152.695 340.568 152.905 341.538 152.905C342.158 152.905 342.663 152.84 343.053 152.71C343.443 152.57 343.823 152.36 344.193 152.08L344.973 153.1C344.063 153.81 342.918 154.165 341.538 154.165ZM341.463 146.755C340.563 146.755 339.923 146.955 339.543 147.355C339.163 147.745 338.938 148.325 338.868 149.095H343.638C343.618 148.775 343.593 148.525 343.563 148.345C343.543 148.155 343.488 147.945 343.398 147.715C343.318 147.485 343.203 147.31 343.053 147.19C342.913 147.07 342.708 146.97 342.438 146.89C342.168 146.8 341.843 146.755 341.463 146.755ZM346.842 154V145.735L347.997 145.66L348.117 146.455C348.607 145.795 349.632 145.465 351.192 145.465C351.832 145.465 352.357 145.545 352.767 145.705C353.177 145.855 353.482 146.1 353.682 146.44C353.882 146.77 354.017 147.125 354.087 147.505C354.157 147.875 354.192 148.345 354.192 148.915V154H352.737V149.2C352.737 148.88 352.727 148.625 352.707 148.435C352.687 148.245 352.642 148.04 352.572 147.82C352.502 147.6 352.397 147.435 352.257 147.325C352.117 147.205 351.917 147.105 351.657 147.025C351.407 146.945 351.097 146.905 350.727 146.905C349.777 146.905 349.137 147.115 348.807 147.535C348.477 147.945 348.312 148.56 348.312 149.38V154H346.842ZM355.675 146.98V145.66H357.19L357.445 143.29L358.6 143.065V145.66H360.805V146.98H358.6V151.525C358.6 151.945 358.67 152.25 358.81 152.44C358.96 152.62 359.29 152.71 359.8 152.71H360.805V154C360.685 154.01 360.265 154.015 359.545 154.015C358.605 154.015 357.97 153.84 357.64 153.49C357.31 153.13 357.145 152.54 357.145 151.72V146.98H355.675ZM364.947 154.15C363.827 154.15 363.047 153.93 362.607 153.49C362.177 153.04 361.962 152.42 361.962 151.63C361.962 150.45 362.352 149.645 363.132 149.215C363.922 148.785 365.367 148.57 367.467 148.57H367.917C367.897 147.92 367.752 147.47 367.482 147.22C367.222 146.96 366.672 146.83 365.832 146.83C364.942 146.83 364.122 147.065 363.372 147.535L362.607 146.395C362.947 146.165 363.422 145.955 364.032 145.765C364.652 145.565 365.297 145.465 365.967 145.465C366.677 145.465 367.252 145.525 367.692 145.645C368.132 145.765 368.472 145.97 368.712 146.26C368.952 146.55 369.112 146.89 369.192 147.28C369.282 147.67 369.327 148.18 369.327 148.81V151.78C369.327 152.19 369.367 152.45 369.447 152.56C369.537 152.66 369.772 152.71 370.152 152.71V153.985C370.082 154.005 369.882 154.015 369.552 154.015C369.102 154.015 368.777 153.945 368.577 153.805C368.387 153.665 368.237 153.42 368.127 153.07C367.617 153.79 366.557 154.15 364.947 154.15ZM365.187 152.89C366.147 152.89 366.842 152.69 367.272 152.29C367.702 151.88 367.917 151.225 367.917 150.325V149.815H367.542C366.382 149.815 365.507 149.87 364.917 149.98C364.327 150.08 363.917 150.25 363.687 150.49C363.467 150.72 363.357 151.065 363.357 151.525C363.357 151.995 363.492 152.34 363.762 152.56C364.032 152.78 364.507 152.89 365.187 152.89ZM370.88 146.98V145.66H372.395L372.65 143.29L373.805 143.065V145.66H376.01V146.98H373.805V151.525C373.805 151.945 373.875 152.25 374.015 152.44C374.165 152.62 374.495 152.71 375.005 152.71H376.01V154C375.89 154.01 375.47 154.015 374.75 154.015C373.81 154.015 373.175 153.84 372.845 153.49C372.515 153.13 372.35 152.54 372.35 151.72V146.98H370.88ZM377.884 154V145.66H379.324V154H377.884ZM377.869 144.655V142.885H379.339V144.655H377.869ZM385.279 154.165C383.839 154.165 382.794 153.805 382.144 153.085C381.494 152.365 381.169 151.275 381.169 149.815C381.169 148.355 381.494 147.265 382.144 146.545C382.794 145.825 383.839 145.465 385.279 145.465C386.729 145.465 387.779 145.825 388.429 146.545C389.079 147.265 389.404 148.355 389.404 149.815C389.404 151.275 389.079 152.365 388.429 153.085C387.779 153.805 386.729 154.165 385.279 154.165ZM383.239 152.095C383.649 152.595 384.329 152.845 385.279 152.845C386.229 152.845 386.904 152.595 387.304 152.095C387.714 151.595 387.919 150.845 387.919 149.845C387.919 148.845 387.714 148.1 387.304 147.61C386.904 147.11 386.229 146.86 385.279 146.86C384.329 146.86 383.649 147.11 383.239 147.61C382.839 148.1 382.639 148.845 382.639 149.845C382.639 150.845 382.839 151.595 383.239 152.095ZM391.154 154V145.735L392.309 145.66L392.429 146.455C392.919 145.795 393.944 145.465 395.504 145.465C396.144 145.465 396.669 145.545 397.079 145.705C397.489 145.855 397.794 146.1 397.994 146.44C398.194 146.77 398.329 147.125 398.399 147.505C398.469 147.875 398.504 148.345 398.504 148.915V154H397.049V149.2C397.049 148.88 397.039 148.625 397.019 148.435C396.999 148.245 396.954 148.04 396.884 147.82C396.814 147.6 396.709 147.435 396.569 147.325C396.429 147.205 396.229 147.105 395.969 147.025C395.719 146.945 395.409 146.905 395.039 146.905C394.089 146.905 393.449 147.115 393.119 147.535C392.789 147.945 392.624 148.56 392.624 149.38V154H391.154Z" fill="black"/>
<rect width="108.611" height="77.8594" transform="translate(421 32.2344)" fill="white"/>
<path d="M437.268 76V64.885H444.873V66.34H438.783V69.535H444.723V70.975H438.783V74.605H444.933V76H437.268ZM448.993 76.075L445.678 67.66H447.238L449.803 74.335L452.368 67.66H453.883L450.568 76.075H448.993ZM457.361 76.15C456.241 76.15 455.461 75.93 455.021 75.49C454.591 75.04 454.376 74.42 454.376 73.63C454.376 72.45 454.766 71.645 455.546 71.215C456.336 70.785 457.781 70.57 459.881 70.57H460.331C460.311 69.92 460.166 69.47 459.896 69.22C459.636 68.96 459.086 68.83 458.246 68.83C457.356 68.83 456.536 69.065 455.786 69.535L455.021 68.395C455.361 68.165 455.836 67.955 456.446 67.765C457.066 67.565 457.711 67.465 458.381 67.465C459.091 67.465 459.666 67.525 460.106 67.645C460.546 67.765 460.886 67.97 461.126 68.26C461.366 68.55 461.526 68.89 461.606 69.28C461.696 69.67 461.741 70.18 461.741 70.81V73.78C461.741 74.19 461.781 74.45 461.861 74.56C461.951 74.66 462.186 74.71 462.566 74.71V75.985C462.496 76.005 462.296 76.015 461.966 76.015C461.516 76.015 461.191 75.945 460.991 75.805C460.801 75.665 460.651 75.42 460.541 75.07C460.031 75.79 458.971 76.15 457.361 76.15ZM457.601 74.89C458.561 74.89 459.256 74.69 459.686 74.29C460.116 73.88 460.331 73.225 460.331 72.325V71.815H459.956C458.796 71.815 457.921 71.87 457.331 71.98C456.741 72.08 456.331 72.25 456.101 72.49C455.881 72.72 455.771 73.065 455.771 73.525C455.771 73.995 455.906 74.34 456.176 74.56C456.446 74.78 456.921 74.89 457.601 74.89ZM466.24 76.015C465.55 76.015 465.065 75.855 464.785 75.535C464.505 75.205 464.365 74.64 464.365 73.84V64.36H465.805V73.675C465.805 74.085 465.86 74.36 465.97 74.5C466.09 74.64 466.345 74.71 466.735 74.71H467.065V75.985C466.885 76.005 466.61 76.015 466.24 76.015ZM474.103 75.925C473.613 76.075 472.973 76.15 472.183 76.15C471.393 76.15 470.748 76.075 470.248 75.925C469.758 75.775 469.388 75.53 469.138 75.19C468.888 74.84 468.718 74.46 468.628 74.05C468.548 73.63 468.508 73.09 468.508 72.43V67.66H469.963V72.46C469.963 72.74 469.968 72.955 469.978 73.105C469.988 73.245 470.013 73.425 470.053 73.645C470.093 73.865 470.158 74.03 470.248 74.14C470.338 74.25 470.463 74.365 470.623 74.485C470.783 74.605 470.993 74.69 471.253 74.74C471.513 74.79 471.823 74.815 472.183 74.815C472.543 74.815 472.853 74.79 473.113 74.74C473.373 74.69 473.583 74.605 473.743 74.485C473.903 74.365 474.028 74.25 474.118 74.14C474.208 74.03 474.273 73.86 474.313 73.63C474.353 73.4 474.373 73.215 474.373 73.075C474.383 72.935 474.388 72.715 474.388 72.415V67.66H475.813V72.385C475.813 73.065 475.773 73.615 475.693 74.035C475.613 74.445 475.448 74.825 475.198 75.175C474.958 75.525 474.593 75.775 474.103 75.925ZM480.388 76.15C479.268 76.15 478.488 75.93 478.048 75.49C477.618 75.04 477.403 74.42 477.403 73.63C477.403 72.45 477.793 71.645 478.573 71.215C479.363 70.785 480.808 70.57 482.908 70.57H483.358C483.338 69.92 483.193 69.47 482.923 69.22C482.663 68.96 482.113 68.83 481.273 68.83C480.383 68.83 479.563 69.065 478.813 69.535L478.048 68.395C478.388 68.165 478.863 67.955 479.473 67.765C480.093 67.565 480.738 67.465 481.408 67.465C482.118 67.465 482.693 67.525 483.133 67.645C483.573 67.765 483.913 67.97 484.153 68.26C484.393 68.55 484.553 68.89 484.633 69.28C484.723 69.67 484.768 70.18 484.768 70.81V73.78C484.768 74.19 484.808 74.45 484.888 74.56C484.978 74.66 485.213 74.71 485.593 74.71V75.985C485.523 76.005 485.323 76.015 484.993 76.015C484.543 76.015 484.218 75.945 484.018 75.805C483.828 75.665 483.678 75.42 483.568 75.07C483.058 75.79 481.998 76.15 480.388 76.15ZM480.628 74.89C481.588 74.89 482.283 74.69 482.713 74.29C483.143 73.88 483.358 73.225 483.358 72.325V71.815H482.983C481.823 71.815 480.948 71.87 480.358 71.98C479.768 72.08 479.358 72.25 479.128 72.49C478.908 72.72 478.798 73.065 478.798 73.525C478.798 73.995 478.933 74.34 479.203 74.56C479.473 74.78 479.948 74.89 480.628 74.89ZM486.321 68.98V67.66H487.836L488.091 65.29L489.246 65.065V67.66H491.451V68.98H489.246V73.525C489.246 73.945 489.316 74.25 489.456 74.44C489.606 74.62 489.936 74.71 490.446 74.71H491.451V76C491.331 76.01 490.911 76.015 490.191 76.015C489.251 76.015 488.616 75.84 488.286 75.49C487.956 75.13 487.791 74.54 487.791 73.72V68.98H486.321ZM493.325 76V67.66H494.765V76H493.325ZM493.31 66.655V64.885H494.78V66.655H493.31ZM500.72 76.165C499.28 76.165 498.235 75.805 497.585 75.085C496.935 74.365 496.61 73.275 496.61 71.815C496.61 70.355 496.935 69.265 497.585 68.545C498.235 67.825 499.28 67.465 500.72 67.465C502.17 67.465 503.22 67.825 503.87 68.545C504.52 69.265 504.845 70.355 504.845 71.815C504.845 73.275 504.52 74.365 503.87 75.085C503.22 75.805 502.17 76.165 500.72 76.165ZM498.68 74.095C499.09 74.595 499.77 74.845 500.72 74.845C501.67 74.845 502.345 74.595 502.745 74.095C503.155 73.595 503.36 72.845 503.36 71.845C503.36 70.845 503.155 70.1 502.745 69.61C502.345 69.11 501.67 68.86 500.72 68.86C499.77 68.86 499.09 69.11 498.68 69.61C498.28 70.1 498.08 70.845 498.08 71.845C498.08 72.845 498.28 73.595 498.68 74.095ZM506.595 76V67.735L507.75 67.66L507.87 68.455C508.36 67.795 509.385 67.465 510.945 67.465C511.585 67.465 512.11 67.545 512.52 67.705C512.93 67.855 513.235 68.1 513.435 68.44C513.635 68.77 513.77 69.125 513.84 69.505C513.91 69.875 513.945 70.345 513.945 70.915V76H512.49V71.2C512.49 70.88 512.48 70.625 512.46 70.435C512.44 70.245 512.395 70.04 512.325 69.82C512.255 69.6 512.15 69.435 512.01 69.325C511.87 69.205 511.67 69.105 511.41 69.025C511.16 68.945 510.85 68.905 510.48 68.905C509.53 68.905 508.89 69.115 508.56 69.535C508.23 69.945 508.065 70.56 508.065 71.38V76H506.595Z" fill="black"/>
<path d="M582.354 266.994C582.549 266.799 582.549 266.482 582.354 266.287L579.172 263.105C578.977 262.91 578.66 262.91 578.465 263.105C578.269 263.3 578.269 263.617 578.465 263.812L581.293 266.641L578.465 269.469C578.269 269.664 578.269 269.981 578.465 270.176C578.66 270.371 578.977 270.371 579.172 270.176L582.354 266.994ZM0.611328 267.141L582 267.141V266.141L0.611328 266.141L0.611328 267.141Z" fill="white"/>
<path d="M582.354 188.354C582.549 188.158 582.549 187.842 582.354 187.646L579.172 184.465C578.976 184.269 578.66 184.269 578.464 184.465C578.269 184.66 578.269 184.976 578.464 185.172L581.293 188L578.464 190.828C578.269 191.024 578.269 191.34 578.464 191.536C578.66 191.731 578.976 191.731 579.172 191.536L582.354 188.354ZM101 188.5L582 188.5L582 187.5L101 187.5L101 188.5Z" fill="white"/>
<path d="M582.354 110.443C582.549 110.248 582.549 109.932 582.354 109.736L579.172 106.554C578.977 106.359 578.66 106.359 578.465 106.554C578.27 106.75 578.27 107.066 578.465 107.261L581.293 110.09L578.465 112.918C578.27 113.114 578.27 113.43 578.465 113.625C578.66 113.821 578.977 113.821 579.172 113.625L582.354 110.443ZM256.167 110.59L582 110.59L582 109.59L256.167 109.59L256.167 110.59Z" fill="white"/>
<path d="M582.354 32.584C582.549 32.3888 582.549 32.0722 582.354 31.8769L579.172 28.6949C578.977 28.4997 578.66 28.4997 578.465 28.6949C578.27 28.8902 578.27 29.2068 578.465 29.4021L581.293 32.2305L578.465 35.0589C578.27 35.2542 578.27 35.5708 578.465 35.766C578.66 35.9613 578.977 35.9613 579.172 35.766L582.354 32.584ZM419.723 32.7305L582 32.7305L582 31.7305L419.723 31.7305L419.723 32.7305Z" fill="white"/>
<line x1="101.5" y1="344.945" x2="101.5" y2="187.95" stroke="white"/>
<line x1="257.5" y1="344.855" x2="257.5" y2="110.001" stroke="white"/>
<line x1="420.5" y1="344.945" x2="420.5" y2="32.2314" stroke="white"/>
<line x1="529.923" y1="345" x2="529.923" y2="2.18319e-08" stroke="white"/>
<line x1="0.5" y1="345" x2="0.499997" y2="266.505" stroke="white"/>
<rect y="342" width="582" height="3" fill="url(#paint0_linear_3418_15581)"/>
<defs>
<linearGradient id="paint0_linear_3418_15581" x1="-12.2996" y1="345" x2="-12.1978" y2="352.167" gradientUnits="userSpaceOnUse">
<stop stop-color="#FFD916"/>
<stop offset="0.46875" stop-color="#FF1914"/>
<stop offset="1" stop-color="#6705FF"/>
</linearGradient>
</defs>
</svg>
