<svg width="184" height="35" viewBox="0 0 184 35" fill="none" xmlns="http://www.w3.org/2000/svg">
<path d="M24.1129 10.1093L7.33871 0L10.121 10.8746L0 27.6295L10.8871 24.8504L27.6613 35L24.879 24.0852L35 7.37054L24.1129 10.1093Z" fill="url(#paint0_linear_1863_61254)"/>
<path d="M42.6062 19.3957H45.0142C45.006 19.7445 45.1035 20.052 45.3065 20.3182C45.5206 20.5752 45.8288 20.7772 46.2311 20.924C46.6445 21.0617 47.1358 21.1306 47.7051 21.1306C48.5358 21.1306 49.2102 21.0158 49.7284 20.7863C50.2577 20.5477 50.5611 20.2172 50.6388 19.795C50.6995 19.4645 50.6059 19.2121 50.358 19.0377C50.1211 18.8541 49.6369 18.721 48.9054 18.6384L46.8345 18.4043C45.4988 18.2574 44.5669 17.9453 44.0387 17.468C43.5215 16.9815 43.3422 16.3068 43.5009 15.4439C43.6258 14.7646 43.9328 14.1863 44.4219 13.709C44.9204 13.2317 45.5611 12.8691 46.344 12.6213C47.1286 12.3642 48.0202 12.2357 49.0189 12.2357C49.9895 12.2357 50.8267 12.378 51.5304 12.6626C52.2357 12.9379 52.766 13.3281 53.1211 13.8329C53.478 14.3286 53.6135 14.9115 53.5276 15.5816H51.1196C51.1286 15.2787 51.0367 15.0171 50.8439 14.7968C50.6621 14.5673 50.3815 14.3929 50.0021 14.2735C49.6244 14.145 49.1649 14.0808 48.6236 14.0808C47.8676 14.0808 47.2453 14.1909 46.7568 14.4112C46.2683 14.6315 45.9869 14.9436 45.9126 15.3475C45.8552 15.6596 45.9412 15.9029 46.1704 16.0773C46.4107 16.2425 46.8592 16.3665 47.5161 16.4491L49.6659 16.7107C50.618 16.8117 51.3577 16.9769 51.8848 17.2064C52.4229 17.4267 52.7787 17.725 52.9522 18.1014C53.135 18.4777 53.1732 18.955 53.0669 19.5334C52.9403 20.2218 52.6142 20.8277 52.0886 21.3509C51.5741 21.8649 50.908 22.2642 50.0903 22.5488C49.2727 22.8333 48.3505 22.9756 47.3238 22.9756C46.2785 22.9756 45.3862 22.8288 44.6469 22.535C43.9092 22.2321 43.3607 21.8144 43.0013 21.282C42.6436 20.7404 42.5119 20.1117 42.6062 19.3957Z" fill="white"/>
<path d="M103.684 22.9756C102.462 22.9756 101.43 22.7507 100.588 22.3009C99.7565 21.8512 99.1572 21.227 98.7908 20.4283C98.426 19.6206 98.3424 18.6797 98.5399 17.6057C98.7374 16.5317 99.1662 15.5954 99.8264 14.7968C100.488 13.989 101.318 13.3602 102.315 12.9104C103.322 12.4606 104.437 12.2357 105.659 12.2357C106.882 12.2357 107.909 12.4606 108.741 12.9104C109.583 13.3602 110.186 13.989 110.55 14.7968C110.917 15.5954 111.001 16.5317 110.804 17.6057C110.606 18.6797 110.177 19.6206 109.515 20.4283C108.855 21.227 108.021 21.8512 107.014 22.3009C106.017 22.7507 104.907 22.9756 103.684 22.9756ZM104.067 20.8965C104.832 20.8965 105.515 20.7634 106.114 20.4972C106.723 20.231 107.222 19.85 107.612 19.3544C108.011 18.8587 108.273 18.2758 108.396 17.6057C108.519 16.9356 108.472 16.3527 108.255 15.857C108.048 15.3613 107.689 14.9804 107.178 14.7142C106.676 14.448 106.042 14.3149 105.277 14.3149C104.521 14.3149 103.839 14.448 103.23 14.7142C102.621 14.9804 102.117 15.3613 101.717 15.857C101.328 16.3527 101.071 16.9356 100.948 17.6057C100.825 18.2758 100.867 18.8587 101.074 19.3544C101.291 19.85 101.655 20.231 102.166 20.4972C102.677 20.7634 103.311 20.8965 104.067 20.8965Z" fill="white"/>
<path d="M143.378 12.4423L141.479 22.7691H139.211L140.794 14.4381L135.333 22.7691H132.883L130.549 14.3006L128.991 22.7691H126.737L128.636 12.4423H132.29L134.5 20.5004L139.724 12.4423H143.378Z" fill="white"/>
<path d="M161.429 12.4423C162.652 12.4423 163.681 12.658 164.516 13.0894C165.361 13.5208 165.969 14.1221 166.34 14.8932C166.712 15.6642 166.802 16.5684 166.611 17.6057C166.422 18.6338 165.999 19.5379 165.343 20.3182C164.687 21.0893 163.858 21.6905 162.855 22.1219C161.861 22.5534 160.752 22.7691 159.53 22.7691H154.546L156.445 12.4423H161.429ZM157.302 20.7037H160.092C160.801 20.7037 161.445 20.5752 162.025 20.3182C162.613 20.0612 163.095 19.6986 163.471 19.2304C163.846 18.7623 164.09 18.2207 164.203 17.6057C164.318 16.9815 164.273 16.4399 164.068 15.9809C163.865 15.5128 163.516 15.1502 163.022 14.8932C162.537 14.6361 161.94 14.5076 161.231 14.5076L158.5 14.5004L157.302 20.7037Z" fill="white"/>
<path d="M169.201 12.4423H171.581L169.682 22.7691H167.302L169.201 12.4423Z" fill="white"/>
<path d="M153.087 18.5002L153.416 16.7102L147.329 16.7289V14.3832H154.208L154.565 12.4418H145.185L145.047 17.6052L143.286 22.7686H152.736L153.093 20.8272H146.222L147.021 18.5002H153.087Z" fill="white"/>
<path d="M113.392 12.4418L111.493 22.7686H113.635L117.967 18.4999L119.655 22.7686H122.371L119.655 16.8372L124.116 12.4418H121.582L114.354 19.6682L115.758 12.4418H113.392Z" fill="white"/>
<path fill-rule="evenodd" clip-rule="evenodd" d="M71.885 20.5931H66.0313L64.6341 22.7686H62.1001L68.9132 12.4418H71.9652L74.9801 22.7686H72.4461L71.885 20.5931ZM67.2515 18.6928H71.3946L70.2075 14.0902L67.2515 18.6928Z" fill="white"/>
<path fill-rule="evenodd" clip-rule="evenodd" d="M180.785 20.5931H174.932L173.534 22.7686H171L177.814 12.4418H180.866L183.88 22.7686H181.346L180.785 20.5931ZM176.152 18.6928H180.295L179.108 14.0902L176.152 18.6928Z" fill="white"/>
<path d="M59.3868 22.7686L60.9999 14.4995L65.078 14.5071L65.4578 12.4418H54.7338L54.354 14.5071H58.4999L57.0208 22.7686H59.3868Z" fill="white"/>
<path d="M93.0332 22.7686L94.6464 14.4995L98.7245 14.5071L99.1043 12.4418H88.3803L88.0005 14.5071H92.1464L90.6672 22.7686H93.0332Z" fill="white"/>
<path fill-rule="evenodd" clip-rule="evenodd" d="M78.4899 22.7686H76.1099L78.0089 12.4418H83.9869C84.7523 12.4418 85.3989 12.5795 85.927 12.8548C86.4567 13.121 86.841 13.4928 87.0799 13.9701C87.3187 14.4475 87.3791 15.0074 87.2609 15.65C87.1445 16.2834 86.879 16.8387 86.4646 17.316C86.0501 17.7934 85.0747 18.3642 84.8989 18.4451C84.7232 18.526 84.1583 18.6952 83.7094 18.7783L86.2599 22.7686H83.4739L81.0001 18.8444H79.2115L78.4899 22.7686ZM82.8634 17.0266C83.3954 17.0266 83.8374 16.9072 84.1892 16.6686C84.5522 16.4207 84.7733 16.0811 84.8526 15.6496C84.932 15.2182 84.8349 14.8832 84.5615 14.6445C84.2973 14.4058 83.8993 14.2865 83.3673 14.2865H80.0493L79.5454 17.0266H82.8634Z" fill="white"/>
<defs>
<linearGradient id="paint0_linear_1863_61254" x1="38.9793" y1="-5.36065e-07" x2="44.2288" y2="46.6277" gradientUnits="userSpaceOnUse">
<stop stop-color="#FFD916"/>
<stop offset="0.354167" stop-color="#FF1510"/>
<stop offset="0.671875" stop-color="#6705FF"/>
</linearGradient>
</defs>
</svg>
