<svg width="93" height="124" viewBox="0 0 93 124" fill="none" xmlns="http://www.w3.org/2000/svg">
<path fill-rule="evenodd" clip-rule="evenodd" d="M46.2861 59.5796C53.4794 59.5796 59.3108 53.7482 59.3108 46.5549C59.3108 39.3616 53.4794 33.5303 46.2861 33.5303C39.0928 33.5303 33.2615 39.3616 33.2615 46.5549C33.2615 53.7482 39.0928 59.5796 46.2861 59.5796ZM46.2861 57.5796C52.3749 57.5796 57.3108 52.6437 57.3108 46.5549C57.3108 40.4662 52.3749 35.5303 46.2861 35.5303C40.1974 35.5303 35.2615 40.4662 35.2615 46.5549C35.2615 52.6437 40.1974 57.5796 46.2861 57.5796Z" fill="white"/>
<path fill-rule="evenodd" clip-rule="evenodd" d="M79.6795 76.9661C73.572 85.8489 67.5161 94.6565 66.79 104.681C66.7421 105.342 66.7174 106.009 66.7174 106.681H76.0174V124H17.9261V106.681H26.9565C26.9565 106.017 26.9201 105.351 26.85 104.681C26.0123 96.6789 20.3638 88.1979 14.4624 79.3371C7.41172 68.7509 7.81919e-08 57.6225 0 46.1214C-1.73176e-07 20.6492 20.8188 1.74598e-07 46.5 0C72.1812 -1.74598e-07 93 20.6492 93 46.1214C93 57.5928 86.3093 67.3237 79.6795 76.9661ZM28.9565 107.681H64.7174V108.681H74.0174V124H19.9261V108.681H28.9565V107.681ZM77.8613 76.0804C71.6698 85.0825 65.1113 94.618 64.7344 105.681H47.5V77.8406H49.9114L50.7171 71.0013C54.3688 70.3438 57.7433 68.8881 60.6534 66.8214L66.1587 71.3954L71.1269 66.1587L66.7409 60.6534C68.6581 57.8772 70.0247 54.6915 70.6829 51.2542L77.9749 49.9114V43.1977L70.6829 41.8549C70.0247 38.4176 68.6581 35.232 66.7409 32.4557L71.1269 26.8162L66.0244 21.7137L60.2506 26.0076C57.5424 24.1634 54.4507 22.8407 51.1199 22.1838L49.7772 15H42.7949L41.4521 22.1838C38.1213 22.8407 35.0296 24.1634 32.3214 26.0076L26.4134 21.7137L21.4452 26.5476L25.9245 32.3214C23.9583 35.1291 22.558 38.3621 21.8891 41.8549L15 43.1977V49.9114L21.8891 51.2542C22.5525 54.7184 23.9354 57.927 25.8763 60.7185L21.4452 66.0244L26.6819 71.0013L31.9186 66.8214C34.8287 68.8881 38.2032 70.3438 41.8549 71.0013L42.6606 77.8406H45.5V105.681H28.932C28.7053 101.022 26.9277 96.3506 24.5151 91.7587C22.1826 87.3194 19.1552 82.7745 16.1325 78.2366C15.8026 77.7414 15.4729 77.2464 15.1441 76.7515C8.33053 66.4974 2 56.379 2 46.1214C2 21.7692 21.9079 2 46.5 2C71.0921 2 91 21.7692 91 46.1214C91 56.7625 84.8558 65.9068 78.2106 75.5725L77.8613 76.0804ZM33.4472 27.6607L32.284 28.4528L26.6005 24.3221L24.1213 26.7343L28.4087 32.2607L27.5627 33.4687C25.7545 36.0507 24.4679 39.022 23.8534 42.2311L23.5991 43.5593L17 44.8455V48.2636L23.5991 49.5498L23.8534 50.878C24.4629 54.0609 25.7335 57.0097 27.5183 59.5768L28.3893 60.8295L24.1825 65.8668L26.7964 68.351L31.8484 64.3184L33.0767 65.1908C35.753 67.0915 38.8542 68.4289 42.2094 69.033L43.6678 69.2956L44.4388 75.8406H48.1332L48.9042 69.2956L50.3627 69.033C53.7179 68.4289 56.8191 67.0915 59.4954 65.1908L60.7489 64.3005L65.9965 68.6604L68.4786 66.0442L64.2516 60.7385L65.0952 59.5169C66.8583 56.9638 68.1139 54.0362 68.7186 50.878L68.9758 49.5349L75.9749 48.2461V44.863L68.9758 43.5742L68.7186 42.2311C68.1139 39.073 66.8583 36.1453 65.0952 33.5922L64.2619 32.3855L68.4642 26.982L65.8317 24.3495L60.3017 28.462L59.1249 27.6607C56.6345 25.9648 53.7932 24.7495 50.7329 24.146L49.403 23.8837L48.1164 17H44.4557L43.169 23.8837L41.8391 24.146C38.7789 24.7495 35.9375 25.9648 33.4472 27.6607Z" fill="white"/>
</svg>
