<svg width="105" height="124" viewBox="0 0 105 127" fill="none" xmlns="http://www.w3.org/2000/svg">
<path d="M104 24V19M1 24V19M104 19V19C104 9.05887 95.9411 1 86 1H19C9.05888 1 1 9.05887 1 19V19M104 19H1" stroke="white" stroke-width="2"/>
<path d="M104 124V21C104 9.9543 95.0457 1 84 1H21C9.9543 1 1 9.95431 1 21V124" stroke="white" stroke-width="2"/>
<rect x="50" y="7" width="6" height="6" rx="3" stroke="white" stroke-width="2"/>
<path d="M31.8423 72.2273C21.7369 39.7146 45.1053 29.7085 64.0529 39.7136C76.9805 45.4837 78.7634 52.8749 74.158 72.2273C77.5352 78.7449 76.5134 81.611 70.3684 85.3579C70.305 90.0842 69.0972 93.9792 64.0529 99.1137L65.3158 109.743C79.0822 115.17 85.4146 118.779 95 126H11C19.1301 117.948 25.3188 114.3 40.0526 109.743L41.3158 99.1137C36.5054 94.7799 34.8318 91.8435 34.3684 85.3579C28.731 80.9675 28.2313 78.2367 31.8423 72.2273Z" stroke="white" stroke-width="2"/>
</svg>
