<svg width="184" height="35" viewBox="0 0 184 35" fill="none" xmlns="http://www.w3.org/2000/svg">
<path d="M24.1127 10.1093L7.33847 0L10.1207 10.8746L-0.000244141 27.6295L10.8869 24.8504L27.661 35L24.8788 24.0852L34.9998 7.37054L24.1127 10.1093Z" fill="url(#paint0_linear_1674_24822)"/>
<path d="M42.6059 19.3957H45.0139C45.0058 19.7445 45.1032 20.052 45.3063 20.3182C45.5204 20.5752 45.8286 20.7772 46.2309 20.924C46.6442 21.0617 47.1356 21.1306 47.7049 21.1306C48.5356 21.1306 49.21 21.0158 49.7282 20.7863C50.2574 20.5477 50.5609 20.2172 50.6385 19.795C50.6993 19.4645 50.6057 19.2121 50.3578 19.0377C50.1209 18.8541 49.6367 18.721 48.9052 18.6384L46.8343 18.4043C45.4986 18.2574 44.5667 17.9453 44.0384 17.468C43.5212 16.9815 43.342 16.3068 43.5006 15.4439C43.6256 14.7646 43.9326 14.1863 44.4217 13.709C44.9201 13.2317 45.5608 12.8691 46.3437 12.6213C47.1283 12.3642 48.02 12.2357 49.0186 12.2357C49.9893 12.2357 50.8265 12.378 51.5301 12.6626C52.2355 12.9379 52.7657 13.3281 53.1209 13.8329C53.4777 14.3286 53.6132 14.9115 53.5273 15.5816H51.1193C51.1284 15.2787 51.0365 15.0171 50.8437 14.7968C50.6619 14.5673 50.3813 14.3929 50.0019 14.2735C49.6242 14.145 49.1647 14.0808 48.6233 14.0808C47.8673 14.0808 47.2451 14.1909 46.7566 14.4112C46.268 14.6315 45.9866 14.9436 45.9124 15.3475C45.855 15.6596 45.9409 15.9029 46.1702 16.0773C46.4105 16.2425 46.859 16.3665 47.5158 16.4491L49.6657 16.7107C50.6178 16.8117 51.3574 16.9769 51.8845 17.2064C52.4227 17.4267 52.7785 17.725 52.952 18.1014C53.1347 18.4777 53.173 18.955 53.0666 19.5334C52.94 20.2218 52.6139 20.8276 52.0884 21.3509C51.5739 21.8649 50.9078 22.2642 50.0901 22.5488C49.2724 22.8333 48.3503 22.9756 47.3236 22.9756C46.2783 22.9756 45.3859 22.8288 44.6466 22.535C43.909 22.2321 43.3605 21.8144 43.001 21.282C42.6433 20.7404 42.5116 20.1117 42.6059 19.3957Z" fill="black"/>
<path d="M103.684 22.9756C102.461 22.9756 101.429 22.7507 100.588 22.3009C99.7562 21.8512 99.157 21.227 98.7905 20.4283C98.4258 19.6206 98.3421 18.6797 98.5396 17.6057C98.7371 16.5317 99.166 15.5954 99.8262 14.7968C100.488 13.989 101.318 13.3602 102.315 12.9104C103.322 12.4606 104.436 12.2357 105.659 12.2357C106.882 12.2357 107.909 12.4606 108.741 12.9104C109.582 13.3602 110.185 13.989 110.55 14.7968C110.917 15.5954 111.001 16.5317 110.804 17.6057C110.606 18.6797 110.176 19.6206 109.515 20.4283C108.854 21.227 108.021 21.8512 107.014 22.3009C106.017 22.7507 104.907 22.9756 103.684 22.9756ZM104.066 20.8965C104.832 20.8965 105.514 20.7634 106.114 20.4972C106.723 20.231 107.222 19.85 107.612 19.3544C108.011 18.8587 108.272 18.2758 108.396 17.6057C108.519 16.9356 108.472 16.3527 108.255 15.857C108.048 15.3613 107.688 14.9804 107.177 14.7142C106.676 14.448 106.042 14.3149 105.277 14.3149C104.521 14.3149 103.838 14.448 103.229 14.7142C102.62 14.9804 102.116 15.3613 101.717 15.857C101.327 16.3527 101.071 16.9356 100.948 17.6057C100.824 18.2758 100.867 18.8587 101.074 19.3544C101.291 19.85 101.655 20.231 102.166 20.4972C102.677 20.7634 103.31 20.8965 104.066 20.8965Z" fill="black"/>
<path d="M143.378 12.4423L141.479 22.7691H139.211L140.793 14.4381L135.333 22.7691H132.883L130.548 14.3006L128.991 22.7691H126.737L128.636 12.4423H132.29L134.5 20.5004L139.724 12.4423H143.378Z" fill="black"/>
<path d="M161.429 12.4423C162.651 12.4423 163.68 12.658 164.516 13.0894C165.36 13.5208 165.968 14.1221 166.34 14.8932C166.711 15.6642 166.802 16.5684 166.611 17.6057C166.422 18.6338 165.999 19.5379 165.342 20.3182C164.687 21.0893 163.858 21.6905 162.855 22.1219C161.861 22.5534 160.752 22.7691 159.53 22.7691H154.546L156.445 12.4423H161.429ZM157.302 20.7037H160.091C160.801 20.7037 161.445 20.5752 162.024 20.3182C162.613 20.0612 163.095 19.6986 163.47 19.2304C163.846 18.7623 164.09 18.2207 164.203 17.6057C164.318 16.9815 164.273 16.4399 164.068 15.9809C163.865 15.5128 163.516 15.1502 163.022 14.8932C162.537 14.6361 161.94 14.5076 161.231 14.5076L158.5 14.5004L157.302 20.7037Z" fill="black"/>
<path d="M169.201 12.4423H171.581L169.681 22.7691H167.301L169.201 12.4423Z" fill="black"/>
<path d="M153.086 18.5002L153.416 16.7102L147.329 16.7289V14.3832H154.207L154.564 12.4418H145.184L145.047 17.6052L143.285 22.7686H152.735L153.092 20.8272H146.221L147.021 18.5002H153.086Z" fill="black"/>
<path d="M113.391 12.4418L111.492 22.7686H113.634L117.967 18.4999L119.654 22.7686H122.37L119.654 16.8372L124.115 12.4418H121.581L114.354 19.6682L115.757 12.4418H113.391Z" fill="black"/>
<path fill-rule="evenodd" clip-rule="evenodd" d="M71.8847 20.5931H66.0311L64.6339 22.7686H62.0999L68.9129 12.4418H71.9649L74.9798 22.7686H72.4459L71.8847 20.5931ZM67.2512 18.6928H71.3944L70.2073 14.0902L67.2512 18.6928Z" fill="black"/>
<path fill-rule="evenodd" clip-rule="evenodd" d="M180.785 20.5931H174.931L173.534 22.7686H171L177.813 12.4418H180.865L183.88 22.7686H181.346L180.785 20.5931ZM176.152 18.6928H180.295L179.108 14.0902L176.152 18.6928Z" fill="black"/>
<path d="M59.3865 22.7686L60.9997 14.4995L65.0778 14.5071L65.4576 12.4418H54.7336L54.3538 14.5071H58.4997L57.0205 22.7686H59.3865Z" fill="black"/>
<path d="M93.033 22.7686L94.6462 14.4995L98.7242 14.5071L99.104 12.4418H88.3801L88.0002 14.5071H92.1462L90.667 22.7686H93.033Z" fill="black"/>
<path fill-rule="evenodd" clip-rule="evenodd" d="M78.4896 22.7686H76.1096L78.0087 12.4418H83.9867C84.752 12.4418 85.3987 12.5795 85.9267 12.8548C86.4564 13.121 86.8407 13.4928 87.0796 13.9701C87.3185 14.4475 87.3789 15.0074 87.2607 15.65C87.1442 16.2834 86.8788 16.8387 86.4643 17.316C86.0499 17.7934 85.0744 18.3642 84.8987 18.4451C84.7229 18.526 84.1581 18.6952 83.7091 18.7783L86.2596 22.7686H83.4736L80.9998 18.8444H79.2113L78.4896 22.7686ZM82.8632 17.0266C83.3952 17.0266 83.8371 16.9072 84.189 16.6686C84.5519 16.4207 84.773 16.0811 84.8524 15.6496C84.9317 15.2182 84.8347 14.8832 84.5612 14.6445C84.2971 14.4058 83.899 14.2865 83.3671 14.2865H80.049L79.5452 17.0266H82.8632Z" fill="black"/>
<defs>
<linearGradient id="paint0_linear_1674_24822" x1="38.979" y1="-5.36065e-07" x2="44.2286" y2="46.6277" gradientUnits="userSpaceOnUse">
<stop stop-color="#FFD916"/>
<stop offset="0.354167" stop-color="#FF1510"/>
<stop offset="0.671875" stop-color="#6705FF"/>
</linearGradient>
</defs>
</svg>
