<svg width="142" height="133" viewBox="0 0 142 133" fill="none" xmlns="http://www.w3.org/2000/svg">
<path d="M46.9591 50.621C47.7893 49.4724 48.5628 48.3708 49.2807 47.3129M49.2807 47.3129C52.8769 76.4241 82.4661 85.0251 101.535 73.116M49.2807 47.3129C56.1156 37.2409 57.9028 31.1312 55.4446 26.1415M101.535 73.116C101.269 70.0543 101.586 68.472 105.48 66.4998C98.247 66.4998 95.6169 57.8988 104.165 53.9291C96.2744 53.9291 94.9593 40.6967 104.165 38.7119L115.343 36.0875M101.535 73.116C102.808 76.413 104.161 77.5009 107.453 78.4089M123.891 34.0805C131.781 33.4189 133.754 42.6816 127.179 47.3129L119.288 49.6286M123.891 34.0805L137.042 30.7725C143.617 28.1266 141.645 16.8788 133.754 18.8633L111.398 25.4799M123.891 34.0805L115.343 36.0875M111.398 51.9442L119.288 49.6286M119.288 49.6286C129.151 51.9442 131.124 61.8685 115.343 64.515C127.179 69.8079 122.576 77.0857 107.453 78.4089M107.453 78.4089C98.0407 91.6203 90.7949 94.4583 75.8907 94.9494L71.288 105.535M71.288 105.535L75.8907 108.182L72.603 116.121L77.2058 118.768L71.288 132M71.288 105.535L35.7809 89.5954M35.7809 89.5954L28.548 86.3484L24.6028 94.5141L22.6302 93.6261L20 98.9191L1.5 132M35.7809 89.5954L41.0412 77.7473L32.4932 53.9291L42.9146 30.7725L46.7854 22.1714L48.2741 18.8633C51.7379 21.253 54.1657 23.5457 55.4446 26.1415M111.398 25.4799C108.768 21.5102 105.48 18.2021 100.22 14.894M111.398 25.4799C113.957 29.9142 114.398 31.7305 115.343 36.0875M100.22 14.894L101.535 11.5859L104.822 12.2475L107.453 6.29294C103.507 2.98485 102.132 1.74223 95.6169 1L92.9867 6.29294L95.6169 8.93941L93.6443 12.2475M100.22 14.894C97.782 13.7206 96.3535 13.1289 93.6443 12.2475M93.6443 12.2475C77.2058 6.89928 62.74 13.5707 55.4446 26.1415M83.7812 44.6668L77.2058 42.0203M83.7812 44.6668L90.3566 30.7728M83.7812 44.6668L94.9593 49.2978M83.7812 44.6668L81.151 50.621M59.4523 34.7642L68.329 38.3923M75.2332 21.5102L77.2058 28.126M94.3018 22.1718L92.3292 26.1415M73.2606 67.8234L75.385 63.1917M60.7674 53.9294L67.3427 51.283M90.3566 61.2072L92.3292 68.485" stroke="white" stroke-width="2" stroke-linecap="round" stroke-linejoin="round"/>
</svg>
