<svg width="209" height="113" viewBox="0 0 209 113" fill="none" xmlns="http://www.w3.org/2000/svg">
<path d="M62.2781 64.1632L63.6226 62.9048L64.6174 62.0007L62.9058 68.0238L64.6175 69.3424L63.5663 75.3329L62.2654 78.1204L59.1208 79.7058L59.0535 76.1976L57.0981 77.2923L55.3689 80.9261L54.1423 85.5039L56.2807 88.0496L51.831 87.3631L50.0798 88.2596L50.6312 89.7731L44.639 97.4746L42.9192 103.893L41.4155 103.49L38.3844 102.02L34.3393 99.8236L30.016 98.6652L26.0216 97.5949L20.8867 94.9545L17.4562 94.0353L14.7269 92.1911L12.1673 88.7739L11.4059 84.4727L10.285 81.1374L8.39181 78.3725L6.00004 73.1876L8.39181 74.105L10.2496 73.1865L9.89556 74.5079C9.94203 75.2117 10.8496 76.9597 11 77C11.1504 77.0403 12.1702 77.7983 13.0498 78.3375L15.5801 78.105L18.6471 77.561L21.1846 78.241L25.9237 79.9155L31.1398 81.3131L34.5305 81.817L38.3529 81.2732L40.7418 78.3725L43.1434 75.4247L46.9948 74.5851L50.4085 71.8073L53.5312 68.7998L56.6758 67.2144L60.6717 66.2112L62.2781 64.1632Z" stroke="white" stroke-width="2" stroke-linejoin="round"/>
<path d="M23 14.5L12.5 11.5L4 17L8.5 30.5L18.5 40L27.5 45L24.5 54.5L43 57L39 47L43 42.5H57.5L55.5 38L75 37L82.5 42.5L95 47L108.5 40L121.5 45L134 42.5L143 37L152 45L160 47L170 57L172.5 46.5L167 40L156.5 37L159 29L178.5 27.5V35L192.5 42.5L186.5 29H192.5L207.5 18L180 13L165 14.5L156.5 11.5L137.5 9L129.5 11.5L119 9H96.5L99 5L92.5 4L87.5 1L82.5 5H76.5L56 10L57.5 14.5L43 11.5L46 14.5L30.5 17L18.5 22.5L14.5 18L23 14.5Z" stroke="white" stroke-width="2" stroke-linecap="round" stroke-linejoin="round"/>
<path d="M150 59.5L142 53L135.5 57.5L121.5 59.5L108 54.5L89.5 70V74.5L82.5 77.5L86.5 85L94.5 87L91 92.5L98 99H111L120 96L127 108L142 112L156.5 109L161.5 100L150 83L151 79L166.5 88L162.5 79L166.5 71.5L158 61L150 59.5Z" stroke="white" stroke-width="2" stroke-linecap="round" stroke-linejoin="round"/>
<path d="M170.5 79L174 73.5L183 70L178 79V88L174 90L170.5 79Z" stroke="white" stroke-width="2" stroke-linecap="round" stroke-linejoin="round"/>
</svg>
