<svg width="583" height="345" viewBox="0 0 583 345" fill="none" xmlns="http://www.w3.org/2000/svg">
<rect width="100" height="78" transform="translate(1 266.999)" fill="white"/>
<path d="M31.1191 310.911V299.796H32.5591V308.271L38.8141 299.796H40.4641V310.911H39.0241V302.091L32.4991 310.911H31.1191ZM42.3844 313.401V309.621H42.7144C43.1044 309.621 43.3544 309.551 43.4644 309.411C43.5744 309.271 43.6294 308.996 43.6294 308.586V302.571H50.9944V309.621H52.2544V313.401H50.8744V310.911H43.7494V313.401H42.3844ZM44.8144 309.696H49.5544V303.861H45.0994V308.676C45.0994 309.166 45.0044 309.506 44.8144 309.696ZM57.2024 311.076C56.5324 311.076 55.9524 311.001 55.4624 310.851C54.9724 310.701 54.5774 310.501 54.2774 310.251C53.9874 310.001 53.7524 309.686 53.5724 309.306C53.3924 308.916 53.2674 308.521 53.1974 308.121C53.1374 307.711 53.1074 307.246 53.1074 306.726C53.1074 306.076 53.1624 305.511 53.2724 305.031C53.3924 304.541 53.5924 304.086 53.8724 303.666C54.1624 303.246 54.5824 302.926 55.1324 302.706C55.6924 302.486 56.3724 302.376 57.1724 302.376C57.6524 302.376 58.0774 302.426 58.4474 302.526C58.8174 302.626 59.1274 302.751 59.3774 302.901C59.6274 303.051 59.8374 303.261 60.0074 303.531C60.1774 303.791 60.3074 304.046 60.3974 304.296C60.4874 304.536 60.5524 304.846 60.5924 305.226C60.6424 305.596 60.6724 305.926 60.6824 306.216C60.6924 306.506 60.6924 306.866 60.6824 307.296H54.5174C54.5674 308.126 54.7824 308.756 55.1624 309.186C55.5524 309.606 56.2324 309.816 57.2024 309.816C57.8224 309.816 58.3274 309.751 58.7174 309.621C59.1074 309.481 59.4874 309.271 59.8574 308.991L60.6374 310.011C59.7274 310.721 58.5824 311.076 57.2024 311.076ZM57.1274 303.666C56.2274 303.666 55.5874 303.866 55.2074 304.266C54.8274 304.656 54.6024 305.236 54.5324 306.006H59.3024C59.2824 305.686 59.2574 305.436 59.2274 305.256C59.2074 305.066 59.1524 304.856 59.0624 304.626C58.9824 304.396 58.8674 304.221 58.7174 304.101C58.5774 303.981 58.3724 303.881 58.1024 303.801C57.8324 303.711 57.5074 303.666 57.1274 303.666ZM62.3415 310.911L64.0965 307.851C62.8465 307.551 62.2215 306.691 62.2215 305.271C62.2215 303.471 63.2465 302.571 65.2965 302.571H69.8415V310.911H68.3865V307.986H65.5815L63.9015 310.911H62.3415ZM65.3265 306.741H68.3865V303.861H65.3565C64.7865 303.861 64.3665 303.966 64.0965 304.176C63.8365 304.386 63.7065 304.766 63.7065 305.316C63.7065 305.856 63.8365 306.231 64.0965 306.441C64.3565 306.641 64.7665 306.741 65.3265 306.741Z" fill="black"/>
<rect width="155" height="79" transform="translate(102 187.999)" fill="white"/>
<path d="M144.386 232.999L140.366 227.719H138.596V232.999H137.111V221.884H138.596V226.294H140.291L143.876 221.884H145.616L141.506 226.894L146.156 232.999H144.386ZM150.714 233.164C149.274 233.164 148.229 232.804 147.579 232.084C146.929 231.364 146.604 230.274 146.604 228.814C146.604 227.354 146.929 226.264 147.579 225.544C148.229 224.824 149.274 224.464 150.714 224.464C152.164 224.464 153.214 224.824 153.864 225.544C154.514 226.264 154.839 227.354 154.839 228.814C154.839 230.274 154.514 231.364 153.864 232.084C153.214 232.804 152.164 233.164 150.714 233.164ZM148.674 231.094C149.084 231.594 149.764 231.844 150.714 231.844C151.664 231.844 152.339 231.594 152.739 231.094C153.149 230.594 153.354 229.844 153.354 228.844C153.354 227.844 153.149 227.099 152.739 226.609C152.339 226.109 151.664 225.859 150.714 225.859C149.764 225.859 149.084 226.109 148.674 226.609C148.274 227.099 148.074 227.844 148.074 228.844C148.074 229.844 148.274 230.594 148.674 231.094ZM156.589 232.999V224.659H158.059V227.974H162.514V224.659H163.969V232.999H162.514V229.354H158.059V232.999H156.589ZM173.385 235.489V232.999H166.14V224.659H167.61V231.739H172.065V224.659H173.505V231.709H174.765V235.489H173.385ZM179.849 233.164C179.179 233.164 178.599 233.089 178.109 232.939C177.619 232.789 177.224 232.589 176.924 232.339C176.634 232.089 176.399 231.774 176.219 231.394C176.039 231.004 175.914 230.609 175.844 230.209C175.784 229.799 175.754 229.334 175.754 228.814C175.754 228.164 175.809 227.599 175.919 227.119C176.039 226.629 176.239 226.174 176.519 225.754C176.809 225.334 177.229 225.014 177.779 224.794C178.339 224.574 179.019 224.464 179.819 224.464C180.299 224.464 180.724 224.514 181.094 224.614C181.464 224.714 181.774 224.839 182.024 224.989C182.274 225.139 182.484 225.349 182.654 225.619C182.824 225.879 182.954 226.134 183.044 226.384C183.134 226.624 183.199 226.934 183.239 227.314C183.289 227.684 183.319 228.014 183.329 228.304C183.339 228.594 183.339 228.954 183.329 229.384H177.164C177.214 230.214 177.429 230.844 177.809 231.274C178.199 231.694 178.879 231.904 179.849 231.904C180.469 231.904 180.974 231.839 181.364 231.709C181.754 231.569 182.134 231.359 182.504 231.079L183.284 232.099C182.374 232.809 181.229 233.164 179.849 233.164ZM179.774 225.754C178.874 225.754 178.234 225.954 177.854 226.354C177.474 226.744 177.249 227.324 177.179 228.094H181.949C181.929 227.774 181.904 227.524 181.874 227.344C181.854 227.154 181.799 226.944 181.709 226.714C181.629 226.484 181.514 226.309 181.364 226.189C181.224 226.069 181.019 225.969 180.749 225.889C180.479 225.799 180.154 225.754 179.774 225.754ZM185.153 232.999V224.659H192.518V232.999H191.063V225.949H186.593V232.999H185.153ZM201.935 235.489V232.999H194.69V224.659H196.16V231.739H200.615V224.659H202.055V231.709H203.315V235.489H201.935ZM205.061 232.999V224.659H206.486V230.584L210.881 224.659H212.471V232.999H211.046V226.729L206.396 232.999H205.061ZM214.476 232.999L216.231 229.939C214.981 229.639 214.356 228.779 214.356 227.359C214.356 225.559 215.381 224.659 217.431 224.659H221.976V232.999H220.521V230.074H217.716L216.036 232.999H214.476ZM217.461 228.829H220.521V225.949H217.491C216.921 225.949 216.501 226.054 216.231 226.264C215.971 226.474 215.841 226.854 215.841 227.404C215.841 227.944 215.971 228.319 216.231 228.529C216.491 228.729 216.901 228.829 217.461 228.829Z" fill="black"/>
<rect width="163" height="78" transform="translate(257 109.999)" fill="white"/>
<path d="M292.338 153.999V142.884H297.333C298.713 142.884 299.713 143.169 300.333 143.739C300.953 144.299 301.263 145.159 301.263 146.319C301.263 147.509 300.948 148.419 300.318 149.049C299.688 149.669 298.678 149.979 297.288 149.979H293.823V153.999H292.338ZM293.823 148.569H297.333C298.153 148.569 298.758 148.404 299.148 148.074C299.548 147.734 299.748 147.174 299.748 146.394C299.748 145.604 299.553 145.059 299.163 144.759C298.783 144.449 298.163 144.294 297.303 144.294H293.823V148.569ZM306.233 154.164C305.563 154.164 304.983 154.089 304.493 153.939C304.003 153.789 303.608 153.589 303.308 153.339C303.018 153.089 302.783 152.774 302.603 152.394C302.423 152.004 302.298 151.609 302.228 151.209C302.168 150.799 302.138 150.334 302.138 149.814C302.138 149.164 302.193 148.599 302.303 148.119C302.423 147.629 302.623 147.174 302.903 146.754C303.193 146.334 303.613 146.014 304.163 145.794C304.723 145.574 305.403 145.464 306.203 145.464C306.683 145.464 307.108 145.514 307.478 145.614C307.848 145.714 308.158 145.839 308.408 145.989C308.658 146.139 308.868 146.349 309.038 146.619C309.208 146.879 309.338 147.134 309.428 147.384C309.518 147.624 309.583 147.934 309.623 148.314C309.673 148.684 309.703 149.014 309.713 149.304C309.723 149.594 309.723 149.954 309.713 150.384H303.548C303.598 151.214 303.813 151.844 304.193 152.274C304.583 152.694 305.263 152.904 306.233 152.904C306.853 152.904 307.358 152.839 307.748 152.709C308.138 152.569 308.518 152.359 308.888 152.079L309.668 153.099C308.758 153.809 307.613 154.164 306.233 154.164ZM306.158 146.754C305.258 146.754 304.618 146.954 304.238 147.354C303.858 147.744 303.633 148.324 303.563 149.094H308.333C308.313 148.774 308.288 148.524 308.258 148.344C308.238 148.154 308.183 147.944 308.093 147.714C308.013 147.484 307.898 147.309 307.748 147.189C307.608 147.069 307.403 146.969 307.133 146.889C306.863 146.799 306.538 146.754 306.158 146.754ZM313.852 154.149C312.732 154.149 311.952 153.929 311.512 153.489C311.082 153.039 310.867 152.419 310.867 151.629C310.867 150.449 311.257 149.644 312.037 149.214C312.827 148.784 314.272 148.569 316.372 148.569H316.822C316.802 147.919 316.657 147.469 316.387 147.219C316.127 146.959 315.577 146.829 314.737 146.829C313.847 146.829 313.027 147.064 312.277 147.534L311.512 146.394C311.852 146.164 312.327 145.954 312.937 145.764C313.557 145.564 314.202 145.464 314.872 145.464C315.582 145.464 316.157 145.524 316.597 145.644C317.037 145.764 317.377 145.969 317.617 146.259C317.857 146.549 318.017 146.889 318.097 147.279C318.187 147.669 318.232 148.179 318.232 148.809V151.779C318.232 152.189 318.272 152.449 318.352 152.559C318.442 152.659 318.677 152.709 319.057 152.709V153.984C318.987 154.004 318.787 154.014 318.457 154.014C318.007 154.014 317.682 153.944 317.482 153.804C317.292 153.664 317.142 153.419 317.032 153.069C316.522 153.789 315.462 154.149 313.852 154.149ZM314.092 152.889C315.052 152.889 315.747 152.689 316.177 152.289C316.607 151.879 316.822 151.224 316.822 150.324V149.814H316.447C315.287 149.814 314.412 149.869 313.822 149.979C313.232 150.079 312.822 150.249 312.592 150.489C312.372 150.719 312.262 151.064 312.262 151.524C312.262 151.994 312.397 152.339 312.667 152.559C312.937 152.779 313.412 152.889 314.092 152.889ZM320.17 153.984V152.709H320.5C320.89 152.709 321.145 152.639 321.265 152.499C321.385 152.359 321.445 152.084 321.445 151.674V145.659H328.795V153.999H327.34V146.949H322.885V151.839C322.885 152.639 322.745 153.204 322.465 153.534C322.185 153.854 321.695 154.014 320.995 154.014C320.565 154.014 320.29 154.004 320.17 153.984ZM330.976 153.999V145.659H332.401V151.584L336.796 145.659H338.386V153.999H336.961V147.729L332.311 153.999H330.976ZM343.586 154.179C342.006 154.179 340.741 153.899 339.791 153.339L340.436 152.184C341.286 152.644 342.286 152.874 343.436 152.874C344.366 152.874 344.996 152.789 345.326 152.619C345.656 152.449 345.821 152.079 345.821 151.509C345.821 151.149 345.761 150.884 345.641 150.714C345.531 150.534 345.291 150.399 344.921 150.309C344.551 150.219 343.991 150.174 343.241 150.174H341.396V148.869H343.211C344.181 148.869 344.816 148.804 345.116 148.674C345.426 148.534 345.581 148.229 345.581 147.759C345.581 147.349 345.431 147.084 345.131 146.964C344.831 146.844 344.256 146.784 343.406 146.784C342.286 146.784 341.386 146.974 340.706 147.354L339.986 146.214C340.396 145.974 340.941 145.789 341.621 145.659C342.301 145.529 342.966 145.464 343.616 145.464C344.836 145.464 345.716 145.609 346.256 145.899C346.796 146.189 347.066 146.709 347.066 147.459C347.066 148.039 346.986 148.474 346.826 148.764C346.666 149.054 346.376 149.264 345.956 149.394C346.496 149.534 346.851 149.769 347.021 150.099C347.201 150.419 347.291 150.929 347.291 151.629C347.291 152.599 346.996 153.269 346.406 153.639C345.816 153.999 344.876 154.179 343.586 154.179ZM351.645 154.149C350.525 154.149 349.745 153.929 349.305 153.489C348.875 153.039 348.66 152.419 348.66 151.629C348.66 150.449 349.05 149.644 349.83 149.214C350.62 148.784 352.065 148.569 354.165 148.569H354.615C354.595 147.919 354.45 147.469 354.18 147.219C353.92 146.959 353.37 146.829 352.53 146.829C351.64 146.829 350.82 147.064 350.07 147.534L349.305 146.394C349.645 146.164 350.12 145.954 350.73 145.764C351.35 145.564 351.995 145.464 352.665 145.464C353.375 145.464 353.95 145.524 354.39 145.644C354.83 145.764 355.17 145.969 355.41 146.259C355.65 146.549 355.81 146.889 355.89 147.279C355.98 147.669 356.025 148.179 356.025 148.809V151.779C356.025 152.189 356.065 152.449 356.145 152.559C356.235 152.659 356.47 152.709 356.85 152.709V153.984C356.78 154.004 356.58 154.014 356.25 154.014C355.8 154.014 355.475 153.944 355.275 153.804C355.085 153.664 354.935 153.419 354.825 153.069C354.315 153.789 353.255 154.149 351.645 154.149ZM351.885 152.889C352.845 152.889 353.54 152.689 353.97 152.289C354.4 151.879 354.615 151.224 354.615 150.324V149.814H354.24C353.08 149.814 352.205 149.869 351.615 149.979C351.025 150.079 350.615 150.249 350.385 150.489C350.165 150.719 350.055 151.064 350.055 151.524C350.055 151.994 350.19 152.339 350.46 152.559C350.73 152.779 351.205 152.889 351.885 152.889ZM365.804 156.489V153.999H358.559V145.659H360.029V152.739H364.484V145.659H365.924V152.709H367.184V156.489H365.804ZM368.93 153.999V145.659H370.355V151.584L374.75 145.659H376.34V153.999H374.915V147.729L370.265 153.999H368.93ZM378.345 153.999L380.1 150.939C378.85 150.639 378.225 149.779 378.225 148.359C378.225 146.559 379.25 145.659 381.3 145.659H385.845V153.999H384.39V151.074H381.585L379.905 153.999H378.345ZM381.33 149.829H384.39V146.949H381.36C380.79 146.949 380.37 147.054 380.1 147.264C379.84 147.474 379.71 147.854 379.71 148.404C379.71 148.944 379.84 149.319 380.1 149.529C380.36 149.729 380.77 149.829 381.33 149.829Z" fill="black"/>
<rect width="108.611" height="77.8594" transform="translate(421 32.2334)" fill="white"/>
<path d="M463.115 70.434C463.115 74.264 461.225 76.179 457.445 76.179C453.665 76.179 451.775 74.264 451.775 70.434C451.775 66.614 453.665 64.704 457.445 64.704C461.225 64.704 463.115 66.614 463.115 70.434ZM457.445 74.769C460.215 74.769 461.6 73.334 461.6 70.464C461.6 67.594 460.215 66.159 457.445 66.159C454.685 66.159 453.305 67.594 453.305 70.464C453.305 73.334 454.685 74.769 457.445 74.769ZM467.178 75.999V68.979H464.103V67.659H471.723V68.979H468.648V75.999H467.178ZM478.978 75.999V72.939C478.568 73.609 477.573 73.944 475.993 73.944C475.353 73.944 474.818 73.864 474.388 73.704C473.968 73.544 473.653 73.304 473.443 72.984C473.233 72.654 473.088 72.299 473.008 71.919C472.938 71.539 472.903 71.064 472.903 70.494V67.659H474.358V70.209C474.358 70.989 474.488 71.569 474.748 71.949C475.018 72.319 475.588 72.504 476.458 72.504C477.418 72.504 478.073 72.294 478.423 71.874C478.783 71.444 478.963 70.829 478.963 70.029V67.659H480.418V75.999H478.978ZM483.701 66.759V65.079H485.036V66.759H483.701ZM486.941 66.759V65.079H488.261V66.759H486.941ZM486.281 76.164C485.611 76.164 485.031 76.089 484.541 75.939C484.051 75.789 483.656 75.589 483.356 75.339C483.066 75.089 482.831 74.774 482.651 74.394C482.471 74.004 482.346 73.609 482.276 73.209C482.216 72.799 482.186 72.334 482.186 71.814C482.186 71.164 482.241 70.599 482.351 70.119C482.471 69.629 482.671 69.174 482.951 68.754C483.241 68.334 483.661 68.014 484.211 67.794C484.771 67.574 485.451 67.464 486.251 67.464C486.731 67.464 487.156 67.514 487.526 67.614C487.896 67.714 488.206 67.839 488.456 67.989C488.706 68.139 488.916 68.349 489.086 68.619C489.256 68.879 489.386 69.134 489.476 69.384C489.566 69.624 489.631 69.934 489.671 70.314C489.721 70.684 489.751 71.014 489.761 71.304C489.771 71.594 489.771 71.954 489.761 72.384H483.596C483.646 73.214 483.861 73.844 484.241 74.274C484.631 74.694 485.311 74.904 486.281 74.904C486.901 74.904 487.406 74.839 487.796 74.709C488.186 74.569 488.566 74.359 488.936 74.079L489.716 75.099C488.806 75.809 487.661 76.164 486.281 76.164ZM486.206 68.754C485.306 68.754 484.666 68.954 484.286 69.354C483.906 69.744 483.681 70.324 483.611 71.094H488.381C488.361 70.774 488.336 70.524 488.306 70.344C488.286 70.154 488.231 69.944 488.141 69.714C488.061 69.484 487.946 69.309 487.796 69.189C487.656 69.069 487.451 68.969 487.181 68.889C486.911 68.799 486.586 68.754 486.206 68.754ZM493.94 75.999V68.979H490.865V67.659H498.485V68.979H495.41V75.999H493.94Z" fill="black"/>
<path d="M582.354 266.992C582.549 266.797 582.549 266.48 582.354 266.285L579.172 263.103C578.976 262.908 578.66 262.908 578.464 263.103C578.269 263.298 578.269 263.615 578.464 263.81L581.293 266.639L578.464 269.467C578.269 269.662 578.269 269.979 578.464 270.174C578.66 270.369 578.976 270.369 579.172 270.174L582.354 266.992ZM0.611084 267.139L582 267.139V266.139L0.611084 266.139L0.611084 267.139Z" fill="white"/>
<path d="M582.354 188.354C582.549 188.158 582.549 187.842 582.354 187.646L579.172 184.465C578.976 184.269 578.66 184.269 578.464 184.465C578.269 184.66 578.269 184.976 578.464 185.172L581.293 188L578.464 190.828C578.269 191.024 578.269 191.34 578.464 191.536C578.66 191.731 578.976 191.731 579.172 191.536L582.354 188.354ZM101 188.5L582 188.5L582 187.5L101 187.5L101 188.5Z" fill="white"/>
<path d="M582.354 110.444C582.549 110.249 582.549 109.933 582.354 109.737L579.172 106.555C578.976 106.36 578.66 106.36 578.464 106.555C578.269 106.751 578.269 107.067 578.464 107.262L581.293 110.091L578.464 112.919C578.269 113.114 578.269 113.431 578.464 113.626C578.66 113.822 578.976 113.822 579.172 113.626L582.354 110.444ZM256.167 110.591L582 110.591L582 109.591L256.167 109.591L256.167 110.591Z" fill="white"/>
<path d="M582.353 32.585C582.549 32.3898 582.549 32.0732 582.353 31.8779L579.172 28.6959C578.976 28.5007 578.66 28.5007 578.464 28.6959C578.269 28.8912 578.269 29.2078 578.464 29.403L581.293 32.2315L578.464 35.0599C578.269 35.2551 578.269 35.5717 578.464 35.767C578.66 35.9623 578.976 35.9623 579.172 35.767L582.353 32.585ZM419.722 32.7314L582 32.7315L582 31.7315L419.722 31.7314L419.722 32.7314Z" fill="white"/>
<line x1="101.5" y1="344.945" x2="101.5" y2="187.95" stroke="white"/>
<line x1="257.5" y1="344.855" x2="257.5" y2="110.001" stroke="white"/>
<line x1="420.5" y1="344.945" x2="420.5" y2="32.2314" stroke="white"/>
<line x1="529.923" y1="345" x2="529.923" y2="2.18319e-08" stroke="white"/>
<line x1="0.5" y1="345" x2="0.499997" y2="266.505" stroke="white"/>
<rect y="342" width="582" height="3" fill="url(#paint0_linear_1555_6371)"/>
<defs>
<linearGradient id="paint0_linear_1555_6371" x1="-12.2996" y1="345" x2="-12.1978" y2="352.167" gradientUnits="userSpaceOnUse">
<stop stop-color="#FFD916"/>
<stop offset="0.46875" stop-color="#FF1914"/>
<stop offset="1" stop-color="#6705FF"/>
</linearGradient>
</defs>
</svg>
