<svg width="1600" height="600" viewBox="0 0 1600 600" fill="none" xmlns="http://www.w3.org/2000/svg">
<path d="M1580 0V600M1380 0L1380 600M1180 0L1180 600M979.996 0V600M1480 0V600M1280 0L1280 600M1080 0L1080 600M1530 0V600M1330 0L1330 600M1130 0L1130 600M929.996 0V600M1430 0L1430 600M1230 0L1230 600M1030 0L1030 600M879.996 0L879.996 600M679.996 0L679.996 600M479.996 0L479.996 600M279.996 0L279.996 600M79.9962 0L79.9961 600M779.996 0L779.996 600M579.996 0L579.996 600M379.996 0L379.996 600M179.996 0L179.996 600M829.996 0L829.996 600M629.996 0L629.996 600M429.996 0L429.996 600M229.996 0L229.996 600M29.9962 0L29.9961 600M729.996 0L729.996 600M529.996 0V600M329.996 0L329.996 600M129.996 0L129.996 600M1601 325.501L0.218759 325.501M1601 376.001H1.00003M1601 125.5L0.218757 125.5M1601 225.5L0.218758 225.5M1601 275.5L0.218759 275.5M1601 75.5L0.218756 75.4999M1601 25L0.21875 24.9999M1601 175.5L0.218757 175.5M1601 526L0.999542 526M1601 476H0.999558M1601.22 426H0.999558M1601 576L0.999542 576" stroke="white" stroke-opacity="0.17" stroke-width="2"/>
</svg>
