<svg width="291" height="199" viewBox="0 0 291 199" fill="none" xmlns="http://www.w3.org/2000/svg">
<g opacity="0.1">
<path d="M272.621 110.825L273.36 111.237C273.209 112.46 272.92 113.444 272.494 114.189C272.066 114.948 271.526 115.485 270.875 115.799C270.237 116.129 269.528 116.255 268.748 116.176C267.898 116.091 267.159 115.819 266.529 115.362C265.914 114.906 265.457 114.269 265.16 113.451C264.861 112.647 264.769 111.667 264.886 110.511L266.02 99.2282L273.943 101.249L281.691 100.804L280.596 111.69C280.451 113.139 279.997 114.226 279.234 114.952C278.484 115.692 277.517 116.003 276.333 115.884C275.679 115.818 275.067 115.602 274.499 115.235C273.931 114.868 273.471 114.33 273.121 113.619C272.784 112.91 272.618 111.978 272.621 110.825ZM266.591 103.211L268.602 101.894L267.801 109.855C267.732 110.537 267.839 111.083 268.122 111.491C268.417 111.915 268.864 112.157 269.463 112.217C270.062 112.277 270.557 112.109 270.949 111.712C271.353 111.331 271.597 110.722 271.681 109.886L272.337 103.367L275.095 103.645L274.49 109.662C274.432 110.233 274.545 110.723 274.827 111.131C275.124 111.541 275.558 111.775 276.129 111.832C276.588 111.878 276.981 111.749 277.308 111.444C277.646 111.155 277.846 110.71 277.906 110.111L278.629 102.924L280.339 104.594L273.563 105.031L266.591 103.211Z" fill="white"/>
<path d="M264.498 142.06C263.25 141.503 262.25 140.695 261.499 139.635C260.761 138.58 260.312 137.351 260.153 135.95C259.994 134.549 260.162 133.068 260.656 131.506C261.204 129.771 262.013 128.352 263.08 127.251C264.144 126.163 265.377 125.444 266.779 125.095C268.182 124.746 269.664 124.818 271.226 125.312C272.788 125.806 274.042 126.599 274.989 127.691C275.935 128.783 276.531 130.08 276.776 131.582C277.016 133.097 276.862 134.722 276.313 136.457C275.819 138.019 275.105 139.327 274.169 140.382C273.233 141.437 272.16 142.185 270.949 142.624C269.739 143.063 268.456 143.15 267.101 142.883L268.304 139.078C269.027 139.16 269.695 139.07 270.306 138.808C270.913 138.56 271.449 138.142 271.914 137.555C272.387 136.985 272.762 136.266 273.036 135.399C273.353 134.398 273.438 133.478 273.292 132.639C273.16 131.804 272.814 131.085 272.256 130.483C271.697 129.88 270.951 129.432 270.017 129.136C269.082 128.841 268.213 128.779 267.41 128.951C266.607 129.122 265.905 129.51 265.303 130.112C264.715 130.719 264.262 131.523 263.946 132.524C263.671 133.392 263.557 134.193 263.604 134.927C263.647 135.675 263.845 136.325 264.199 136.877C264.549 137.443 265.049 137.902 265.701 138.255L264.498 142.06Z" fill="white"/>
<path d="M257.069 164.252L254.5 162.822L260.045 152.858L262.614 154.288L257.069 164.252ZM260.022 155.922L254.844 151.839L257.302 151.308L251.421 161.878L248.576 160.295L255.581 147.707L261.87 152.6L269.344 155.365L262.39 167.862L259.546 166.279L265.376 155.801L266.221 158.169L260.022 155.922Z" fill="white"/>
<path d="M249.416 186.133L246.648 183.945L252.575 176.45L252.868 178.957L241.88 170.27L244.342 167.157L256.697 176.925L249.416 186.133Z" fill="white"/>
<path d="M233.033 177.308L237.417 182.345L235.042 184.413L233.921 185.333L225.511 192.655L224.81 193.321L221.484 196.217L217.099 191.18L219.887 188.754L221.983 191.161L232.341 182.143L230.245 179.735L233.033 177.308ZM242.968 193.773L231.596 203.674L222.026 192.682L225.02 190.076L233.5 199.817L230.968 199.627L239.093 192.553L238.726 194.626C238.202 194.173 237.718 193.713 237.274 193.246C236.839 192.789 236.433 192.344 236.056 191.911C234.953 190.644 234.13 189.486 233.588 188.436C233.045 187.386 232.787 186.451 232.814 185.629C232.84 184.827 233.159 184.159 233.771 183.626L235.933 183.582C235.932 184.455 236.212 185.427 236.773 186.498C237.343 187.579 238.203 188.78 239.352 190.1C239.876 190.702 240.439 191.306 241.042 191.914C241.655 192.531 242.296 193.151 242.968 193.773Z" fill="white"/>
<path d="M211.789 202.785L213.32 205.609L203.756 210.793L202.225 207.968L211.789 202.785ZM210.656 217.706L196.763 207.322L200.474 205.311L212.672 214.727L211.601 215.307L210.351 199.957L214.081 197.935L215.18 215.254L210.656 217.706Z" fill="white"/>
<path d="M70.3067 210.969C69.2461 210.238 68.4624 209.426 67.9557 208.533C67.4295 207.643 67.1911 206.731 67.2403 205.796C67.2781 204.853 67.5988 203.943 68.2024 203.067C68.8061 202.191 69.5418 201.567 70.4096 201.196C71.2659 200.817 72.2073 200.709 73.2339 200.872C74.241 201.039 75.2749 201.488 76.3355 202.218L82.0075 206.126L80.1846 208.772L74.6855 204.983C74.063 204.554 73.4697 204.367 72.9058 204.42C72.334 204.485 71.8614 204.789 71.4881 205.331C71.1147 205.872 71.0035 206.416 71.1544 206.962C71.2973 207.52 71.68 208.013 72.3026 208.442L77.5077 212.028L74.9893 212.537L83.1509 200.692L86.4192 202.944L77.4832 215.913L70.3067 210.969Z" fill="white"/>
<path d="M52.5721 187.628L54.651 185.549L62.7142 193.612L60.6353 195.691L52.5721 187.628ZM59.774 192.751L65.1197 188.89L64.9564 191.4L56.4032 182.846L58.7049 180.545L68.8914 190.731L62.4617 195.439L57.7545 201.868L47.6422 191.756L49.9438 189.454L58.4227 197.933L55.9132 198.097L59.774 192.751Z" fill="white"/>
<path d="M37.8077 157.598L40.257 158.209L28.2319 165.432L26.1881 162.03L39.6893 153.92L52.7416 175.648L39.2404 183.758L37.1966 180.356L49.2217 173.132L48.6107 175.581L43.4417 166.977L45.7613 167.372L33.7361 174.595L31.6923 171.193L43.7174 163.969L43.0091 166.257L37.8077 157.598Z" fill="white"/>
<path d="M21.9649 133.79L24.7747 132.925L28.1305 143.823L25.3207 144.688L21.9649 133.79ZM25.9345 141.686L32.4652 140.774L31.1472 142.916L27.5874 131.355L30.6983 130.397L34.9378 144.165L27.0531 145.319L19.8853 148.8L15.6767 135.133L18.7875 134.175L22.3164 145.635L20.0218 144.606L25.9345 141.686Z" fill="white"/>
<path d="M12.6317 124.135L12.2497 120.185L27.9266 118.669L28.3086 122.619L12.6317 124.135ZM11.4271 111.677L11.045 107.727L26.7219 106.211L27.1039 110.162L11.4271 111.677ZM18.4185 121.361L17.2644 109.425L20.7342 109.09L21.8883 121.025L18.4185 121.361Z" fill="white"/>
<path d="M25.9367 96.7345L10.3063 94.7972L10.7868 90.9208L24.3748 92.605L24.0035 93.7228L11.8071 82.6888L12.4425 77.5621L28.0729 79.4994L27.5951 83.3549L13.7778 81.6423L14.1465 80.5453L26.5567 91.7328L25.9367 96.7345Z" fill="white"/>
<path d="M24.9263 54.939L27.7123 55.8781L24.0699 66.6837L21.2839 65.7446L24.9263 54.939ZM23.5355 63.667L29.3691 66.7414L27.0481 67.7098L30.912 56.2475L33.9964 57.2872L29.3947 70.9385L22.3214 67.2688L14.4699 65.9075L19.038 52.3557L22.1225 53.3955L18.2922 64.7583L17.0312 62.5825L23.5355 63.667Z" fill="white"/>
<path d="M39.8629 28.9297L39.4059 28.2171C40.1169 27.2106 40.8365 26.4798 41.5646 26.0248C42.3005 25.5581 43.0295 25.34 43.7516 25.3703C44.4699 25.3811 45.1542 25.6054 45.8047 26.0431C46.5132 26.5199 47.0368 27.1085 47.3755 27.8089C47.7025 28.5014 47.804 29.2785 47.6799 30.14C47.5636 30.9898 47.1811 31.8968 46.5324 32.8608L40.2014 42.269L34.1737 36.7447L27.1345 33.476L33.2427 24.3988C34.0556 23.1908 34.9693 22.4473 35.984 22.1682C36.9948 21.8697 37.9939 22.0527 38.9812 22.717C39.5271 23.0844 39.9638 23.5639 40.2913 24.1555C40.6188 24.7471 40.7692 25.4389 40.7424 26.2309C40.7041 27.0151 40.4109 27.9147 39.8629 28.9297ZM41.5806 38.4891L39.1859 38.7001L43.6528 32.0621C44.0357 31.4929 44.1992 30.9617 44.1431 30.4683C44.0832 29.9555 43.8035 29.5311 43.304 29.195C42.8046 28.8589 42.2885 28.7732 41.7558 28.9378C41.2194 29.0831 40.7167 29.5041 40.2477 30.201L36.5898 35.6369L34.29 34.0893L37.6665 29.0716C37.987 28.5954 38.1192 28.1106 38.0631 27.6172C37.9953 27.116 37.7234 26.7052 37.2471 26.3847C36.8638 26.1268 36.4564 26.0552 36.0249 26.1698C35.5896 26.265 35.2039 26.5623 34.8679 27.0617L30.8348 33.0551L30.1166 30.7747L36.2958 33.5913L41.5806 38.4891Z" fill="white"/>
<path d="M53.7179 17.7939L51.4626 15.5055L59.2102 7.86972L61.4655 10.1581L53.7179 17.7939ZM50.6614 3.14482L66.8922 9.26201L63.8858 12.2249L49.5525 6.56703L50.42 5.71205L55.884 20.1114L52.8627 23.089L46.997 6.75635L50.6614 3.14482Z" fill="white"/>
<path d="M88.6318 -9.89784L87.9848 -7.45778L80.939 -19.588L84.3711 -21.5815L92.2818 -7.96225L70.3639 4.76875L62.4532 -8.85047L65.8853 -10.844L72.9311 1.28621L70.491 0.639249L79.171 -4.40252L78.7419 -2.08903L71.6961 -14.2192L75.1282 -16.2127L82.174 -4.08254L79.8974 -4.82443L88.6318 -9.89784Z" fill="white"/>
<path d="M201.575 -4.22132L205.464 -9.65024L208.025 -7.81592L209.179 -6.93799L218.244 -0.444479L219.054 0.0839032L222.639 2.65196L218.75 8.08088L215.745 5.9286L217.604 3.33365L206.439 -4.664L204.58 -2.06905L201.575 -4.22132ZM215.303 -17.6882L227.561 -8.90788L219.074 2.94014L215.848 0.62889L223.368 -9.87044L223.768 -7.36279L215.01 -13.6362L217.112 -13.7579C216.792 -13.1431 216.456 -12.5658 216.104 -12.026C215.76 -11.4975 215.42 -10.9999 215.086 -10.5333C214.108 -9.16754 213.171 -8.09955 212.275 -7.32932C211.378 -6.5591 210.527 -6.09234 209.722 -5.92904C208.935 -5.76897 208.212 -5.92536 207.552 -6.39821L207.01 -8.49105C207.86 -8.69172 208.741 -9.18855 209.654 -9.98153C210.574 -10.7859 211.544 -11.8994 212.563 -13.3221C213.028 -13.9708 213.486 -14.6586 213.938 -15.3855C214.398 -16.1238 214.853 -16.8913 215.303 -17.6882Z" fill="white"/>
<path d="M231.502 10.6646L233.895 8.51985L241.156 16.6194L238.764 18.7642L231.502 10.6646ZM246.279 8.30334L239.402 24.2271L236.585 21.0842L242.913 7.03407L243.726 7.94097L229.085 12.7188L226.253 9.56031L242.845 4.47246L246.279 8.30334Z" fill="white"/>
<path d="M250.647 31.552C249.522 29.6312 249.157 27.8734 249.553 26.2784C249.949 24.6834 251.09 23.334 252.974 22.2301L256.526 20.1497L258.532 23.5743L255.252 25.4956C254.237 26.09 253.629 26.8111 253.428 27.659C253.247 28.5119 253.478 29.488 254.122 30.5872C254.497 31.2275 254.958 31.8494 255.507 32.4531C256.074 33.0617 256.702 33.635 257.39 34.1729L254.771 35.975C253.965 35.4574 253.207 34.8144 252.497 34.0458C251.794 33.2892 251.177 32.458 250.647 31.552ZM248.997 38.457L262.587 30.4962L264.593 33.9209L251.003 41.8817L248.997 38.457Z" fill="white"/>
<path d="M255.687 49.9213L270.668 45.0594L271.874 48.7746L258.851 53.0012L258.714 51.8313L274.434 56.6645L276.029 61.5782L261.048 66.4401L259.849 62.7448L273.092 58.4469L273.222 59.5969L257.243 54.7151L255.687 49.9213Z" fill="white"/>
</g>
</svg>
