<svg width="374" height="374" viewBox="0 0 382 382" fill="none" xmlns="http://www.w3.org/2000/svg">
<g filter="url(#filter0_b_964_2324)">
<path d="M261.664 112.025L82.4194 4L112.15 120.203L4 299.241L120.336 269.544L299.581 378L269.85 261.367L378 82.7595L261.664 112.025Z" fill="white" fill-opacity="0.01"/>
<path d="M261.664 112.025L82.4194 4L112.15 120.203L4 299.241L120.336 269.544L299.581 378L269.85 261.367L378 82.7595L261.664 112.025Z" stroke="white" stroke-width="3"/>
</g>
<path d="M229.922 147.501L131.194 88L147.569 152.005L88 250.619L152.078 234.262L250.806 294L234.431 229.758L294 131.381L229.922 147.501Z" fill="url(#paint0_linear_964_2324)"/>
<path d="M110.232 322.937L115.749 328.957L121.768 323.44L116.251 317.421L110.232 322.937ZM298.792 217C324.823 217 342.92 224.399 351.425 235.02C355.66 240.308 357.54 246.415 356.866 252.899C356.191 259.401 352.938 266.369 346.748 273.32C334.355 287.238 310.318 300.934 272.492 310.41C234.689 319.881 183.207 325.114 116.044 322.19L115.956 324.188C183.258 327.118 234.941 321.88 272.978 312.35C310.991 302.827 335.47 288.993 348.242 274.65C354.634 267.471 358.126 260.126 358.856 253.106C359.587 246.069 357.531 239.445 352.986 233.77C343.932 222.463 325.094 215 298.792 215V217Z" fill="white"/>
<path d="M287.768 174.937L282.251 180.957L276.232 175.44L281.749 169.421L287.768 174.937ZM99.208 69C73.1767 69 55.0803 76.399 46.5752 87.02C42.3402 92.3085 40.4601 98.4147 41.1337 104.899C41.8091 111.401 45.0621 118.369 51.2521 125.32C63.6455 139.238 87.6819 152.934 125.508 162.41C163.311 171.881 214.793 177.114 281.956 174.19L282.044 176.188C214.742 179.118 163.059 173.88 125.022 164.35C87.0088 154.827 62.5302 140.993 49.7584 126.65C43.3659 119.471 39.8737 112.126 39.1444 105.106C38.4135 98.0688 40.4694 91.445 45.014 85.7698C54.0682 74.4632 72.9058 67 99.208 67V69Z" fill="white"/>
<defs>
<filter id="filter0_b_964_2324" x="-11.1777" y="-11.1738" width="404.352" height="404.354" filterUnits="userSpaceOnUse" color-interpolation-filters="sRGB">
<feFlood flood-opacity="0" result="BackgroundImageFix"/>
<feGaussianBlur in="BackgroundImageFix" stdDeviation="6"/>
<feComposite in2="SourceAlpha" operator="in" result="effect1_backgroundBlur_964_2324"/>
<feBlend mode="normal" in="SourceGraphic" in2="effect1_backgroundBlur_964_2324" result="shape"/>
</filter>
<linearGradient id="paint0_linear_964_2324" x1="131.668" y1="88" x2="253.447" y2="293.886" gradientUnits="userSpaceOnUse">
<stop stop-color="#FFD916"/>
<stop offset="0.46875" stop-color="#FF1914"/>
<stop offset="1" stop-color="#6705FF"/>
</linearGradient>
</defs>
</svg>
