<svg width="225" height="224" viewBox="0 0 225 224" fill="none" xmlns="http://www.w3.org/2000/svg">
<path d="M210.037 123.786L210.777 124.198C210.626 125.421 210.337 126.405 209.91 127.15C209.482 127.909 208.943 128.446 208.292 128.76C207.654 129.09 206.944 129.216 206.164 129.137C205.315 129.052 204.575 128.78 203.946 128.323C203.33 127.867 202.874 127.23 202.576 126.412C202.277 125.608 202.186 124.628 202.302 123.472L203.437 112.189L211.359 114.21L219.108 113.765L218.013 124.651C217.867 126.1 217.413 127.187 216.651 127.913C215.901 128.653 214.934 128.964 213.75 128.845C213.095 128.779 212.484 128.563 211.915 128.196C211.347 127.829 210.888 127.291 210.537 126.58C210.201 125.871 210.034 124.939 210.037 123.786ZM204.007 116.172L206.018 114.855L205.217 122.816C205.149 123.498 205.256 124.044 205.538 124.452C205.833 124.876 206.28 125.118 206.879 125.178C207.478 125.238 207.974 125.07 208.365 124.673C208.769 124.292 209.014 123.683 209.098 122.847L209.753 116.328L212.511 116.606L211.906 122.623C211.849 123.194 211.961 123.684 212.244 124.092C212.54 124.502 212.974 124.736 213.545 124.793C214.005 124.839 214.398 124.71 214.724 124.405C215.063 124.116 215.262 123.671 215.322 123.072L216.045 115.885L217.756 117.555L210.979 117.992L204.007 116.172Z" fill="white"/>
<path d="M202.478 149.214C201.23 148.658 200.23 147.85 199.478 146.79C198.74 145.734 198.292 144.506 198.133 143.105C197.974 141.704 198.141 140.222 198.635 138.66C199.184 136.925 199.992 135.507 201.06 134.406C202.123 133.318 203.356 132.599 204.759 132.25C206.162 131.9 207.644 131.972 209.206 132.466C210.767 132.96 212.022 133.753 212.968 134.845C213.915 135.938 214.511 137.235 214.755 138.736C214.996 140.251 214.842 141.876 214.293 143.612C213.799 145.174 213.084 146.482 212.149 147.537C211.213 148.592 210.14 149.339 208.929 149.778C207.718 150.218 206.436 150.304 205.081 150.037L206.284 146.233C207.007 146.315 207.674 146.225 208.286 145.963C208.893 145.714 209.429 145.297 209.893 144.709C210.367 144.14 210.741 143.421 211.016 142.553C211.332 141.552 211.418 140.632 211.272 139.793C211.139 138.958 210.794 138.24 210.235 137.637C209.677 137.035 208.931 136.586 207.996 136.291C207.062 135.995 206.193 135.933 205.39 136.105C204.587 136.277 203.884 136.664 203.283 137.267C202.694 137.874 202.242 138.678 201.925 139.679C201.651 140.546 201.537 141.347 201.584 142.082C201.626 142.829 201.825 143.479 202.179 144.032C202.528 144.598 203.029 145.057 203.681 145.41L202.478 149.214Z" fill="white"/>
<path d="M196.979 165.478L194.409 164.048L199.954 154.084L202.523 155.514L196.979 165.478ZM199.932 157.148L194.754 153.065L197.212 152.534L191.33 163.104L188.486 161.521L195.491 148.933L201.78 153.826L209.253 156.591L202.3 169.088L199.455 167.505L205.286 157.027L206.131 159.396L199.932 157.148Z" fill="white"/>
<path d="M191.939 182.762L189.172 180.574L195.098 173.079L195.391 175.586L184.403 166.899L186.865 163.785L199.22 173.554L191.939 182.762Z" fill="white"/>
<path d="M178.025 170.631L182.41 175.668L180.034 177.736L178.914 178.656L170.504 185.978L169.803 186.644L166.477 189.54L162.092 184.503L164.879 182.076L166.975 184.484L177.334 175.466L175.238 173.058L178.025 170.631ZM187.961 187.096L176.589 196.997L167.019 186.005L170.012 183.399L178.493 193.139L175.961 192.949L184.086 185.876L183.719 187.949C183.195 187.496 182.711 187.036 182.267 186.568C181.832 186.112 181.426 185.667 181.049 185.234C179.946 183.967 179.123 182.808 178.58 181.759C178.038 180.709 177.78 179.773 177.807 178.952C177.833 178.15 178.152 177.482 178.764 176.949L180.926 176.905C180.925 177.778 181.205 178.75 181.766 179.821C182.336 180.902 183.196 182.103 184.345 183.423C184.869 184.024 185.432 184.629 186.035 185.236C186.647 185.854 187.289 186.474 187.961 187.096Z" fill="white"/>
<path d="M161.942 191.686L163.473 194.511L153.91 199.695L152.379 196.87L161.942 191.686ZM160.81 206.608L146.917 196.224L150.627 194.212L162.826 203.628L161.755 204.209L160.505 188.859L164.234 186.837L165.333 204.156L160.81 206.608Z" fill="white"/>
<path d="M129.723 210.456L129.052 207.593L140.153 204.989L140.825 207.851L129.723 210.456ZM137.872 207.034L137.408 200.456L139.454 201.917L127.678 204.68L126.935 201.511L140.96 198.221L141.573 206.166L144.557 213.554L130.634 216.821L129.891 213.652L141.565 210.913L140.381 213.132L137.872 207.034Z" fill="white"/>
<path d="M107.382 209.164C107.489 207.802 107.916 206.589 108.663 205.527C109.411 204.478 110.419 203.645 111.686 203.026C112.954 202.408 114.406 202.07 116.043 202.013C117.862 201.95 119.469 202.237 120.864 202.875C122.245 203.514 123.334 204.436 124.133 205.641C124.931 206.846 125.358 208.267 125.415 209.904C125.472 211.541 125.144 212.988 124.432 214.245C123.719 215.503 122.696 216.498 121.362 217.231C120.015 217.964 118.432 218.362 116.613 218.425C114.976 218.482 113.504 218.246 112.197 217.717C110.89 217.188 109.827 216.427 109.008 215.433C108.188 214.439 107.678 213.259 107.477 211.893L111.464 211.754C111.629 212.463 111.937 213.062 112.388 213.55C112.825 214.039 113.398 214.405 114.107 214.646C114.803 214.902 115.605 215.014 116.514 214.983C117.564 214.946 118.459 214.719 119.201 214.301C119.944 213.897 120.505 213.331 120.886 212.603C121.267 211.876 121.441 211.022 121.407 210.043C121.373 209.063 121.14 208.224 120.71 207.525C120.279 206.825 119.68 206.293 118.91 205.927C118.142 205.576 117.233 205.418 116.183 205.454C115.274 205.486 114.481 205.647 113.805 205.936C113.114 206.227 112.568 206.631 112.166 207.149C111.749 207.668 111.484 208.293 111.369 209.026L107.382 209.164Z" fill="white"/>
<path d="M97.407 215.345L93.4922 214.691L95.7966 200.896L99.7113 201.55L97.407 215.345ZM103.165 218.095L87.1534 215.421L87.7312 211.962L103.742 214.636L103.165 218.095Z" fill="white"/>
<path d="M88.3286 199.475L82.9064 214.262L79.1801 212.896L84.1323 199.39L85.2009 201.661L79.3255 199.506C78.6025 199.241 77.9699 199.218 77.4274 199.436C76.8719 199.65 76.4784 200.073 76.2471 200.704C76.0109 201.348 76.0357 201.931 76.3213 202.453C76.5938 202.97 77.0916 203.362 77.8145 203.627L84.0251 205.904L82.9479 208.842L76.5204 206.485C75.298 206.037 74.3301 205.443 73.6169 204.705C72.8856 203.974 72.4207 203.148 72.2223 202.225C72.0238 201.302 72.1101 200.335 72.4813 199.323C72.8476 198.324 73.4047 197.536 74.1526 196.961C74.9005 196.385 75.7919 196.048 76.8268 195.951C77.8437 195.861 78.9634 196.041 80.1858 196.489L88.3286 199.475Z" fill="white"/>
<path d="M51.0566 198.622C49.996 197.891 49.2123 197.079 48.7056 196.186C48.1795 195.297 47.941 194.384 47.9903 193.449C48.028 192.506 48.3487 191.597 48.9524 190.72C49.5561 189.844 50.2918 189.221 51.1596 188.849C52.0158 188.47 52.9573 188.362 53.9838 188.526C54.991 188.692 56.0248 189.141 57.0855 189.872L62.7575 193.78L60.9346 196.426L55.4354 192.637C54.8129 192.208 54.2197 192.02 53.6558 192.074C53.0839 192.139 52.6113 192.442 52.238 192.984C51.8647 193.526 51.7535 194.07 51.9043 194.616C52.0472 195.173 52.43 195.667 53.0525 196.096L58.2576 199.682L55.7393 200.191L63.9008 188.345L67.1692 190.597L58.2331 203.567L51.0566 198.622Z" fill="white"/>
<path d="M37.6739 178.293L39.7528 176.214L47.816 184.277L45.7371 186.356L37.6739 178.293ZM44.8758 183.416L50.2215 179.555L50.0582 182.065L41.505 173.512L43.8067 171.21L53.9933 181.397L47.5635 186.104L42.8563 192.534L32.744 182.421L35.0456 180.12L43.5245 188.598L41.015 188.762L44.8758 183.416Z" fill="white"/>
<path d="M26.8355 151.898L29.2848 152.509L17.2596 159.733L15.2158 156.331L28.7171 148.22L41.7694 169.948L28.2681 178.059L26.2243 174.656L38.2495 167.433L37.6385 169.882L32.4695 161.277L34.789 161.672L22.7639 168.896L20.7201 165.493L32.7452 158.27L32.0369 160.557L26.8355 151.898Z" fill="white"/>
<path d="M15.3281 135.71L18.1379 134.845L21.4937 145.743L18.6839 146.608L15.3281 135.71ZM19.2977 143.607L25.8284 142.694L24.5104 144.836L20.9506 133.276L24.0615 132.318L28.301 146.086L20.4163 147.239L13.2485 150.721L9.03984 137.053L12.1507 136.095L15.6795 147.555L13.385 146.526L19.2977 143.607Z" fill="white"/>
<path d="M7.61054 131.186L7.22853 127.235L22.9054 125.719L23.2874 129.67L7.61054 131.186ZM6.40589 118.728L6.02387 114.777L21.7008 113.261L22.0828 117.212L6.40589 118.728ZM13.3973 128.411L12.2432 116.475L15.713 116.14L16.8671 128.075L13.3973 128.411Z" fill="white"/>
<path d="M21.5276 110.058L5.89723 108.121L6.37769 104.244L19.9657 105.928L19.5944 107.046L7.39801 96.0122L8.03345 90.8854L23.6638 92.8227L23.186 96.6782L9.3687 94.9656L9.73744 93.8686L22.1476 105.056L21.5276 110.058Z" fill="white"/>
<path d="M19.6863 74.5982L22.4722 75.5373L18.8298 86.3429L16.0438 85.4038L19.6863 74.5982ZM18.2954 83.3262L24.129 86.4007L21.8081 87.369L25.6719 75.9068L28.7563 76.9465L24.1547 90.5978L17.0813 86.9281L9.22979 85.5668L13.7979 72.015L16.8824 73.0547L13.0521 84.4175L11.7911 82.2417L18.2954 83.3262Z" fill="white"/>
<path d="M32.016 55.5585L31.559 54.846C32.27 53.8395 32.9896 53.1087 33.7177 52.6536C34.4536 52.187 35.1826 51.9688 35.9046 51.9991C36.6229 52.01 37.3073 52.2343 37.9578 52.672C38.6663 53.1487 39.1899 53.7373 39.5285 54.4377C39.8556 55.1303 39.9571 55.9073 39.833 56.7688C39.7167 57.6187 39.3342 58.5256 38.6855 59.4897L32.3545 68.8979L26.3268 63.3736L19.2876 60.1048L25.3958 51.0276C26.2087 49.8197 27.1224 49.0762 28.1371 48.7971C29.1479 48.4986 30.147 48.6815 31.1343 49.3459C31.6802 49.7132 32.1169 50.1927 32.4444 50.7843C32.7719 51.376 32.9223 52.0678 32.8955 52.8598C32.8572 53.644 32.564 54.5435 32.016 55.5585ZM33.7337 65.1179L31.339 65.3289L35.8059 58.6909C36.1888 58.1218 36.3523 57.5905 36.2962 57.0972C36.2362 56.5844 35.9566 56.1599 35.4571 55.8238C34.9577 55.4877 34.4416 55.402 33.9089 55.5667C33.3725 55.7119 32.8697 56.133 32.4008 56.8299L28.7429 62.2657L26.4431 60.7182L29.8196 55.7005C30.1401 55.2242 30.2723 54.7394 30.2161 54.2461C30.1484 53.7449 29.8764 53.334 29.4002 53.0136C29.0169 52.7557 28.6095 52.684 28.178 52.7986C27.7427 52.8938 27.357 53.1911 27.0209 53.6906L22.9879 59.684L22.2697 57.4035L28.4488 60.2201L33.7337 65.1179Z" fill="white"/>
<path d="M42.641 49.2494L40.3856 46.961L48.1332 39.3252L50.3886 41.6135L42.641 49.2494ZM39.5844 34.6002L55.8152 40.7174L52.8089 43.6804L38.4755 38.0225L39.343 37.1675L44.807 51.5668L41.7858 54.5445L35.92 38.2118L39.5844 34.6002Z" fill="white"/>
<path d="M73.5212 25.8239L72.8743 28.264L65.8284 16.1338L69.2605 14.1403L77.1712 27.7595L55.2534 40.4905L47.3426 26.8713L50.7747 24.8778L57.8205 37.008L55.3804 36.361L64.0604 31.3193L63.6314 33.6328L56.5855 21.5026L60.0176 19.5091L67.0634 31.6393L64.7868 30.8974L73.5212 25.8239Z" fill="white"/>
<path d="M90.2915 14.3865L91.1034 17.2122L80.1439 20.3613L79.332 17.5356L90.2915 14.3865ZM82.3214 18.2061L83.11 24.7529L80.9936 23.3946L92.6192 20.0541L93.5181 23.1826L79.6723 27.1609L78.6682 19.2558L75.3228 12.0234L89.0676 8.07405L89.9665 11.2025L78.4419 14.5139L79.5144 12.2393L82.3214 18.2061Z" fill="white"/>
<path d="M95.7346 22.4385L94.5207 6.73538L98.4151 6.43434L99.4703 20.0856L98.301 19.9443L106.685 5.79505L111.836 5.39691L113.05 21.1001L109.176 21.3995L108.103 7.51789L109.252 7.66081L100.76 22.0501L95.7346 22.4385ZM97.5694 1.76062L100.71 1.51785C100.914 1.97949 101.193 2.32298 101.548 2.54834C101.915 2.75866 102.35 2.84439 102.853 2.80555C103.383 2.76455 103.807 2.61246 104.123 2.34927C104.439 2.07212 104.662 1.68978 104.793 1.20225L107.933 0.959481C107.725 2.25343 107.182 3.22913 106.306 3.8866C105.444 4.54298 104.35 4.92243 103.024 5.02493C101.712 5.12635 100.573 4.91955 99.6062 4.40451C98.6396 3.88947 97.9607 3.00817 97.5694 1.76062Z" fill="white"/>
<path d="M129.915 23.427C128.31 23.0956 126.952 22.579 125.839 21.8773C124.726 21.1755 123.918 20.344 123.416 19.3825C122.917 18.4074 122.755 17.3589 122.93 16.237L126.817 17.0401C126.759 17.8717 127.042 18.5805 127.664 19.1665C128.289 19.7389 129.246 20.1582 130.535 20.4245C131.741 20.6737 132.709 20.695 133.438 20.4882C134.181 20.2843 134.623 19.8395 134.764 19.154C134.886 18.5645 134.694 18.0745 134.189 17.6842C133.683 17.2938 132.8 16.9683 131.539 16.7077L128.66 16.1128L129.195 13.5215L132.012 14.1037C132.753 14.2567 133.378 14.3073 133.89 14.2556C134.414 14.2068 134.821 14.0694 135.111 13.8433C135.401 13.6173 135.583 13.326 135.656 12.9695C135.741 12.5582 135.676 12.1803 135.462 11.8357C135.247 11.4911 134.9 11.1979 134.421 10.956C133.945 10.7003 133.351 10.4989 132.638 10.3516C131.472 10.1108 130.503 10.1321 129.73 10.4154C128.973 10.688 128.455 11.1885 128.176 11.9171L124.33 11.1225C124.605 10.1358 125.142 9.30312 125.939 8.62451C126.751 7.94874 127.789 7.49132 129.054 7.25225C130.335 7.00229 131.798 7.04729 133.443 7.38723C134.896 7.68751 136.119 8.13322 137.112 8.72436C138.105 9.3155 138.83 9.99417 139.286 10.7604C139.757 11.5294 139.904 12.3389 139.728 13.189C139.584 13.8882 139.238 14.4887 138.691 14.9904C138.158 15.495 137.41 15.8266 136.448 15.9852C135.5 16.1467 134.328 16.0761 132.933 15.7734L133.018 15.3621C134.362 15.5683 135.48 15.8994 136.372 16.3554C137.281 16.8005 137.932 17.3496 138.326 18.0029C138.734 18.6589 138.85 19.412 138.674 20.262C138.481 21.1943 138.008 21.9615 137.255 22.5635C136.505 23.1518 135.504 23.5312 134.254 23.7017C133.02 23.8614 131.573 23.7698 129.915 23.427Z" fill="white"/>
<path d="M143.942 23.4607L145.205 20.5062L155.208 24.7812L153.945 27.7356L143.942 23.4607ZM156.339 15.0793L156.831 32.4176L152.95 30.7588L152.752 15.3505L153.872 15.8291L142.619 26.3436L138.718 24.6765L151.608 13.0574L156.339 15.0793Z" fill="white"/>
<path d="M154.054 34.2778L157.943 28.8489L160.504 30.6832L161.657 31.5611L170.723 38.0546L171.533 38.583L175.118 41.1511L171.229 46.58L168.224 44.4277L170.083 41.8327L158.918 33.8351L157.059 36.4301L154.054 34.2778ZM167.782 20.8109L180.04 29.5912L171.553 41.4392L168.327 39.128L175.847 28.6287L176.247 31.1363L167.489 24.8629L169.591 24.7412C169.271 25.356 168.935 25.9333 168.583 26.4731C168.239 27.0016 167.899 27.4992 167.565 27.9658C166.587 29.3316 165.65 30.3996 164.753 31.1698C163.857 31.94 163.006 32.4068 162.201 32.5701C161.414 32.7301 160.691 32.5737 160.031 32.1009L159.489 30.0081C160.339 29.8074 161.22 29.3106 162.133 28.5176C163.053 27.7132 164.023 26.5997 165.042 25.177C165.507 24.5283 165.965 23.8405 166.417 23.1136C166.877 22.3753 167.332 21.6078 167.782 20.8109Z" fill="white"/>
<path d="M178.44 45.142L180.832 42.9972L188.094 51.0968L185.701 53.2416L178.44 45.142ZM193.217 42.7807L186.34 58.7045L183.523 55.5616L189.851 41.5115L190.664 42.4184L176.023 47.1962L173.191 44.0377L189.783 38.9499L193.217 42.7807Z" fill="white"/>
<path d="M193.676 61.69C192.551 59.7693 192.186 58.0114 192.582 56.4164C192.978 54.8215 194.119 53.472 196.003 52.3681L199.555 50.2877L201.561 53.7124L198.281 55.6336C197.266 56.228 196.659 56.9491 196.458 57.797C196.276 58.6499 196.507 59.626 197.151 60.7253C197.526 61.3655 197.987 61.9874 198.536 62.5911C199.103 63.1997 199.731 63.773 200.419 64.3109L197.8 66.113C196.994 65.5955 196.236 64.9524 195.526 64.1838C194.823 63.4272 194.206 62.596 193.676 61.69ZM192.026 68.595L205.616 60.6342L207.622 64.0589L194.032 72.0197L192.026 68.595Z" fill="white"/>
<path d="M195.666 74.9133L210.646 70.0514L211.852 73.7667L198.829 77.9932L198.692 76.8233L214.413 81.6565L216.007 86.5703L201.027 91.4321L199.827 87.7369L213.07 83.439L213.201 84.5889L197.221 79.7072L195.666 74.9133Z" fill="white"/>
</svg>
