<svg width="910" height="465" viewBox="0 0 910 465" fill="none" xmlns="http://www.w3.org/2000/svg">
<g filter="url(#filter0_f_2310_75)">
<path d="M324.167 605.439C288.363 568.571 260.388 524.873 243.52 479.465C226.653 434.058 221.59 388.823 228.927 349.06C236.263 309.298 255.695 276.655 284.944 254.957C314.194 233.259 352.049 223.405 394.075 226.55C436.101 229.695 480.556 245.707 522.232 272.712C563.907 299.717 601.076 336.594 629.383 379.024C657.69 421.453 675.962 467.677 682.059 512.278C688.155 556.879 681.824 598.011 663.806 630.852L537.314 530.557C544.418 517.609 546.914 501.393 544.51 483.809C542.107 466.224 534.902 448 523.742 431.272C512.582 414.544 497.928 400.004 481.497 389.358C465.066 378.711 447.539 372.398 430.97 371.158C414.401 369.918 399.476 373.803 387.945 382.358C376.413 390.912 368.752 403.782 365.859 419.459C362.967 435.135 364.963 452.97 371.613 470.872C378.263 488.774 389.293 506.002 403.408 520.538L324.167 605.439Z" fill="url(#paint0_radial_2310_75)"/>
</g>
<defs>
<filter id="filter0_f_2310_75" x="0.655273" y="0.976562" width="908.658" height="854.875" filterUnits="userSpaceOnUse" color-interpolation-filters="sRGB">
<feFlood flood-opacity="0" result="BackgroundImageFix"/>
<feBlend mode="normal" in="SourceGraphic" in2="BackgroundImageFix" result="shape"/>
<feGaussianBlur stdDeviation="112.5" result="effect1_foregroundBlur_2310_75"/>
</filter>
<radialGradient id="paint0_radial_2310_75" cx="0" cy="0" r="1" gradientUnits="userSpaceOnUse" gradientTransform="translate(537.28 607.573) rotate(-127.332) scale(475.104 337.333)">
<stop stop-color="#FFD916"/>
<stop offset="0.473958" stop-color="#FF1914"/>
<stop offset="1" stop-color="#6705FF"/>
</radialGradient>
</defs>
</svg>
