<svg width="276" height="108" viewBox="0 0 276 108" fill="none" xmlns="http://www.w3.org/2000/svg">
<path d="M0.226497 102L6 107.774L11.7735 102L6 96.2265L0.226497 102ZM170.977 2.76154C202.322 0.0231318 230.545 4.89994 249.512 13.6932C259.001 18.0927 266.095 23.4361 270.14 29.2189C274.156 34.9611 275.168 41.1248 272.562 47.3724C269.929 53.6877 263.536 60.2403 252.391 66.5131C241.261 72.7768 225.493 78.7038 204.284 83.8193C161.868 94.0498 97.8399 101 6 101L6 103C97.9184 103 162.121 96.0459 204.753 85.7635C226.067 80.6226 242.026 74.641 253.372 68.256C264.701 61.8801 271.53 55.0439 274.408 48.1422C277.314 41.173 276.128 34.2916 271.779 28.0727C267.458 21.8943 260.02 16.3605 250.353 11.8787C231.006 2.90925 202.42 -1.99302 170.803 0.769132L170.977 2.76154Z" fill="white"/>
</svg>
