<svg width="463" height="348" viewBox="0 0 463 348" fill="none" xmlns="http://www.w3.org/2000/svg">
<path d="M390.456 340.709C383.688 347.221 372.818 348.947 358.795 346.317C344.787 343.689 327.75 336.732 308.798 326.05C277.824 308.593 241.807 281.227 205.656 246.713C215.922 246.334 226.383 245.734 236.994 244.906C282.385 241.361 324.428 234.092 359.652 224.45C367.208 236.228 373.76 247.578 379.207 258.304C389.073 277.728 395.305 295.082 397.348 309.222C399.392 323.378 397.225 334.197 390.456 340.709ZM236.916 243.909C225.983 244.763 215.21 245.372 204.648 245.749C196.901 238.325 189.15 230.574 181.444 222.522C149.74 189.401 123.125 155.737 103.345 124.978C138.549 115.32 180.626 108.031 226.084 104.481C236.714 103.651 247.192 103.052 257.473 102.673C265.418 110.27 273.369 118.212 281.273 126.47C312.824 159.431 339.335 192.93 359.085 223.568C323.997 233.149 282.129 240.378 236.916 243.909ZM102.335 125.257C122.175 156.152 148.894 189.963 180.721 223.214C188.205 231.032 195.73 238.568 203.255 245.798C152.662 247.509 106.974 243.872 71.8157 236.134C50.4083 231.422 32.9333 225.196 20.635 217.75C8.32406 210.296 1.29863 201.684 0.564067 192.229C-0.170509 182.774 5.44025 173.175 16.4517 163.9C27.4518 154.635 43.7545 145.771 64.176 137.793C75.6713 133.302 88.463 129.095 102.335 125.257ZM226.006 103.484C180.37 107.048 138.119 114.377 102.779 124.097C95.3433 112.477 88.8885 101.279 83.5096 90.6885C73.6442 71.2641 67.4118 53.9104 65.3693 39.7697C63.3246 25.6139 65.4922 14.795 72.2608 8.28275C79.029 1.77091 89.899 0.0449257 103.922 2.67549C117.93 5.3033 134.967 12.2605 153.919 22.9422C184.722 40.3032 220.514 67.4641 256.464 101.71C246.481 102.091 236.314 102.679 226.006 103.484ZM258.867 102.623C309.808 100.84 355.822 104.473 391.184 112.257C412.592 116.968 430.067 123.195 442.365 130.641C454.676 138.094 461.701 146.706 462.436 156.161C463.171 165.616 457.56 175.215 446.548 184.49C435.548 193.755 419.246 202.619 398.824 210.598C387.172 215.15 374.187 219.41 360.096 223.291C340.286 192.516 313.671 158.87 281.996 125.778C274.315 117.754 266.589 110.027 258.867 102.623Z" stroke="url(#paint0_linear_1555_6456)"/>
<defs>
<linearGradient id="paint0_linear_1555_6456" x1="252.64" y1="1.20221" x2="177.91" y2="325.157" gradientUnits="userSpaceOnUse">
<stop/>
<stop offset="0.526259" stop-opacity="0.13"/>
<stop offset="1" stop-opacity="0"/>
</linearGradient>
</defs>
</svg>
