<svg width="224" height="222" viewBox="0 0 224 222" fill="none" xmlns="http://www.w3.org/2000/svg">
<path d="M202.113 129.774L202.262 128.563L215.028 134.323L214.478 138.265L200.271 131.537L200.938 126.763L214.48 124.069L214.262 125.634L201.972 119.355L202.641 114.561L218.146 111.98L217.594 115.941L203.758 117.989L203.943 116.803L216.587 123.152L216.034 127.113L202.113 129.774Z" fill="white"/>
<path d="M202.413 152.114L199.803 151.101L203.732 140.976L206.342 141.99L202.413 152.114ZM204.111 143.87L198.693 140.694L200.943 139.872L196.775 150.612L193.885 149.49L198.849 136.7L205.421 140.495L212.832 142.127L207.904 154.824L205.014 153.703L209.146 143.056L210.253 145.181L204.111 143.87Z" fill="white"/>
<path d="M191.134 160.651L193.628 162.424L187.626 170.868L185.132 169.095L191.134 160.651ZM196.426 173.884L180.19 170.834L182.519 167.558L196.899 170.491L196.227 171.436L188.718 158.836L191.059 155.543L199.265 169.89L196.426 173.884Z" fill="white"/>
<path d="M187.628 184.238L178.278 174.751L180.654 174.74L172.649 182.63L170.304 180.251L179.791 170.901L190.321 181.585L187.628 184.238Z" fill="white"/>
<path d="M154.78 192.545L155.808 191.889L159.501 205.399L156.112 207.486L152.248 192.249L156.352 189.721L167.056 198.444L165.711 199.273L162.722 185.799L166.843 183.261L178.71 193.569L175.304 195.666L164.913 186.305L165.945 185.693L169.106 199.484L165.7 201.581L154.78 192.545Z" fill="white"/>
<path d="M145.451 198.297L146.396 201.208L136.542 204.406L135.597 201.496L145.451 198.297ZM141.806 212.075L130.594 199.944L134.417 198.703L144.21 209.634L143.107 209.992L144.595 195.4L148.438 194.153L146.467 210.563L141.806 212.075Z" fill="white"/>
<path d="M124.572 200.503L125.437 207.711L121.684 208.162L120.819 200.954L124.572 200.503ZM133.349 214.557L129.199 215.055L122.79 208.654L124.518 208.446L119.807 216.183L115.656 216.681L122.118 206.075L124.536 205.745L133.349 214.557Z" fill="white"/>
<path d="M112.773 206.617L108.963 206.337C108.93 205.88 108.753 205.466 108.433 205.095C108.112 204.724 107.673 204.424 107.115 204.196C106.544 203.967 105.872 203.824 105.101 203.767C103.997 203.686 103.122 203.776 102.474 204.036C101.814 204.295 101.463 204.703 101.422 205.262C101.39 205.687 101.553 206.027 101.908 206.28C102.25 206.546 102.915 206.769 103.905 206.948L106.775 207.46C108.768 207.807 110.19 208.379 111.041 209.177C111.878 209.974 112.25 211.004 112.158 212.267C112.084 213.264 111.729 214.094 111.093 214.756C110.442 215.416 109.572 215.894 108.481 216.188C107.376 216.481 106.106 216.575 104.67 216.47C103.247 216.365 102.005 216.067 100.945 215.575C99.8851 215.082 99.0561 214.447 98.4583 213.668C97.8604 212.888 97.571 212.005 97.59 211.017L101.4 211.297C101.423 211.713 101.583 212.072 101.882 212.375C102.166 212.69 102.569 212.947 103.089 213.145C103.595 213.356 104.213 213.488 104.945 213.542C105.955 213.616 106.771 213.529 107.391 213.281C107.996 213.044 108.318 212.66 108.358 212.128C108.387 211.729 108.237 211.404 107.908 211.153C107.565 210.9 106.946 210.688 106.05 210.515L103.023 209.952C101.637 209.703 100.537 209.388 99.7229 209.008C98.9086 208.627 98.3358 208.144 98.0044 207.558C97.6731 206.972 97.5387 206.254 97.6012 205.403C97.6764 204.379 98.0548 203.504 98.7364 202.779C99.4037 202.066 100.312 201.537 101.46 201.194C102.595 200.849 103.9 200.731 105.376 200.84C106.905 200.952 108.232 201.27 109.357 201.794C110.468 202.317 111.328 202.988 111.936 203.808C112.53 204.64 112.809 205.577 112.773 206.617Z" fill="white"/>
<path d="M85.5916 213.449L82.0142 212.228L86.8592 198.032L90.4366 199.253L85.5916 213.449ZM74.3105 209.599L70.7331 208.378L75.5781 194.182L79.1555 195.403L74.3105 209.599ZM85.4582 207.338L74.6503 203.65L75.7226 200.507L86.5305 204.196L85.4582 207.338Z" fill="white"/>
<path d="M69.1151 194.301L67.5684 196.941L58.6293 191.705L60.1759 189.064L69.1151 194.301ZM56.3986 200.736L58.0094 184.295L61.478 186.327L59.8203 200.909L58.8194 200.323L70.7106 191.735L74.1965 193.777L60.6266 203.212L56.3986 200.736Z" fill="white"/>
<path d="M50.2881 179.572L51.5171 180.658L38.2314 186.694L35.2488 184.059L50.4562 177.479L53.6487 180.299L49.0081 196.215L45.9654 193.527L50.2881 179.572Z" fill="white"/>
<path d="M30.034 167.747L32.2367 166.018L38.9412 174.561L36.7385 176.29L30.034 167.747ZM36.2594 173.412L41.7542 170.371L41.3136 172.725L34.2016 163.662L36.6404 161.749L45.1105 172.542L38.4942 176.26L33.3102 181.802L24.9018 171.088L27.3406 169.174L34.3908 178.158L31.9993 178.026L36.2594 173.412Z" fill="white"/>
<path d="M28.5592 153.934L25.7683 155.189L21.52 145.74L24.3109 144.485L28.5592 153.934ZM14.4671 151.806L25.3103 139.343L26.9587 143.01L17.1547 153.931L16.679 152.873L31.3464 152.769L33.0031 156.454L16.4764 156.275L14.4671 151.806Z" fill="white"/>
<path d="M19.1206 135.187L18.4768 131.421C18.9124 131.279 19.2719 131.008 19.5551 130.608C19.8384 130.208 20.0237 129.709 20.1111 129.113C20.1962 128.503 20.1736 127.817 20.0433 127.055C19.8568 125.964 19.5596 125.136 19.1517 124.57C18.7415 123.99 18.2605 123.748 17.7085 123.842C17.2879 123.914 16.9974 124.153 16.8369 124.559C16.661 124.955 16.6047 125.654 16.6681 126.658L16.8612 129.567C17.0034 131.585 16.7894 133.103 16.2194 134.12C15.6471 135.124 14.7367 135.733 13.4882 135.947C12.5025 136.115 11.6119 135.97 10.8165 135.511C10.0188 135.038 9.34606 134.308 8.79829 133.32C8.24828 132.318 7.85193 131.107 7.60923 129.688C7.36879 128.282 7.36014 127.005 7.5833 125.858C7.80645 124.71 8.22439 123.753 8.83713 122.985C9.44986 122.218 10.238 121.724 11.2016 121.506L11.8454 125.271C11.4469 125.393 11.1367 125.636 10.9146 125.998C10.6772 126.35 10.5245 126.802 10.4567 127.355C10.3735 127.897 10.3937 128.529 10.5173 129.252C10.6881 130.251 10.9686 131.021 11.3589 131.563C11.7337 132.094 12.184 132.315 12.7097 132.225C13.104 132.157 13.3836 131.934 13.5486 131.554C13.7114 131.161 13.7689 130.508 13.7213 129.597L13.5407 126.523C13.4493 125.118 13.4905 123.975 13.6644 123.093C13.8382 122.211 14.1697 121.539 14.6588 121.077C15.1478 120.614 15.8129 120.311 16.6541 120.167C17.666 119.994 18.606 120.152 19.4739 120.639C20.3264 121.115 21.0573 121.87 21.6666 122.902C22.2737 123.921 22.7019 125.16 22.9514 126.618C23.2098 128.13 23.2199 129.494 22.9817 130.712C22.7412 131.916 22.2961 132.912 21.6461 133.7C20.9808 134.476 20.139 134.972 19.1206 135.187Z" fill="white"/>
<path d="M21.6008 108.946C21.5465 110.705 21.1722 112.241 20.478 113.553C19.7843 114.853 18.8397 115.851 17.6443 116.547C16.4489 117.244 15.0715 117.568 13.5123 117.52C11.953 117.472 10.5983 117.063 9.44818 116.294C8.29804 115.525 7.41684 114.471 6.80457 113.131C6.19271 111.778 5.91394 110.222 5.96828 108.463C6.02261 106.704 6.39667 105.175 7.09044 103.876C7.78462 102.563 8.72942 101.558 9.92484 100.862C11.1207 100.152 12.4982 99.8206 14.0575 99.8687C15.6167 99.9169 16.9712 100.332 18.1209 101.115C19.2711 101.884 20.1521 102.945 20.7639 104.298C21.3762 105.637 21.6552 107.187 21.6008 108.946ZM18.2224 108.842C18.2545 107.802 18.1089 106.904 17.7854 106.147C17.4486 105.389 16.9533 104.8 16.2993 104.38C15.6457 103.946 14.8591 103.715 13.9395 103.687C13.02 103.659 12.2206 103.841 11.5415 104.233C10.8628 104.612 10.3387 105.17 9.96915 105.905C9.58627 106.641 9.37878 107.528 9.34667 108.567C9.31497 109.594 9.46751 110.485 9.80429 111.243C10.1277 112 10.6163 112.595 11.2699 113.029C11.9234 113.463 12.71 113.694 13.6296 113.722C14.5491 113.751 15.3485 113.568 16.0276 113.176C16.7067 112.783 17.2377 112.219 17.6206 111.484C17.9901 110.749 18.1907 109.868 18.2224 108.842Z" fill="white"/>
<path d="M8.17039 90.6199L21.1722 93.5138L19.1825 94.8126L21.6245 83.8411L24.8848 84.5667L21.9908 97.5686L7.34914 94.3096L8.17039 90.6199Z" fill="white"/>
<path d="M20.4935 77.2383C21.169 77.524 21.8129 77.6444 22.4255 77.5995C23.031 77.5371 23.5753 77.3112 24.0584 76.922C24.5292 76.5276 24.9204 75.962 25.2321 75.2252C25.5437 74.4884 25.6771 73.8137 25.6322 73.2012C25.575 72.5834 25.3553 72.0417 24.9732 71.5761C24.5839 71.093 24.0516 70.7086 23.3762 70.4229L15.6766 67.1662L17.1491 63.6848L25.0145 67.0116C26.2671 67.5414 27.238 68.2923 27.9271 69.2642C28.6163 70.2361 29.0067 71.3495 29.0985 72.6043C29.1779 73.854 28.9268 75.1665 28.3451 76.5419C27.7634 77.9173 26.9965 79.0116 26.0444 79.825C25.0801 80.6332 24.0092 81.1285 22.8318 81.3109C21.6544 81.4933 20.4394 81.3196 19.1868 80.7898L11.3214 77.4631L12.7939 73.9817L20.4935 77.2383Z" fill="white"/>
<path d="M23.8473 55.586L25.9346 52.4346L37.0397 59.7898L34.9524 62.9413L23.8473 55.586ZM19.2219 59.5272L27.7588 46.638L30.5434 48.4824L22.0065 61.3716L19.2219 59.5272Z" fill="white"/>
<path d="M30.2357 43.8679L32.7074 41.008L44.0563 50.8162L41.5846 53.6762L30.2357 43.8679Z" fill="white"/>
<path d="M52.0297 43.3116C50.6981 44.4624 49.3143 45.2266 47.8783 45.6041C46.4524 45.973 45.0784 45.9533 43.7564 45.545C42.4343 45.1368 41.2632 44.3425 40.2432 43.1623C39.2231 41.982 38.6069 40.7082 38.3945 39.3409C38.1821 37.9737 38.3617 36.6113 38.9332 35.2539C39.5148 33.8878 40.4714 32.6293 41.803 31.4784C43.1346 30.3276 44.5133 29.5678 45.9393 29.199C47.3753 28.8214 48.7543 28.8368 50.0763 29.245C51.4085 29.6445 52.5846 30.4344 53.6047 31.6147C54.6247 32.795 55.2359 34.0731 55.4382 35.4491C55.6506 36.8163 55.466 38.183 54.8844 39.5492C54.3129 40.9066 53.3613 42.1607 52.0297 43.3116ZM49.8196 40.7543C50.6065 40.0743 51.169 39.359 51.5072 38.6085C51.8368 37.8478 51.9349 37.0846 51.8016 36.3186C51.6784 35.5439 51.316 34.8086 50.7145 34.1125C50.1129 33.4164 49.4378 32.9513 48.6891 32.7172C47.9506 32.4744 47.1855 32.4659 46.3939 32.6919C45.5936 32.9077 44.8 33.3557 44.0131 34.0357C43.2363 34.707 42.6832 35.423 42.3537 36.1836C42.0154 36.9341 41.9079 37.6967 42.0311 38.4714C42.1543 39.2461 42.5167 39.9814 43.1182 40.6775C43.7198 41.3736 44.3949 41.8387 45.1436 42.0728C45.8922 42.3069 46.6667 42.316 47.467 42.1002C48.2586 41.8742 49.0428 41.4256 49.8196 40.7543Z" fill="white"/>
<path d="M71.1655 26.9733L70.2006 27.7517L64.1362 16.6615L67.3475 14.9055L74.5442 28.0663L70.3678 30.3501L56.284 23.645L57.2489 22.8667L63.4189 34.1499L60.2076 35.9059L53.0109 22.7451L57.3101 20.3941L71.1655 26.9733Z" fill="white"/>
<path d="M84.4231 10.6687L88.0931 9.76335L91.2832 22.6957L87.6133 23.601L84.4231 10.6687ZM78.3507 10.4362L93.3608 6.73357L94.1607 9.97636L79.1507 13.679L78.3507 10.4362Z" fill="white"/>
<path d="M106.606 20.8421C104.847 20.9236 103.287 20.6689 101.925 20.0779C100.576 19.4864 99.5085 18.6216 98.7216 17.4835C97.9348 16.3453 97.5052 14.9971 97.433 13.4388C97.3608 11.8804 97.6638 10.4983 98.342 9.29225C99.0203 8.08623 100.004 7.12635 101.292 6.41261C102.594 5.69825 104.123 5.30034 105.882 5.21887C107.64 5.13739 109.193 5.39242 110.542 5.98395C111.904 6.57486 112.979 7.43938 113.765 8.57751C114.566 9.71502 115.002 11.0629 115.074 12.6213C115.146 14.1796 114.837 15.5621 114.145 16.7687C113.467 17.9747 112.477 18.9349 111.175 19.6493C109.887 20.363 108.364 20.7606 106.606 20.8421ZM106.449 17.4657C107.488 17.4176 108.372 17.2031 109.102 16.8222C109.831 16.428 110.38 15.8887 110.749 15.2042C111.131 14.5192 111.301 13.7171 111.258 12.7981C111.216 11.8791 110.972 11.0962 110.529 10.4494C110.098 9.80192 109.502 9.32233 108.74 9.0106C107.978 8.68555 107.077 8.5471 106.038 8.59524C105.012 8.64277 104.135 8.86362 103.406 9.2578C102.676 9.63866 102.12 10.1716 101.738 10.8567C101.356 11.5418 101.186 12.3439 101.229 13.2629C101.272 14.1819 101.515 14.9648 101.958 15.6116C102.402 16.2584 103.005 16.7444 103.768 17.0694C104.53 17.3811 105.424 17.5132 106.449 17.4657Z" fill="white"/>
<path d="M129.082 21.9971L130.66 14.9106L134.349 15.7318L132.772 22.8184L129.082 21.9971ZM125.469 5.82592L129.549 6.73408L133.469 14.9007L131.77 14.5226L138.783 8.78938L142.864 9.69753L133.247 17.5558L130.856 17.0648L125.469 5.82592Z" fill="white"/>
<path d="M148.137 28.3304C146.535 27.6027 145.262 26.6658 144.318 25.5197C143.386 24.379 142.829 23.1229 142.646 21.7514C142.464 20.3798 142.695 18.9838 143.34 17.5634C143.985 16.143 144.884 15.0502 146.037 14.2851C147.189 13.5199 148.502 13.1128 149.974 13.0637C151.458 13.0201 153.001 13.3621 154.604 14.0898C156.206 14.8175 157.474 15.7517 158.405 16.8923C159.349 18.0384 159.912 19.2973 160.095 20.6688C160.29 22.0459 160.065 23.4446 159.42 24.8651C158.775 26.2855 157.87 27.3755 156.705 28.1351C155.552 28.9003 154.233 29.3047 152.749 29.3483C151.277 29.3974 149.74 29.0581 148.137 28.3304ZM149.535 25.2528C150.482 25.6828 151.367 25.8944 152.19 25.8874C153.019 25.8683 153.753 25.638 154.393 25.1964C155.045 24.7602 155.561 24.1233 155.942 23.2857C156.322 22.448 156.462 21.6402 156.361 20.8623C156.272 20.0899 155.96 19.3915 155.423 18.7671C154.892 18.1306 154.153 17.5974 153.206 17.1674C152.272 16.7429 151.39 16.5402 150.561 16.5593C149.738 16.5662 149 16.7877 148.348 17.2239C147.696 17.66 147.18 18.2969 146.8 19.1346C146.419 19.9722 146.28 20.78 146.38 21.5579C146.481 22.3359 146.797 23.0431 147.328 23.6796C147.864 24.3039 148.6 24.8283 149.535 25.2528Z" fill="white"/>
<path d="M165.097 29.5422C164.665 30.1352 164.402 30.7351 164.307 31.3419C164.23 31.9458 164.327 32.5271 164.596 33.0859C164.874 33.6339 165.336 34.1432 165.983 34.6138C166.63 35.0844 167.257 35.3672 167.863 35.4624C168.478 35.5468 169.055 35.4556 169.596 35.1891C170.154 34.9195 170.649 34.4883 171.081 33.8952L175.999 27.1347L179.055 29.3582L174.032 36.2644C173.232 37.3642 172.28 38.1395 171.177 38.5903C170.075 39.0411 168.902 39.1689 167.659 38.9738C166.424 38.7678 165.202 38.2256 163.995 37.3471C162.787 36.4687 161.895 35.4736 161.319 34.3619C160.75 33.2394 160.511 32.0841 160.6 30.896C160.689 29.7079 161.134 28.564 161.934 27.4642L166.958 20.558L170.014 22.7816L165.097 29.5422Z" fill="white"/>
<path d="M180.561 39.6576L184.403 43.7594C184.886 44.2752 185.386 44.5745 185.902 44.6574C186.428 44.7312 186.905 44.5676 187.333 44.1665C187.761 43.7655 187.951 43.3047 187.902 42.7843C187.862 42.2548 187.601 41.7321 187.118 41.2164L182.907 36.7205L185.427 36.6897L175.223 46.2466L172.639 43.4878L183.587 33.2336L189.562 39.6125C190.328 40.4299 190.851 41.2819 191.134 42.1684C191.416 43.0549 191.459 43.91 191.262 44.7337C191.065 45.5574 190.622 46.2928 189.931 46.94C189.249 47.578 188.491 47.9683 187.657 48.1107C186.822 48.2532 185.971 48.1547 185.105 47.815C184.239 47.4754 183.423 46.8969 182.657 46.0794L178.474 41.6128L180.561 39.6576ZM181.208 42.3673L184.12 45.4764L182.77 54.3041L179.776 51.1074L181.208 42.3673Z" fill="white"/>
<path d="M191.098 61.0395L193.777 59.5614L198.781 68.6328L196.102 70.1108L191.098 61.0395ZM205.316 62.0127L195.525 75.3171L193.583 71.7972L202.464 60.114L203.025 61.1297L188.415 62.4281L186.463 58.8906L202.949 57.7222L205.316 62.0127Z" fill="white"/>
<path d="M209.353 70.6429L210.708 74.1719L196.704 79.5467L195.349 76.0177L209.353 70.6429Z" fill="white"/>
<path d="M217.212 100.336L202.488 103.203L201.8 99.6691L215.228 97.0547L215.337 97.93L200.802 94.5454L200.065 90.7565L212.229 82.1736L212.475 83.0221L199.067 85.6327L198.379 82.0991L213.103 79.2324L214.215 84.9451L202.426 93.0475L202.136 91.5555L216.099 94.6234L217.212 100.336Z" fill="white"/>
</svg>
